<?xml version="1.0" encoding="utf-8" ?><svg version="1.1" xmlns = 'http://www.w3.org/2000/svg'><defs><font id='web' horiz-adv-x="1000">
<font-face font-family="web" descent="-367" cap-height="1518" units-per-em="2048" bbox="-203,-766,3760,2220" x-height="1174" ascent="1638" />
<missing-glyph horiz-adv-x="1024" d="M 0 1434 L 1024 1434 L 1024 0 L 0 0 L 0 1434 Z M 102 102 L 922 102 L 922 1331 L 102 1331 L 102 102 Z" /><glyph horiz-adv-x="420" d="" unicode=" " />
<glyph horiz-adv-x="868" d="M 203 432 L 662 432 L 662 0 L 203 0 L 203 432 Z M 211 1518 L 655 1518 L 614 510 L 250 510 L 211 1518 Z" unicode="!" />
<glyph horiz-adv-x="1288" d="M 162 1518 L 584 1518 L 561 752 L 184 752 L 162 1518 Z M 702 1518 L 1126 1518 L 1102 752 L 727 752 L 702 1518 Z" unicode="&#x22;" />
<glyph horiz-adv-x="1712" d="M 315 315 L 104 315 L 104 668 L 383 668 L 401 774 L 104 774 L 104 1126 L 469 1126 L 545 1518 L 932 1518 L 856 1126 L 993 1126 L 1067 1518 L 1454 1518 L 1380 1126 L 1608 1126 L 1608 774 L 1313 774 L 1294 668 L 1608 668 L 1608 315 L 1227 315 L 1165 0 L 778 0 L 840 315 L 702 315 L 643 0 L 256 0 L 315 315 Z M 934 645 L 963 797 L 762 797 L 733 645 L 934 645 Z" unicode="#" />
<glyph horiz-adv-x="1430" d="M 530 1669 L 903 1669 L 903 1511 C 975 1503 1041 1490 1101 1472 C 1160 1454 1220 1429 1282 1395 L 1110 1096 C 1067 1121 1008 1142 933 1160 C 857 1177 786 1186 719 1186 C 640 1186 583 1177 548 1161 C 513 1144 496 1114 496 1071 C 496 1039 503 1015 519 998 C 534 980 559 966 593 956 C 627 946 704 934 823 920 C 943 903 1033 884 1093 863 C 1152 841 1200 814 1237 780 C 1273 746 1301 704 1320 656 C 1338 607 1348 549 1348 483 C 1348 347 1311 241 1237 164 C 1163 86 1052 36 903 13 L 903 -193 L 530 -193 L 530 9 C 507 9 461 16 391 30 C 321 44 256 63 195 86 C 134 109 80 137 33 170 L 203 451 C 350 363 511 319 686 319 C 753 319 806 323 846 332 C 886 340 915 354 934 372 C 953 390 963 417 963 453 C 963 485 955 509 940 526 C 924 543 898 557 861 567 C 824 577 759 588 666 598 C 534 613 436 632 373 655 C 309 677 259 706 221 741 C 183 776 154 819 135 869 C 115 919 106 979 106 1047 C 106 1183 140 1288 209 1364 C 277 1439 384 1487 530 1507 L 530 1669 Z" unicode="$" />
<glyph horiz-adv-x="2697" d="M 580 514 C 412 514 282 558 190 647 C 98 735 53 863 53 1030 C 53 1193 99 1319 191 1408 C 283 1497 412 1542 580 1542 C 744 1542 872 1497 963 1407 C 1054 1317 1100 1192 1100 1030 C 1100 864 1054 737 963 648 C 871 558 744 514 580 514 Z M 580 815 C 638 815 679 833 703 870 C 727 907 739 960 739 1030 C 739 1096 726 1146 702 1181 C 678 1215 637 1233 580 1233 C 521 1233 479 1215 453 1181 C 427 1147 414 1096 414 1030 C 414 960 426 907 452 870 C 478 833 520 815 580 815 Z M 2122 -18 C 1954 -18 1825 26 1734 116 C 1642 206 1597 334 1597 500 C 1597 662 1642 787 1734 877 C 1826 967 1955 1012 2122 1012 C 2287 1012 2415 966 2507 876 C 2598 786 2644 660 2644 500 C 2644 336 2598 208 2508 118 C 2417 27 2288 -18 2122 -18 Z M 2122 283 C 2180 283 2221 301 2246 338 C 2271 374 2284 428 2284 500 C 2284 564 2271 614 2246 648 C 2220 682 2179 700 2122 700 C 2064 700 2022 683 1996 649 C 1970 615 1958 566 1958 500 C 1958 428 1970 374 1996 338 C 2021 301 2063 283 2122 283 Z M 1585 1520 L 1960 1520 L 1110 0 L 735 0 L 1585 1520 Z" unicode="%" />
<glyph horiz-adv-x="1798" d="M 692 -18 C 536 -18 414 -2 325 28 C 236 59 170 108 126 174 C 82 240 61 328 61 438 C 61 533 85 614 133 681 C 181 748 260 805 368 853 C 324 942 303 1026 303 1106 C 303 1245 344 1352 428 1428 C 511 1504 630 1542 784 1542 C 1084 1542 1235 1396 1235 1106 C 1235 931 1132 802 928 719 C 996 651 1060 593 1122 545 C 1167 628 1217 761 1272 944 L 1612 864 C 1554 654 1491 491 1425 375 C 1485 355 1556 346 1640 346 L 1653 346 L 1653 0 L 1624 0 C 1522 0 1438 6 1370 19 C 1302 32 1232 55 1158 89 C 1088 49 1016 22 941 6 C 865 -10 782 -18 692 -18 Z M 557 585 L 555 583 C 491 545 459 498 459 442 C 459 402 466 373 481 355 C 496 337 520 323 554 313 C 587 303 633 299 692 299 C 745 299 793 304 836 314 C 719 417 626 507 557 585 Z M 885 1106 C 885 1140 878 1165 864 1183 C 850 1201 824 1210 784 1210 C 744 1210 718 1201 705 1183 C 692 1165 686 1140 686 1106 C 686 1063 702 1014 734 960 C 788 982 826 1004 850 1028 C 873 1051 885 1077 885 1106 Z" unicode="&#x26;" />
<glyph horiz-adv-x="748" d="M 162 1520 L 584 1520 L 561 754 L 184 754 L 162 1520 Z" unicode="'" />
<glyph horiz-adv-x="1114" d="M 610 -401 C 528 -331 455 -244 392 -138 C 328 -32 279 85 243 215 C 207 345 190 481 190 623 C 190 749 208 878 244 1009 C 280 1139 331 1263 397 1380 C 463 1496 534 1587 610 1651 L 905 1466 C 829 1374 770 1287 730 1207 C 690 1127 659 1039 638 945 C 616 851 606 745 606 627 C 606 464 631 310 681 165 C 731 20 805 -107 905 -217 L 610 -401 Z" unicode="(" />
<glyph horiz-adv-x="1114" d="M 211 -217 C 285 -127 341 -42 381 37 C 421 117 451 206 473 302 C 495 398 506 505 506 623 C 506 788 480 944 429 1090 C 378 1236 305 1362 211 1466 L 502 1651 C 586 1579 659 1490 723 1384 C 786 1278 835 1161 871 1033 C 906 905 924 769 924 627 C 924 501 906 372 870 242 C 834 111 783 -12 716 -129 C 649 -245 578 -336 502 -401 L 211 -217 Z" unicode=")" />
<glyph horiz-adv-x="1284" d="M 520 756 L 262 571 L 102 860 L 395 983 L 102 1110 L 260 1397 L 520 1210 L 483 1520 L 797 1520 L 760 1206 L 1022 1397 L 1182 1112 L 885 983 L 1182 858 L 1024 575 L 760 760 L 795 449 L 483 449 L 520 756 Z" unicode="*" />
<glyph horiz-adv-x="1507" d="M 553 541 L 176 541 L 176 903 L 553 903 L 553 1276 L 956 1276 L 956 903 L 1331 903 L 1331 541 L 956 541 L 956 164 L 553 164 L 553 541 Z" unicode="+" />
<glyph horiz-adv-x="657" d="M 119 -166 C 195 -130 242 -106 261 -94 C 280 -82 293 -69 300 -57 C 307 -45 311 -26 311 0 L 98 0 L 98 442 L 557 442 L 557 133 C 557 22 548 -58 530 -110 C 512 -162 481 -206 435 -242 C 389 -278 315 -317 213 -360 L 119 -166 Z" unicode="," />
<glyph horiz-adv-x="842" d="M 66 874 L 776 874 L 776 514 L 66 514 L 66 874 Z" unicode="-" />
<glyph horiz-adv-x="657" d="M 98 442 L 557 442 L 557 0 L 98 0 L 98 442 Z" unicode="." />
<glyph horiz-adv-x="1260" d="M 848 1518 L 1260 1518 L 412 0 L 0 0 L 848 1518 Z" unicode="/" />
<glyph horiz-adv-x="1626" d="M 815 -23 C 569 -23 390 40 278 166 C 165 292 109 490 109 760 C 109 1030 165 1227 278 1353 C 391 1479 570 1542 815 1542 C 1056 1542 1233 1478 1347 1352 C 1461 1226 1518 1028 1518 760 C 1518 492 1461 294 1348 167 C 1235 40 1057 -23 815 -23 Z M 815 330 C 915 330 988 362 1032 426 C 1076 490 1098 601 1098 760 C 1098 865 1088 947 1070 1006 C 1052 1064 1022 1107 981 1134 C 940 1160 885 1174 815 1174 C 711 1174 637 1143 593 1082 C 549 1020 528 913 528 760 C 528 602 550 491 595 427 C 640 362 713 330 815 330 Z" unicode="0" />
<glyph horiz-adv-x="895" d="M 299 1153 L 57 1153 L 57 1518 L 698 1518 L 698 0 L 299 0 L 299 1153 Z" unicode="1" />
<glyph horiz-adv-x="1378" d="M 63 315 L 551 700 C 687 808 772 882 805 922 C 837 962 854 1003 854 1047 C 854 1087 847 1117 833 1135 C 819 1153 796 1166 764 1175 C 732 1183 686 1188 627 1188 C 563 1188 490 1178 410 1160 C 329 1142 264 1119 215 1092 L 31 1403 C 135 1457 232 1493 323 1513 C 414 1532 530 1542 670 1542 C 876 1542 1026 1505 1118 1431 C 1210 1357 1257 1241 1257 1085 C 1257 988 1230 899 1176 817 C 1122 735 1020 637 870 522 L 625 336 L 1270 336 L 1270 0 L 63 0 L 63 315 Z" unicode="2" />
<glyph horiz-adv-x="1378" d="M 670 -25 C 521 -25 395 -11 291 16 C 187 43 88 88 -8 152 L 180 457 C 272 403 355 366 429 344 C 503 322 576 311 649 311 C 744 311 809 323 844 347 C 879 371 897 416 897 481 C 897 543 879 585 843 607 C 807 629 738 641 635 641 L 342 641 L 342 958 L 631 958 C 719 958 778 966 808 984 C 838 1001 854 1033 854 1079 C 854 1113 847 1137 835 1153 C 823 1169 802 1180 772 1186 C 742 1192 698 1196 639 1196 C 569 1196 496 1186 419 1167 C 342 1148 280 1124 233 1094 L 27 1391 C 102 1437 197 1474 312 1501 C 427 1528 550 1542 680 1542 C 882 1542 1028 1512 1118 1453 C 1208 1393 1253 1299 1253 1171 C 1253 1073 1240 997 1214 944 C 1188 891 1143 851 1079 825 C 1158 801 1214 759 1246 699 C 1278 639 1294 554 1294 444 C 1294 334 1271 245 1225 176 C 1179 107 1113 56 1026 24 C 939 -8 820 -25 670 -25 Z" unicode="3" />
<glyph horiz-adv-x="1468" d="M 49 573 L 709 1518 L 1141 1518 L 494 596 L 837 596 L 922 993 L 1204 993 L 1204 596 L 1423 596 L 1423 274 L 1204 274 L 1204 0 L 831 0 L 831 274 L 49 274 L 49 573 Z" unicode="4" />
<glyph horiz-adv-x="1413" d="M 705 -23 C 445 -23 226 36 49 154 L 238 459 C 336 403 419 365 488 344 C 557 323 625 313 692 313 C 771 313 826 319 857 331 C 888 343 912 362 929 388 C 945 414 954 452 954 502 C 954 550 945 587 929 615 C 912 643 888 663 857 675 C 825 687 772 694 696 694 C 599 694 519 679 455 651 L 117 752 L 158 1518 L 1239 1518 L 1239 1171 L 500 1171 L 489 973 C 561 1008 665 1026 801 1026 C 918 1026 1010 1016 1077 996 C 1144 976 1198 946 1238 906 C 1278 866 1309 814 1330 750 C 1351 685 1362 607 1362 516 C 1362 387 1341 283 1299 204 C 1257 125 1190 67 1100 31 C 1010 -4 878 -23 705 -23 Z" unicode="5" />
<glyph horiz-adv-x="1534" d="M 805 -23 C 565 -23 387 33 272 145 C 157 257 100 434 100 678 C 100 857 116 997 149 1099 C 181 1201 233 1282 304 1342 C 374 1402 470 1447 592 1475 C 714 1503 873 1518 1071 1518 L 1253 1518 L 1253 1171 L 1059 1171 C 964 1171 884 1167 820 1159 C 756 1151 703 1140 662 1126 C 621 1112 590 1095 568 1077 C 546 1058 531 1038 521 1017 C 511 995 506 973 504 950 C 502 927 501 905 500 883 C 534 933 587 970 659 992 C 731 1014 827 1026 946 1026 C 1126 1026 1256 987 1338 910 C 1419 832 1460 704 1460 524 C 1460 334 1406 196 1298 108 C 1190 20 1025 -23 805 -23 Z M 807 307 C 871 307 921 313 958 326 C 995 338 1022 358 1039 384 C 1056 410 1065 452 1065 510 C 1065 584 1044 636 1004 667 C 963 697 899 713 811 713 C 709 713 636 696 591 663 C 546 630 524 579 524 510 C 524 440 546 389 591 356 C 635 323 707 307 807 307 Z" unicode="6" />
<glyph horiz-adv-x="1264" d="M 758 1171 L 10 1171 L 10 1518 L 1204 1518 L 1204 1225 L 682 0 L 254 0 L 758 1171 Z" unicode="7" />
<glyph horiz-adv-x="1561" d="M 778 -37 C 550 -37 377 3 260 84 C 142 164 84 280 84 430 C 84 540 103 627 143 691 C 183 755 241 801 319 829 C 273 849 237 873 211 901 C 185 928 165 959 153 995 C 141 1030 135 1080 135 1145 C 135 1409 349 1542 778 1542 C 994 1542 1155 1509 1262 1444 C 1369 1378 1423 1279 1423 1145 C 1423 1079 1416 1028 1404 992 C 1392 956 1372 925 1346 898 C 1319 870 1283 847 1237 829 C 1317 801 1377 757 1417 696 C 1457 635 1477 546 1477 430 C 1477 277 1416 161 1296 82 C 1175 2 1002 -37 778 -37 Z M 778 268 C 874 268 946 283 994 315 C 1041 347 1065 396 1065 463 C 1065 530 1041 579 995 611 C 948 643 876 659 778 659 C 680 659 608 643 563 611 C 518 579 496 530 496 463 C 496 395 519 346 565 315 C 611 283 682 268 778 268 Z M 778 936 C 862 936 924 947 966 971 C 1007 995 1028 1034 1028 1090 C 1028 1142 1007 1179 967 1201 C 926 1223 863 1235 778 1235 C 693 1235 630 1224 590 1202 C 550 1180 530 1142 530 1090 C 530 1034 550 994 591 971 C 632 947 694 936 778 936 Z" unicode="8" />
<glyph horiz-adv-x="1534" d="M 305 336 L 502 336 C 598 336 679 340 744 348 C 808 356 861 368 902 382 C 943 396 974 412 995 431 C 1016 450 1031 470 1041 492 C 1050 514 1055 536 1057 559 C 1058 582 1059 605 1061 627 C 1027 577 974 540 902 517 C 829 494 733 483 614 483 C 440 483 310 523 226 603 C 142 683 100 811 100 987 C 100 1177 154 1317 262 1407 C 370 1497 534 1542 756 1542 C 996 1542 1174 1485 1288 1373 C 1402 1261 1460 1084 1460 842 C 1460 662 1443 520 1411 418 C 1378 316 1326 235 1255 175 C 1183 115 1086 70 962 42 C 838 14 680 0 489 0 L 305 0 L 305 336 Z M 750 788 C 850 788 923 804 968 837 C 1013 870 1036 921 1036 991 C 1036 1061 1013 1112 969 1145 C 925 1177 853 1194 754 1194 C 689 1194 638 1187 601 1175 C 564 1162 537 1142 521 1116 C 504 1089 496 1047 496 991 C 496 918 516 866 556 835 C 596 803 660 788 750 788 Z" unicode="9" />
<glyph horiz-adv-x="698" d="M 119 428 L 578 428 L 578 0 L 119 0 L 119 428 Z M 119 1174 L 578 1174 L 578 748 L 119 748 L 119 1174 Z" unicode=":" />
<glyph horiz-adv-x="698" d="M 139 -166 C 215 -130 263 -105 282 -93 C 300 -81 313 -68 321 -56 C 328 -43 332 -24 332 0 L 119 0 L 119 428 L 578 428 L 578 133 C 578 27 567 -51 546 -104 C 525 -156 490 -203 441 -243 C 391 -283 322 -322 233 -360 L 139 -166 Z M 119 1174 L 578 1174 L 578 748 L 119 748 L 119 1174 Z" unicode=";" />
<glyph horiz-adv-x="1507" d="M 236 573 L 236 846 L 1194 1319 L 1194 952 L 662 711 L 1194 469 L 1194 98 L 236 573 Z" unicode="&#x3C;" />
<glyph horiz-adv-x="1507" d="M 188 639 L 1319 639 L 1319 279 L 188 279 L 188 639 Z M 188 1163 L 1319 1163 L 1319 805 L 188 805 L 188 1163 Z" unicode="=" />
<glyph horiz-adv-x="1507" d="M 313 467 L 848 707 L 313 950 L 313 1319 L 1274 844 L 1274 569 L 313 98 L 313 467 Z" unicode="&#x3E;" />
<glyph horiz-adv-x="1477" d="M 500 459 C 490 514 486 562 486 604 C 486 682 504 743 542 789 C 580 835 653 878 762 918 C 820 940 861 957 885 971 C 909 984 925 998 935 1013 C 945 1027 950 1049 950 1077 C 950 1106 943 1127 929 1141 C 915 1155 892 1165 860 1172 C 828 1178 785 1182 731 1182 C 582 1180 439 1147 303 1083 L 133 1419 C 210 1456 306 1486 421 1508 C 536 1530 650 1542 764 1542 C 975 1542 1128 1507 1224 1439 C 1320 1371 1368 1263 1368 1116 C 1368 1012 1347 930 1306 870 C 1264 809 1191 759 1087 721 C 1019 694 975 674 953 661 C 931 648 915 633 906 616 C 896 598 891 573 891 541 L 895 459 L 500 459 Z M 467 381 L 926 381 L 926 0 L 467 0 L 467 381 Z" unicode="?" />
<glyph horiz-adv-x="2154" d="M 1120 -338 C 877 -338 683 -304 539 -238 C 394 -171 288 -69 220 68 C 152 205 119 380 119 594 C 119 1227 437 1544 1073 1544 C 1295 1544 1477 1508 1619 1436 C 1761 1364 1866 1258 1934 1118 C 2002 977 2036 803 2036 596 C 2036 449 2023 338 1998 264 C 1972 189 1930 135 1872 103 C 1813 71 1725 55 1608 55 C 1516 55 1443 65 1391 85 C 1339 105 1304 138 1286 184 C 1254 144 1209 115 1152 99 C 1095 82 1022 74 934 74 C 788 74 678 116 604 202 C 530 288 494 423 494 608 C 494 788 532 922 610 1009 C 687 1095 802 1139 954 1139 C 1042 1139 1110 1132 1160 1119 C 1209 1106 1249 1083 1280 1049 L 1350 1118 L 1585 1096 L 1585 381 C 1586 329 1595 295 1612 277 C 1629 259 1658 250 1698 250 C 1733 250 1759 257 1776 271 C 1793 285 1805 310 1812 346 C 1819 381 1823 464 1823 596 C 1823 770 1796 911 1743 1020 C 1690 1129 1610 1209 1504 1261 C 1397 1313 1253 1339 1073 1339 C 818 1339 631 1278 511 1156 C 391 1034 332 846 332 594 C 332 425 360 287 416 180 C 472 72 556 -6 668 -57 C 780 -107 930 -133 1118 -133 C 1205 -133 1296 -123 1392 -103 C 1487 -83 1570 -57 1642 -23 L 1731 -207 C 1647 -248 1553 -280 1449 -303 C 1344 -326 1234 -338 1120 -338 Z M 1028 375 C 1096 375 1147 393 1180 430 C 1212 467 1229 526 1229 608 C 1229 689 1213 744 1183 774 C 1153 804 1101 819 1028 819 C 968 819 924 802 896 770 C 868 738 854 684 854 608 C 854 527 868 468 897 431 C 926 393 970 375 1028 375 Z" unicode="@" />
<glyph horiz-adv-x="1681" d="M 623 1528 L 1055 1528 L 1667 0 L 1227 0 L 1151 197 L 504 197 L 428 0 L 14 0 L 623 1528 Z M 1016 545 L 827 1028 L 639 545 L 1016 545 Z" unicode="A" />
<glyph horiz-adv-x="1599" d="M 139 1518 L 866 1518 C 1090 1518 1249 1486 1345 1424 C 1441 1362 1489 1258 1489 1114 C 1489 1025 1473 954 1442 902 C 1410 850 1362 811 1298 786 C 1380 766 1440 728 1476 673 C 1512 618 1530 532 1530 416 C 1530 313 1508 232 1465 172 C 1422 112 1356 68 1266 41 C 1176 13 1043 0 866 0 L 139 0 L 139 1518 Z M 920 326 C 985 326 1031 336 1059 358 C 1086 380 1100 414 1100 461 C 1100 508 1086 542 1059 564 C 1031 585 985 596 920 596 L 555 596 L 555 326 L 920 326 Z M 881 920 C 942 920 987 929 1016 948 C 1044 967 1059 1001 1059 1049 C 1059 1096 1044 1129 1016 1149 C 988 1168 943 1178 881 1178 L 555 1178 L 555 920 L 881 920 Z" unicode="B" />
<glyph horiz-adv-x="1593" d="M 856 -23 C 582 -23 380 39 252 163 C 123 287 59 486 59 760 C 59 1281 333 1542 883 1542 C 1025 1542 1146 1523 1244 1487 C 1342 1451 1431 1391 1511 1307 L 1219 1014 C 1165 1068 1112 1104 1061 1124 C 1009 1143 949 1153 881 1153 C 745 1153 646 1121 582 1058 C 518 994 487 893 487 754 C 487 654 500 577 527 522 C 553 466 595 425 653 397 C 710 369 787 356 883 356 C 933 356 977 360 1017 370 C 1056 380 1092 394 1125 413 C 1157 431 1197 462 1243 506 L 1522 233 C 1433 139 1336 72 1232 34 C 1128 -3 1002 -23 856 -23 Z" unicode="C" />
<glyph horiz-adv-x="1645" d="M 139 1518 L 709 1518 C 944 1518 1122 1493 1243 1445 C 1363 1396 1451 1317 1505 1209 C 1559 1100 1587 950 1587 760 C 1587 569 1559 419 1503 310 C 1447 201 1359 122 1238 73 C 1116 24 940 0 709 0 L 139 0 L 139 1518 Z M 733 369 C 847 369 934 379 994 400 C 1054 421 1096 456 1121 504 C 1146 552 1159 638 1159 760 C 1159 857 1152 927 1138 970 C 1124 1012 1102 1045 1071 1069 C 1040 1092 996 1109 940 1120 C 884 1131 808 1137 713 1137 L 563 1137 L 563 369 L 733 369 Z" unicode="D" />
<glyph horiz-adv-x="1458" d="M 139 1518 L 1348 1518 L 1348 1135 L 563 1135 L 563 950 L 1327 950 L 1327 580 L 563 580 L 563 367 L 1356 367 L 1356 0 L 139 0 L 139 1518 Z" unicode="E" />
<glyph horiz-adv-x="1389" d="M 139 1518 L 1307 1518 L 1307 1135 L 563 1135 L 563 909 L 1286 909 L 1286 532 L 563 532 L 563 0 L 139 0 L 139 1518 Z" unicode="F" />
<glyph horiz-adv-x="1659" d="M 850 -23 C 658 -23 505 3 390 55 C 274 107 190 188 138 297 C 85 406 59 560 59 760 C 59 1022 126 1217 262 1347 C 397 1477 603 1542 881 1542 C 1023 1542 1148 1523 1255 1487 C 1361 1450 1452 1392 1528 1313 L 1235 1020 C 1183 1072 1129 1107 1074 1125 C 1019 1143 954 1153 879 1153 C 742 1153 642 1122 578 1060 C 514 998 483 897 483 756 C 483 637 495 550 519 494 C 543 438 584 398 640 372 C 696 346 774 334 872 334 C 993 334 1078 350 1127 382 C 1175 414 1200 467 1200 539 L 1200 563 L 815 563 L 815 905 L 1610 905 L 1610 623 C 1610 466 1584 341 1533 249 C 1481 156 1401 87 1291 43 C 1181 0 1034 -23 850 -23 Z" unicode="G" />
<glyph horiz-adv-x="1710" d="M 139 1518 L 563 1518 L 563 973 L 1145 973 L 1145 1518 L 1571 1518 L 1571 0 L 1145 0 L 1145 575 L 563 575 L 563 0 L 139 0 L 139 1518 Z" unicode="H" />
<glyph horiz-adv-x="752" d="M 164 1518 L 588 1518 L 588 0 L 164 0 L 164 1518 Z" unicode="I" />
<glyph horiz-adv-x="989" d="M 295 -6 C 179 -6 93 -4 37 0 L 37 367 L 242 367 C 314 367 365 378 393 400 C 421 422 436 463 436 522 L 436 1518 L 860 1518 L 860 506 C 860 386 839 288 799 213 C 758 138 698 83 620 47 C 541 11 433 -6 295 -6 Z" unicode="J" />
<glyph horiz-adv-x="1614" d="M 139 1518 L 557 1518 L 557 921 L 1034 1518 L 1501 1518 L 1003 914 L 1575 0 L 1094 0 L 729 582 L 557 373 L 557 0 L 139 0 L 139 1518 Z" unicode="K" />
<glyph horiz-adv-x="1294" d="M 139 1518 L 563 1518 L 563 367 L 1278 367 L 1278 0 L 139 0 L 139 1518 Z" unicode="L" />
<glyph horiz-adv-x="2071" d="M 139 1518 L 694 1518 L 1034 614 L 1376 1518 L 1929 1518 L 1929 0 L 1516 0 L 1516 881 L 1176 0 L 858 0 L 522 874 L 522 0 L 139 0 L 139 1518 Z" unicode="M" />
<glyph horiz-adv-x="1731" d="M 139 1518 L 594 1518 L 1186 715 L 1186 1518 L 1591 1518 L 1591 0 L 1200 0 L 545 887 L 545 0 L 139 0 L 139 1518 Z" unicode="N" />
<glyph horiz-adv-x="1767" d="M 883 -25 C 605 -25 399 40 263 172 C 127 304 59 500 59 760 C 59 1019 127 1214 263 1345 C 399 1476 606 1542 883 1542 C 1433 1542 1708 1281 1708 760 C 1708 236 1433 -25 883 -25 Z M 883 348 C 1017 348 1116 379 1181 442 C 1245 504 1278 608 1278 752 C 1278 892 1246 994 1182 1058 C 1118 1121 1019 1153 883 1153 C 747 1153 647 1121 583 1058 C 519 994 487 892 487 752 C 487 608 519 505 584 442 C 648 379 748 348 883 348 Z" unicode="O" />
<glyph horiz-adv-x="1612" d="M 139 1518 L 901 1518 C 1053 1518 1177 1498 1273 1460 C 1369 1422 1439 1365 1485 1289 C 1531 1213 1554 1110 1554 981 C 1554 845 1529 736 1480 654 C 1431 572 1357 512 1258 473 C 1158 433 1031 414 877 414 L 553 414 L 553 0 L 139 0 L 139 1518 Z M 895 764 C 980 764 1040 778 1075 807 C 1110 835 1128 886 1128 958 C 1128 1033 1111 1085 1078 1114 C 1044 1142 983 1157 893 1157 L 553 1157 L 553 764 L 895 764 Z" unicode="P" />
<glyph horiz-adv-x="1767" d="M 1133 -424 C 998 -424 894 -412 821 -389 C 748 -366 696 -329 664 -278 C 632 -227 616 -150 616 -48 L 618 20 C 245 86 59 332 59 760 C 59 1019 127 1214 263 1345 C 399 1476 606 1542 883 1542 C 1433 1542 1708 1281 1708 760 C 1708 640 1693 534 1665 444 C 1636 354 1593 277 1536 215 C 1478 153 1405 104 1317 68 C 1229 32 1119 9 988 1 C 988 -33 995 -55 1011 -65 C 1026 -75 1066 -80 1130 -80 L 1343 -80 L 1343 -418 C 1283 -422 1213 -424 1133 -424 Z M 883 348 C 1017 348 1116 379 1181 442 C 1245 504 1278 608 1278 752 C 1278 892 1246 994 1182 1058 C 1118 1121 1019 1153 883 1153 C 747 1153 647 1121 583 1058 C 519 994 487 892 487 752 C 487 608 519 505 584 442 C 648 379 748 348 883 348 Z" unicode="Q" />
<glyph horiz-adv-x="1636" d="M 139 1518 L 909 1518 C 1053 1518 1173 1500 1267 1466 C 1361 1431 1430 1377 1476 1303 C 1521 1229 1544 1126 1544 995 C 1544 863 1519 759 1469 681 C 1419 603 1347 547 1251 511 L 1528 0 L 1073 0 L 828 455 L 553 455 L 553 0 L 139 0 L 139 1518 Z M 895 807 C 981 807 1039 819 1070 843 C 1100 867 1116 913 1116 979 C 1116 1049 1100 1097 1070 1121 C 1039 1145 980 1157 893 1157 L 553 1157 L 553 807 L 895 807 Z" unicode="R" />
<glyph horiz-adv-x="1559" d="M 786 -23 C 622 -23 472 -4 338 34 C 203 72 95 123 14 188 L 227 494 C 303 441 388 400 481 371 C 574 342 672 328 774 328 C 846 328 902 330 943 335 C 983 340 1013 348 1033 359 C 1052 369 1064 382 1068 398 C 1072 413 1075 431 1075 453 C 1075 483 1056 507 1018 523 C 980 539 894 556 760 573 C 574 596 439 626 354 662 C 269 698 207 747 169 809 C 130 871 111 954 111 1057 C 111 1229 162 1353 266 1429 C 370 1504 542 1542 784 1542 C 1064 1542 1284 1490 1444 1386 L 1214 1057 C 1165 1089 1098 1116 1014 1139 C 930 1162 852 1174 780 1174 C 715 1174 665 1171 630 1165 C 594 1159 569 1149 554 1136 C 539 1122 532 1099 532 1067 C 532 1044 539 1026 555 1012 C 571 998 596 986 630 977 C 664 968 743 956 868 940 C 1007 922 1114 902 1189 878 C 1263 854 1322 825 1365 791 C 1408 756 1440 712 1462 660 C 1484 608 1495 545 1495 473 C 1495 352 1470 256 1421 186 C 1372 116 1295 63 1191 29 C 1087 -5 952 -23 786 -23 Z" unicode="S" />
<glyph horiz-adv-x="1464" d="M 520 1135 L 16 1135 L 16 1518 L 1450 1518 L 1450 1135 L 946 1135 L 946 0 L 520 0 L 520 1135 Z" unicode="T" />
<glyph horiz-adv-x="1710" d="M 856 -31 C 739 -31 639 -21 557 -3 C 475 14 406 40 352 72 C 297 104 253 143 221 190 C 188 237 164 290 149 349 C 134 408 127 490 127 596 L 127 1518 L 553 1518 L 553 653 C 553 563 562 499 581 459 C 600 419 631 390 675 372 C 719 353 781 344 862 344 C 942 344 1005 353 1049 371 C 1093 389 1124 419 1143 459 C 1161 499 1171 564 1171 653 L 1171 1518 L 1583 1518 L 1583 596 C 1583 492 1575 410 1560 350 C 1545 290 1521 237 1489 190 C 1457 143 1413 104 1358 72 C 1303 40 1235 14 1153 -3 C 1071 -21 972 -31 856 -31 Z" unicode="U" />
<glyph horiz-adv-x="1661" d="M 14 1518 L 461 1518 L 836 516 L 1208 1518 L 1647 1518 L 1044 -10 L 612 -10 L 14 1518 Z" unicode="V" />
<glyph horiz-adv-x="2216" d="M 23 1518 L 465 1518 L 688 686 L 928 1518 L 1313 1518 L 1554 686 L 1778 1518 L 2193 1518 L 1745 -10 L 1368 -10 L 1108 881 L 848 -10 L 471 -10 L 23 1518 Z" unicode="W" />
<glyph horiz-adv-x="1675" d="M 100 1518 L 580 1518 L 853 1124 L 1106 1518 L 1577 1518 L 1074 806 L 1634 0 L 1153 0 L 819 481 L 510 0 L 39 0 L 599 799 L 100 1518 Z" unicode="X" />
<glyph horiz-adv-x="1620" d="M -4 1518 L 451 1518 L 817 883 L 1184 1518 L 1622 1518 L 1020 501 L 1020 0 L 596 0 L 596 505 L -4 1518 Z" unicode="Y" />
<glyph horiz-adv-x="1446" d="M 51 313 L 825 1135 L 86 1135 L 86 1518 L 1366 1518 L 1366 1171 L 606 367 L 1389 367 L 1389 0 L 51 0 L 51 313 Z" unicode="Z" />
<glyph horiz-adv-x="1114" d="M 209 1589 L 950 1589 L 950 1241 L 621 1241 L 621 0 L 956 0 L 956 -338 L 209 -338 L 209 1589 Z" unicode="[" />
<glyph horiz-adv-x="1260" d="M 0 1518 L 412 1518 L 1260 0 L 848 0 L 0 1518 Z" unicode="\" />
<glyph horiz-adv-x="1114" d="M 156 0 L 492 0 L 492 1241 L 164 1241 L 164 1589 L 903 1589 L 903 -338 L 156 -338 L 156 0 Z" unicode="]" />
<glyph horiz-adv-x="1208" d="M 397 1482 L 811 1482 L 1130 1076 L 756 1076 L 600 1230 L 444 1076 L 78 1076 L 397 1482 Z" unicode="^" />
<glyph horiz-adv-x="928" d="M -76 -61 L 1004 -61 L 1004 -360 L -76 -360 L -76 -61 Z" unicode="_" />
<glyph horiz-adv-x="1208" d="M 78 1686 L 563 1686 L 842 1280 L 487 1280 L 78 1686 Z" unicode="`" />
<glyph horiz-adv-x="1348" d="M 487 -18 C 379 -18 291 -4 225 21 C 158 47 109 86 78 138 C 46 190 31 261 31 352 C 31 452 53 530 99 587 C 144 643 215 684 313 710 C 411 735 563 748 770 748 L 807 748 C 805 779 798 800 786 812 C 774 823 755 831 729 837 C 703 843 665 846 616 846 C 558 846 500 837 442 821 C 383 805 330 782 283 752 L 80 1049 C 146 1093 233 1129 342 1157 C 450 1185 557 1200 662 1200 C 800 1200 906 1186 982 1158 C 1058 1130 1112 1084 1146 1022 C 1179 960 1196 865 1196 737 L 1196 424 C 1196 382 1201 357 1212 348 C 1223 338 1248 334 1288 334 L 1288 4 C 1260 -2 1202 -6 1116 -6 C 1045 -6 993 2 959 19 C 925 35 898 62 877 100 C 847 64 800 35 736 14 C 671 -7 588 -18 487 -18 Z M 416 387 C 416 357 427 337 450 325 C 472 313 513 307 571 307 C 652 307 712 319 750 343 C 788 367 807 408 807 465 L 807 504 L 797 504 C 720 504 658 502 611 499 C 563 496 525 491 497 484 C 468 477 447 467 435 455 C 422 442 416 419 416 387 Z" unicode="a" />
<glyph horiz-adv-x="1432" d="M 844 -18 C 659 -18 531 17 461 88 L 381 -14 L 113 14 L 113 1589 L 516 1589 L 516 1110 C 582 1170 700 1200 868 1200 C 1037 1200 1164 1150 1248 1052 C 1332 953 1374 799 1374 590 C 1374 386 1330 233 1243 133 C 1156 32 1023 -18 844 -18 Z M 762 324 C 810 324 848 332 878 350 C 907 368 928 394 942 428 C 956 462 963 510 963 573 C 963 640 956 691 942 725 C 928 759 907 786 878 804 C 849 822 810 831 762 831 C 677 831 615 811 576 771 C 537 731 518 665 518 573 C 518 506 526 456 542 423 C 558 389 583 364 619 348 C 655 332 702 324 762 324 Z" unicode="b" />
<glyph horiz-adv-x="1227" d="M 678 -18 C 540 -18 425 2 333 44 C 241 86 172 150 126 238 C 80 326 57 443 57 590 C 57 739 81 858 129 946 C 177 1034 248 1098 344 1139 C 439 1179 557 1200 698 1200 C 918 1200 1085 1132 1200 997 L 915 729 C 877 769 841 795 809 809 C 777 822 739 829 696 829 C 616 829 557 810 521 774 C 485 737 467 672 467 578 C 467 482 485 416 522 379 C 559 342 618 324 700 324 C 748 324 790 331 825 347 C 859 362 898 390 940 430 L 1198 184 C 1114 105 1035 52 961 24 C 887 -4 792 -18 678 -18 Z" unicode="c" />
<glyph horiz-adv-x="1432" d="M 569 -23 C 227 -23 57 182 57 594 C 57 998 232 1200 584 1200 C 734 1200 843 1170 911 1110 L 911 1589 L 1319 1589 L 1319 14 L 1008 -14 L 967 92 C 883 15 751 -23 569 -23 Z M 670 326 C 750 326 811 346 851 387 C 891 428 911 497 911 594 C 911 660 903 710 888 742 C 872 774 847 797 812 813 C 777 828 730 836 670 836 C 622 836 583 827 554 811 C 524 794 503 770 489 738 C 475 706 469 658 469 594 C 469 525 475 473 489 437 C 503 401 524 374 554 355 C 583 335 622 326 670 326 Z" unicode="d" />
<glyph horiz-adv-x="1294" d="M 692 -23 C 475 -23 315 25 212 123 C 108 220 57 376 57 590 C 57 735 80 852 128 940 C 175 1028 246 1094 340 1136 C 434 1178 551 1200 692 1200 C 874 1200 1008 1157 1096 1072 C 1184 986 1230 845 1236 649 L 1237 560 L 1235 449 L 450 449 C 461 398 486 361 524 338 C 562 314 618 303 692 303 C 768 303 835 311 894 327 C 953 343 1007 370 1055 406 L 1257 145 C 1179 84 1097 41 1011 15 C 925 -10 818 -23 692 -23 Z M 866 688 C 863 738 855 775 843 797 C 831 819 812 835 786 847 C 760 858 725 864 680 864 C 608 864 553 850 516 824 C 479 798 456 756 448 698 L 446 688 L 866 688 Z" unicode="e" />
<glyph horiz-adv-x="971" d="M 45 1174 L 266 1174 L 266 1196 C 266 1306 282 1393 316 1455 C 349 1517 401 1563 472 1593 C 542 1623 638 1638 758 1638 C 826 1638 871 1637 894 1635 L 926 1632 L 926 1303 L 813 1303 C 757 1303 720 1295 701 1281 C 681 1266 672 1238 672 1198 L 672 1174 L 926 1174 L 926 829 L 672 829 L 672 0 L 266 0 L 266 829 L 45 829 L 45 1174 Z" unicode="f" />
<glyph horiz-adv-x="1393" d="M 666 432 C 622 432 580 433 541 436 L 539 414 C 539 396 543 384 553 378 C 563 372 580 367 605 365 C 630 363 663 362 705 362 C 875 362 1004 352 1092 333 C 1180 313 1242 281 1278 237 C 1314 193 1333 124 1333 31 C 1333 -108 1281 -209 1177 -272 C 1073 -335 902 -367 664 -367 C 472 -367 335 -358 252 -342 C 169 -325 110 -297 74 -257 C 38 -217 20 -160 20 -84 C 20 -17 41 37 83 81 C 125 124 184 154 258 172 C 204 216 178 274 178 348 C 178 413 198 468 239 513 C 185 545 146 585 122 632 C 98 678 86 735 86 801 C 86 936 133 1036 229 1102 C 325 1167 470 1200 666 1200 L 702 1200 L 1286 1333 L 1286 1028 L 1131 1028 L 1148 1018 C 1215 976 1249 904 1249 801 C 1249 673 1203 579 1111 520 C 1019 461 871 432 666 432 Z M 680 -111 C 764 -111 825 -103 862 -87 C 899 -71 918 -42 918 -2 C 918 32 900 54 865 66 C 830 78 768 84 680 84 C 610 84 558 81 524 77 C 490 72 465 64 451 52 C 437 40 430 20 430 -10 C 430 -39 438 -60 454 -73 C 470 -86 496 -96 534 -102 C 571 -108 620 -111 680 -111 Z M 666 659 C 732 659 779 667 807 684 C 835 700 850 732 850 778 C 850 810 844 834 833 850 C 821 866 802 877 775 885 C 748 893 712 897 666 897 C 600 897 553 888 525 871 C 497 854 483 823 483 778 C 483 734 496 703 524 685 C 551 667 598 659 666 659 Z" unicode="g" />
<glyph horiz-adv-x="1407" d="M 113 1589 L 516 1589 L 516 1110 C 550 1138 599 1160 663 1176 C 727 1192 800 1200 881 1200 C 981 1200 1061 1183 1122 1149 C 1183 1115 1228 1064 1257 996 C 1285 928 1300 832 1300 709 L 1300 0 L 895 0 L 895 625 C 895 680 889 720 879 744 C 868 768 850 787 826 800 C 802 812 769 819 729 819 C 676 819 634 812 604 799 C 574 786 552 766 538 740 C 524 713 518 672 518 618 L 518 0 L 113 0 L 113 1589 Z" unicode="h" />
<glyph horiz-adv-x="657" d="M 125 1174 L 530 1174 L 530 0 L 125 0 L 125 1174 Z M 123 1589 L 532 1589 L 532 1260 L 123 1260 L 123 1589 Z" unicode="i" />
<glyph horiz-adv-x="657" d="M 8 -43 L 39 -43 C 65 -43 84 -39 96 -33 C 107 -27 115 -16 119 0 C 123 16 125 46 125 92 L 125 1174 L 530 1174 L 530 94 C 530 -29 517 -121 491 -181 C 465 -241 422 -283 362 -309 C 302 -335 209 -348 84 -348 L 8 -348 L 8 -43 Z M 123 1589 L 532 1589 L 532 1260 L 123 1260 L 123 1589 Z" unicode="j" />
<glyph horiz-adv-x="1305" d="M 113 1589 L 514 1589 L 514 777 L 831 1174 L 1274 1174 L 891 699 L 1305 0 L 854 0 L 618 390 L 514 266 L 514 0 L 113 0 L 113 1589 Z" unicode="k" />
<glyph horiz-adv-x="750" d="M 485 -4 C 394 -4 324 9 274 36 C 224 62 187 104 162 162 C 137 220 125 296 125 391 L 125 1589 L 530 1589 L 530 442 C 530 400 537 372 551 358 C 565 344 593 338 635 338 L 670 338 L 670 4 C 638 -1 576 -4 485 -4 Z" unicode="l" />
<glyph horiz-adv-x="2140" d="M 113 1151 L 428 1176 L 461 1075 C 487 1111 534 1140 601 1164 C 667 1188 756 1200 868 1200 C 933 1200 986 1196 1028 1188 C 1069 1180 1102 1169 1128 1155 C 1153 1141 1178 1114 1204 1075 C 1242 1119 1296 1150 1366 1170 C 1436 1190 1522 1200 1626 1200 C 1724 1200 1803 1183 1863 1150 C 1922 1117 1965 1067 1993 1000 C 2020 933 2034 836 2034 709 L 2034 0 L 1626 0 L 1626 625 C 1626 687 1621 730 1612 752 C 1602 774 1587 790 1566 802 C 1544 813 1514 819 1475 819 C 1424 819 1384 813 1356 801 C 1327 789 1306 770 1294 746 C 1282 721 1276 678 1276 618 L 1276 0 L 870 0 L 870 625 C 870 687 865 729 856 751 C 846 773 831 789 810 801 C 788 813 757 819 717 819 C 666 819 626 813 598 801 C 569 789 548 770 536 746 C 524 721 518 678 518 618 L 518 0 L 113 0 L 113 1151 Z" unicode="m" />
<glyph horiz-adv-x="1407" d="M 113 1151 L 428 1176 L 461 1071 C 540 1157 680 1200 881 1200 C 981 1200 1061 1183 1122 1149 C 1183 1115 1228 1064 1257 996 C 1285 928 1300 832 1300 709 L 1300 0 L 895 0 L 895 625 C 895 680 889 720 879 744 C 868 768 850 787 826 800 C 802 812 769 819 729 819 C 676 819 634 812 604 799 C 574 786 552 766 538 740 C 524 713 518 672 518 618 L 518 0 L 113 0 L 113 1151 Z" unicode="n" />
<glyph horiz-adv-x="1386" d="M 694 -23 C 478 -23 318 27 214 127 C 109 227 57 381 57 590 C 57 798 109 951 214 1051 C 318 1150 478 1200 694 1200 C 910 1200 1069 1150 1173 1051 C 1277 952 1329 798 1329 590 C 1329 380 1277 226 1173 126 C 1069 26 910 -23 694 -23 Z M 694 324 C 773 324 831 343 867 381 C 903 419 922 485 922 578 C 922 670 903 736 867 774 C 830 812 772 831 694 831 C 639 831 595 822 562 804 C 528 786 504 759 489 725 C 474 691 467 642 467 578 C 467 484 485 418 522 380 C 558 342 616 324 694 324 Z" unicode="o" />
<glyph horiz-adv-x="1432" d="M 113 1151 L 428 1176 L 459 1081 C 505 1123 561 1153 628 1172 C 695 1190 776 1200 870 1200 C 1038 1200 1164 1150 1248 1052 C 1332 954 1374 800 1374 590 C 1374 381 1329 227 1241 129 C 1152 31 1020 -18 846 -18 C 690 -18 581 12 518 72 L 518 -338 L 113 -338 L 113 1151 Z M 762 324 C 810 324 848 332 878 350 C 907 368 928 394 942 428 C 956 462 963 510 963 573 C 963 640 956 691 942 725 C 928 759 907 786 878 804 C 849 822 810 831 762 831 C 677 831 615 811 576 771 C 537 731 518 665 518 573 C 518 506 526 456 542 423 C 558 389 583 364 619 348 C 655 332 702 324 762 324 Z" unicode="p" />
<glyph horiz-adv-x="1432" d="M 911 61 C 875 30 829 8 775 -4 C 720 -16 651 -23 569 -23 C 400 -23 272 27 186 127 C 100 227 57 382 57 592 C 57 997 232 1200 584 1200 C 764 1200 893 1165 969 1096 L 1049 1176 L 1319 1151 L 1319 -338 L 911 -338 L 911 61 Z M 670 326 C 750 326 811 346 851 387 C 891 428 911 496 911 592 C 911 659 903 709 888 741 C 872 773 847 797 813 813 C 779 828 731 836 670 836 C 600 836 549 818 517 782 C 485 746 469 682 469 592 C 469 524 476 472 490 436 C 504 400 525 373 555 354 C 584 335 622 326 670 326 Z" unicode="q" />
<glyph horiz-adv-x="874" d="M 113 1151 L 428 1176 L 469 1053 C 496 1090 544 1121 612 1146 C 680 1171 753 1185 829 1188 L 829 797 C 749 796 687 788 643 774 C 598 759 566 736 547 705 C 527 673 518 623 518 555 L 518 0 L 113 0 L 113 1151 Z" unicode="r" />
<glyph horiz-adv-x="1227" d="M 596 -18 C 482 -18 374 -5 272 20 C 169 46 78 85 0 139 L 199 418 C 253 381 320 351 398 328 C 476 304 551 293 621 293 C 667 293 700 294 722 297 C 744 300 759 305 769 312 C 779 319 784 331 784 348 C 784 366 773 379 753 387 C 732 395 690 403 627 410 C 507 419 415 432 351 450 C 287 468 235 492 197 522 C 159 552 130 592 110 640 C 90 688 80 745 80 811 C 80 945 124 1044 212 1106 C 300 1168 438 1200 627 1200 C 733 1200 831 1190 923 1171 C 1014 1152 1091 1125 1155 1090 L 973 791 C 926 813 871 831 807 844 C 743 857 688 864 641 864 C 585 864 545 860 521 854 C 497 847 485 832 485 809 C 485 795 489 785 497 779 C 505 772 521 766 545 761 C 568 756 596 752 629 750 C 747 737 831 725 881 714 C 930 703 973 689 1010 672 C 1046 655 1077 634 1102 608 C 1127 582 1146 550 1160 513 C 1173 475 1180 430 1180 377 C 1180 278 1160 201 1121 145 C 1082 89 1020 47 935 21 C 850 -4 737 -18 596 -18 Z" unicode="s" />
<glyph horiz-adv-x="977" d="M 45 1174 L 254 1174 L 319 1425 L 633 1493 L 633 1174 L 889 1174 L 889 829 L 633 829 L 633 459 C 633 422 637 396 645 381 C 653 366 667 355 687 348 C 706 341 734 338 772 338 L 889 338 L 889 0 C 827 -4 758 -6 684 -6 C 569 -6 479 6 414 32 C 349 58 302 99 273 156 C 243 213 229 293 229 397 L 229 829 L 45 829 L 45 1174 Z" unicode="t" />
<glyph horiz-adv-x="1389" d="M 694 -23 C 542 -23 425 -3 342 35 C 258 73 198 136 161 222 C 124 308 106 428 106 582 L 106 1174 L 512 1174 L 512 573 C 512 496 517 444 529 416 C 540 388 559 367 586 354 C 613 340 650 334 698 334 C 746 334 783 341 809 355 C 835 369 853 389 865 417 C 877 445 883 497 883 573 L 883 1174 L 1282 1174 L 1282 582 C 1282 424 1263 303 1226 218 C 1188 133 1128 72 1045 34 C 961 -4 844 -23 694 -23 Z" unicode="u" />
<glyph horiz-adv-x="1327" d="M -14 1174 L 424 1174 L 676 473 L 930 1174 L 1341 1174 L 874 -12 L 451 -12 L -14 1174 Z" unicode="v" />
<glyph horiz-adv-x="1931" d="M 12 1174 L 440 1174 L 596 573 L 774 1174 L 1176 1174 L 1354 575 L 1509 1174 L 1919 1174 L 1556 -12 L 1167 -12 L 965 637 L 764 -12 L 375 -12 L 12 1174 Z" unicode="w" />
<glyph horiz-adv-x="1288" d="M 35 1174 L 489 1174 L 665 916 L 827 1174 L 1255 1174 L 872 613 L 1292 0 L 838 0 L 622 315 L 422 0 L -6 0 L 417 615 L 35 1174 Z" unicode="x" />
<glyph horiz-adv-x="1253" d="M -14 1174 L 424 1174 L 644 548 L 856 1174 L 1268 1174 L 815 -18 C 781 -110 743 -179 701 -224 C 659 -268 606 -300 541 -320 C 476 -340 390 -350 283 -350 L 158 -346 L 158 -43 L 244 -43 C 295 -43 331 -41 353 -37 C 375 -33 391 -27 402 -19 C 412 -10 421 7 428 33 L -14 1174 Z" unicode="y" />
<glyph horiz-adv-x="1147" d="M 27 268 L 553 829 L 59 829 L 59 1174 L 1102 1174 L 1102 903 L 573 324 L 1124 324 L 1124 0 L 27 0 L 27 268 Z" unicode="z" />
<glyph horiz-adv-x="1190" d="M 721 -338 C 573 -338 464 -313 394 -263 C 324 -213 289 -137 289 -37 C 289 12 305 86 338 184 C 370 282 387 345 387 375 C 387 400 380 418 368 430 C 355 442 334 450 304 454 C 274 458 214 461 125 461 L 125 791 C 219 791 280 793 308 798 C 336 803 357 811 369 823 C 381 835 387 853 387 877 C 387 897 381 925 371 959 C 361 993 350 1029 338 1067 C 326 1105 314 1144 304 1183 C 294 1221 289 1256 289 1288 C 289 1388 324 1464 394 1514 C 464 1564 573 1589 721 1589 L 1032 1589 L 1032 1241 L 821 1241 C 777 1241 748 1236 732 1226 C 716 1216 709 1198 709 1171 C 709 1159 713 1138 722 1110 C 731 1082 741 1050 752 1015 C 762 979 772 943 781 905 C 790 867 795 833 795 803 C 795 758 782 720 756 690 C 730 660 693 639 645 627 C 693 613 730 591 756 561 C 782 531 795 493 795 449 C 795 418 790 383 781 345 C 772 306 762 268 752 232 C 741 195 731 162 722 132 C 713 102 709 82 709 70 C 709 42 717 23 733 14 C 749 4 779 0 821 0 L 1032 0 L 1032 -338 L 721 -338 Z" unicode="{" />
<glyph horiz-adv-x="831" d="M 209 1589 L 621 1589 L 621 -338 L 209 -338 L 209 1589 Z" unicode="|" />
<glyph horiz-adv-x="1190" d="M 158 0 L 369 0 C 412 0 441 4 457 14 C 473 24 481 42 481 70 C 481 82 476 102 467 132 C 458 162 448 195 438 232 C 427 268 417 306 408 345 C 399 383 395 418 395 449 C 395 493 407 530 433 560 C 459 590 496 613 545 627 C 496 639 459 661 433 691 C 407 721 395 758 395 803 C 395 833 399 867 408 905 C 417 943 427 979 438 1015 C 448 1050 458 1082 467 1110 C 476 1138 481 1159 481 1171 C 481 1199 472 1218 455 1227 C 438 1236 409 1241 369 1241 L 158 1241 L 158 1589 L 469 1589 C 616 1589 725 1564 795 1514 C 865 1464 901 1388 901 1288 C 901 1256 895 1221 885 1183 C 875 1144 864 1105 852 1067 C 840 1029 828 993 818 959 C 808 925 803 897 803 877 C 803 851 809 833 822 821 C 834 809 856 801 886 797 C 916 793 975 791 1065 791 L 1065 461 C 971 461 909 458 881 453 C 853 448 833 440 821 428 C 809 416 803 399 803 375 C 803 345 819 282 852 184 C 884 86 901 12 901 -37 C 901 -137 865 -213 795 -263 C 725 -313 616 -338 469 -338 L 158 -338 L 158 0 Z" unicode="}" />
<glyph horiz-adv-x="1208" d="M 61 874 C 200 1044 331 1130 455 1130 C 491 1130 521 1124 547 1112 C 573 1100 596 1086 616 1072 C 636 1058 656 1045 675 1033 C 693 1021 714 1015 737 1015 C 787 1015 847 1056 915 1140 L 1137 958 C 998 787 867 702 743 702 C 686 702 633 721 585 761 C 559 781 537 795 519 805 C 500 814 481 819 463 819 C 411 819 351 776 283 692 L 61 874 Z" unicode="~" />
<glyph horiz-adv-x="483" d="" unicode=" " />
<glyph horiz-adv-x="868" d="M 252 1008 L 616 1008 L 655 0 L 211 0 L 252 1008 Z M 205 1518 L 664 1518 L 664 1085 L 205 1085 L 205 1518 Z" unicode="¡" />
<glyph horiz-adv-x="1241" d="M 66 590 C 66 708 80 806 110 884 C 140 962 183 1023 241 1069 C 299 1115 374 1148 466 1169 L 481 1173 L 481 1323 L 866 1323 L 866 1176 C 998 1151 1106 1092 1188 999 L 918 741 C 881 777 846 803 812 817 C 778 831 740 838 696 838 C 616 838 556 817 517 777 C 478 737 459 670 459 578 C 459 483 478 415 518 375 C 558 335 618 315 700 315 C 750 315 792 322 828 338 C 864 353 901 380 940 418 L 1186 184 C 1127 129 1074 89 1026 63 C 978 37 924 18 866 6 L 866 -193 L 481 -193 L 481 7 C 394 21 319 52 255 99 C 191 146 143 210 112 290 C 81 370 66 470 66 590 Z" unicode="¢" />
<glyph horiz-adv-x="1440" d="M 39 922 L 211 922 C 194 994 186 1054 186 1100 C 186 1255 234 1368 330 1438 C 426 1508 571 1544 764 1544 C 946 1544 1111 1516 1257 1460 L 1104 1122 C 1062 1140 1009 1154 943 1166 C 877 1178 814 1184 754 1184 C 711 1184 678 1179 654 1170 C 630 1161 613 1147 603 1129 C 593 1110 588 1081 588 1042 C 588 1031 588 1019 590 1007 C 591 994 596 966 605 922 L 938 922 L 938 614 L 679 614 C 687 564 692 523 692 489 C 692 444 688 402 682 364 C 752 338 819 326 883 326 C 925 326 958 330 980 340 C 1002 350 1017 366 1026 388 C 1035 410 1040 445 1040 494 L 1040 557 L 1391 557 L 1391 477 C 1391 358 1374 263 1342 193 C 1309 122 1258 70 1188 37 C 1118 4 1020 -12 895 -12 C 826 -12 757 -2 688 18 C 618 38 557 63 504 93 C 400 31 245 0 41 0 L 41 326 C 111 326 166 329 205 335 C 243 341 272 350 290 362 C 308 374 319 390 323 410 C 326 429 328 452 328 479 C 328 509 319 554 302 614 L 39 614 L 39 922 Z" unicode="£" />
<glyph horiz-adv-x="1152" d="M 1056 392 L 940 284 L 740 500 C 692 468 636 452 572 452 C 510 452 456 468 408 500 L 208 284 L 92 392 L 300 608 C 281 634 268 660 262 686 C 255 711 252 742 252 780 C 252 848 268 906 300 952 L 92 1168 L 208 1276 L 408 1060 C 456 1092 510 1108 572 1108 C 636 1108 692 1092 740 1060 L 944 1276 L 1060 1156 L 852 952 C 870 925 883 898 890 872 C 896 845 900 814 900 780 C 900 716 882 658 848 608 L 1056 392 Z M 748 780 C 748 833 731 876 698 910 C 664 943 622 960 572 960 C 521 960 480 943 448 910 C 416 876 400 833 400 780 C 400 726 416 684 450 652 C 483 620 524 604 572 604 C 625 604 668 620 700 652 C 732 684 748 726 748 780 Z" unicode="¤" />
<glyph horiz-adv-x="1458" d="M 160 379 L 526 379 L 526 459 L 160 459 L 160 686 L 524 686 L 12 1518 L 444 1518 L 729 1018 L 1016 1518 L 1446 1518 L 931 686 L 1292 686 L 1292 459 L 928 459 L 928 379 L 1292 379 L 1292 152 L 928 152 L 928 0 L 526 0 L 526 152 L 160 152 L 160 379 Z" unicode="¥" />
<glyph horiz-adv-x="831" d="M 209 465 L 621 465 L 621 -338 L 209 -338 L 209 465 Z M 209 1589 L 621 1589 L 621 786 L 209 786 L 209 1589 Z" unicode="¦" />
<glyph horiz-adv-x="1305" d="M 356 -6 C 282 -6 226 -4 188 0 L 188 311 L 303 311 C 338 311 365 313 384 318 C 403 322 417 330 427 341 C 436 352 442 373 444 405 L 419 411 C 229 453 135 565 135 745 C 135 929 229 1043 419 1088 L 444 1094 C 445 1204 463 1289 497 1347 C 531 1405 583 1448 654 1478 C 724 1507 818 1522 936 1522 C 1006 1522 1052 1521 1072 1519 L 1104 1516 L 1104 1186 L 991 1186 C 955 1186 927 1183 908 1179 C 888 1174 874 1166 865 1155 C 855 1144 850 1124 848 1096 C 1062 1056 1169 939 1169 745 C 1169 651 1143 575 1092 519 C 1040 462 959 424 849 404 C 845 254 804 148 726 86 C 648 24 524 -6 356 -6 Z M 651 623 C 723 623 773 631 803 649 C 833 666 848 695 848 735 C 848 776 833 805 804 821 C 774 837 723 846 651 846 C 580 846 530 838 501 822 C 471 806 457 777 457 735 C 457 695 471 667 500 649 C 529 631 579 623 651 623 Z" unicode="§" />
<glyph horiz-adv-x="1208" d="M 182 1597 L 547 1597 L 547 1280 L 182 1280 L 182 1597 Z M 664 1597 L 1028 1597 L 1028 1280 L 664 1280 L 664 1597 Z" unicode="¨" />
<glyph horiz-adv-x="1632" d="M 834 289 C 670 289 547 328 465 406 C 383 484 342 606 342 772 C 342 928 385 1048 471 1130 C 557 1212 684 1253 850 1253 C 938 1253 1013 1241 1074 1218 C 1134 1195 1189 1158 1237 1108 L 1057 928 C 1031 954 1003 975 971 991 C 939 1006 898 1014 848 1014 C 762 1014 701 993 663 951 C 625 909 606 848 606 768 C 606 682 625 619 665 580 C 705 541 766 522 850 522 C 894 522 932 528 966 541 C 999 554 1034 578 1071 614 L 1243 446 C 1191 391 1133 351 1069 326 C 1004 301 926 289 834 289 Z M 817 -25 C 661 -25 525 7 410 73 C 294 139 206 231 146 350 C 85 469 55 606 55 760 C 55 918 86 1057 150 1177 C 214 1297 302 1388 416 1450 C 530 1512 663 1544 817 1544 C 968 1544 1100 1512 1214 1450 C 1328 1388 1417 1297 1481 1177 C 1545 1057 1577 918 1577 760 C 1577 605 1546 468 1485 349 C 1424 230 1336 138 1221 73 C 1106 7 971 -25 817 -25 Z M 817 115 C 1013 115 1164 170 1270 282 C 1376 393 1430 552 1430 760 C 1430 895 1406 1011 1360 1107 C 1314 1203 1245 1276 1153 1328 C 1061 1379 949 1405 817 1405 C 683 1405 571 1379 479 1327 C 387 1275 318 1201 272 1105 C 226 1009 203 894 203 760 C 203 552 256 393 362 282 C 468 170 620 115 817 115 Z" unicode="©" />
<glyph horiz-adv-x="1292" d="M 453 555 C 338 555 252 578 196 626 C 139 674 111 750 111 854 C 111 934 129 998 166 1044 C 202 1090 261 1123 343 1143 C 424 1163 547 1174 711 1174 L 739 1174 L 736 1202 C 732 1220 719 1233 696 1241 C 673 1249 636 1253 586 1253 C 537 1253 488 1245 439 1231 C 390 1217 349 1199 315 1178 L 152 1419 C 204 1453 274 1482 362 1505 C 450 1528 537 1540 623 1540 C 734 1540 820 1528 882 1506 C 943 1483 987 1447 1014 1397 C 1041 1347 1055 1270 1055 1165 L 1055 915 C 1055 881 1059 861 1069 853 C 1079 845 1099 842 1130 842 L 1130 571 C 1098 565 1051 563 991 563 C 930 563 883 572 850 590 C 817 608 794 636 780 674 C 758 638 734 612 709 598 C 683 583 650 572 610 565 C 569 558 517 555 453 555 Z M 203 485 L 1051 485 L 1051 201 L 203 201 L 203 485 Z M 424 883 C 424 856 432 838 450 830 C 468 821 499 817 545 817 C 609 817 658 827 690 847 C 722 867 739 900 739 946 L 739 977 L 731 977 C 671 977 622 975 584 973 C 546 970 515 966 491 961 C 467 955 449 948 439 938 C 429 928 424 910 424 883 Z" unicode="ª" />
<glyph horiz-adv-x="1663" d="M 211 586 L 520 1174 L 872 1174 L 596 586 L 872 0 L 520 0 L 211 586 Z M 729 586 L 1038 1174 L 1393 1174 L 1116 586 L 1393 0 L 1038 0 L 729 586 Z" unicode="«" />
<glyph horiz-adv-x="1536" d="M 1116 352 L 1116 728 L 212 728 L 212 920 L 1296 920 L 1296 352 L 1116 352 Z" unicode="¬" />
<glyph horiz-adv-x="842" d="M 66 874 L 776 874 L 776 514 L 66 514 L 66 874 Z" unicode="­" />
<glyph horiz-adv-x="1632" d="M 817 -25 C 661 -25 525 7 410 73 C 294 139 206 231 146 350 C 85 469 55 606 55 760 C 55 918 86 1057 150 1177 C 214 1297 302 1388 416 1450 C 530 1512 663 1544 817 1544 C 968 1544 1100 1512 1214 1450 C 1328 1388 1417 1297 1481 1177 C 1545 1057 1577 918 1577 760 C 1577 605 1546 468 1485 349 C 1424 230 1336 138 1221 73 C 1106 7 971 -25 817 -25 Z M 817 115 C 1013 115 1164 170 1270 282 C 1376 393 1430 552 1430 760 C 1430 895 1406 1011 1360 1107 C 1314 1203 1245 1276 1153 1328 C 1061 1379 949 1405 817 1405 C 683 1405 571 1379 479 1327 C 387 1275 318 1201 272 1105 C 226 1009 203 894 203 760 C 203 552 256 393 362 282 C 468 170 620 115 817 115 Z M 432 1204 L 881 1204 C 972 1204 1044 1193 1098 1173 C 1151 1152 1190 1122 1214 1082 C 1238 1042 1251 980 1251 897 C 1251 815 1237 752 1209 708 C 1181 664 1139 632 1082 612 L 1243 313 L 983 313 L 840 582 L 672 582 L 672 313 L 432 313 L 432 1204 Z M 872 786 C 924 786 959 792 977 806 C 995 819 1004 847 1004 889 C 1004 930 995 957 978 971 C 961 984 925 991 870 991 L 672 991 L 672 786 L 872 786 Z" unicode="®" />
<glyph horiz-adv-x="1208" d="M 143 1602 L 1065 1602 L 1065 1280 L 143 1280 L 143 1602 Z" unicode="¯" />
<glyph horiz-adv-x="1165" d="M 582 535 C 474 535 382 555 304 597 C 226 639 167 698 127 775 C 86 851 66 939 66 1038 C 66 1138 86 1226 127 1302 C 167 1378 226 1437 304 1479 C 381 1521 474 1542 582 1542 C 688 1542 781 1521 859 1479 C 937 1437 996 1378 1038 1302 C 1079 1226 1100 1138 1100 1038 C 1100 938 1079 850 1038 774 C 996 698 937 639 859 597 C 781 555 688 535 582 535 Z M 582 825 C 644 825 693 841 727 875 C 761 909 778 960 778 1028 C 778 1162 712 1229 582 1229 C 452 1229 387 1162 387 1028 C 387 892 452 825 582 825 Z" unicode="°" />
<glyph horiz-adv-x="1507" d="M 176 362 L 553 362 L 553 541 L 176 541 L 176 903 L 553 903 L 553 1276 L 956 1276 L 956 903 L 1331 903 L 1331 541 L 956 541 L 956 362 L 1331 362 L 1331 0 L 176 0 L 176 362 Z" unicode="±" />
<glyph horiz-adv-x="1126" d="M 125 696 L 455 958 C 519 1008 564 1045 591 1070 C 618 1095 636 1116 645 1132 C 654 1148 659 1167 659 1190 C 659 1222 646 1244 622 1257 C 597 1269 558 1276 506 1276 C 464 1276 418 1269 368 1257 C 317 1245 275 1229 242 1210 L 102 1442 C 169 1477 236 1501 304 1515 C 371 1529 453 1536 549 1536 C 691 1536 795 1510 862 1460 C 929 1410 963 1332 963 1227 C 963 1179 955 1135 939 1097 C 923 1059 899 1021 865 983 C 831 945 776 897 700 838 L 565 731 L 971 731 L 971 483 L 125 483 L 125 696 Z" unicode="²" />
<glyph horiz-adv-x="1143" d="M 557 471 C 460 471 374 479 300 497 C 226 515 151 548 76 596 L 231 815 C 275 788 320 767 366 752 C 412 736 464 729 522 729 C 592 729 637 736 659 751 C 681 765 692 791 692 829 C 692 866 679 891 654 905 C 628 919 582 926 514 926 L 313 926 L 313 1141 L 510 1141 C 576 1141 618 1145 636 1154 C 654 1163 664 1181 664 1208 C 664 1234 654 1251 636 1260 C 618 1269 578 1274 516 1274 C 411 1274 317 1250 233 1204 L 92 1434 C 144 1466 211 1492 293 1510 C 375 1528 465 1538 565 1538 C 703 1538 805 1518 873 1478 C 941 1438 975 1374 975 1286 C 975 1172 928 1095 836 1057 C 894 1037 937 1006 964 962 C 990 918 1004 861 1004 791 C 1004 681 966 600 892 548 C 817 496 705 471 557 471 Z" unicode="³" />
<glyph horiz-adv-x="1208" d="M 645 1686 L 1130 1686 L 721 1280 L 367 1280 L 645 1686 Z" unicode="´" />
<glyph horiz-adv-x="1395" d="M 113 1174 L 518 1174 L 518 573 C 518 496 523 444 535 416 C 546 388 565 368 591 354 C 617 340 655 334 705 334 C 753 334 790 341 816 355 C 842 369 861 390 872 419 C 883 447 889 499 889 573 L 889 1174 L 1288 1174 L 1288 582 C 1288 428 1270 308 1235 224 C 1199 140 1142 78 1064 40 C 985 1 875 -18 733 -18 C 629 -18 558 -7 518 14 L 518 -338 L 113 -338 L 113 1174 Z" unicode="µ" />
<glyph horiz-adv-x="1452" d="M 930 434 L 807 434 L 807 0 L 426 0 L 426 469 C 344 491 278 522 228 564 C 177 605 140 658 116 723 C 92 788 80 874 80 981 C 80 1119 103 1226 149 1301 C 195 1376 265 1431 361 1466 C 457 1500 581 1518 733 1518 L 1311 1518 L 1311 0 L 930 0 L 930 434 Z M 930 754 L 930 1167 L 725 1167 C 631 1167 569 1152 537 1122 C 505 1092 489 1038 489 958 C 489 879 506 825 540 797 C 574 768 635 754 723 754 L 930 754 Z" unicode="¶" />
<glyph horiz-adv-x="657" d="M 98 1016 L 557 1016 L 557 561 L 98 561 L 98 1016 Z" unicode="·" />
<glyph horiz-adv-x="1208" d="M 596 -537 C 488 -537 390 -512 303 -463 L 399 -281 C 469 -315 530 -332 580 -332 C 618 -332 647 -327 665 -318 C 683 -308 692 -289 692 -260 C 692 -216 658 -195 590 -195 L 518 -199 L 449 -158 L 487 14 L 707 14 L 688 -84 L 710 -84 C 779 -84 829 -91 859 -105 C 889 -119 912 -140 929 -169 C 945 -198 954 -238 954 -289 C 954 -373 926 -435 871 -476 C 816 -516 724 -537 596 -537 Z" unicode="¸" />
<glyph horiz-adv-x="817" d="M 287 1249 L 121 1249 L 121 1518 L 602 1518 L 602 483 L 287 483 L 287 1249 Z" unicode="¹" />
<glyph horiz-adv-x="1272" d="M 637 551 C 463 551 334 591 249 671 C 163 751 121 877 121 1049 C 121 1217 163 1342 247 1422 C 331 1502 461 1542 637 1542 C 812 1542 941 1502 1025 1422 C 1109 1342 1151 1217 1151 1049 C 1151 878 1108 752 1024 672 C 939 591 810 551 637 551 Z M 637 831 C 699 831 745 847 775 880 C 805 912 821 965 821 1038 C 821 1111 805 1163 775 1195 C 744 1227 698 1243 637 1243 C 575 1243 528 1227 498 1195 C 468 1163 453 1111 453 1038 C 453 966 467 913 497 880 C 527 847 573 831 637 831 Z M 182 481 L 1090 481 L 1090 197 L 182 197 L 182 481 Z" unicode="º" />
<glyph horiz-adv-x="1663" d="M 549 588 L 272 1174 L 625 1174 L 934 588 L 625 0 L 272 0 L 549 588 Z M 1067 588 L 791 1174 L 1145 1174 L 1454 588 L 1145 0 L 791 0 L 1067 588 Z" unicode="»" />
<glyph horiz-adv-x="2314" d="M 1819 168 L 1292 168 L 1292 387 L 1753 1030 L 2093 1030 L 1649 412 L 1825 412 L 1884 598 L 2116 598 L 2116 412 L 2265 412 L 2265 168 L 2116 168 L 2116 0 L 1819 0 L 1819 168 Z M 225 1249 L 59 1249 L 59 1518 L 551 1518 L 551 485 L 225 485 L 225 1249 Z M 1319 1518 L 1671 1518 L 823 0 L 469 0 L 1319 1518 Z" unicode="¼" />
<glyph horiz-adv-x="2400" d="M 1452 213 L 1782 475 C 1872 545 1925 589 1943 606 C 1960 623 1972 638 1978 652 C 1984 666 1987 681 1987 698 C 1987 730 1974 752 1950 765 C 1925 777 1886 784 1833 784 C 1787 784 1740 777 1691 765 C 1642 753 1601 737 1569 719 L 1430 950 C 1496 984 1561 1008 1625 1022 C 1689 1036 1772 1044 1876 1044 C 2018 1044 2122 1018 2189 968 C 2256 918 2290 840 2290 735 C 2290 695 2284 660 2274 629 C 2264 597 2248 567 2226 538 C 2204 508 2175 478 2139 447 C 2103 415 2021 349 1892 248 L 2298 248 L 2298 0 L 1452 0 L 1452 213 Z M 225 1249 L 59 1249 L 59 1518 L 551 1518 L 551 485 L 225 485 L 225 1249 Z M 1319 1518 L 1671 1518 L 823 0 L 469 0 L 1319 1518 Z" unicode="½" />
<glyph horiz-adv-x="2632" d="M 553 475 C 456 475 370 483 296 501 C 222 519 147 552 72 600 L 227 819 C 271 792 315 771 361 756 C 407 740 459 733 518 733 C 588 733 633 740 655 755 C 677 769 688 796 688 834 C 688 870 675 895 651 909 C 627 923 580 930 510 930 L 309 930 L 309 1145 L 506 1145 C 571 1145 613 1149 631 1158 C 649 1167 659 1185 659 1212 C 659 1237 650 1254 633 1264 C 616 1273 576 1278 512 1278 C 407 1278 313 1254 229 1208 L 88 1438 C 140 1470 207 1496 289 1514 C 370 1532 461 1542 561 1542 C 699 1542 801 1522 869 1482 C 937 1442 971 1378 971 1290 C 971 1176 924 1100 831 1061 C 890 1041 933 1009 959 966 C 985 922 999 865 999 795 C 999 685 961 604 887 552 C 813 500 701 475 553 475 Z M 2134 168 L 1608 168 L 1608 387 L 2071 1030 L 2410 1030 L 1966 412 L 2142 412 L 2202 598 L 2433 598 L 2433 412 L 2583 412 L 2583 168 L 2433 168 L 2433 0 L 2134 0 L 2134 168 Z M 1638 1518 L 1991 1518 L 1141 0 L 788 0 L 1638 1518 Z" unicode="¾" />
<glyph horiz-adv-x="1477" d="M 713 -25 C 501 -25 348 9 252 77 C 156 145 109 253 109 401 C 109 471 118 530 136 579 C 154 628 182 669 220 703 C 257 737 313 768 389 797 C 448 819 490 837 516 851 C 541 865 559 881 570 899 C 580 917 586 943 586 977 L 582 1059 L 977 1059 C 986 1005 991 958 991 918 C 991 840 971 778 933 732 C 895 686 822 642 715 602 C 655 579 613 561 590 548 C 566 534 550 520 540 506 C 530 491 526 469 526 440 C 526 398 543 371 577 357 C 611 343 667 336 745 336 C 896 338 1039 371 1174 434 L 1343 98 C 1259 58 1160 28 1048 7 C 936 -14 824 -25 713 -25 Z M 551 1518 L 1010 1518 L 1010 1137 L 551 1137 L 551 1518 Z" unicode="¿" />
<glyph horiz-adv-x="1681" d="M 623 1528 L 1055 1528 L 1667 0 L 1227 0 L 1151 197 L 504 197 L 428 0 L 14 0 L 623 1528 Z M 1016 545 L 827 1028 L 639 545 L 1016 545 Z M 314 2001 L 799 2001 L 1078 1595 L 723 1595 L 314 2001 Z" unicode="À" />
<glyph horiz-adv-x="1681" d="M 623 1528 L 1055 1528 L 1667 0 L 1227 0 L 1151 197 L 504 197 L 428 0 L 14 0 L 623 1528 Z M 1016 545 L 827 1028 L 639 545 L 1016 545 Z M 881 2001 L 1366 2001 L 957 1595 L 603 1595 L 881 2001 Z" unicode="Á" />
<glyph horiz-adv-x="1681" d="M 623 1528 L 1055 1528 L 1667 0 L 1227 0 L 1151 197 L 504 197 L 428 0 L 14 0 L 623 1528 Z M 1016 545 L 827 1028 L 639 545 L 1016 545 Z M 633 2001 L 1047 2001 L 1366 1595 L 992 1595 L 836 1749 L 680 1595 L 314 1595 L 633 2001 Z" unicode="Â" />
<glyph horiz-adv-x="1681" d="M 623 1528 L 1055 1528 L 1667 0 L 1227 0 L 1151 197 L 504 197 L 428 0 L 14 0 L 623 1528 Z M 1016 545 L 827 1028 L 639 545 L 1016 545 Z M 297 1761 C 436 1931 567 2017 691 2017 C 727 2017 757 2011 783 1999 C 809 1987 832 1973 852 1959 C 872 1945 892 1932 911 1920 C 929 1908 950 1902 973 1902 C 1023 1902 1083 1943 1151 2027 L 1373 1845 C 1234 1674 1103 1589 979 1589 C 922 1589 869 1608 821 1648 C 795 1668 773 1682 755 1692 C 736 1701 717 1706 699 1706 C 647 1706 587 1663 519 1579 L 297 1761 Z" unicode="Ã" />
<glyph horiz-adv-x="1681" d="M 623 1528 L 1055 1528 L 1667 0 L 1227 0 L 1151 197 L 504 197 L 428 0 L 14 0 L 623 1528 Z M 1016 545 L 827 1028 L 639 545 L 1016 545 Z M 418 1912 L 783 1912 L 783 1595 L 418 1595 L 418 1912 Z M 900 1912 L 1264 1912 L 1264 1595 L 900 1595 L 900 1912 Z" unicode="Ä" />
<glyph horiz-adv-x="1681" d="M 582 1427 C 542 1483 522 1554 522 1640 C 522 1744 549 1825 604 1881 C 659 1937 738 1966 840 1966 C 939 1966 1016 1936 1072 1878 C 1127 1820 1155 1740 1155 1640 C 1155 1556 1134 1487 1094 1432 L 1667 0 L 1227 0 L 1151 197 L 504 197 L 428 0 L 14 0 L 582 1427 Z M 1016 545 L 827 1028 L 639 545 L 1016 545 Z M 840 1511 C 920 1511 961 1554 961 1640 C 961 1728 920 1772 840 1772 C 759 1772 719 1728 719 1640 C 719 1554 759 1511 840 1511 Z" unicode="Å" />
<glyph horiz-adv-x="2433" d="M 940 1518 L 2322 1518 L 2322 1135 L 1538 1135 L 1538 950 L 2302 950 L 2302 580 L 1538 580 L 1538 367 L 2331 367 L 2331 0 L 1133 0 L 1133 217 L 549 217 L 399 0 L -10 0 L 940 1518 Z M 1133 559 L 1133 1151 L 748 559 L 1133 559 Z" unicode="Æ" />
<glyph horiz-adv-x="1593" d="M 786 -537 C 678 -537 580 -512 493 -463 L 589 -281 C 659 -315 720 -332 770 -332 C 808 -332 837 -327 855 -318 C 873 -308 882 -289 882 -260 C 882 -216 848 -195 780 -195 L 708 -199 L 639 -158 L 677 14 L 897 14 L 878 -84 L 900 -84 C 969 -84 1019 -91 1049 -105 C 1079 -119 1102 -140 1119 -169 C 1135 -198 1144 -238 1144 -289 C 1144 -373 1116 -435 1061 -476 C 1006 -516 914 -537 786 -537 Z M 856 -23 C 582 -23 380 39 252 163 C 123 287 59 486 59 760 C 59 1281 333 1542 883 1542 C 1025 1542 1146 1523 1244 1487 C 1342 1451 1431 1391 1511 1307 L 1219 1014 C 1165 1068 1112 1104 1061 1124 C 1009 1143 949 1153 881 1153 C 745 1153 646 1121 582 1058 C 518 994 487 893 487 754 C 487 654 500 577 527 522 C 553 466 595 425 653 397 C 710 369 787 356 883 356 C 933 356 977 360 1017 370 C 1056 380 1092 394 1125 413 C 1157 431 1197 462 1243 506 L 1522 233 C 1433 139 1336 72 1232 34 C 1128 -3 1002 -23 856 -23 Z" unicode="Ç" />
<glyph horiz-adv-x="1458" d="M 139 1518 L 1348 1518 L 1348 1135 L 563 1135 L 563 950 L 1327 950 L 1327 580 L 563 580 L 563 367 L 1356 367 L 1356 0 L 139 0 L 139 1518 Z M 203 2001 L 688 2001 L 967 1595 L 612 1595 L 203 2001 Z" unicode="È" />
<glyph horiz-adv-x="1458" d="M 139 1518 L 1348 1518 L 1348 1135 L 563 1135 L 563 950 L 1327 950 L 1327 580 L 563 580 L 563 367 L 1356 367 L 1356 0 L 139 0 L 139 1518 Z M 770 2001 L 1255 2001 L 846 1595 L 492 1595 L 770 2001 Z" unicode="É" />
<glyph horiz-adv-x="1458" d="M 139 1518 L 1348 1518 L 1348 1135 L 563 1135 L 563 950 L 1327 950 L 1327 580 L 563 580 L 563 367 L 1356 367 L 1356 0 L 139 0 L 139 1518 Z M 522 2001 L 936 2001 L 1255 1595 L 881 1595 L 725 1749 L 569 1595 L 203 1595 L 522 2001 Z" unicode="Ê" />
<glyph horiz-adv-x="1458" d="M 139 1518 L 1348 1518 L 1348 1135 L 563 1135 L 563 950 L 1327 950 L 1327 580 L 563 580 L 563 367 L 1356 367 L 1356 0 L 139 0 L 139 1518 Z M 307 1912 L 672 1912 L 672 1595 L 307 1595 L 307 1912 Z M 789 1912 L 1153 1912 L 1153 1595 L 789 1595 L 789 1912 Z" unicode="Ë" />
<glyph horiz-adv-x="752" d="M -203 2001 L 303 2001 L 588 1595 L 213 1595 L -203 2001 Z M 164 1518 L 588 1518 L 588 0 L 164 0 L 164 1518 Z" unicode="Ì" />
<glyph horiz-adv-x="752" d="M 446 2001 L 952 2001 L 539 1595 L 164 1595 L 446 2001 Z M 164 1518 L 588 1518 L 588 0 L 164 0 L 164 1518 Z" unicode="Í" />
<glyph horiz-adv-x="752" d="M 168 2001 L 582 2001 L 881 1595 L 506 1595 L 371 1749 L 236 1595 L -131 1595 L 168 2001 Z M 164 1518 L 588 1518 L 588 0 L 164 0 L 164 1518 Z" unicode="Î" />
<glyph horiz-adv-x="752" d="M 164 1518 L 588 1518 L 588 0 L 164 0 L 164 1518 Z M -46 1912 L 319 1912 L 319 1595 L -46 1595 L -46 1912 Z M 436 1912 L 800 1912 L 800 1595 L 436 1595 L 436 1912 Z" unicode="Ï" />
<glyph horiz-adv-x="1645" d="M 0 924 L 139 924 L 139 1518 L 709 1518 C 944 1518 1122 1493 1243 1445 C 1363 1396 1451 1317 1505 1209 C 1559 1100 1587 950 1587 760 C 1587 574 1558 426 1500 316 C 1442 206 1352 125 1230 75 C 1108 25 934 0 709 0 L 139 0 L 139 590 L 0 590 L 0 924 Z M 733 369 C 847 369 934 379 994 400 C 1054 421 1096 456 1121 504 C 1146 552 1159 638 1159 760 C 1159 857 1152 927 1138 970 C 1124 1012 1102 1045 1071 1069 C 1040 1092 996 1109 940 1120 C 884 1131 808 1137 713 1137 L 563 1137 L 563 924 L 813 924 L 813 590 L 563 590 L 563 369 L 733 369 Z" unicode="Ð" />
<glyph horiz-adv-x="1731" d="M 139 1518 L 594 1518 L 1186 715 L 1186 1518 L 1591 1518 L 1591 0 L 1200 0 L 545 887 L 545 0 L 139 0 L 139 1518 Z M 321 1761 C 460 1931 591 2017 715 2017 C 751 2017 781 2011 807 1999 C 833 1987 856 1973 876 1959 C 896 1945 916 1932 935 1920 C 953 1908 974 1902 997 1902 C 1047 1902 1107 1943 1175 2027 L 1397 1845 C 1258 1674 1127 1589 1003 1589 C 946 1589 893 1608 845 1648 C 819 1668 797 1682 779 1692 C 760 1701 741 1706 723 1706 C 671 1706 611 1663 543 1579 L 321 1761 Z" unicode="Ñ" />
<glyph horiz-adv-x="1767" d="M 883 -25 C 605 -25 399 40 263 172 C 127 304 59 500 59 760 C 59 1019 127 1214 263 1345 C 399 1476 606 1542 883 1542 C 1433 1542 1708 1281 1708 760 C 1708 236 1433 -25 883 -25 Z M 883 348 C 1017 348 1116 379 1181 442 C 1245 504 1278 608 1278 752 C 1278 892 1246 994 1182 1058 C 1118 1121 1019 1153 883 1153 C 747 1153 647 1121 583 1058 C 519 994 487 892 487 752 C 487 608 519 505 584 442 C 648 379 748 348 883 348 Z M 357 2001 L 842 2001 L 1121 1595 L 766 1595 L 357 2001 Z" unicode="Ò" />
<glyph horiz-adv-x="1767" d="M 883 -25 C 605 -25 399 40 263 172 C 127 304 59 500 59 760 C 59 1019 127 1214 263 1345 C 399 1476 606 1542 883 1542 C 1433 1542 1708 1281 1708 760 C 1708 236 1433 -25 883 -25 Z M 883 348 C 1017 348 1116 379 1181 442 C 1245 504 1278 608 1278 752 C 1278 892 1246 994 1182 1058 C 1118 1121 1019 1153 883 1153 C 747 1153 647 1121 583 1058 C 519 994 487 892 487 752 C 487 608 519 505 584 442 C 648 379 748 348 883 348 Z M 924 2001 L 1409 2001 L 1000 1595 L 646 1595 L 924 2001 Z" unicode="Ó" />
<glyph horiz-adv-x="1767" d="M 883 -25 C 605 -25 399 40 263 172 C 127 304 59 500 59 760 C 59 1019 127 1214 263 1345 C 399 1476 606 1542 883 1542 C 1433 1542 1708 1281 1708 760 C 1708 236 1433 -25 883 -25 Z M 883 348 C 1017 348 1116 379 1181 442 C 1245 504 1278 608 1278 752 C 1278 892 1246 994 1182 1058 C 1118 1121 1019 1153 883 1153 C 747 1153 647 1121 583 1058 C 519 994 487 892 487 752 C 487 608 519 505 584 442 C 648 379 748 348 883 348 Z M 676 2001 L 1090 2001 L 1409 1595 L 1035 1595 L 879 1749 L 723 1595 L 357 1595 L 676 2001 Z" unicode="Ô" />
<glyph horiz-adv-x="1767" d="M 883 -25 C 605 -25 399 40 263 172 C 127 304 59 500 59 760 C 59 1019 127 1214 263 1345 C 399 1476 606 1542 883 1542 C 1433 1542 1708 1281 1708 760 C 1708 236 1433 -25 883 -25 Z M 883 348 C 1017 348 1116 379 1181 442 C 1245 504 1278 608 1278 752 C 1278 892 1246 994 1182 1058 C 1118 1121 1019 1153 883 1153 C 747 1153 647 1121 583 1058 C 519 994 487 892 487 752 C 487 608 519 505 584 442 C 648 379 748 348 883 348 Z M 340 1761 C 479 1931 610 2017 734 2017 C 770 2017 800 2011 826 1999 C 852 1987 875 1973 895 1959 C 915 1945 935 1932 954 1920 C 972 1908 993 1902 1016 1902 C 1066 1902 1126 1943 1194 2027 L 1416 1845 C 1277 1674 1146 1589 1022 1589 C 965 1589 912 1608 864 1648 C 838 1668 816 1682 798 1692 C 779 1701 760 1706 742 1706 C 690 1706 630 1663 562 1579 L 340 1761 Z" unicode="Õ" />
<glyph horiz-adv-x="1767" d="M 883 -25 C 605 -25 399 40 263 172 C 127 304 59 500 59 760 C 59 1019 127 1214 263 1345 C 399 1476 606 1542 883 1542 C 1433 1542 1708 1281 1708 760 C 1708 236 1433 -25 883 -25 Z M 883 348 C 1017 348 1116 379 1181 442 C 1245 504 1278 608 1278 752 C 1278 892 1246 994 1182 1058 C 1118 1121 1019 1153 883 1153 C 747 1153 647 1121 583 1058 C 519 994 487 892 487 752 C 487 608 519 505 584 442 C 648 379 748 348 883 348 Z M 461 1912 L 826 1912 L 826 1595 L 461 1595 L 461 1912 Z M 943 1912 L 1307 1912 L 1307 1595 L 943 1595 L 943 1912 Z" unicode="Ö" />
<glyph horiz-adv-x="1507" d="M 211 426 L 506 721 L 211 1014 L 461 1270 L 756 975 L 1049 1270 L 1296 1014 L 1001 721 L 1296 428 L 1049 172 L 756 467 L 457 170 L 211 426 Z" unicode="×" />
<glyph horiz-adv-x="1767" d="M 883 -25 C 781 -25 686 -15 598 3 L 545 -84 L 205 -84 L 327 118 C 148 249 59 463 59 760 C 59 1019 127 1214 263 1345 C 399 1476 606 1542 883 1542 C 985 1542 1080 1532 1169 1513 L 1225 1604 L 1563 1604 L 1439 1398 C 1521 1341 1587 1260 1635 1154 C 1683 1048 1708 917 1708 760 C 1708 236 1433 -25 883 -25 Z M 883 332 C 1022 332 1125 364 1193 430 C 1260 495 1294 602 1294 752 C 1294 884 1266 984 1212 1051 L 781 338 C 812 334 846 332 883 332 Z M 883 1169 C 743 1169 639 1136 572 1071 C 504 1006 471 900 471 752 C 471 619 497 520 549 455 L 976 1164 C 947 1167 916 1169 883 1169 Z" unicode="Ø" />
<glyph horiz-adv-x="1710" d="M 856 -31 C 739 -31 639 -21 557 -3 C 475 14 406 40 352 72 C 297 104 253 143 221 190 C 188 237 164 290 149 349 C 134 408 127 490 127 596 L 127 1518 L 553 1518 L 553 653 C 553 563 562 499 581 459 C 600 419 631 390 675 372 C 719 353 781 344 862 344 C 942 344 1005 353 1049 371 C 1093 389 1124 419 1143 459 C 1161 499 1171 564 1171 653 L 1171 1518 L 1583 1518 L 1583 596 C 1583 492 1575 410 1560 350 C 1545 290 1521 237 1489 190 C 1457 143 1413 104 1358 72 C 1303 40 1235 14 1153 -3 C 1071 -21 972 -31 856 -31 Z M 328 2001 L 813 2001 L 1092 1595 L 737 1595 L 328 2001 Z" unicode="Ù" />
<glyph horiz-adv-x="1710" d="M 856 -31 C 739 -31 639 -21 557 -3 C 475 14 406 40 352 72 C 297 104 253 143 221 190 C 188 237 164 290 149 349 C 134 408 127 490 127 596 L 127 1518 L 553 1518 L 553 653 C 553 563 562 499 581 459 C 600 419 631 390 675 372 C 719 353 781 344 862 344 C 942 344 1005 353 1049 371 C 1093 389 1124 419 1143 459 C 1161 499 1171 564 1171 653 L 1171 1518 L 1583 1518 L 1583 596 C 1583 492 1575 410 1560 350 C 1545 290 1521 237 1489 190 C 1457 143 1413 104 1358 72 C 1303 40 1235 14 1153 -3 C 1071 -21 972 -31 856 -31 Z M 895 2001 L 1380 2001 L 971 1595 L 617 1595 L 895 2001 Z" unicode="Ú" />
<glyph horiz-adv-x="1710" d="M 856 -31 C 739 -31 639 -21 557 -3 C 475 14 406 40 352 72 C 297 104 253 143 221 190 C 188 237 164 290 149 349 C 134 408 127 490 127 596 L 127 1518 L 553 1518 L 553 653 C 553 563 562 499 581 459 C 600 419 631 390 675 372 C 719 353 781 344 862 344 C 942 344 1005 353 1049 371 C 1093 389 1124 419 1143 459 C 1161 499 1171 564 1171 653 L 1171 1518 L 1583 1518 L 1583 596 C 1583 492 1575 410 1560 350 C 1545 290 1521 237 1489 190 C 1457 143 1413 104 1358 72 C 1303 40 1235 14 1153 -3 C 1071 -21 972 -31 856 -31 Z M 647 2001 L 1061 2001 L 1380 1595 L 1006 1595 L 850 1749 L 694 1595 L 328 1595 L 647 2001 Z" unicode="Û" />
<glyph horiz-adv-x="1710" d="M 856 -31 C 739 -31 639 -21 557 -3 C 475 14 406 40 352 72 C 297 104 253 143 221 190 C 188 237 164 290 149 349 C 134 408 127 490 127 596 L 127 1518 L 553 1518 L 553 653 C 553 563 562 499 581 459 C 600 419 631 390 675 372 C 719 353 781 344 862 344 C 942 344 1005 353 1049 371 C 1093 389 1124 419 1143 459 C 1161 499 1171 564 1171 653 L 1171 1518 L 1583 1518 L 1583 596 C 1583 492 1575 410 1560 350 C 1545 290 1521 237 1489 190 C 1457 143 1413 104 1358 72 C 1303 40 1235 14 1153 -3 C 1071 -21 972 -31 856 -31 Z M 432 1912 L 797 1912 L 797 1595 L 432 1595 L 432 1912 Z M 914 1912 L 1278 1912 L 1278 1595 L 914 1595 L 914 1912 Z" unicode="Ü" />
<glyph horiz-adv-x="1620" d="M -4 1518 L 451 1518 L 817 883 L 1184 1518 L 1622 1518 L 1020 501 L 1020 0 L 596 0 L 596 505 L -4 1518 Z M 850 2001 L 1335 2001 L 926 1595 L 572 1595 L 850 2001 Z" unicode="Ý" />
<glyph horiz-adv-x="1612" d="M 139 1518 L 553 1518 L 553 1339 L 901 1339 C 1052 1339 1176 1321 1272 1287 C 1368 1253 1439 1198 1485 1123 C 1531 1048 1554 941 1554 803 C 1554 657 1530 545 1482 466 C 1434 387 1360 329 1260 292 C 1160 254 1032 236 877 236 L 553 236 L 553 0 L 139 0 L 139 1518 Z M 895 586 C 983 586 1044 599 1078 627 C 1111 655 1128 706 1128 780 C 1128 855 1112 907 1081 936 C 1050 964 987 979 893 979 L 553 979 L 553 586 L 895 586 Z" unicode="Þ" />
<glyph horiz-adv-x="1473" d="M 113 1036 C 113 1177 135 1289 181 1371 C 227 1453 295 1514 386 1553 C 477 1592 591 1612 729 1612 C 909 1612 1045 1576 1138 1504 C 1231 1432 1278 1326 1278 1186 C 1278 1122 1271 1067 1259 1023 C 1247 978 1229 941 1205 911 C 1181 881 1146 854 1098 829 C 1189 805 1254 779 1294 751 C 1334 722 1363 684 1382 637 C 1401 590 1411 529 1411 455 C 1411 325 1390 230 1349 169 C 1308 108 1240 65 1144 39 C 1048 13 913 0 737 0 L 621 0 L 621 344 L 723 344 C 795 344 851 348 893 358 C 934 367 964 381 983 401 C 1002 421 1012 452 1012 494 C 1012 537 1001 568 979 586 C 957 604 921 617 870 625 C 818 633 741 637 637 637 L 637 911 C 701 911 751 915 787 924 C 822 933 847 948 863 968 C 879 988 887 1023 887 1073 C 887 1125 873 1162 846 1184 C 819 1206 777 1217 721 1217 C 645 1217 591 1202 560 1173 C 529 1144 514 1094 514 1022 L 514 0 L 113 0 L 113 1036 Z" unicode="ß" />
<glyph horiz-adv-x="1348" d="M 487 -18 C 379 -18 291 -4 225 21 C 158 47 109 86 78 138 C 46 190 31 261 31 352 C 31 452 53 530 99 587 C 144 643 215 684 313 710 C 411 735 563 748 770 748 L 807 748 C 805 779 798 800 786 812 C 774 823 755 831 729 837 C 703 843 665 846 616 846 C 558 846 500 837 442 821 C 383 805 330 782 283 752 L 80 1049 C 146 1093 233 1129 342 1157 C 450 1185 557 1200 662 1200 C 800 1200 906 1186 982 1158 C 1058 1130 1112 1084 1146 1022 C 1179 960 1196 865 1196 737 L 1196 424 C 1196 382 1201 357 1212 348 C 1223 338 1248 334 1288 334 L 1288 4 C 1260 -2 1202 -6 1116 -6 C 1045 -6 993 2 959 19 C 925 35 898 62 877 100 C 847 64 800 35 736 14 C 671 -7 588 -18 487 -18 Z M 416 387 C 416 357 427 337 450 325 C 472 313 513 307 571 307 C 652 307 712 319 750 343 C 788 367 807 408 807 465 L 807 504 L 797 504 C 720 504 658 502 611 499 C 563 496 525 491 497 484 C 468 477 447 467 435 455 C 422 442 416 419 416 387 Z M 148 1686 L 633 1686 L 912 1280 L 557 1280 L 148 1686 Z" unicode="à" />
<glyph horiz-adv-x="1348" d="M 487 -18 C 379 -18 291 -4 225 21 C 158 47 109 86 78 138 C 46 190 31 261 31 352 C 31 452 53 530 99 587 C 144 643 215 684 313 710 C 411 735 563 748 770 748 L 807 748 C 805 779 798 800 786 812 C 774 823 755 831 729 837 C 703 843 665 846 616 846 C 558 846 500 837 442 821 C 383 805 330 782 283 752 L 80 1049 C 146 1093 233 1129 342 1157 C 450 1185 557 1200 662 1200 C 800 1200 906 1186 982 1158 C 1058 1130 1112 1084 1146 1022 C 1179 960 1196 865 1196 737 L 1196 424 C 1196 382 1201 357 1212 348 C 1223 338 1248 334 1288 334 L 1288 4 C 1260 -2 1202 -6 1116 -6 C 1045 -6 993 2 959 19 C 925 35 898 62 877 100 C 847 64 800 35 736 14 C 671 -7 588 -18 487 -18 Z M 416 387 C 416 357 427 337 450 325 C 472 313 513 307 571 307 C 652 307 712 319 750 343 C 788 367 807 408 807 465 L 807 504 L 797 504 C 720 504 658 502 611 499 C 563 496 525 491 497 484 C 468 477 447 467 435 455 C 422 442 416 419 416 387 Z M 715 1686 L 1200 1686 L 791 1280 L 437 1280 L 715 1686 Z" unicode="á" />
<glyph horiz-adv-x="1348" d="M 487 -18 C 379 -18 291 -4 225 21 C 158 47 109 86 78 138 C 46 190 31 261 31 352 C 31 452 53 530 99 587 C 144 643 215 684 313 710 C 411 735 563 748 770 748 L 807 748 C 805 779 798 800 786 812 C 774 823 755 831 729 837 C 703 843 665 846 616 846 C 558 846 500 837 442 821 C 383 805 330 782 283 752 L 80 1049 C 146 1093 233 1129 342 1157 C 450 1185 557 1200 662 1200 C 800 1200 906 1186 982 1158 C 1058 1130 1112 1084 1146 1022 C 1179 960 1196 865 1196 737 L 1196 424 C 1196 382 1201 357 1212 348 C 1223 338 1248 334 1288 334 L 1288 4 C 1260 -2 1202 -6 1116 -6 C 1045 -6 993 2 959 19 C 925 35 898 62 877 100 C 847 64 800 35 736 14 C 671 -7 588 -18 487 -18 Z M 416 387 C 416 357 427 337 450 325 C 472 313 513 307 571 307 C 652 307 712 319 750 343 C 788 367 807 408 807 465 L 807 504 L 797 504 C 720 504 658 502 611 499 C 563 496 525 491 497 484 C 468 477 447 467 435 455 C 422 442 416 419 416 387 Z M 467 1686 L 881 1686 L 1200 1280 L 826 1280 L 670 1434 L 514 1280 L 148 1280 L 467 1686 Z" unicode="â" />
<glyph horiz-adv-x="1348" d="M 487 -18 C 379 -18 291 -4 225 21 C 158 47 109 86 78 138 C 46 190 31 261 31 352 C 31 452 53 530 99 587 C 144 643 215 684 313 710 C 411 735 563 748 770 748 L 807 748 C 805 779 798 800 786 812 C 774 823 755 831 729 837 C 703 843 665 846 616 846 C 558 846 500 837 442 821 C 383 805 330 782 283 752 L 80 1049 C 146 1093 233 1129 342 1157 C 450 1185 557 1200 662 1200 C 800 1200 906 1186 982 1158 C 1058 1130 1112 1084 1146 1022 C 1179 960 1196 865 1196 737 L 1196 424 C 1196 382 1201 357 1212 348 C 1223 338 1248 334 1288 334 L 1288 4 C 1260 -2 1202 -6 1116 -6 C 1045 -6 993 2 959 19 C 925 35 898 62 877 100 C 847 64 800 35 736 14 C 671 -7 588 -18 487 -18 Z M 416 387 C 416 357 427 337 450 325 C 472 313 513 307 571 307 C 652 307 712 319 750 343 C 788 367 807 408 807 465 L 807 504 L 797 504 C 720 504 658 502 611 499 C 563 496 525 491 497 484 C 468 477 447 467 435 455 C 422 442 416 419 416 387 Z M 131 1446 C 270 1616 401 1702 525 1702 C 561 1702 591 1696 617 1684 C 643 1672 666 1658 686 1644 C 706 1630 726 1617 745 1605 C 763 1593 784 1587 807 1587 C 857 1587 917 1628 985 1712 L 1207 1530 C 1068 1359 937 1274 813 1274 C 756 1274 703 1293 655 1333 C 629 1353 607 1367 589 1377 C 570 1386 551 1391 533 1391 C 481 1391 421 1348 353 1264 L 131 1446 Z" unicode="ã" />
<glyph horiz-adv-x="1348" d="M 487 -18 C 379 -18 291 -4 225 21 C 158 47 109 86 78 138 C 46 190 31 261 31 352 C 31 452 53 530 99 587 C 144 643 215 684 313 710 C 411 735 563 748 770 748 L 807 748 C 805 779 798 800 786 812 C 774 823 755 831 729 837 C 703 843 665 846 616 846 C 558 846 500 837 442 821 C 383 805 330 782 283 752 L 80 1049 C 146 1093 233 1129 342 1157 C 450 1185 557 1200 662 1200 C 800 1200 906 1186 982 1158 C 1058 1130 1112 1084 1146 1022 C 1179 960 1196 865 1196 737 L 1196 424 C 1196 382 1201 357 1212 348 C 1223 338 1248 334 1288 334 L 1288 4 C 1260 -2 1202 -6 1116 -6 C 1045 -6 993 2 959 19 C 925 35 898 62 877 100 C 847 64 800 35 736 14 C 671 -7 588 -18 487 -18 Z M 416 387 C 416 357 427 337 450 325 C 472 313 513 307 571 307 C 652 307 712 319 750 343 C 788 367 807 408 807 465 L 807 504 L 797 504 C 720 504 658 502 611 499 C 563 496 525 491 497 484 C 468 477 447 467 435 455 C 422 442 416 419 416 387 Z M 252 1597 L 617 1597 L 617 1280 L 252 1280 L 252 1597 Z M 734 1597 L 1098 1597 L 1098 1280 L 734 1280 L 734 1597 Z" unicode="ä" />
<glyph horiz-adv-x="1348" d="M 487 -18 C 379 -18 291 -4 225 21 C 158 47 109 86 78 138 C 46 190 31 261 31 352 C 31 452 53 530 99 587 C 144 643 215 684 313 710 C 411 735 563 748 770 748 L 807 748 C 805 779 798 800 786 812 C 774 823 755 831 729 837 C 703 843 665 846 616 846 C 558 846 500 837 442 821 C 383 805 330 782 283 752 L 80 1049 C 146 1093 233 1129 342 1157 C 450 1185 557 1200 662 1200 C 800 1200 906 1186 982 1158 C 1058 1130 1112 1084 1146 1022 C 1179 960 1196 865 1196 737 L 1196 424 C 1196 382 1201 357 1212 348 C 1223 338 1248 334 1288 334 L 1288 4 C 1260 -2 1202 -6 1116 -6 C 1045 -6 993 2 959 19 C 925 35 898 62 877 100 C 847 64 800 35 736 14 C 671 -7 588 -18 487 -18 Z M 416 387 C 416 357 427 337 450 325 C 472 313 513 307 571 307 C 652 307 712 319 750 343 C 788 367 807 408 807 465 L 807 504 L 797 504 C 720 504 658 502 611 499 C 563 496 525 491 497 484 C 468 477 447 467 435 455 C 422 442 416 419 416 387 Z M 674 1257 C 573 1257 495 1284 440 1340 C 384 1396 357 1475 357 1579 C 357 1683 384 1764 440 1820 C 495 1876 573 1905 674 1905 C 772 1905 850 1875 906 1817 C 962 1759 990 1679 990 1579 C 990 1479 962 1400 906 1343 C 850 1285 772 1257 674 1257 Z M 674 1450 C 754 1450 795 1493 795 1579 C 795 1666 754 1710 674 1710 C 593 1710 553 1666 553 1579 C 553 1493 593 1450 674 1450 Z" unicode="å" />
<glyph horiz-adv-x="2030" d="M 1427 -23 C 1205 -23 1048 27 954 127 C 922 91 887 62 849 41 C 811 19 768 4 719 -4 C 669 -13 592 -18 487 -18 C 379 -18 291 -4 225 22 C 158 48 109 87 78 139 C 46 191 31 262 31 352 C 31 452 53 530 99 587 C 144 643 215 684 313 710 C 411 735 563 748 770 748 L 807 748 C 805 779 798 800 786 812 C 774 823 755 831 729 837 C 703 843 665 846 616 846 C 558 846 500 837 442 821 C 383 805 330 782 283 752 L 80 1049 C 146 1093 233 1129 342 1157 C 450 1185 557 1200 662 1200 C 746 1200 818 1192 877 1178 C 936 1163 986 1140 1026 1108 L 1029 1109 C 1122 1169 1255 1200 1427 1200 C 1609 1200 1744 1157 1832 1072 C 1920 986 1966 845 1972 649 L 1972 574 L 1970 449 L 1186 449 C 1197 397 1222 359 1260 337 C 1298 314 1353 303 1427 303 C 1503 303 1570 311 1629 327 C 1688 343 1742 370 1790 406 L 1993 145 C 1913 83 1831 40 1747 15 C 1662 -10 1555 -23 1427 -23 Z M 416 387 C 416 357 427 337 449 325 C 471 313 511 307 567 307 C 651 307 712 319 750 343 C 788 367 807 408 807 465 L 807 504 L 797 504 C 720 504 658 502 611 499 C 563 496 525 491 497 484 C 468 477 447 467 435 455 C 422 442 416 419 416 387 Z M 1602 688 C 1597 744 1588 782 1576 802 C 1563 822 1544 837 1518 848 C 1492 858 1458 864 1415 864 C 1343 864 1288 850 1251 824 C 1214 798 1191 756 1183 698 L 1182 688 L 1602 688 Z" unicode="æ" />
<glyph horiz-adv-x="1227" d="M 606 -537 C 498 -537 400 -512 313 -463 L 409 -281 C 479 -315 540 -332 590 -332 C 628 -332 657 -327 675 -318 C 693 -308 702 -289 702 -260 C 702 -216 668 -195 600 -195 L 528 -199 L 459 -158 L 497 14 L 717 14 L 698 -84 L 720 -84 C 789 -84 839 -91 869 -105 C 899 -119 922 -140 939 -169 C 955 -198 964 -238 964 -289 C 964 -373 936 -435 881 -476 C 826 -516 734 -537 606 -537 Z M 678 -18 C 540 -18 425 2 333 44 C 241 86 172 150 126 238 C 80 326 57 443 57 590 C 57 739 81 858 129 946 C 177 1034 248 1098 344 1139 C 439 1179 557 1200 698 1200 C 918 1200 1085 1132 1200 997 L 915 729 C 877 769 841 795 809 809 C 777 822 739 829 696 829 C 616 829 557 810 521 774 C 485 737 467 672 467 578 C 467 482 485 416 522 379 C 559 342 618 324 700 324 C 748 324 790 331 825 347 C 859 362 898 390 940 430 L 1198 184 C 1114 105 1035 52 961 24 C 887 -4 792 -18 678 -18 Z" unicode="ç" />
<glyph horiz-adv-x="1294" d="M 692 -23 C 475 -23 315 25 212 123 C 108 220 57 376 57 590 C 57 735 80 852 128 940 C 175 1028 246 1094 340 1136 C 434 1178 551 1200 692 1200 C 874 1200 1008 1157 1096 1072 C 1184 986 1230 845 1236 649 L 1237 560 L 1235 449 L 450 449 C 461 398 486 361 524 338 C 562 314 618 303 692 303 C 768 303 835 311 894 327 C 953 343 1007 370 1055 406 L 1257 145 C 1179 84 1097 41 1011 15 C 925 -10 818 -23 692 -23 Z M 866 688 C 863 738 855 775 843 797 C 831 819 812 835 786 847 C 760 858 725 864 680 864 C 608 864 553 850 516 824 C 479 798 456 756 448 698 L 446 688 L 866 688 Z M 121 1686 L 606 1686 L 885 1280 L 530 1280 L 121 1686 Z" unicode="è" />
<glyph horiz-adv-x="1294" d="M 692 -23 C 475 -23 315 25 212 123 C 108 220 57 376 57 590 C 57 735 80 852 128 940 C 175 1028 246 1094 340 1136 C 434 1178 551 1200 692 1200 C 874 1200 1008 1157 1096 1072 C 1184 986 1230 845 1236 649 L 1237 560 L 1235 449 L 450 449 C 461 398 486 361 524 338 C 562 314 618 303 692 303 C 768 303 835 311 894 327 C 953 343 1007 370 1055 406 L 1257 145 C 1179 84 1097 41 1011 15 C 925 -10 818 -23 692 -23 Z M 866 688 C 863 738 855 775 843 797 C 831 819 812 835 786 847 C 760 858 725 864 680 864 C 608 864 553 850 516 824 C 479 798 456 756 448 698 L 446 688 L 866 688 Z M 688 1686 L 1173 1686 L 764 1280 L 410 1280 L 688 1686 Z" unicode="é" />
<glyph horiz-adv-x="1294" d="M 692 -23 C 475 -23 315 25 212 123 C 108 220 57 376 57 590 C 57 735 80 852 128 940 C 175 1028 246 1094 340 1136 C 434 1178 551 1200 692 1200 C 874 1200 1008 1157 1096 1072 C 1184 986 1230 845 1236 649 L 1237 560 L 1235 449 L 450 449 C 461 398 486 361 524 338 C 562 314 618 303 692 303 C 768 303 835 311 894 327 C 953 343 1007 370 1055 406 L 1257 145 C 1179 84 1097 41 1011 15 C 925 -10 818 -23 692 -23 Z M 866 688 C 863 738 855 775 843 797 C 831 819 812 835 786 847 C 760 858 725 864 680 864 C 608 864 553 850 516 824 C 479 798 456 756 448 698 L 446 688 L 866 688 Z M 440 1686 L 854 1686 L 1173 1280 L 799 1280 L 643 1434 L 487 1280 L 121 1280 L 440 1686 Z" unicode="ê" />
<glyph horiz-adv-x="1294" d="M 692 -23 C 475 -23 315 25 212 123 C 108 220 57 376 57 590 C 57 735 80 852 128 940 C 175 1028 246 1094 340 1136 C 434 1178 551 1200 692 1200 C 874 1200 1008 1157 1096 1072 C 1184 986 1230 845 1236 649 L 1237 560 L 1235 449 L 450 449 C 461 398 486 361 524 338 C 562 314 618 303 692 303 C 768 303 835 311 894 327 C 953 343 1007 370 1055 406 L 1257 145 C 1179 84 1097 41 1011 15 C 925 -10 818 -23 692 -23 Z M 866 688 C 863 738 855 775 843 797 C 831 819 812 835 786 847 C 760 858 725 864 680 864 C 608 864 553 850 516 824 C 479 798 456 756 448 698 L 446 688 L 866 688 Z M 225 1597 L 590 1597 L 590 1280 L 225 1280 L 225 1597 Z M 707 1597 L 1071 1597 L 1071 1280 L 707 1280 L 707 1597 Z" unicode="ë" />
<glyph horiz-adv-x="657" d="M -137 1686 L 358 1686 L 526 1280 L 162 1280 L -137 1686 Z M 125 1174 L 530 1174 L 530 0 L 125 0 L 125 1174 Z" unicode="ì" />
<glyph horiz-adv-x="657" d="M 297 1686 L 793 1686 L 494 1280 L 129 1280 L 297 1686 Z M 125 1174 L 530 1174 L 530 0 L 125 0 L 125 1174 Z" unicode="í" />
<glyph horiz-adv-x="657" d="M 131 1686 L 524 1686 L 803 1280 L 438 1280 L 324 1434 L 209 1280 L -147 1280 L 131 1686 Z M 125 1174 L 530 1174 L 530 0 L 125 0 L 125 1174 Z" unicode="î" />
<glyph horiz-adv-x="657" d="M -43 1597 L 281 1597 L 281 1280 L -43 1280 L -43 1597 Z M 377 1597 L 700 1597 L 700 1280 L 377 1280 L 377 1597 Z M 125 1174 L 530 1174 L 530 0 L 125 0 L 125 1174 Z" unicode="ï" />
<glyph horiz-adv-x="1391" d="M 545 1354 L 683 1378 C 653 1426 620 1476 584 1526 L 983 1647 C 1027 1600 1072 1536 1120 1454 L 1343 1493 L 1343 1235 L 1227 1215 C 1259 1124 1285 1029 1303 930 C 1321 831 1331 737 1331 649 C 1331 417 1280 247 1179 139 C 1078 31 916 -23 692 -23 C 484 -23 327 24 219 119 C 111 214 57 353 57 535 C 57 709 99 839 184 924 C 268 1008 395 1051 565 1051 C 633 1051 695 1041 749 1021 C 803 1001 844 974 870 940 C 864 995 843 1062 808 1142 L 545 1096 L 545 1354 Z M 692 324 C 770 324 827 342 865 378 C 903 414 922 471 922 547 C 922 622 903 676 865 710 C 827 743 770 760 692 760 C 616 760 559 743 522 710 C 485 676 467 622 467 547 C 467 471 485 415 523 379 C 560 342 616 324 692 324 Z" unicode="ð" />
<glyph horiz-adv-x="1407" d="M 113 1151 L 428 1176 L 461 1071 C 540 1157 680 1200 881 1200 C 981 1200 1061 1183 1122 1149 C 1183 1115 1228 1064 1257 996 C 1285 928 1300 832 1300 709 L 1300 0 L 895 0 L 895 625 C 895 680 889 720 879 744 C 868 768 850 787 826 800 C 802 812 769 819 729 819 C 676 819 634 812 604 799 C 574 786 552 766 538 740 C 524 713 518 672 518 618 L 518 0 L 113 0 L 113 1151 Z M 159 1446 C 298 1616 429 1702 553 1702 C 589 1702 619 1696 645 1684 C 671 1672 694 1658 714 1644 C 734 1630 754 1617 773 1605 C 791 1593 812 1587 835 1587 C 885 1587 945 1628 1013 1712 L 1235 1530 C 1096 1359 965 1274 841 1274 C 784 1274 731 1293 683 1333 C 657 1353 635 1367 617 1377 C 598 1386 579 1391 561 1391 C 509 1391 449 1348 381 1264 L 159 1446 Z" unicode="ñ" />
<glyph horiz-adv-x="1386" d="M 694 -23 C 478 -23 318 27 214 127 C 109 227 57 381 57 590 C 57 798 109 951 214 1051 C 318 1150 478 1200 694 1200 C 910 1200 1069 1150 1173 1051 C 1277 952 1329 798 1329 590 C 1329 380 1277 226 1173 126 C 1069 26 910 -23 694 -23 Z M 694 324 C 773 324 831 343 867 381 C 903 419 922 485 922 578 C 922 670 903 736 867 774 C 830 812 772 831 694 831 C 639 831 595 822 562 804 C 528 786 504 759 489 725 C 474 691 467 642 467 578 C 467 484 485 418 522 380 C 558 342 616 324 694 324 Z M 166 1686 L 651 1686 L 930 1280 L 575 1280 L 166 1686 Z" unicode="ò" />
<glyph horiz-adv-x="1386" d="M 694 -23 C 478 -23 318 27 214 127 C 109 227 57 381 57 590 C 57 798 109 951 214 1051 C 318 1150 478 1200 694 1200 C 910 1200 1069 1150 1173 1051 C 1277 952 1329 798 1329 590 C 1329 380 1277 226 1173 126 C 1069 26 910 -23 694 -23 Z M 694 324 C 773 324 831 343 867 381 C 903 419 922 485 922 578 C 922 670 903 736 867 774 C 830 812 772 831 694 831 C 639 831 595 822 562 804 C 528 786 504 759 489 725 C 474 691 467 642 467 578 C 467 484 485 418 522 380 C 558 342 616 324 694 324 Z M 733 1686 L 1218 1686 L 809 1280 L 455 1280 L 733 1686 Z" unicode="ó" />
<glyph horiz-adv-x="1386" d="M 694 -23 C 478 -23 318 27 214 127 C 109 227 57 381 57 590 C 57 798 109 951 214 1051 C 318 1150 478 1200 694 1200 C 910 1200 1069 1150 1173 1051 C 1277 952 1329 798 1329 590 C 1329 380 1277 226 1173 126 C 1069 26 910 -23 694 -23 Z M 694 324 C 773 324 831 343 867 381 C 903 419 922 485 922 578 C 922 670 903 736 867 774 C 830 812 772 831 694 831 C 639 831 595 822 562 804 C 528 786 504 759 489 725 C 474 691 467 642 467 578 C 467 484 485 418 522 380 C 558 342 616 324 694 324 Z M 485 1686 L 899 1686 L 1218 1280 L 844 1280 L 688 1434 L 532 1280 L 166 1280 L 485 1686 Z" unicode="ô" />
<glyph horiz-adv-x="1386" d="M 694 -23 C 478 -23 318 27 214 127 C 109 227 57 381 57 590 C 57 798 109 951 214 1051 C 318 1150 478 1200 694 1200 C 910 1200 1069 1150 1173 1051 C 1277 952 1329 798 1329 590 C 1329 380 1277 226 1173 126 C 1069 26 910 -23 694 -23 Z M 694 324 C 773 324 831 343 867 381 C 903 419 922 485 922 578 C 922 670 903 736 867 774 C 830 812 772 831 694 831 C 639 831 595 822 562 804 C 528 786 504 759 489 725 C 474 691 467 642 467 578 C 467 484 485 418 522 380 C 558 342 616 324 694 324 Z M 149 1446 C 288 1616 419 1702 543 1702 C 579 1702 609 1696 635 1684 C 661 1672 684 1658 704 1644 C 724 1630 744 1617 763 1605 C 781 1593 802 1587 825 1587 C 875 1587 935 1628 1003 1712 L 1225 1530 C 1086 1359 955 1274 831 1274 C 774 1274 721 1293 673 1333 C 647 1353 625 1367 607 1377 C 588 1386 569 1391 551 1391 C 499 1391 439 1348 371 1264 L 149 1446 Z" unicode="õ" />
<glyph horiz-adv-x="1386" d="M 694 -23 C 478 -23 318 27 214 127 C 109 227 57 381 57 590 C 57 798 109 951 214 1051 C 318 1150 478 1200 694 1200 C 910 1200 1069 1150 1173 1051 C 1277 952 1329 798 1329 590 C 1329 380 1277 226 1173 126 C 1069 26 910 -23 694 -23 Z M 694 324 C 773 324 831 343 867 381 C 903 419 922 485 922 578 C 922 670 903 736 867 774 C 830 812 772 831 694 831 C 639 831 595 822 562 804 C 528 786 504 759 489 725 C 474 691 467 642 467 578 C 467 484 485 418 522 380 C 558 342 616 324 694 324 Z M 270 1597 L 635 1597 L 635 1280 L 270 1280 L 270 1597 Z M 752 1597 L 1116 1597 L 1116 1280 L 752 1280 L 752 1597 Z" unicode="ö" />
<glyph horiz-adv-x="1507" d="M 555 453 L 950 453 L 950 131 L 555 131 L 555 453 Z M 176 903 L 1331 903 L 1331 541 L 176 541 L 176 903 Z M 555 1313 L 950 1313 L 950 991 L 555 991 L 555 1313 Z" unicode="÷" />
<glyph horiz-adv-x="1386" d="M 694 -23 C 599 -23 517 -14 447 2 L 387 -90 L 109 -90 L 233 102 C 175 145 132 207 102 289 C 72 371 57 471 57 590 C 57 804 108 960 210 1056 C 312 1152 473 1200 694 1200 C 786 1200 867 1192 937 1176 L 997 1268 L 1280 1268 L 1154 1076 C 1218 1022 1263 955 1289 876 C 1315 796 1329 701 1329 590 C 1329 374 1277 217 1175 121 C 1073 25 912 -23 694 -23 Z M 694 313 C 750 313 796 322 831 341 C 865 359 890 387 906 423 C 922 459 930 510 930 578 C 930 645 922 696 907 732 L 634 316 L 694 313 Z M 694 842 C 638 842 593 833 559 815 C 525 797 499 770 483 735 C 467 699 459 647 459 578 C 459 515 464 469 476 439 L 737 840 L 694 842 Z" unicode="ø" />
<glyph horiz-adv-x="1389" d="M 694 -23 C 542 -23 425 -3 342 35 C 258 73 198 136 161 222 C 124 308 106 428 106 582 L 106 1174 L 512 1174 L 512 573 C 512 496 517 444 529 416 C 540 388 559 367 586 354 C 613 340 650 334 698 334 C 746 334 783 341 809 355 C 835 369 853 389 865 417 C 877 445 883 497 883 573 L 883 1174 L 1282 1174 L 1282 582 C 1282 424 1263 303 1226 218 C 1188 133 1128 72 1045 34 C 961 -4 844 -23 694 -23 Z M 168 1686 L 653 1686 L 932 1280 L 577 1280 L 168 1686 Z" unicode="ù" />
<glyph horiz-adv-x="1389" d="M 694 -23 C 542 -23 425 -3 342 35 C 258 73 198 136 161 222 C 124 308 106 428 106 582 L 106 1174 L 512 1174 L 512 573 C 512 496 517 444 529 416 C 540 388 559 367 586 354 C 613 340 650 334 698 334 C 746 334 783 341 809 355 C 835 369 853 389 865 417 C 877 445 883 497 883 573 L 883 1174 L 1282 1174 L 1282 582 C 1282 424 1263 303 1226 218 C 1188 133 1128 72 1045 34 C 961 -4 844 -23 694 -23 Z M 735 1686 L 1220 1686 L 811 1280 L 457 1280 L 735 1686 Z" unicode="ú" />
<glyph horiz-adv-x="1389" d="M 694 -23 C 542 -23 425 -3 342 35 C 258 73 198 136 161 222 C 124 308 106 428 106 582 L 106 1174 L 512 1174 L 512 573 C 512 496 517 444 529 416 C 540 388 559 367 586 354 C 613 340 650 334 698 334 C 746 334 783 341 809 355 C 835 369 853 389 865 417 C 877 445 883 497 883 573 L 883 1174 L 1282 1174 L 1282 582 C 1282 424 1263 303 1226 218 C 1188 133 1128 72 1045 34 C 961 -4 844 -23 694 -23 Z M 487 1686 L 901 1686 L 1220 1280 L 846 1280 L 690 1434 L 534 1280 L 168 1280 L 487 1686 Z" unicode="û" />
<glyph horiz-adv-x="1389" d="M 694 -23 C 542 -23 425 -3 342 35 C 258 73 198 136 161 222 C 124 308 106 428 106 582 L 106 1174 L 512 1174 L 512 573 C 512 496 517 444 529 416 C 540 388 559 367 586 354 C 613 340 650 334 698 334 C 746 334 783 341 809 355 C 835 369 853 389 865 417 C 877 445 883 497 883 573 L 883 1174 L 1282 1174 L 1282 582 C 1282 424 1263 303 1226 218 C 1188 133 1128 72 1045 34 C 961 -4 844 -23 694 -23 Z M 272 1597 L 637 1597 L 637 1280 L 272 1280 L 272 1597 Z M 754 1597 L 1118 1597 L 1118 1280 L 754 1280 L 754 1597 Z" unicode="ü" />
<glyph horiz-adv-x="1253" d="M -14 1174 L 424 1174 L 644 548 L 856 1174 L 1268 1174 L 815 -18 C 781 -110 743 -179 701 -224 C 659 -268 606 -300 541 -320 C 476 -340 390 -350 283 -350 L 158 -346 L 158 -43 L 244 -43 C 295 -43 331 -41 353 -37 C 375 -33 391 -27 402 -19 C 412 -10 421 7 428 33 L -14 1174 Z M 668 1686 L 1153 1686 L 744 1280 L 390 1280 L 668 1686 Z" unicode="ý" />
<glyph horiz-adv-x="1432" d="M 113 1589 L 516 1589 L 516 1108 C 581 1169 699 1200 870 1200 C 1038 1200 1164 1150 1248 1052 C 1332 954 1374 800 1374 590 C 1374 381 1329 227 1241 129 C 1152 31 1020 -18 846 -18 C 690 -18 581 12 518 72 L 518 -338 L 113 -338 L 113 1589 Z M 762 324 C 810 324 848 332 878 350 C 907 368 928 394 942 428 C 956 462 963 510 963 573 C 963 640 956 691 942 725 C 928 759 907 786 878 804 C 849 822 810 831 762 831 C 677 831 615 811 576 771 C 537 731 518 665 518 573 C 518 506 526 456 542 423 C 558 389 583 364 619 348 C 655 332 702 324 762 324 Z" unicode="þ" />
<glyph horiz-adv-x="1253" d="M -14 1174 L 424 1174 L 644 548 L 856 1174 L 1268 1174 L 815 -18 C 781 -110 743 -179 701 -224 C 659 -268 606 -300 541 -320 C 476 -340 390 -350 283 -350 L 158 -346 L 158 -43 L 244 -43 C 295 -43 331 -41 353 -37 C 375 -33 391 -27 402 -19 C 412 -10 421 7 428 33 L -14 1174 Z M 205 1597 L 570 1597 L 570 1280 L 205 1280 L 205 1597 Z M 687 1597 L 1051 1597 L 1051 1280 L 687 1280 L 687 1597 Z" unicode="ÿ" />
<glyph horiz-adv-x="1681" d="M 623 1528 L 1055 1528 L 1667 0 L 1227 0 L 1151 197 L 504 197 L 428 0 L 14 0 L 623 1528 Z M 1016 545 L 827 1028 L 639 545 L 1016 545 Z M 379 1917 L 1301 1917 L 1301 1595 L 379 1595 L 379 1917 Z" unicode="Ā" />
<glyph horiz-adv-x="1348" d="M 487 -18 C 379 -18 291 -4 225 21 C 158 47 109 86 78 138 C 46 190 31 261 31 352 C 31 452 53 530 99 587 C 144 643 215 684 313 710 C 411 735 563 748 770 748 L 807 748 C 805 779 798 800 786 812 C 774 823 755 831 729 837 C 703 843 665 846 616 846 C 558 846 500 837 442 821 C 383 805 330 782 283 752 L 80 1049 C 146 1093 233 1129 342 1157 C 450 1185 557 1200 662 1200 C 800 1200 906 1186 982 1158 C 1058 1130 1112 1084 1146 1022 C 1179 960 1196 865 1196 737 L 1196 424 C 1196 382 1201 357 1212 348 C 1223 338 1248 334 1288 334 L 1288 4 C 1260 -2 1202 -6 1116 -6 C 1045 -6 993 2 959 19 C 925 35 898 62 877 100 C 847 64 800 35 736 14 C 671 -7 588 -18 487 -18 Z M 416 387 C 416 357 427 337 450 325 C 472 313 513 307 571 307 C 652 307 712 319 750 343 C 788 367 807 408 807 465 L 807 504 L 797 504 C 720 504 658 502 611 499 C 563 496 525 491 497 484 C 468 477 447 467 435 455 C 422 442 416 419 416 387 Z M 213 1602 L 1135 1602 L 1135 1280 L 213 1280 L 213 1602 Z" unicode="ā" />
<glyph horiz-adv-x="1681" d="M 623 1528 L 1055 1528 L 1667 0 L 1227 0 L 1151 197 L 504 197 L 428 0 L 14 0 L 623 1528 Z M 1016 545 L 827 1028 L 639 545 L 1016 545 Z M 840 1575 C 746 1575 668 1590 607 1621 C 545 1651 496 1698 459 1760 C 422 1822 393 1912 371 2029 L 660 2082 C 676 2001 696 1948 720 1922 C 744 1896 784 1884 840 1884 C 895 1884 934 1896 958 1921 C 982 1946 1002 2000 1020 2082 L 1313 2031 C 1288 1910 1257 1819 1219 1758 C 1181 1696 1132 1650 1071 1620 C 1009 1590 932 1575 840 1575 Z" unicode="Ă" />
<glyph horiz-adv-x="1348" d="M 487 -18 C 379 -18 291 -4 225 21 C 158 47 109 86 78 138 C 46 190 31 261 31 352 C 31 452 53 530 99 587 C 144 643 215 684 313 710 C 411 735 563 748 770 748 L 807 748 C 805 779 798 800 786 812 C 774 823 755 831 729 837 C 703 843 665 846 616 846 C 558 846 500 837 442 821 C 383 805 330 782 283 752 L 80 1049 C 146 1093 233 1129 342 1157 C 450 1185 557 1200 662 1200 C 800 1200 906 1186 982 1158 C 1058 1130 1112 1084 1146 1022 C 1179 960 1196 865 1196 737 L 1196 424 C 1196 382 1201 357 1212 348 C 1223 338 1248 334 1288 334 L 1288 4 C 1260 -2 1202 -6 1116 -6 C 1045 -6 993 2 959 19 C 925 35 898 62 877 100 C 847 64 800 35 736 14 C 671 -7 588 -18 487 -18 Z M 416 387 C 416 357 427 337 450 325 C 472 313 513 307 571 307 C 652 307 712 319 750 343 C 788 367 807 408 807 465 L 807 504 L 797 504 C 720 504 658 502 611 499 C 563 496 525 491 497 484 C 468 477 447 467 435 455 C 422 442 416 419 416 387 Z M 674 1260 C 580 1260 502 1275 441 1306 C 379 1336 330 1383 293 1445 C 256 1507 227 1597 205 1714 L 494 1767 C 510 1686 530 1633 554 1607 C 578 1581 618 1569 674 1569 C 729 1569 768 1581 792 1606 C 816 1631 836 1685 854 1767 L 1147 1716 C 1122 1595 1091 1504 1053 1443 C 1015 1381 966 1335 905 1305 C 843 1275 766 1260 674 1260 Z" unicode="ă" />
<glyph horiz-adv-x="1681" d="M 623 1528 L 1055 1528 L 1667 0 L 1493 0 C 1373 -86 1313 -163 1313 -229 C 1313 -253 1320 -270 1336 -280 C 1351 -290 1380 -295 1423 -295 C 1483 -295 1550 -281 1624 -254 L 1681 -436 C 1563 -486 1454 -512 1354 -512 C 1242 -512 1162 -494 1113 -459 C 1064 -423 1040 -362 1040 -276 C 1040 -218 1057 -164 1091 -115 C 1125 -65 1169 -27 1225 0 L 1151 197 L 504 197 L 428 0 L 14 0 L 623 1528 Z M 1016 545 L 827 1028 L 639 545 L 1016 545 Z" unicode="Ą" />
<glyph horiz-adv-x="1348" d="M 487 -18 C 379 -18 291 -4 225 21 C 158 47 109 86 78 138 C 46 190 31 261 31 352 C 31 452 53 530 99 587 C 144 643 215 684 313 710 C 411 735 563 748 770 748 L 807 748 C 805 779 798 801 785 813 C 772 825 752 833 725 838 C 697 843 661 846 616 846 C 558 846 500 837 442 821 C 383 805 330 782 283 752 L 80 1049 C 146 1093 233 1129 342 1157 C 450 1185 557 1200 662 1200 C 800 1200 906 1186 982 1158 C 1058 1130 1112 1084 1146 1022 C 1179 960 1196 865 1196 737 L 1196 424 C 1196 382 1201 357 1212 348 C 1223 338 1248 334 1288 334 L 1288 4 C 1218 -42 1167 -83 1135 -119 C 1103 -155 1087 -192 1087 -229 C 1087 -254 1095 -271 1112 -281 C 1128 -290 1157 -295 1198 -295 C 1257 -295 1310 -286 1358 -268 L 1415 -451 C 1315 -491 1220 -512 1128 -512 C 1016 -512 935 -494 887 -458 C 839 -422 815 -362 815 -276 C 815 -221 831 -169 865 -120 C 898 -70 945 -29 1006 4 C 946 18 903 50 877 100 C 847 64 800 35 736 14 C 671 -7 588 -18 487 -18 Z M 571 307 C 652 307 712 319 750 343 C 788 367 807 408 807 465 L 807 504 L 797 504 C 720 504 658 502 611 499 C 563 496 525 491 497 484 C 468 477 447 467 435 455 C 422 442 416 419 416 387 C 416 357 427 337 450 325 C 472 313 513 307 571 307 Z" unicode="ą" />
<glyph horiz-adv-x="1593" d="M 856 -23 C 582 -23 380 39 252 163 C 123 287 59 486 59 760 C 59 1281 333 1542 883 1542 C 1025 1542 1146 1523 1244 1487 C 1342 1451 1431 1391 1511 1307 L 1219 1014 C 1165 1068 1112 1104 1061 1124 C 1009 1143 949 1153 881 1153 C 745 1153 646 1121 582 1058 C 518 994 487 893 487 754 C 487 654 500 577 527 522 C 553 466 595 425 653 397 C 710 369 787 356 883 356 C 933 356 977 360 1017 370 C 1056 380 1092 394 1125 413 C 1157 431 1197 462 1243 506 L 1522 233 C 1433 139 1336 72 1232 34 C 1128 -3 1002 -23 856 -23 Z M 838 2001 L 1323 2001 L 914 1595 L 560 1595 L 838 2001 Z" unicode="Ć" />
<glyph horiz-adv-x="1227" d="M 678 -18 C 540 -18 425 2 333 44 C 241 86 172 150 126 238 C 80 326 57 443 57 590 C 57 739 81 858 129 946 C 177 1034 248 1098 344 1139 C 439 1179 557 1200 698 1200 C 918 1200 1085 1132 1200 997 L 915 729 C 877 769 841 795 809 809 C 777 822 739 829 696 829 C 616 829 557 810 521 774 C 485 737 467 672 467 578 C 467 482 485 416 522 379 C 559 342 618 324 700 324 C 748 324 790 331 825 347 C 859 362 898 390 940 430 L 1198 184 C 1114 105 1035 52 961 24 C 887 -4 792 -18 678 -18 Z M 653 1686 L 1138 1686 L 729 1280 L 375 1280 L 653 1686 Z" unicode="ć" />
<glyph horiz-adv-x="1593" d="M 856 -23 C 582 -23 380 39 252 163 C 123 287 59 486 59 760 C 59 1281 333 1542 883 1542 C 1025 1542 1146 1523 1244 1487 C 1342 1451 1431 1391 1511 1307 L 1219 1014 C 1165 1068 1112 1104 1061 1124 C 1009 1143 949 1153 881 1153 C 745 1153 646 1121 582 1058 C 518 994 487 893 487 754 C 487 654 500 577 527 522 C 553 466 595 425 653 397 C 710 369 787 356 883 356 C 933 356 977 360 1017 370 C 1056 380 1092 394 1125 413 C 1157 431 1197 462 1243 506 L 1522 233 C 1433 139 1336 72 1232 34 C 1128 -3 1002 -23 856 -23 Z M 271 2001 L 646 2001 L 801 1847 L 957 2001 L 1323 2001 L 1004 1595 L 590 1595 L 271 2001 Z" unicode="Č" />
<glyph horiz-adv-x="1227" d="M 678 -18 C 540 -18 425 2 333 44 C 241 86 172 150 126 238 C 80 326 57 443 57 590 C 57 739 81 858 129 946 C 177 1034 248 1098 344 1139 C 439 1179 557 1200 698 1200 C 918 1200 1085 1132 1200 997 L 915 729 C 877 769 841 795 809 809 C 777 822 739 829 696 829 C 616 829 557 810 521 774 C 485 737 467 672 467 578 C 467 482 485 416 522 379 C 559 342 618 324 700 324 C 748 324 790 331 825 347 C 859 362 898 390 940 430 L 1198 184 C 1114 105 1035 52 961 24 C 887 -4 792 -18 678 -18 Z M 86 1686 L 461 1686 L 616 1532 L 772 1686 L 1138 1686 L 819 1280 L 405 1280 L 86 1686 Z" unicode="č" />
<glyph horiz-adv-x="1645" d="M 139 1518 L 709 1518 C 944 1518 1122 1493 1243 1445 C 1363 1396 1451 1317 1505 1209 C 1559 1100 1587 950 1587 760 C 1587 569 1559 419 1503 310 C 1447 201 1359 122 1238 73 C 1116 24 940 0 709 0 L 139 0 L 139 1518 Z M 733 369 C 847 369 934 379 994 400 C 1054 421 1096 456 1121 504 C 1146 552 1159 638 1159 760 C 1159 857 1152 927 1138 970 C 1124 1012 1102 1045 1071 1069 C 1040 1092 996 1109 940 1120 C 884 1131 808 1137 713 1137 L 563 1137 L 563 369 L 733 369 Z M 295 2001 L 670 2001 L 825 1847 L 981 2001 L 1347 2001 L 1028 1595 L 614 1595 L 295 2001 Z" unicode="Ď" />
<glyph horiz-adv-x="1804" d="M 1430 1069 C 1494 1099 1533 1119 1549 1130 C 1564 1140 1575 1151 1581 1162 C 1587 1172 1591 1188 1591 1210 L 1432 1210 L 1432 1589 L 1804 1589 L 1804 1325 C 1804 1226 1796 1155 1781 1113 C 1765 1070 1739 1033 1701 1003 C 1663 972 1600 938 1511 901 L 1430 1069 Z M 569 -23 C 227 -23 57 182 57 594 C 57 998 232 1200 584 1200 C 734 1200 843 1170 911 1110 L 911 1589 L 1319 1589 L 1319 14 L 1008 -14 L 967 92 C 883 15 751 -23 569 -23 Z M 670 326 C 750 326 811 346 851 387 C 891 428 911 497 911 594 C 911 660 903 710 888 742 C 872 774 847 797 812 813 C 777 828 730 836 670 836 C 622 836 583 827 554 811 C 524 794 503 770 489 738 C 475 706 469 658 469 594 C 469 525 475 473 489 437 C 503 401 524 374 554 355 C 583 335 622 326 670 326 Z" unicode="ď" />
<glyph horiz-adv-x="1645" d="M 0 924 L 139 924 L 139 1518 L 709 1518 C 944 1518 1122 1493 1243 1445 C 1363 1396 1451 1317 1505 1209 C 1559 1100 1587 950 1587 760 C 1587 574 1558 426 1500 316 C 1442 206 1352 125 1230 75 C 1108 25 934 0 709 0 L 139 0 L 139 590 L 0 590 L 0 924 Z M 733 369 C 847 369 934 379 994 400 C 1054 421 1096 456 1121 504 C 1146 552 1159 638 1159 760 C 1159 857 1152 927 1138 970 C 1124 1012 1102 1045 1071 1069 C 1040 1092 996 1109 940 1120 C 884 1131 808 1137 713 1137 L 563 1137 L 563 924 L 813 924 L 813 590 L 563 590 L 563 369 L 733 369 Z" unicode="Đ" />
<glyph horiz-adv-x="1432" d="M 569 -23 C 227 -23 57 182 57 594 C 57 998 232 1200 584 1200 C 734 1200 843 1170 911 1110 L 911 1237 L 729 1237 L 729 1497 L 911 1497 L 911 1589 L 1319 1589 L 1319 1497 L 1430 1497 L 1430 1237 L 1319 1237 L 1319 14 L 1008 -14 L 967 92 C 883 15 751 -23 569 -23 Z M 670 326 C 750 326 811 346 851 387 C 891 428 911 497 911 594 C 911 660 903 710 888 742 C 872 774 847 797 812 813 C 777 828 730 836 670 836 C 622 836 583 827 554 811 C 524 794 503 770 489 738 C 475 706 469 658 469 594 C 469 525 475 473 489 437 C 503 401 524 374 554 355 C 583 335 622 326 670 326 Z" unicode="đ" />
<glyph horiz-adv-x="1458" d="M 139 1518 L 1348 1518 L 1348 1135 L 563 1135 L 563 950 L 1327 950 L 1327 580 L 563 580 L 563 367 L 1356 367 L 1356 0 L 139 0 L 139 1518 Z M 268 1917 L 1190 1917 L 1190 1595 L 268 1595 L 268 1917 Z" unicode="Ē" />
<glyph horiz-adv-x="1294" d="M 692 -23 C 475 -23 315 25 212 123 C 108 220 57 376 57 590 C 57 735 80 852 128 940 C 175 1028 246 1094 340 1136 C 434 1178 551 1200 692 1200 C 874 1200 1008 1157 1096 1072 C 1184 986 1230 845 1236 649 L 1237 560 L 1235 449 L 450 449 C 461 398 486 361 524 338 C 562 314 618 303 692 303 C 768 303 835 311 894 327 C 953 343 1007 370 1055 406 L 1257 145 C 1179 84 1097 41 1011 15 C 925 -10 818 -23 692 -23 Z M 866 688 C 863 738 855 775 843 797 C 831 819 812 835 786 847 C 760 858 725 864 680 864 C 608 864 553 850 516 824 C 479 798 456 756 448 698 L 446 688 L 866 688 Z M 186 1602 L 1108 1602 L 1108 1280 L 186 1280 L 186 1602 Z" unicode="ē" />
<glyph horiz-adv-x="1458" d="M 139 1518 L 1348 1518 L 1348 1135 L 563 1135 L 563 950 L 1327 950 L 1327 580 L 563 580 L 563 367 L 1356 367 L 1356 0 L 139 0 L 139 1518 Z M 522 1917 L 934 1917 L 934 1595 L 522 1595 L 522 1917 Z" unicode="Ė" />
<glyph horiz-adv-x="1294" d="M 692 -23 C 475 -23 315 25 212 123 C 108 220 57 376 57 590 C 57 735 80 852 128 940 C 175 1028 246 1094 340 1136 C 434 1178 551 1200 692 1200 C 874 1200 1008 1157 1096 1072 C 1184 986 1230 845 1236 649 L 1237 560 L 1235 449 L 450 449 C 461 398 486 361 524 338 C 562 314 618 303 692 303 C 768 303 835 311 894 327 C 953 343 1007 370 1055 406 L 1257 145 C 1179 84 1097 41 1011 15 C 925 -10 818 -23 692 -23 Z M 866 688 C 863 738 855 775 843 797 C 831 819 812 835 786 847 C 760 858 725 864 680 864 C 608 864 553 850 516 824 C 479 798 456 756 448 698 L 446 688 L 866 688 Z M 440 1602 L 852 1602 L 852 1280 L 440 1280 L 440 1602 Z" unicode="ė" />
<glyph horiz-adv-x="1458" d="M 139 1518 L 1348 1518 L 1348 1135 L 563 1135 L 563 950 L 1327 950 L 1327 580 L 563 580 L 563 367 L 1356 367 L 1356 0 L 1171 0 C 1051 -87 991 -163 991 -229 C 991 -254 999 -271 1016 -281 C 1032 -290 1061 -295 1102 -295 C 1162 -295 1229 -281 1303 -254 L 1360 -436 C 1240 -486 1131 -512 1032 -512 C 956 -512 895 -504 850 -488 C 804 -472 771 -448 750 -416 C 729 -383 719 -336 719 -276 C 719 -222 739 -170 779 -121 C 819 -72 872 -32 940 0 L 139 0 L 139 1518 Z" unicode="Ę" />
<glyph horiz-adv-x="1294" d="M 692 -23 C 475 -23 315 25 212 123 C 108 220 57 376 57 590 C 57 735 80 852 128 940 C 175 1028 246 1094 340 1136 C 434 1178 551 1200 692 1200 C 874 1200 1008 1157 1096 1072 C 1184 986 1230 845 1236 649 L 1237 560 L 1235 449 L 451 449 C 461 399 484 362 521 338 C 557 314 614 303 692 303 C 768 303 835 311 894 327 C 953 343 1007 370 1055 406 L 1257 145 C 1171 80 1083 35 993 10 C 928 -36 879 -78 846 -116 C 813 -154 797 -192 797 -229 C 797 -253 804 -270 820 -280 C 835 -290 864 -295 907 -295 C 967 -295 1034 -281 1108 -254 L 1165 -436 C 1047 -486 938 -512 838 -512 C 726 -512 646 -494 597 -459 C 548 -423 524 -362 524 -276 C 524 -228 539 -182 571 -138 C 602 -94 647 -55 705 -23 L 692 -23 Z M 680 864 C 606 864 550 850 514 823 C 478 796 455 751 446 688 L 866 688 C 863 738 855 775 843 797 C 831 819 812 835 786 847 C 760 858 725 864 680 864 Z" unicode="ę" />
<glyph horiz-adv-x="1458" d="M 139 1518 L 1348 1518 L 1348 1135 L 563 1135 L 563 950 L 1327 950 L 1327 580 L 563 580 L 563 367 L 1356 367 L 1356 0 L 139 0 L 139 1518 Z M 203 2001 L 578 2001 L 733 1847 L 889 2001 L 1255 2001 L 936 1595 L 522 1595 L 203 2001 Z" unicode="Ě" />
<glyph horiz-adv-x="1294" d="M 692 -23 C 475 -23 315 25 212 123 C 108 220 57 376 57 590 C 57 735 80 852 128 940 C 175 1028 246 1094 340 1136 C 434 1178 551 1200 692 1200 C 874 1200 1008 1157 1096 1072 C 1184 986 1230 845 1236 649 L 1237 560 L 1235 449 L 450 449 C 461 398 486 361 524 338 C 562 314 618 303 692 303 C 768 303 835 311 894 327 C 953 343 1007 370 1055 406 L 1257 145 C 1179 84 1097 41 1011 15 C 925 -10 818 -23 692 -23 Z M 866 688 C 863 738 855 775 843 797 C 831 819 812 835 786 847 C 760 858 725 864 680 864 C 608 864 553 850 516 824 C 479 798 456 756 448 698 L 446 688 L 866 688 Z M 121 1686 L 496 1686 L 651 1532 L 807 1686 L 1173 1686 L 854 1280 L 440 1280 L 121 1686 Z" unicode="ě" />
<glyph horiz-adv-x="1659" d="M 850 -23 C 658 -23 505 3 390 55 C 274 107 190 188 138 297 C 85 406 59 560 59 760 C 59 1022 126 1217 262 1347 C 397 1477 603 1542 881 1542 C 1023 1542 1148 1523 1255 1487 C 1361 1450 1452 1392 1528 1313 L 1235 1020 C 1183 1072 1129 1107 1074 1125 C 1019 1143 954 1153 879 1153 C 742 1153 642 1122 578 1060 C 514 998 483 897 483 756 C 483 637 495 550 519 494 C 543 438 584 398 640 372 C 696 346 774 334 872 334 C 993 334 1078 350 1127 382 C 1175 414 1200 467 1200 539 L 1200 563 L 815 563 L 815 905 L 1610 905 L 1610 623 C 1610 466 1584 341 1533 249 C 1481 156 1401 87 1291 43 C 1181 0 1034 -23 850 -23 Z M 829 1575 C 735 1575 657 1590 596 1621 C 534 1651 485 1698 448 1760 C 411 1822 382 1912 360 2029 L 649 2082 C 665 2001 685 1948 709 1922 C 733 1896 773 1884 829 1884 C 884 1884 923 1896 947 1921 C 971 1946 991 2000 1009 2082 L 1302 2031 C 1277 1910 1246 1819 1208 1758 C 1170 1696 1121 1650 1060 1620 C 998 1590 921 1575 829 1575 Z" unicode="Ğ" />
<glyph horiz-adv-x="1393" d="M 666 432 C 622 432 580 433 541 436 L 539 414 C 539 396 543 384 553 378 C 563 372 580 367 605 365 C 630 363 663 362 705 362 C 875 362 1004 352 1092 333 C 1180 313 1242 281 1278 237 C 1314 193 1333 124 1333 31 C 1333 -108 1281 -209 1177 -272 C 1073 -335 902 -367 664 -367 C 472 -367 335 -358 252 -342 C 169 -325 110 -297 74 -257 C 38 -217 20 -160 20 -84 C 20 -17 41 37 83 81 C 125 124 184 154 258 172 C 204 216 178 274 178 348 C 178 413 198 468 239 513 C 185 545 146 585 122 632 C 98 678 86 735 86 801 C 86 936 133 1036 229 1102 C 325 1167 470 1200 666 1200 L 702 1200 L 1286 1333 L 1286 1028 L 1131 1028 L 1148 1018 C 1215 976 1249 904 1249 801 C 1249 673 1203 579 1111 520 C 1019 461 871 432 666 432 Z M 680 -111 C 764 -111 825 -103 862 -87 C 899 -71 918 -42 918 -2 C 918 32 900 54 865 66 C 830 78 768 84 680 84 C 610 84 558 81 524 77 C 490 72 465 64 451 52 C 437 40 430 20 430 -10 C 430 -39 438 -60 454 -73 C 470 -86 496 -96 534 -102 C 571 -108 620 -111 680 -111 Z M 666 659 C 732 659 779 667 807 684 C 835 700 850 732 850 778 C 850 810 844 834 833 850 C 821 866 802 877 775 885 C 748 893 712 897 666 897 C 600 897 553 888 525 871 C 497 854 483 823 483 778 C 483 734 496 703 524 685 C 551 667 598 659 666 659 Z M 696 1260 C 602 1260 524 1275 463 1306 C 401 1336 352 1383 315 1445 C 278 1507 249 1597 227 1714 L 516 1767 C 532 1686 552 1633 576 1607 C 600 1581 640 1569 696 1569 C 751 1569 790 1581 814 1606 C 838 1631 858 1685 876 1767 L 1169 1716 C 1144 1595 1113 1504 1075 1443 C 1037 1381 988 1335 927 1305 C 865 1275 788 1260 696 1260 Z" unicode="ğ" />
<glyph horiz-adv-x="1659" d="M 850 -23 C 658 -23 505 3 390 55 C 274 107 190 188 138 297 C 85 406 59 560 59 760 C 59 1022 126 1217 262 1347 C 397 1477 603 1542 881 1542 C 1023 1542 1148 1523 1255 1487 C 1361 1450 1452 1392 1528 1313 L 1235 1020 C 1183 1072 1129 1107 1074 1125 C 1019 1143 954 1153 879 1153 C 742 1153 642 1122 578 1060 C 514 998 483 897 483 756 C 483 637 495 550 519 494 C 543 438 584 398 640 372 C 696 346 774 334 872 334 C 993 334 1078 350 1127 382 C 1175 414 1200 467 1200 539 L 1200 563 L 815 563 L 815 905 L 1610 905 L 1610 623 C 1610 466 1584 341 1533 249 C 1481 156 1401 87 1291 43 C 1181 0 1034 -23 850 -23 Z M 652 -598 C 716 -568 755 -547 771 -537 C 786 -526 797 -515 803 -505 C 809 -494 813 -478 813 -457 L 633 -457 L 633 -78 L 1026 -78 L 1026 -342 C 1026 -440 1018 -511 1003 -554 C 987 -596 961 -633 923 -664 C 885 -694 822 -728 733 -766 L 652 -598 Z" unicode="Ģ" />
<glyph horiz-adv-x="1393" d="M 500 1507 C 500 1605 507 1676 523 1718 C 538 1760 565 1797 604 1828 C 642 1859 706 1893 795 1931 L 875 1763 C 821 1738 784 1720 764 1708 C 744 1696 730 1684 723 1672 C 716 1660 713 1644 713 1622 L 893 1622 L 893 1280 L 500 1280 L 500 1507 Z M 666 432 C 622 432 580 433 541 436 L 539 414 C 539 396 543 384 553 378 C 563 372 580 367 605 365 C 630 363 663 362 705 362 C 875 362 1004 352 1092 333 C 1180 313 1242 281 1278 237 C 1314 193 1333 124 1333 31 C 1333 -108 1281 -209 1177 -272 C 1073 -335 902 -367 664 -367 C 472 -367 335 -358 252 -342 C 169 -325 110 -297 74 -257 C 38 -217 20 -160 20 -84 C 20 -17 41 37 83 81 C 125 124 184 154 258 172 C 204 216 178 274 178 348 C 178 413 198 468 239 513 C 185 545 146 585 122 632 C 98 678 86 735 86 801 C 86 936 133 1036 229 1102 C 325 1167 470 1200 666 1200 L 702 1200 L 1286 1333 L 1286 1028 L 1131 1028 L 1148 1018 C 1215 976 1249 904 1249 801 C 1249 673 1203 579 1111 520 C 1019 461 871 432 666 432 Z M 680 -111 C 764 -111 825 -103 862 -87 C 899 -71 918 -42 918 -2 C 918 32 900 54 865 66 C 830 78 768 84 680 84 C 610 84 558 81 524 77 C 490 72 465 64 451 52 C 437 40 430 20 430 -10 C 430 -39 438 -60 454 -73 C 470 -86 496 -96 534 -102 C 571 -108 620 -111 680 -111 Z M 666 659 C 732 659 779 667 807 684 C 835 700 850 732 850 778 C 850 810 844 834 833 850 C 821 866 802 877 775 885 C 748 893 712 897 666 897 C 600 897 553 888 525 871 C 497 854 483 823 483 778 C 483 734 496 703 524 685 C 551 667 598 659 666 659 Z" unicode="ģ" />
<glyph horiz-adv-x="752" d="M 164 1518 L 588 1518 L 588 0 L 164 0 L 164 1518 Z M -85 1917 L 837 1917 L 837 1595 L -85 1595 L -85 1917 Z" unicode="Ī" />
<glyph horiz-adv-x="657" d="M 125 1174 L 530 1174 L 530 0 L 125 0 L 125 1174 Z M -133 1602 L 789 1602 L 789 1280 L -133 1280 L -133 1602 Z" unicode="ī" />
<glyph horiz-adv-x="752" d="M 164 1518 L 588 1518 L 588 0 C 521 -44 473 -84 445 -120 C 417 -156 403 -192 403 -229 C 403 -254 411 -271 428 -281 C 444 -290 473 -295 514 -295 C 572 -295 630 -284 690 -262 L 748 -444 C 645 -489 544 -512 444 -512 C 332 -512 251 -494 203 -458 C 155 -422 131 -362 131 -276 C 131 -219 147 -166 181 -117 C 214 -67 258 -28 313 0 L 164 0 L 164 1518 Z" unicode="Į" />
<glyph horiz-adv-x="657" d="M 125 1174 L 530 1174 L 530 0 C 463 -44 416 -84 388 -120 C 360 -156 346 -192 346 -229 C 346 -254 354 -271 371 -281 C 387 -290 416 -295 457 -295 C 515 -295 573 -284 633 -262 L 690 -444 C 587 -489 486 -512 387 -512 C 311 -512 250 -504 205 -488 C 159 -472 126 -448 105 -416 C 84 -383 74 -336 74 -276 C 74 -219 90 -166 124 -117 C 157 -67 201 -28 256 0 L 125 0 L 125 1174 Z M 123 1589 L 532 1589 L 532 1260 L 123 1260 L 123 1589 Z" unicode="į" />
<glyph horiz-adv-x="752" d="M 164 1518 L 588 1518 L 588 0 L 164 0 L 164 1518 Z M 169 1917 L 581 1917 L 581 1595 L 169 1595 L 169 1917 Z" unicode="İ" />
<glyph horiz-adv-x="657" d="M 125 1174 L 530 1174 L 530 0 L 125 0 L 125 1174 Z" unicode="ı" />
<glyph horiz-adv-x="1614" d="M 139 1518 L 557 1518 L 557 921 L 1034 1518 L 1501 1518 L 1003 914 L 1575 0 L 1094 0 L 729 582 L 557 373 L 557 0 L 139 0 L 139 1518 Z M 629 -598 C 693 -568 732 -547 748 -537 C 763 -526 774 -515 780 -505 C 786 -494 790 -478 790 -457 L 610 -457 L 610 -78 L 1003 -78 L 1003 -342 C 1003 -440 995 -511 980 -554 C 964 -596 938 -633 900 -664 C 862 -694 799 -728 710 -766 L 629 -598 Z" unicode="Ķ" />
<glyph horiz-adv-x="1305" d="M 113 1589 L 514 1589 L 514 777 L 831 1174 L 1274 1174 L 891 699 L 1305 0 L 854 0 L 618 390 L 514 266 L 514 0 L 113 0 L 113 1589 Z M 474 -598 C 538 -568 577 -547 593 -537 C 608 -526 619 -515 625 -505 C 631 -494 635 -478 635 -457 L 455 -457 L 455 -78 L 848 -78 L 848 -342 C 848 -440 840 -511 825 -554 C 809 -596 783 -633 745 -664 C 707 -694 644 -728 555 -766 L 474 -598 Z" unicode="ķ" />
<glyph horiz-adv-x="1294" d="M 139 1518 L 563 1518 L 563 367 L 1278 367 L 1278 0 L 139 0 L 139 1518 Z M 456 2001 L 941 2001 L 532 1595 L 178 1595 L 456 2001 Z" unicode="Ĺ" />
<glyph horiz-adv-x="750" d="M 485 -4 C 394 -4 324 9 274 36 C 224 62 187 104 162 162 C 137 220 125 296 125 391 L 125 1589 L 530 1589 L 530 442 C 530 400 537 372 551 358 C 565 344 593 338 635 338 L 670 338 L 670 4 C 638 -1 576 -4 485 -4 Z M 417 2083 L 902 2083 L 493 1677 L 139 1677 L 417 2083 Z" unicode="ĺ" />
<glyph horiz-adv-x="1294" d="M 139 1518 L 563 1518 L 563 367 L 1278 367 L 1278 0 L 139 0 L 139 1518 Z M 469 -598 C 533 -568 572 -547 588 -537 C 603 -526 614 -515 620 -505 C 626 -494 630 -478 630 -457 L 450 -457 L 450 -78 L 843 -78 L 843 -342 C 843 -440 835 -511 820 -554 C 804 -596 778 -633 740 -664 C 702 -694 639 -728 550 -766 L 469 -598 Z" unicode="Ļ" />
<glyph horiz-adv-x="750" d="M 485 -4 C 394 -4 324 9 274 36 C 224 62 187 104 162 162 C 137 220 125 296 125 391 L 125 1589 L 530 1589 L 530 442 C 530 400 537 372 551 358 C 565 344 593 338 635 338 L 670 338 L 670 4 C 638 -1 576 -4 485 -4 Z M 197 -598 C 261 -568 300 -547 316 -537 C 331 -526 342 -515 348 -505 C 354 -494 358 -478 358 -457 L 178 -457 L 178 -78 L 571 -78 L 571 -342 C 571 -440 563 -511 548 -554 C 532 -596 506 -633 468 -664 C 430 -694 367 -728 278 -766 L 197 -598 Z" unicode="ļ" />
<glyph horiz-adv-x="1294" d="M 672 1069 C 739 1101 780 1122 795 1132 C 809 1142 819 1153 825 1164 C 831 1174 834 1190 834 1210 L 674 1210 L 674 1589 L 1047 1589 L 1047 1325 C 1047 1227 1039 1157 1024 1114 C 1008 1070 981 1033 942 1002 C 903 971 840 937 754 901 L 672 1069 Z M 139 1518 L 563 1518 L 563 367 L 1278 367 L 1278 0 L 139 0 L 139 1518 Z" unicode="Ľ" />
<glyph horiz-adv-x="1016" d="M 641 1069 C 708 1101 749 1122 764 1132 C 778 1142 788 1153 794 1164 C 800 1174 803 1190 803 1210 L 643 1210 L 643 1589 L 1016 1589 L 1016 1325 C 1016 1227 1008 1157 993 1114 C 977 1070 950 1033 911 1002 C 872 971 809 937 723 901 L 641 1069 Z M 485 -4 C 394 -4 324 9 274 36 C 224 62 187 104 162 162 C 137 220 125 296 125 391 L 125 1589 L 530 1589 L 530 442 C 530 400 537 372 551 358 C 565 344 593 338 635 338 L 670 338 L 670 4 C 638 -1 576 -4 485 -4 Z" unicode="ľ" />
<glyph horiz-adv-x="1294" d="M 0 819 L 139 895 L 139 1518 L 563 1518 L 563 1128 L 811 1264 L 811 924 L 563 788 L 563 367 L 1278 367 L 1278 0 L 139 0 L 139 555 L 0 479 L 0 819 Z" unicode="Ł" />
<glyph horiz-adv-x="883" d="M 51 932 L 217 1027 L 217 1589 L 623 1589 L 623 1261 L 788 1356 L 788 1016 L 623 921 L 623 442 C 623 398 629 370 643 357 C 657 344 685 338 727 338 L 762 338 L 762 4 C 730 -1 668 -4 578 -4 C 487 -4 417 9 367 36 C 317 62 279 105 254 163 C 229 221 217 297 217 391 L 217 687 L 51 592 L 51 932 Z" unicode="ł" />
<glyph horiz-adv-x="1731" d="M 139 1518 L 594 1518 L 1186 715 L 1186 1518 L 1591 1518 L 1591 0 L 1200 0 L 545 887 L 545 0 L 139 0 L 139 1518 Z M 905 2001 L 1390 2001 L 981 1595 L 627 1595 L 905 2001 Z" unicode="Ń" />
<glyph horiz-adv-x="1407" d="M 113 1151 L 428 1176 L 461 1071 C 540 1157 680 1200 881 1200 C 981 1200 1061 1183 1122 1149 C 1183 1115 1228 1064 1257 996 C 1285 928 1300 832 1300 709 L 1300 0 L 895 0 L 895 625 C 895 680 889 720 879 744 C 868 768 850 787 826 800 C 802 812 769 819 729 819 C 676 819 634 812 604 799 C 574 786 552 766 538 740 C 524 713 518 672 518 618 L 518 0 L 113 0 L 113 1151 Z M 743 1686 L 1228 1686 L 819 1280 L 465 1280 L 743 1686 Z" unicode="ń" />
<glyph horiz-adv-x="1731" d="M 139 1518 L 594 1518 L 1186 715 L 1186 1518 L 1591 1518 L 1591 0 L 1200 0 L 545 887 L 545 0 L 139 0 L 139 1518 Z M 687 -598 C 751 -568 790 -547 806 -537 C 821 -526 832 -515 838 -505 C 844 -494 848 -478 848 -457 L 668 -457 L 668 -78 L 1061 -78 L 1061 -342 C 1061 -440 1053 -511 1038 -554 C 1022 -596 996 -633 958 -664 C 920 -694 857 -728 768 -766 L 687 -598 Z" unicode="Ņ" />
<glyph horiz-adv-x="1407" d="M 113 1151 L 428 1176 L 461 1071 C 540 1157 680 1200 881 1200 C 981 1200 1061 1183 1122 1149 C 1183 1115 1228 1064 1257 996 C 1285 928 1300 832 1300 709 L 1300 0 L 895 0 L 895 625 C 895 680 889 720 879 744 C 868 768 850 787 826 800 C 802 812 769 819 729 819 C 676 819 634 812 604 799 C 574 786 552 766 538 740 C 524 713 518 672 518 618 L 518 0 L 113 0 L 113 1151 Z M 525 -598 C 589 -568 628 -547 644 -537 C 659 -526 670 -515 676 -505 C 682 -494 686 -478 686 -457 L 506 -457 L 506 -78 L 899 -78 L 899 -342 C 899 -440 891 -511 876 -554 C 860 -596 834 -633 796 -664 C 758 -694 695 -728 606 -766 L 525 -598 Z" unicode="ņ" />
<glyph horiz-adv-x="1731" d="M 139 1518 L 594 1518 L 1186 715 L 1186 1518 L 1591 1518 L 1591 0 L 1200 0 L 545 887 L 545 0 L 139 0 L 139 1518 Z M 338 2001 L 713 2001 L 868 1847 L 1024 2001 L 1390 2001 L 1071 1595 L 657 1595 L 338 2001 Z" unicode="Ň" />
<glyph horiz-adv-x="1407" d="M 113 1151 L 428 1176 L 461 1071 C 540 1157 680 1200 881 1200 C 981 1200 1061 1183 1122 1149 C 1183 1115 1228 1064 1257 996 C 1285 928 1300 832 1300 709 L 1300 0 L 895 0 L 895 625 C 895 680 889 720 879 744 C 868 768 850 787 826 800 C 802 812 769 819 729 819 C 676 819 634 812 604 799 C 574 786 552 766 538 740 C 524 713 518 672 518 618 L 518 0 L 113 0 L 113 1151 Z M 176 1686 L 551 1686 L 706 1532 L 862 1686 L 1228 1686 L 909 1280 L 495 1280 L 176 1686 Z" unicode="ň" />
<glyph horiz-adv-x="1767" d="M 883 -25 C 605 -25 399 40 263 172 C 127 304 59 500 59 760 C 59 1019 127 1214 263 1345 C 399 1476 606 1542 883 1542 C 1433 1542 1708 1281 1708 760 C 1708 236 1433 -25 883 -25 Z M 883 348 C 1017 348 1116 379 1181 442 C 1245 504 1278 608 1278 752 C 1278 892 1246 994 1182 1058 C 1118 1121 1019 1153 883 1153 C 747 1153 647 1121 583 1058 C 519 994 487 892 487 752 C 487 608 519 505 584 442 C 648 379 748 348 883 348 Z M 422 1917 L 1344 1917 L 1344 1595 L 422 1595 L 422 1917 Z" unicode="Ō" />
<glyph horiz-adv-x="1386" d="M 694 -23 C 478 -23 318 27 214 127 C 109 227 57 381 57 590 C 57 798 109 951 214 1051 C 318 1150 478 1200 694 1200 C 910 1200 1069 1150 1173 1051 C 1277 952 1329 798 1329 590 C 1329 380 1277 226 1173 126 C 1069 26 910 -23 694 -23 Z M 694 324 C 773 324 831 343 867 381 C 903 419 922 485 922 578 C 922 670 903 736 867 774 C 830 812 772 831 694 831 C 639 831 595 822 562 804 C 528 786 504 759 489 725 C 474 691 467 642 467 578 C 467 484 485 418 522 380 C 558 342 616 324 694 324 Z M 231 1602 L 1153 1602 L 1153 1280 L 231 1280 L 231 1602 Z" unicode="ō" />
<glyph horiz-adv-x="1767" d="M 883 -25 C 605 -25 399 40 263 172 C 127 304 59 500 59 760 C 59 1019 127 1214 263 1345 C 399 1476 606 1542 883 1542 C 1433 1542 1708 1281 1708 760 C 1708 236 1433 -25 883 -25 Z M 883 348 C 1017 348 1116 379 1181 442 C 1245 504 1278 608 1278 752 C 1278 892 1246 994 1182 1058 C 1118 1121 1019 1153 883 1153 C 747 1153 647 1121 583 1058 C 519 994 487 892 487 752 C 487 608 519 505 584 442 C 648 379 748 348 883 348 Z M 592 2001 L 1057 2001 L 668 1595 L 334 1595 L 592 2001 Z M 1190 2001 L 1655 2001 L 1266 1595 L 932 1595 L 1190 2001 Z" unicode="Ő" />
<glyph horiz-adv-x="1386" d="M 694 -23 C 478 -23 318 27 214 127 C 109 227 57 381 57 590 C 57 798 109 951 214 1051 C 318 1150 478 1200 694 1200 C 910 1200 1069 1150 1173 1051 C 1277 952 1329 798 1329 590 C 1329 380 1277 226 1173 126 C 1069 26 910 -23 694 -23 Z M 694 324 C 773 324 831 343 867 381 C 903 419 922 485 922 578 C 922 670 903 736 867 774 C 830 812 772 831 694 831 C 639 831 595 822 562 804 C 528 786 504 759 489 725 C 474 691 467 642 467 578 C 467 484 485 418 522 380 C 558 342 616 324 694 324 Z M 401 1686 L 866 1686 L 477 1280 L 143 1280 L 401 1686 Z M 999 1686 L 1464 1686 L 1075 1280 L 741 1280 L 999 1686 Z" unicode="ő" />
<glyph horiz-adv-x="2587" d="M 1309 1518 L 2476 1518 L 2476 1135 L 1692 1135 L 1692 950 L 2456 950 L 2456 580 L 1692 580 L 1692 367 L 2484 367 L 2484 0 L 1309 0 L 1309 75 C 1198 8 1056 -25 883 -25 C 605 -25 399 40 263 172 C 127 304 59 500 59 760 C 59 1019 127 1214 263 1345 C 399 1476 606 1542 883 1542 C 1056 1542 1198 1508 1309 1441 L 1309 1518 Z M 883 348 C 1017 348 1116 379 1181 442 C 1245 504 1278 608 1278 752 C 1278 892 1246 994 1182 1058 C 1118 1121 1019 1153 883 1153 C 747 1153 647 1121 583 1058 C 519 994 487 892 487 752 C 487 608 519 505 584 442 C 648 379 748 348 883 348 Z" unicode="Œ" />
<glyph horiz-adv-x="2163" d="M 1561 -23 C 1456 -23 1367 -12 1293 9 C 1219 30 1162 59 1122 95 C 1026 16 883 -23 694 -23 C 473 -23 312 25 210 122 C 108 219 57 375 57 590 C 57 804 108 960 210 1056 C 312 1152 473 1200 694 1200 C 886 1200 1030 1160 1124 1082 C 1176 1122 1237 1151 1307 1171 C 1377 1190 1461 1200 1561 1200 C 1743 1200 1877 1157 1965 1072 C 2052 987 2099 846 2105 649 L 2105 574 L 2103 449 L 1319 449 C 1330 397 1355 359 1393 337 C 1431 314 1487 303 1561 303 C 1636 303 1703 311 1761 327 C 1819 343 1873 369 1923 406 L 2126 145 C 2046 83 1964 40 1880 15 C 1795 -10 1689 -23 1561 -23 Z M 694 324 C 773 324 831 343 867 381 C 903 419 922 485 922 578 C 922 670 903 736 867 774 C 830 812 772 831 694 831 C 639 831 595 822 562 804 C 528 786 504 759 489 725 C 474 691 467 642 467 578 C 467 484 485 418 522 380 C 558 342 616 324 694 324 Z M 1735 688 C 1732 739 1724 775 1712 797 C 1699 819 1680 835 1654 847 C 1628 858 1592 864 1548 864 C 1476 864 1421 850 1384 824 C 1347 798 1324 756 1316 698 L 1315 688 L 1735 688 Z" unicode="œ" />
<glyph horiz-adv-x="1636" d="M 139 1518 L 909 1518 C 1053 1518 1173 1500 1267 1466 C 1361 1431 1430 1377 1476 1303 C 1521 1229 1544 1126 1544 995 C 1544 863 1519 759 1469 681 C 1419 603 1347 547 1251 511 L 1528 0 L 1073 0 L 828 455 L 553 455 L 553 0 L 139 0 L 139 1518 Z M 895 807 C 981 807 1039 819 1070 843 C 1100 867 1116 913 1116 979 C 1116 1049 1100 1097 1070 1121 C 1039 1145 980 1157 893 1157 L 553 1157 L 553 807 L 895 807 Z M 858 2001 L 1343 2001 L 934 1595 L 580 1595 L 858 2001 Z" unicode="Ŕ" />
<glyph horiz-adv-x="874" d="M 113 1151 L 428 1176 L 469 1053 C 496 1090 544 1121 612 1146 C 680 1171 753 1185 829 1188 L 829 797 C 749 796 687 788 643 774 C 598 759 566 736 547 705 C 527 673 518 623 518 555 L 518 0 L 113 0 L 113 1151 Z M 472 1686 L 957 1686 L 548 1280 L 194 1280 L 472 1686 Z" unicode="ŕ" />
<glyph horiz-adv-x="1636" d="M 139 1518 L 909 1518 C 1053 1518 1173 1500 1267 1466 C 1361 1431 1430 1377 1476 1303 C 1521 1229 1544 1126 1544 995 C 1544 863 1519 759 1469 681 C 1419 603 1347 547 1251 511 L 1528 0 L 1073 0 L 828 455 L 553 455 L 553 0 L 139 0 L 139 1518 Z M 895 807 C 981 807 1039 819 1070 843 C 1100 867 1116 913 1116 979 C 1116 1049 1100 1097 1070 1121 C 1039 1145 980 1157 893 1157 L 553 1157 L 553 807 L 895 807 Z M 639 -598 C 703 -568 742 -547 758 -537 C 773 -526 784 -515 790 -505 C 796 -494 800 -478 800 -457 L 620 -457 L 620 -78 L 1013 -78 L 1013 -342 C 1013 -440 1005 -511 990 -554 C 974 -596 948 -633 910 -664 C 872 -694 809 -728 720 -766 L 639 -598 Z" unicode="Ŗ" />
<glyph horiz-adv-x="874" d="M 113 1151 L 428 1176 L 469 1053 C 496 1090 544 1121 612 1146 C 680 1171 753 1185 829 1188 L 829 797 C 749 796 687 788 643 774 C 598 759 566 736 547 705 C 527 673 518 623 518 555 L 518 0 L 113 0 L 113 1151 Z M 137 -598 C 201 -568 240 -547 256 -537 C 271 -526 282 -515 288 -505 C 294 -494 298 -478 298 -457 L 118 -457 L 118 -78 L 511 -78 L 511 -342 C 511 -440 503 -511 488 -554 C 472 -596 446 -633 408 -664 C 370 -694 307 -728 218 -766 L 137 -598 Z" unicode="ŗ" />
<glyph horiz-adv-x="1636" d="M 139 1518 L 909 1518 C 1053 1518 1173 1500 1267 1466 C 1361 1431 1430 1377 1476 1303 C 1521 1229 1544 1126 1544 995 C 1544 863 1519 759 1469 681 C 1419 603 1347 547 1251 511 L 1528 0 L 1073 0 L 828 455 L 553 455 L 553 0 L 139 0 L 139 1518 Z M 895 807 C 981 807 1039 819 1070 843 C 1100 867 1116 913 1116 979 C 1116 1049 1100 1097 1070 1121 C 1039 1145 980 1157 893 1157 L 553 1157 L 553 807 L 895 807 Z M 291 2001 L 666 2001 L 821 1847 L 977 2001 L 1343 2001 L 1024 1595 L 610 1595 L 291 2001 Z" unicode="Ř" />
<glyph horiz-adv-x="862" d="M 113 1151 L 428 1176 L 469 1053 C 496 1090 544 1121 612 1146 C 680 1171 753 1185 829 1188 L 829 797 C 749 796 687 788 643 774 C 598 759 566 736 547 705 C 527 673 518 623 518 555 L 518 0 L 113 0 L 113 1151 Z M -95 1686 L 280 1686 L 435 1532 L 591 1686 L 957 1686 L 638 1280 L 224 1280 L -95 1686 Z" unicode="ř" />
<glyph horiz-adv-x="1559" d="M 786 -23 C 622 -23 472 -4 338 34 C 203 72 95 123 14 188 L 227 494 C 303 441 388 400 481 371 C 574 342 672 328 774 328 C 846 328 902 330 943 335 C 983 340 1013 348 1033 359 C 1052 369 1064 382 1068 398 C 1072 413 1075 431 1075 453 C 1075 483 1056 507 1018 523 C 980 539 894 556 760 573 C 574 596 439 626 354 662 C 269 698 207 747 169 809 C 130 871 111 954 111 1057 C 111 1229 162 1353 266 1429 C 370 1504 542 1542 784 1542 C 1064 1542 1284 1490 1444 1386 L 1214 1057 C 1165 1089 1098 1116 1014 1139 C 930 1162 852 1174 780 1174 C 715 1174 665 1171 630 1165 C 594 1159 569 1149 554 1136 C 539 1122 532 1099 532 1067 C 532 1044 539 1026 555 1012 C 571 998 596 986 630 977 C 664 968 743 956 868 940 C 1007 922 1114 902 1189 878 C 1263 854 1322 825 1365 791 C 1408 756 1440 712 1462 660 C 1484 608 1495 545 1495 473 C 1495 352 1470 256 1421 186 C 1372 116 1295 63 1191 29 C 1087 -5 952 -23 786 -23 Z M 819 2001 L 1304 2001 L 895 1595 L 541 1595 L 819 2001 Z" unicode="Ś" />
<glyph horiz-adv-x="1227" d="M 596 -18 C 482 -18 374 -5 272 20 C 169 46 78 85 0 139 L 199 418 C 253 381 320 351 398 328 C 476 304 551 293 621 293 C 667 293 700 294 722 297 C 744 300 759 305 769 312 C 779 319 784 331 784 348 C 784 366 773 379 753 387 C 732 395 690 403 627 410 C 507 419 415 432 351 450 C 287 468 235 492 197 522 C 159 552 130 592 110 640 C 90 688 80 745 80 811 C 80 945 124 1044 212 1106 C 300 1168 438 1200 627 1200 C 733 1200 831 1190 923 1171 C 1014 1152 1091 1125 1155 1090 L 973 791 C 926 813 871 831 807 844 C 743 857 688 864 641 864 C 585 864 545 860 521 854 C 497 847 485 832 485 809 C 485 795 489 785 497 779 C 505 772 521 766 545 761 C 568 756 596 752 629 750 C 747 737 831 725 881 714 C 930 703 973 689 1010 672 C 1046 655 1077 634 1102 608 C 1127 582 1146 550 1160 513 C 1173 475 1180 430 1180 377 C 1180 278 1160 201 1121 145 C 1082 89 1020 47 935 21 C 850 -4 737 -18 596 -18 Z M 653 1686 L 1138 1686 L 729 1280 L 375 1280 L 653 1686 Z" unicode="ś" />
<glyph horiz-adv-x="1559" d="M 786 -23 C 622 -23 472 -4 338 34 C 203 72 95 123 14 188 L 227 494 C 303 441 388 400 481 371 C 574 342 672 328 774 328 C 846 328 902 330 943 335 C 983 340 1013 348 1033 359 C 1052 369 1064 382 1068 398 C 1072 413 1075 431 1075 453 C 1075 483 1056 507 1018 523 C 980 539 894 556 760 573 C 574 596 439 626 354 662 C 269 698 207 747 169 809 C 130 871 111 954 111 1057 C 111 1229 162 1353 266 1429 C 370 1504 542 1542 784 1542 C 1064 1542 1284 1490 1444 1386 L 1214 1057 C 1165 1089 1098 1116 1014 1139 C 930 1162 852 1174 780 1174 C 715 1174 665 1171 630 1165 C 594 1159 569 1149 554 1136 C 539 1122 532 1099 532 1067 C 532 1044 539 1026 555 1012 C 571 998 596 986 630 977 C 664 968 743 956 868 940 C 1007 922 1114 902 1189 878 C 1263 854 1322 825 1365 791 C 1408 756 1440 712 1462 660 C 1484 608 1495 545 1495 473 C 1495 352 1470 256 1421 186 C 1372 116 1295 63 1191 29 C 1087 -5 952 -23 786 -23 Z M 770 -537 C 662 -537 564 -512 477 -463 L 573 -281 C 643 -315 704 -332 754 -332 C 792 -332 821 -327 839 -318 C 857 -308 866 -289 866 -260 C 866 -216 832 -195 764 -195 L 692 -199 L 623 -158 L 661 14 L 881 14 L 862 -84 L 884 -84 C 953 -84 1003 -91 1033 -105 C 1063 -119 1086 -140 1103 -169 C 1119 -198 1128 -238 1128 -289 C 1128 -373 1100 -435 1045 -476 C 990 -516 898 -537 770 -537 Z" unicode="Ş" />
<glyph horiz-adv-x="1227" d="M 596 -18 C 482 -18 374 -5 272 20 C 169 46 78 85 0 139 L 199 418 C 253 381 320 351 398 328 C 476 304 551 293 621 293 C 667 293 700 294 722 297 C 744 300 759 305 769 312 C 779 319 784 331 784 348 C 784 366 773 379 753 387 C 732 395 690 403 627 410 C 507 419 415 432 351 450 C 287 468 235 492 197 522 C 159 552 130 592 110 640 C 90 688 80 745 80 811 C 80 945 124 1044 212 1106 C 300 1168 438 1200 627 1200 C 733 1200 831 1190 923 1171 C 1014 1152 1091 1125 1155 1090 L 973 791 C 926 813 871 831 807 844 C 743 857 688 864 641 864 C 585 864 545 860 521 854 C 497 847 485 832 485 809 C 485 795 489 785 497 779 C 505 772 521 766 545 761 C 568 756 596 752 629 750 C 747 737 831 725 881 714 C 930 703 973 689 1010 672 C 1046 655 1077 634 1102 608 C 1127 582 1146 550 1160 513 C 1173 475 1180 430 1180 377 C 1180 278 1160 201 1121 145 C 1082 89 1020 47 935 21 C 850 -4 737 -18 596 -18 Z M 604 -537 C 496 -537 398 -512 311 -463 L 407 -281 C 477 -315 538 -332 588 -332 C 626 -332 655 -327 673 -318 C 691 -308 700 -289 700 -260 C 700 -216 666 -195 598 -195 L 526 -199 L 457 -158 L 495 14 L 715 14 L 696 -84 L 718 -84 C 787 -84 837 -91 867 -105 C 897 -119 920 -140 937 -169 C 953 -198 962 -238 962 -289 C 962 -373 934 -435 879 -476 C 824 -516 732 -537 604 -537 Z" unicode="ş" />
<glyph horiz-adv-x="1559" d="M 786 -23 C 622 -23 472 -4 338 34 C 203 72 95 123 14 188 L 227 494 C 303 441 388 400 481 371 C 574 342 672 328 774 328 C 846 328 902 330 943 335 C 983 340 1013 348 1033 359 C 1052 369 1064 382 1068 398 C 1072 413 1075 431 1075 453 C 1075 483 1056 507 1018 523 C 980 539 894 556 760 573 C 574 596 439 626 354 662 C 269 698 207 747 169 809 C 130 871 111 954 111 1057 C 111 1229 162 1353 266 1429 C 370 1504 542 1542 784 1542 C 1064 1542 1284 1490 1444 1386 L 1214 1057 C 1165 1089 1098 1116 1014 1139 C 930 1162 852 1174 780 1174 C 715 1174 665 1171 630 1165 C 594 1159 569 1149 554 1136 C 539 1122 532 1099 532 1067 C 532 1044 539 1026 555 1012 C 571 998 596 986 630 977 C 664 968 743 956 868 940 C 1007 922 1114 902 1189 878 C 1263 854 1322 825 1365 791 C 1408 756 1440 712 1462 660 C 1484 608 1495 545 1495 473 C 1495 352 1470 256 1421 186 C 1372 116 1295 63 1191 29 C 1087 -5 952 -23 786 -23 Z M 252 2001 L 627 2001 L 782 1847 L 938 2001 L 1304 2001 L 985 1595 L 571 1595 L 252 2001 Z" unicode="Š" />
<glyph horiz-adv-x="1227" d="M 596 -18 C 482 -18 374 -5 272 20 C 169 46 78 85 0 139 L 199 418 C 253 381 320 351 398 328 C 476 304 551 293 621 293 C 667 293 700 294 722 297 C 744 300 759 305 769 312 C 779 319 784 331 784 348 C 784 366 773 379 753 387 C 732 395 690 403 627 410 C 507 419 415 432 351 450 C 287 468 235 492 197 522 C 159 552 130 592 110 640 C 90 688 80 745 80 811 C 80 945 124 1044 212 1106 C 300 1168 438 1200 627 1200 C 733 1200 831 1190 923 1171 C 1014 1152 1091 1125 1155 1090 L 973 791 C 926 813 871 831 807 844 C 743 857 688 864 641 864 C 585 864 545 860 521 854 C 497 847 485 832 485 809 C 485 795 489 785 497 779 C 505 772 521 766 545 761 C 568 756 596 752 629 750 C 747 737 831 725 881 714 C 930 703 973 689 1010 672 C 1046 655 1077 634 1102 608 C 1127 582 1146 550 1160 513 C 1173 475 1180 430 1180 377 C 1180 278 1160 201 1121 145 C 1082 89 1020 47 935 21 C 850 -4 737 -18 596 -18 Z M 86 1686 L 461 1686 L 616 1532 L 772 1686 L 1138 1686 L 819 1280 L 405 1280 L 86 1686 Z" unicode="š" />
<glyph horiz-adv-x="1464" d="M 520 1135 L 16 1135 L 16 1518 L 1450 1518 L 1450 1135 L 946 1135 L 946 0 L 520 0 L 520 1135 Z M 553 -598 C 617 -568 656 -547 672 -537 C 687 -526 698 -515 704 -505 C 710 -494 714 -478 714 -457 L 534 -457 L 534 -78 L 927 -78 L 927 -342 C 927 -440 919 -511 904 -554 C 888 -596 862 -633 824 -664 C 786 -694 723 -728 634 -766 L 553 -598 Z" unicode="Ţ" />
<glyph horiz-adv-x="977" d="M 45 1174 L 254 1174 L 319 1425 L 633 1493 L 633 1174 L 889 1174 L 889 829 L 633 829 L 633 459 C 633 422 637 396 645 381 C 653 366 667 355 687 348 C 706 341 734 338 772 338 L 889 338 L 889 0 C 827 -4 758 -6 684 -6 C 569 -6 479 6 414 32 C 349 58 302 99 273 156 C 243 213 229 293 229 397 L 229 829 L 45 829 L 45 1174 Z M 265 -598 C 329 -568 368 -547 384 -537 C 399 -526 410 -515 416 -505 C 422 -494 426 -478 426 -457 L 246 -457 L 246 -78 L 639 -78 L 639 -342 C 639 -440 631 -511 616 -554 C 600 -596 574 -633 536 -664 C 498 -694 435 -728 346 -766 L 265 -598 Z" unicode="ţ" />
<glyph horiz-adv-x="1464" d="M 520 1135 L 16 1135 L 16 1518 L 1450 1518 L 1450 1135 L 946 1135 L 946 0 L 520 0 L 520 1135 Z M 205 2001 L 580 2001 L 735 1847 L 891 2001 L 1257 2001 L 938 1595 L 524 1595 L 205 2001 Z" unicode="Ť" />
<glyph horiz-adv-x="977" d="M 713 1438 C 779 1470 819 1490 833 1500 C 846 1510 855 1520 859 1531 C 863 1541 866 1555 866 1573 L 715 1573 L 715 1933 L 1067 1933 L 1067 1681 C 1067 1587 1059 1519 1045 1479 C 1031 1439 1005 1404 969 1375 C 933 1345 873 1313 791 1278 L 713 1438 Z M 45 1174 L 254 1174 L 319 1425 L 633 1493 L 633 1174 L 889 1174 L 889 829 L 633 829 L 633 459 C 633 422 637 396 645 381 C 653 366 667 355 687 348 C 706 341 734 338 772 338 L 889 338 L 889 0 C 827 -4 758 -6 684 -6 C 569 -6 479 6 414 32 C 349 58 302 99 273 156 C 243 213 229 293 229 397 L 229 829 L 45 829 L 45 1174 Z" unicode="ť" />
<glyph horiz-adv-x="1710" d="M 856 -31 C 739 -31 639 -21 557 -3 C 475 14 406 40 352 72 C 297 104 253 143 221 190 C 188 237 164 290 149 349 C 134 408 127 490 127 596 L 127 1518 L 553 1518 L 553 653 C 553 563 562 499 581 459 C 600 419 631 390 675 372 C 719 353 781 344 862 344 C 942 344 1005 353 1049 371 C 1093 389 1124 419 1143 459 C 1161 499 1171 564 1171 653 L 1171 1518 L 1583 1518 L 1583 596 C 1583 492 1575 410 1560 350 C 1545 290 1521 237 1489 190 C 1457 143 1413 104 1358 72 C 1303 40 1235 14 1153 -3 C 1071 -21 972 -31 856 -31 Z M 393 1917 L 1315 1917 L 1315 1595 L 393 1595 L 393 1917 Z" unicode="Ū" />
<glyph horiz-adv-x="1389" d="M 694 -23 C 542 -23 425 -3 342 35 C 258 73 198 136 161 222 C 124 308 106 428 106 582 L 106 1174 L 512 1174 L 512 573 C 512 496 517 444 529 416 C 540 388 559 367 586 354 C 613 340 650 334 698 334 C 746 334 783 341 809 355 C 835 369 853 389 865 417 C 877 445 883 497 883 573 L 883 1174 L 1282 1174 L 1282 582 C 1282 424 1263 303 1226 218 C 1188 133 1128 72 1045 34 C 961 -4 844 -23 694 -23 Z M 233 1602 L 1155 1602 L 1155 1280 L 233 1280 L 233 1602 Z" unicode="ū" />
<glyph horiz-adv-x="1710" d="M 856 -31 C 739 -31 639 -21 557 -3 C 475 14 406 40 352 72 C 297 104 253 143 221 190 C 188 237 164 290 149 349 C 134 408 127 490 127 596 L 127 1518 L 553 1518 L 553 653 C 553 563 562 499 581 459 C 600 419 631 390 675 372 C 719 353 781 344 862 344 C 942 344 1005 353 1049 371 C 1093 389 1124 419 1143 459 C 1161 499 1171 564 1171 653 L 1171 1518 L 1583 1518 L 1583 596 C 1583 492 1575 410 1560 350 C 1545 290 1521 237 1489 190 C 1457 143 1413 104 1358 72 C 1303 40 1235 14 1153 -3 C 1071 -21 972 -31 856 -31 Z M 854 1572 C 753 1572 675 1599 620 1655 C 564 1711 537 1790 537 1894 C 537 1998 564 2079 620 2135 C 675 2191 753 2220 854 2220 C 952 2220 1030 2190 1086 2132 C 1142 2074 1170 1994 1170 1894 C 1170 1794 1142 1715 1086 1658 C 1030 1600 952 1572 854 1572 Z M 854 1765 C 934 1765 975 1808 975 1894 C 975 1981 934 2025 854 2025 C 773 2025 733 1981 733 1894 C 733 1808 773 1765 854 1765 Z" unicode="Ů" />
<glyph horiz-adv-x="1389" d="M 694 -23 C 542 -23 425 -3 342 35 C 258 73 198 136 161 222 C 124 308 106 428 106 582 L 106 1174 L 512 1174 L 512 573 C 512 496 517 444 529 416 C 540 388 559 367 586 354 C 613 340 650 334 698 334 C 746 334 783 341 809 355 C 835 369 853 389 865 417 C 877 445 883 497 883 573 L 883 1174 L 1282 1174 L 1282 582 C 1282 424 1263 303 1226 218 C 1188 133 1128 72 1045 34 C 961 -4 844 -23 694 -23 Z M 694 1257 C 593 1257 515 1284 460 1340 C 404 1396 377 1475 377 1579 C 377 1683 404 1764 460 1820 C 515 1876 593 1905 694 1905 C 792 1905 870 1875 926 1817 C 982 1759 1010 1679 1010 1579 C 1010 1479 982 1400 926 1343 C 870 1285 792 1257 694 1257 Z M 694 1450 C 774 1450 815 1493 815 1579 C 815 1666 774 1710 694 1710 C 613 1710 573 1666 573 1579 C 573 1493 613 1450 694 1450 Z" unicode="ů" />
<glyph horiz-adv-x="1710" d="M 856 -31 C 739 -31 639 -21 557 -3 C 475 14 406 40 352 72 C 297 104 253 143 221 190 C 188 237 164 290 149 349 C 134 408 127 490 127 596 L 127 1518 L 553 1518 L 553 653 C 553 563 562 499 581 459 C 600 419 631 390 675 372 C 719 353 781 344 862 344 C 942 344 1005 353 1049 371 C 1093 389 1124 419 1143 459 C 1161 499 1171 564 1171 653 L 1171 1518 L 1583 1518 L 1583 596 C 1583 492 1575 410 1560 350 C 1545 290 1521 237 1489 190 C 1457 143 1413 104 1358 72 C 1303 40 1235 14 1153 -3 C 1071 -21 972 -31 856 -31 Z M 563 2001 L 1028 2001 L 639 1595 L 305 1595 L 563 2001 Z M 1161 2001 L 1626 2001 L 1237 1595 L 903 1595 L 1161 2001 Z" unicode="Ű" />
<glyph horiz-adv-x="1389" d="M 694 -23 C 542 -23 425 -3 342 35 C 258 73 198 136 161 222 C 124 308 106 428 106 582 L 106 1174 L 512 1174 L 512 573 C 512 496 517 444 529 416 C 540 388 559 367 586 354 C 613 340 650 334 698 334 C 746 334 783 341 809 355 C 835 369 853 389 865 417 C 877 445 883 497 883 573 L 883 1174 L 1282 1174 L 1282 582 C 1282 424 1263 303 1226 218 C 1188 133 1128 72 1045 34 C 961 -4 844 -23 694 -23 Z M 403 1686 L 868 1686 L 479 1280 L 145 1280 L 403 1686 Z M 1001 1686 L 1466 1686 L 1077 1280 L 743 1280 L 1001 1686 Z" unicode="ű" />
<glyph horiz-adv-x="1710" d="M 885 -512 C 773 -512 693 -494 644 -459 C 595 -423 571 -362 571 -276 C 571 -182 628 -99 743 -27 C 633 -20 540 -3 463 23 C 385 50 322 86 274 130 C 226 174 189 231 164 301 C 139 371 127 469 127 596 L 127 1518 L 553 1518 L 553 653 C 553 563 562 499 581 459 C 600 419 631 390 675 372 C 719 353 781 344 862 344 C 942 344 1005 353 1049 371 C 1093 389 1124 419 1143 459 C 1161 499 1171 564 1171 653 L 1171 1518 L 1583 1518 L 1583 596 C 1583 471 1571 374 1547 304 C 1523 234 1488 177 1441 133 C 1394 89 1333 53 1258 25 C 1183 -2 1093 -19 989 -27 C 941 -65 904 -100 880 -132 C 856 -164 844 -197 844 -229 C 844 -253 851 -270 867 -280 C 882 -290 911 -295 954 -295 C 1014 -295 1081 -281 1155 -254 L 1212 -436 C 1094 -486 985 -512 885 -512 Z" unicode="Ų" />
<glyph horiz-adv-x="1389" d="M 725 -512 C 649 -512 588 -504 543 -488 C 497 -472 464 -448 443 -416 C 422 -383 412 -336 412 -276 C 412 -228 427 -181 459 -137 C 490 -93 536 -53 596 -18 C 473 -12 376 11 306 53 C 236 94 185 156 153 239 C 121 321 106 436 106 582 L 106 1174 L 512 1174 L 512 573 C 512 496 517 444 529 416 C 540 388 559 367 586 354 C 613 340 650 334 698 334 C 746 334 783 341 809 355 C 835 369 853 389 865 417 C 877 445 883 497 883 573 L 883 1174 L 1282 1174 L 1282 582 C 1282 442 1267 331 1239 251 C 1210 170 1165 109 1103 67 C 1041 25 954 -2 844 -14 C 791 -55 751 -93 724 -128 C 697 -162 684 -196 684 -229 C 684 -254 692 -271 709 -281 C 725 -290 754 -295 795 -295 C 855 -295 921 -281 995 -254 L 1053 -436 C 933 -486 824 -512 725 -512 Z" unicode="ų" />
<glyph horiz-adv-x="1620" d="M -4 1518 L 451 1518 L 817 883 L 1184 1518 L 1622 1518 L 1020 501 L 1020 0 L 596 0 L 596 505 L -4 1518 Z M 387 1912 L 752 1912 L 752 1595 L 387 1595 L 387 1912 Z M 869 1912 L 1233 1912 L 1233 1595 L 869 1595 L 869 1912 Z" unicode="Ÿ" />
<glyph horiz-adv-x="1446" d="M 51 313 L 825 1135 L 86 1135 L 86 1518 L 1366 1518 L 1366 1171 L 606 367 L 1389 367 L 1389 0 L 51 0 L 51 313 Z M 764 2001 L 1249 2001 L 840 1595 L 486 1595 L 764 2001 Z" unicode="Ź" />
<glyph horiz-adv-x="1147" d="M 27 268 L 553 829 L 59 829 L 59 1174 L 1102 1174 L 1102 903 L 573 324 L 1124 324 L 1124 0 L 27 0 L 27 268 Z M 615 1686 L 1100 1686 L 691 1280 L 337 1280 L 615 1686 Z" unicode="ź" />
<glyph horiz-adv-x="1446" d="M 51 313 L 825 1135 L 86 1135 L 86 1518 L 1366 1518 L 1366 1171 L 606 367 L 1389 367 L 1389 0 L 51 0 L 51 313 Z M 516 1917 L 928 1917 L 928 1595 L 516 1595 L 516 1917 Z" unicode="Ż" />
<glyph horiz-adv-x="1147" d="M 27 268 L 553 829 L 59 829 L 59 1174 L 1102 1174 L 1102 903 L 573 324 L 1124 324 L 1124 0 L 27 0 L 27 268 Z M 367 1602 L 779 1602 L 779 1280 L 367 1280 L 367 1602 Z" unicode="ż" />
<glyph horiz-adv-x="1446" d="M 51 313 L 825 1135 L 86 1135 L 86 1518 L 1366 1518 L 1366 1171 L 606 367 L 1389 367 L 1389 0 L 51 0 L 51 313 Z M 197 2001 L 572 2001 L 727 1847 L 883 2001 L 1249 2001 L 930 1595 L 516 1595 L 197 2001 Z" unicode="Ž" />
<glyph horiz-adv-x="1147" d="M 27 268 L 553 829 L 59 829 L 59 1174 L 1102 1174 L 1102 903 L 573 324 L 1124 324 L 1124 0 L 27 0 L 27 268 Z M 48 1686 L 423 1686 L 578 1532 L 734 1686 L 1100 1686 L 781 1280 L 367 1280 L 48 1686 Z" unicode="ž" />
<glyph horiz-adv-x="1348" d="M 168 958 L 465 958 L 508 1159 C 529 1260 559 1334 597 1380 C 635 1426 689 1460 759 1483 C 829 1506 920 1518 1032 1518 L 1174 1518 L 1174 1157 L 1057 1157 C 1003 1157 963 1149 939 1133 C 915 1117 898 1084 889 1036 L 872 958 L 1174 958 L 1174 608 L 796 608 L 592 -340 L 186 -340 L 389 608 L 168 608 L 168 958 Z" unicode="ƒ" />
<glyph horiz-adv-x="1559" d="M 786 -23 C 622 -23 472 -4 338 34 C 203 72 95 123 14 188 L 227 494 C 303 441 388 400 481 371 C 574 342 672 328 774 328 C 846 328 902 330 943 335 C 983 340 1013 348 1033 359 C 1052 369 1064 382 1068 398 C 1072 413 1075 431 1075 453 C 1075 483 1056 507 1018 523 C 980 539 894 556 760 573 C 574 596 439 626 354 662 C 269 698 207 747 169 809 C 130 871 111 954 111 1057 C 111 1229 162 1353 266 1429 C 370 1504 542 1542 784 1542 C 1064 1542 1284 1490 1444 1386 L 1214 1057 C 1165 1089 1098 1116 1014 1139 C 930 1162 852 1174 780 1174 C 715 1174 665 1171 630 1165 C 594 1159 569 1149 554 1136 C 539 1122 532 1099 532 1067 C 532 1044 539 1026 555 1012 C 571 998 596 986 630 977 C 664 968 743 956 868 940 C 1007 922 1114 902 1189 878 C 1263 854 1322 825 1365 791 C 1408 756 1440 712 1462 660 C 1484 608 1495 545 1495 473 C 1495 352 1470 256 1421 186 C 1372 116 1295 63 1191 29 C 1087 -5 952 -23 786 -23 Z M 601 -598 C 665 -568 704 -547 720 -537 C 735 -526 746 -515 752 -505 C 758 -494 762 -478 762 -457 L 582 -457 L 582 -78 L 975 -78 L 975 -342 C 975 -440 967 -511 952 -554 C 936 -596 910 -633 872 -664 C 834 -694 771 -728 682 -766 L 601 -598 Z" unicode="Ș" />
<glyph horiz-adv-x="1227" d="M 596 -18 C 482 -18 374 -5 272 20 C 169 46 78 85 0 139 L 199 418 C 253 381 320 351 398 328 C 476 304 551 293 621 293 C 667 293 700 294 722 297 C 744 300 759 305 769 312 C 779 319 784 331 784 348 C 784 366 773 379 753 387 C 732 395 690 403 627 410 C 507 419 415 432 351 450 C 287 468 235 492 197 522 C 159 552 130 592 110 640 C 90 688 80 745 80 811 C 80 945 124 1044 212 1106 C 300 1168 438 1200 627 1200 C 733 1200 831 1190 923 1171 C 1014 1152 1091 1125 1155 1090 L 973 791 C 926 813 871 831 807 844 C 743 857 688 864 641 864 C 585 864 545 860 521 854 C 497 847 485 832 485 809 C 485 795 489 785 497 779 C 505 772 521 766 545 761 C 568 756 596 752 629 750 C 747 737 831 725 881 714 C 930 703 973 689 1010 672 C 1046 655 1077 634 1102 608 C 1127 582 1146 550 1160 513 C 1173 475 1180 430 1180 377 C 1180 278 1160 201 1121 145 C 1082 89 1020 47 935 21 C 850 -4 737 -18 596 -18 Z M 435 -598 C 499 -568 538 -547 554 -537 C 569 -526 580 -515 586 -505 C 592 -494 596 -478 596 -457 L 416 -457 L 416 -78 L 809 -78 L 809 -342 C 809 -440 801 -511 786 -554 C 770 -596 744 -633 706 -664 C 668 -694 605 -728 516 -766 L 435 -598 Z" unicode="ș" />
<glyph horiz-adv-x="1464" d="M 520 1135 L 16 1135 L 16 1518 L 1450 1518 L 1450 1135 L 946 1135 L 946 0 L 520 0 L 520 1135 Z M 553 -598 C 617 -568 656 -547 672 -537 C 687 -526 698 -515 704 -505 C 710 -494 714 -478 714 -457 L 534 -457 L 534 -78 L 927 -78 L 927 -342 C 927 -440 919 -511 904 -554 C 888 -596 862 -633 824 -664 C 786 -694 723 -728 634 -766 L 553 -598 Z" unicode="Ț" />
<glyph horiz-adv-x="977" d="M 45 1174 L 254 1174 L 319 1425 L 633 1493 L 633 1174 L 889 1174 L 889 829 L 633 829 L 633 459 C 633 422 637 396 645 381 C 653 366 667 355 687 348 C 706 341 734 338 772 338 L 889 338 L 889 0 C 827 -4 758 -6 684 -6 C 569 -6 479 6 414 32 C 349 58 302 99 273 156 C 243 213 229 293 229 397 L 229 829 L 45 829 L 45 1174 Z M 265 -598 C 329 -568 368 -547 384 -537 C 399 -526 410 -515 416 -505 C 422 -494 426 -478 426 -457 L 246 -457 L 246 -78 L 639 -78 L 639 -342 C 639 -440 631 -511 616 -554 C 600 -596 574 -633 536 -664 C 498 -694 435 -728 346 -766 L 265 -598 Z" unicode="ț" />
<glyph horiz-adv-x="1208" d="M 397 1686 L 811 1686 L 1130 1280 L 756 1280 L 600 1434 L 444 1280 L 78 1280 L 397 1686 Z" unicode="ˆ" />
<glyph horiz-adv-x="1208" d="M 78 1686 L 453 1686 L 608 1532 L 764 1686 L 1130 1686 L 811 1280 L 397 1280 L 78 1686 Z" unicode="ˇ" />
<glyph horiz-adv-x="1208" d="M 604 1260 C 510 1260 432 1275 371 1306 C 309 1336 260 1383 223 1445 C 186 1507 157 1597 135 1714 L 424 1767 C 440 1686 460 1633 484 1607 C 508 1581 548 1569 604 1569 C 659 1569 698 1581 722 1606 C 746 1631 766 1685 784 1767 L 1077 1716 C 1052 1595 1021 1504 983 1443 C 945 1381 896 1335 835 1305 C 773 1275 696 1260 604 1260 Z" unicode="˘" />
<glyph horiz-adv-x="1208" d="M 397 1602 L 809 1602 L 809 1280 L 397 1280 L 397 1602 Z" unicode="˙" />
<glyph horiz-adv-x="1208" d="M 604 1257 C 503 1257 425 1284 370 1340 C 314 1396 287 1475 287 1579 C 287 1683 314 1764 370 1820 C 425 1876 503 1905 604 1905 C 702 1905 780 1875 836 1817 C 892 1759 920 1679 920 1579 C 920 1479 892 1400 836 1343 C 780 1285 702 1257 604 1257 Z M 604 1450 C 684 1450 725 1493 725 1579 C 725 1666 684 1710 604 1710 C 523 1710 483 1666 483 1579 C 483 1493 523 1450 604 1450 Z" unicode="˚" />
<glyph horiz-adv-x="1208" d="M 635 -512 C 559 -512 498 -504 453 -488 C 407 -472 374 -448 353 -416 C 332 -383 322 -336 322 -276 C 322 -218 345 -163 392 -110 C 439 -57 500 -16 575 14 L 795 14 C 729 -33 679 -76 645 -115 C 611 -154 594 -192 594 -229 C 594 -252 601 -269 617 -279 C 632 -289 661 -295 705 -295 C 765 -295 831 -281 905 -254 L 963 -436 C 843 -486 734 -512 635 -512 Z" unicode="˛" />
<glyph horiz-adv-x="1208" d="M 61 1446 C 200 1616 331 1702 455 1702 C 491 1702 521 1696 547 1684 C 573 1672 596 1658 616 1644 C 636 1630 656 1617 675 1605 C 693 1593 714 1587 737 1587 C 787 1587 847 1628 915 1712 L 1137 1530 C 998 1359 867 1274 743 1274 C 686 1274 633 1293 585 1333 C 559 1353 537 1367 519 1377 C 500 1386 481 1391 463 1391 C 411 1391 351 1348 283 1264 L 61 1446 Z" unicode="˜" />
<glyph horiz-adv-x="1208" d="M 313 1686 L 778 1686 L 389 1280 L 55 1280 L 313 1686 Z M 911 1686 L 1376 1686 L 987 1280 L 653 1280 L 911 1686 Z" unicode="˝" />
<glyph horiz-adv-x="1208" d="M 143 1602 L 1065 1602 L 1065 1280 L 143 1280 L 143 1602 Z" unicode="̄" />
<glyph horiz-adv-x="657" d="M 150 -598 C 214 -568 253 -547 269 -537 C 284 -526 295 -515 301 -505 C 307 -494 311 -478 311 -457 L 131 -457 L 131 -78 L 524 -78 L 524 -342 C 524 -440 516 -511 501 -554 C 485 -596 459 -633 421 -664 C 383 -694 320 -728 231 -766 L 150 -598 Z" unicode="̦" />
<glyph horiz-adv-x="1536" d="M 76 0 L 652 1536 L 884 1536 L 1456 0 L 76 0 Z M 352 148 L 1164 148 L 752 1256 L 352 148 Z" unicode="Δ" />
<glyph horiz-adv-x="1664" d="M 832 1376 C 706 1376 599 1328 510 1234 C 420 1139 376 1006 376 836 C 376 673 405 538 464 432 C 522 325 609 241 724 180 L 724 0 L 88 0 L 88 196 L 536 196 C 456 225 378 295 304 406 C 229 516 192 664 192 848 C 192 1024 247 1184 358 1330 C 468 1475 626 1548 832 1548 C 1037 1548 1195 1478 1306 1338 C 1416 1198 1472 1034 1472 848 C 1472 664 1434 516 1360 406 C 1285 295 1208 225 1128 196 L 1576 196 L 1576 0 L 940 0 L 940 180 C 1054 241 1141 325 1200 432 C 1258 538 1288 673 1288 836 C 1288 974 1246 1099 1162 1210 C 1078 1320 968 1376 832 1376 Z" unicode="Ω" />
<glyph horiz-adv-x="1395" d="M 113 1174 L 518 1174 L 518 573 C 518 496 523 444 535 416 C 546 388 565 368 591 354 C 617 340 655 334 705 334 C 753 334 790 341 816 355 C 842 369 861 390 872 419 C 883 447 889 499 889 573 L 889 1174 L 1288 1174 L 1288 582 C 1288 428 1270 308 1235 224 C 1199 140 1142 78 1064 40 C 985 1 875 -18 733 -18 C 629 -18 558 -7 518 14 L 518 -338 L 113 -338 L 113 1174 Z" unicode="μ" />
<glyph horiz-adv-x="1408" d="M 296 0 L 296 1028 L 12 1028 L 12 1176 L 1316 1176 L 1316 1028 L 996 1028 L 996 344 C 996 266 1011 213 1042 184 C 1072 154 1109 140 1152 140 C 1184 140 1210 140 1232 142 C 1253 143 1274 148 1296 156 L 1296 28 C 1264 12 1234 0 1206 -6 C 1178 -12 1138 -16 1088 -16 C 1002 -16 935 10 886 64 C 836 117 812 208 812 336 L 812 1028 L 484 1028 L 484 0 L 296 0 Z" unicode="π" />
<glyph horiz-adv-x="1458" d="M 139 1518 L 1348 1518 L 1348 1135 L 563 1135 L 563 950 L 1327 950 L 1327 580 L 563 580 L 563 367 L 1356 367 L 1356 0 L 139 0 L 139 1518 Z M 307 1912 L 672 1912 L 672 1595 L 307 1595 L 307 1912 Z M 789 1912 L 1153 1912 L 1153 1595 L 789 1595 L 789 1912 Z" unicode="Ё" />
<glyph horiz-adv-x="1835" d="M 1184 -43 L 1214 -43 C 1240 -43 1259 -39 1271 -33 C 1282 -27 1290 -16 1294 0 C 1298 16 1300 46 1300 92 L 1300 420 C 1300 480 1295 522 1285 544 C 1275 566 1260 584 1238 596 C 1216 608 1185 614 1145 614 C 1094 614 1054 608 1026 596 C 998 584 977 566 965 542 C 952 518 946 475 946 414 L 946 0 L 520 0 L 520 1135 L 16 1135 L 16 1518 L 1450 1518 L 1450 1135 L 946 1135 L 946 907 C 1016 965 1133 995 1296 995 C 1444 995 1554 957 1624 881 C 1694 805 1729 679 1729 504 L 1729 94 C 1729 -23 1715 -112 1687 -174 C 1659 -236 1614 -280 1551 -307 C 1488 -334 1391 -348 1260 -348 L 1184 -348 L 1184 -43 Z" unicode="Ђ" />
<glyph horiz-adv-x="1296" d="M 139 1518 L 1280 1518 L 1280 1135 L 563 1135 L 563 0 L 139 0 L 139 1518 Z M 688 2001 L 1173 2001 L 764 1595 L 410 1595 L 688 2001 Z" unicode="Ѓ" />
<glyph horiz-adv-x="1589" d="M 852 -23 C 578 -23 378 39 250 163 C 122 287 59 486 59 760 C 59 1019 125 1214 257 1345 C 389 1476 588 1542 852 1542 C 1000 1542 1127 1523 1232 1487 C 1336 1450 1428 1390 1507 1307 L 1214 1014 C 1160 1067 1108 1103 1058 1123 C 1007 1143 947 1153 877 1153 C 677 1153 551 1083 501 944 L 1141 944 L 1141 586 L 492 586 C 530 432 650 356 852 356 C 909 356 959 360 1001 370 C 1043 379 1082 393 1116 411 C 1150 429 1191 461 1239 506 L 1518 233 C 1429 139 1332 72 1228 34 C 1124 -3 998 -23 852 -23 Z" unicode="Є" />
<glyph horiz-adv-x="1559" d="M 786 -23 C 622 -23 472 -4 338 34 C 203 72 95 123 14 188 L 227 494 C 303 441 388 400 481 371 C 574 342 672 328 774 328 C 846 328 902 330 943 335 C 983 340 1013 348 1033 359 C 1052 369 1064 382 1068 398 C 1072 413 1075 431 1075 453 C 1075 483 1056 507 1018 523 C 980 539 894 556 760 573 C 574 596 439 626 354 662 C 269 698 207 747 169 809 C 130 871 111 954 111 1057 C 111 1229 162 1353 266 1429 C 370 1504 542 1542 784 1542 C 1064 1542 1284 1490 1444 1386 L 1214 1057 C 1165 1089 1098 1116 1014 1139 C 930 1162 852 1174 780 1174 C 715 1174 665 1171 630 1165 C 594 1159 569 1149 554 1136 C 539 1122 532 1099 532 1067 C 532 1044 539 1026 555 1012 C 571 998 596 986 630 977 C 664 968 743 956 868 940 C 1007 922 1114 902 1189 878 C 1263 854 1322 825 1365 791 C 1408 756 1440 712 1462 660 C 1484 608 1495 545 1495 473 C 1495 352 1470 256 1421 186 C 1372 116 1295 63 1191 29 C 1087 -5 952 -23 786 -23 Z" unicode="Ѕ" />
<glyph horiz-adv-x="752" d="M 164 1518 L 588 1518 L 588 0 L 164 0 L 164 1518 Z" unicode="І" />
<glyph horiz-adv-x="752" d="M 164 1518 L 588 1518 L 588 0 L 164 0 L 164 1518 Z M -46 1912 L 319 1912 L 319 1595 L -46 1595 L -46 1912 Z M 436 1912 L 800 1912 L 800 1595 L 436 1595 L 436 1912 Z" unicode="Ї" />
<glyph horiz-adv-x="989" d="M 295 -6 C 179 -6 93 -4 37 0 L 37 367 L 242 367 C 314 367 365 378 393 400 C 421 422 436 463 436 522 L 436 1518 L 860 1518 L 860 506 C 860 386 839 288 799 213 C 758 138 698 83 620 47 C 541 11 433 -6 295 -6 Z" unicode="Ј" />
<glyph horiz-adv-x="2695" d="M 80 367 L 115 367 C 156 367 184 373 198 385 C 212 397 219 426 219 471 L 219 1518 L 1636 1518 L 1636 1104 L 1985 1104 C 2137 1104 2261 1084 2357 1046 C 2453 1008 2523 951 2569 875 C 2615 799 2638 696 2638 567 C 2638 367 2582 223 2472 134 C 2361 44 2190 0 1960 0 L 1225 0 L 1225 1141 L 643 1141 L 643 391 C 643 298 629 223 602 165 C 575 107 535 64 482 37 C 429 9 356 -4 264 -4 C 173 -4 112 -1 80 4 L 80 367 Z M 1978 350 C 2066 350 2127 365 2161 395 C 2195 425 2212 475 2212 545 C 2212 619 2195 670 2162 699 C 2128 728 2066 743 1976 743 L 1636 743 L 1636 350 L 1978 350 Z" unicode="Љ" />
<glyph horiz-adv-x="2617" d="M 139 1518 L 563 1518 L 563 973 L 1145 973 L 1145 1518 L 1559 1518 L 1559 1104 L 1907 1104 C 2059 1104 2183 1084 2279 1046 C 2375 1008 2445 951 2491 875 C 2537 799 2560 696 2560 567 C 2560 367 2504 223 2394 134 C 2283 44 2112 0 1882 0 L 1145 0 L 1145 575 L 563 575 L 563 0 L 139 0 L 139 1518 Z M 1901 350 C 1987 350 2047 364 2082 393 C 2116 422 2134 473 2134 545 C 2134 620 2117 672 2084 700 C 2051 728 1989 743 1898 743 L 1559 743 L 1559 350 L 1901 350 Z" unicode="Њ" />
<glyph horiz-adv-x="1835" d="M 520 1135 L 16 1135 L 16 1518 L 1450 1518 L 1450 1135 L 946 1135 L 946 907 C 1016 965 1133 995 1296 995 C 1444 995 1554 957 1624 881 C 1694 805 1729 679 1729 504 L 1729 0 L 1300 0 L 1300 420 C 1300 480 1295 522 1285 544 C 1275 566 1260 584 1238 596 C 1216 608 1185 614 1145 614 C 1094 614 1054 608 1026 596 C 998 584 977 566 965 542 C 952 518 946 475 946 414 L 946 0 L 520 0 L 520 1135 Z" unicode="Ћ" />
<glyph horiz-adv-x="1614" d="M 139 1518 L 557 1518 L 557 921 L 1034 1518 L 1501 1518 L 1003 914 L 1575 0 L 1094 0 L 729 582 L 557 373 L 557 0 L 139 0 L 139 1518 Z M 848 2001 L 1333 2001 L 924 1595 L 570 1595 L 848 2001 Z" unicode="Ќ" />
<glyph horiz-adv-x="1499" d="M 6 1518 L 465 1518 L 794 822 L 1081 1518 L 1513 1518 L 979 328 C 933 226 890 153 850 111 C 810 69 762 39 704 22 C 646 4 565 -4 463 -4 L 260 0 L 260 354 L 387 354 C 445 354 485 356 507 361 C 529 366 545 376 555 390 L 6 1518 Z M 749 1575 C 655 1575 577 1590 516 1621 C 454 1651 405 1698 368 1760 C 331 1822 302 1912 280 2029 L 569 2082 C 585 2001 605 1948 629 1922 C 653 1896 693 1884 749 1884 C 804 1884 843 1896 867 1921 C 891 1946 911 2000 929 2082 L 1222 2031 C 1197 1910 1166 1819 1128 1758 C 1090 1696 1041 1650 980 1620 C 918 1590 841 1575 749 1575 Z" unicode="Ў" />
<glyph horiz-adv-x="1704" d="M 639 0 L 139 0 L 139 1518 L 563 1518 L 563 358 L 1145 358 L 1145 1518 L 1565 1518 L 1565 0 L 1065 0 L 1065 -340 L 639 -340 L 639 0 Z" unicode="Џ" />
<glyph horiz-adv-x="1681" d="M 623 1528 L 1055 1528 L 1667 0 L 1227 0 L 1151 197 L 504 197 L 428 0 L 14 0 L 623 1528 Z M 1016 545 L 827 1028 L 639 545 L 1016 545 Z" unicode="А" />
<glyph horiz-adv-x="1612" d="M 139 1518 L 1362 1518 L 1362 1135 L 543 1135 L 543 1010 L 901 1010 C 1061 1010 1188 994 1283 963 C 1377 932 1446 884 1489 818 C 1532 752 1554 659 1554 537 C 1554 405 1530 300 1483 224 C 1435 147 1362 90 1263 54 C 1163 18 1035 0 877 0 L 139 0 L 139 1518 Z M 895 348 C 989 348 1051 359 1082 381 C 1112 403 1128 448 1128 514 C 1128 561 1122 596 1110 619 C 1098 642 1077 658 1048 668 C 1019 677 967 682 893 682 L 543 682 L 543 348 L 895 348 Z" unicode="Б" />
<glyph horiz-adv-x="1599" d="M 139 1518 L 866 1518 C 1090 1518 1249 1486 1345 1424 C 1441 1362 1489 1258 1489 1114 C 1489 1025 1473 954 1442 902 C 1410 850 1362 811 1298 786 C 1380 766 1440 728 1476 673 C 1512 618 1530 532 1530 416 C 1530 313 1508 232 1465 172 C 1422 112 1356 68 1266 41 C 1176 13 1043 0 866 0 L 139 0 L 139 1518 Z M 920 326 C 985 326 1031 336 1059 358 C 1086 380 1100 414 1100 461 C 1100 508 1086 542 1059 564 C 1031 585 985 596 920 596 L 555 596 L 555 326 L 920 326 Z M 881 920 C 942 920 987 929 1016 948 C 1044 967 1059 1001 1059 1049 C 1059 1096 1044 1129 1016 1149 C 988 1168 943 1178 881 1178 L 555 1178 L 555 920 L 881 920 Z" unicode="В" />
<glyph horiz-adv-x="1296" d="M 139 1518 L 1280 1518 L 1280 1135 L 563 1135 L 563 0 L 139 0 L 139 1518 Z" unicode="Г" />
<glyph horiz-adv-x="1866" d="M 80 367 L 121 367 C 164 367 193 373 208 387 C 223 401 231 429 231 471 L 231 1518 L 1651 1518 L 1651 367 L 1786 367 L 1786 -340 L 1360 -340 L 1360 0 L 506 0 L 506 -340 L 80 -340 L 80 367 Z M 1225 356 L 1225 1141 L 649 1141 L 649 455 C 649 435 647 417 645 399 C 643 381 635 366 621 356 L 1225 356 Z" unicode="Д" />
<glyph horiz-adv-x="1458" d="M 139 1518 L 1348 1518 L 1348 1135 L 563 1135 L 563 950 L 1327 950 L 1327 580 L 563 580 L 563 367 L 1356 367 L 1356 0 L 139 0 L 139 1518 Z" unicode="Е" />
<glyph horiz-adv-x="2519" d="M 520 0 L 39 0 L 610 914 L 113 1518 L 580 1518 L 1057 920 L 1057 1518 L 1462 1518 L 1462 920 L 1939 1518 L 2406 1518 L 1908 914 L 2480 0 L 1999 0 L 1634 582 L 1462 373 L 1462 0 L 1057 0 L 1057 373 L 884 582 L 520 0 Z" unicode="Ж" />
<glyph horiz-adv-x="1513" d="M 741 -25 C 583 -25 445 -10 327 19 C 209 48 104 92 12 152 L 209 467 C 292 419 378 382 468 358 C 558 334 642 322 721 322 C 817 322 883 326 919 335 C 954 343 980 358 996 379 C 1012 400 1020 431 1020 471 C 1020 520 999 552 958 568 C 916 584 833 592 707 592 L 322 592 L 322 950 L 702 950 C 812 950 885 959 922 977 C 958 995 977 1026 977 1069 C 977 1112 958 1143 920 1161 C 882 1179 813 1188 711 1188 C 637 1188 554 1177 462 1156 C 369 1135 302 1111 260 1083 L 47 1391 C 119 1435 220 1472 351 1500 C 481 1528 615 1542 752 1542 C 970 1542 1133 1510 1241 1448 C 1349 1385 1403 1293 1403 1171 C 1403 1073 1390 997 1364 944 C 1338 891 1293 851 1229 825 C 1308 801 1364 759 1396 699 C 1428 639 1444 554 1444 444 C 1444 131 1209 -25 741 -25 Z" unicode="З" />
<glyph horiz-adv-x="1731" d="M 139 1518 L 545 1518 L 545 715 L 1137 1518 L 1591 1518 L 1591 0 L 1186 0 L 1186 887 L 530 0 L 139 0 L 139 1518 Z" unicode="И" />
<glyph horiz-adv-x="1731" d="M 139 1518 L 545 1518 L 545 715 L 1137 1518 L 1591 1518 L 1591 0 L 1186 0 L 1186 887 L 530 0 L 139 0 L 139 1518 Z M 864 1575 C 770 1575 692 1590 631 1621 C 569 1651 520 1698 483 1760 C 446 1822 417 1912 395 2029 L 684 2082 C 700 2001 720 1948 744 1922 C 768 1896 808 1884 864 1884 C 919 1884 958 1896 982 1921 C 1006 1946 1026 2000 1044 2082 L 1337 2031 C 1312 1910 1281 1819 1243 1758 C 1205 1696 1156 1650 1095 1620 C 1033 1590 956 1575 864 1575 Z" unicode="Й" />
<glyph horiz-adv-x="1614" d="M 139 1518 L 557 1518 L 557 921 L 1034 1518 L 1501 1518 L 1003 914 L 1575 0 L 1094 0 L 729 582 L 557 373 L 557 0 L 139 0 L 139 1518 Z" unicode="К" />
<glyph horiz-adv-x="1790" d="M 80 367 L 115 367 C 156 367 184 373 198 385 C 212 397 219 426 219 471 L 219 1518 L 1651 1518 L 1651 0 L 1225 0 L 1225 1141 L 643 1141 L 643 391 C 643 298 629 223 602 165 C 575 107 535 64 482 37 C 429 9 356 -4 264 -4 C 173 -4 112 -1 80 4 L 80 367 Z" unicode="Л" />
<glyph horiz-adv-x="2071" d="M 139 1518 L 694 1518 L 1034 614 L 1376 1518 L 1929 1518 L 1929 0 L 1516 0 L 1516 881 L 1176 0 L 858 0 L 522 874 L 522 0 L 139 0 L 139 1518 Z" unicode="М" />
<glyph horiz-adv-x="1710" d="M 139 1518 L 563 1518 L 563 973 L 1145 973 L 1145 1518 L 1571 1518 L 1571 0 L 1145 0 L 1145 575 L 563 575 L 563 0 L 139 0 L 139 1518 Z" unicode="Н" />
<glyph horiz-adv-x="1767" d="M 883 -25 C 605 -25 399 40 263 172 C 127 304 59 500 59 760 C 59 1019 127 1214 263 1345 C 399 1476 606 1542 883 1542 C 1433 1542 1708 1281 1708 760 C 1708 236 1433 -25 883 -25 Z M 883 348 C 1017 348 1116 379 1181 442 C 1245 504 1278 608 1278 752 C 1278 892 1246 994 1182 1058 C 1118 1121 1019 1153 883 1153 C 747 1153 647 1121 583 1058 C 519 994 487 892 487 752 C 487 608 519 505 584 442 C 648 379 748 348 883 348 Z" unicode="О" />
<glyph horiz-adv-x="1704" d="M 139 1518 L 1565 1518 L 1565 0 L 1139 0 L 1139 1141 L 557 1141 L 557 0 L 139 0 L 139 1518 Z" unicode="П" />
<glyph horiz-adv-x="1612" d="M 139 1518 L 901 1518 C 1053 1518 1177 1498 1273 1460 C 1369 1422 1439 1365 1485 1289 C 1531 1213 1554 1110 1554 981 C 1554 845 1529 736 1480 654 C 1431 572 1357 512 1258 473 C 1158 433 1031 414 877 414 L 553 414 L 553 0 L 139 0 L 139 1518 Z M 895 764 C 980 764 1040 778 1075 807 C 1110 835 1128 886 1128 958 C 1128 1033 1111 1085 1078 1114 C 1044 1142 983 1157 893 1157 L 553 1157 L 553 764 L 895 764 Z" unicode="Р" />
<glyph horiz-adv-x="1593" d="M 856 -23 C 582 -23 380 39 252 163 C 123 287 59 486 59 760 C 59 1281 333 1542 883 1542 C 1025 1542 1146 1523 1244 1487 C 1342 1451 1431 1391 1511 1307 L 1219 1014 C 1165 1068 1112 1104 1061 1124 C 1009 1143 949 1153 881 1153 C 745 1153 646 1121 582 1058 C 518 994 487 893 487 754 C 487 654 500 577 527 522 C 553 466 595 425 653 397 C 710 369 787 356 883 356 C 933 356 977 360 1017 370 C 1056 380 1092 394 1125 413 C 1157 431 1197 462 1243 506 L 1522 233 C 1433 139 1336 72 1232 34 C 1128 -3 1002 -23 856 -23 Z" unicode="С" />
<glyph horiz-adv-x="1464" d="M 520 1135 L 16 1135 L 16 1518 L 1450 1518 L 1450 1135 L 946 1135 L 946 0 L 520 0 L 520 1135 Z" unicode="Т" />
<glyph horiz-adv-x="1499" d="M 6 1518 L 465 1518 L 794 822 L 1081 1518 L 1513 1518 L 979 328 C 933 226 890 153 850 111 C 810 69 762 39 704 22 C 646 4 565 -4 463 -4 L 260 0 L 260 354 L 387 354 C 445 354 485 356 507 361 C 529 366 545 376 555 390 L 6 1518 Z" unicode="У" />
<glyph horiz-adv-x="2316" d="M 956 186 L 735 186 C 580 186 453 205 354 244 C 254 283 180 344 131 426 C 81 508 57 625 57 776 C 57 917 81 1029 129 1112 C 177 1194 249 1255 345 1295 C 441 1334 565 1354 715 1354 L 956 1354 L 956 1518 L 1360 1518 L 1360 1354 L 1606 1354 C 1753 1354 1875 1335 1971 1298 C 2067 1260 2139 1201 2187 1121 C 2235 1041 2259 929 2259 786 C 2259 636 2234 518 2186 434 C 2137 350 2063 287 1963 247 C 1863 206 1735 186 1581 186 L 1360 186 L 1360 0 L 956 0 L 956 186 Z M 956 537 L 956 993 L 723 993 C 637 993 576 975 539 941 C 501 906 483 847 483 764 C 483 682 501 624 539 589 C 577 554 636 537 717 537 L 956 537 Z M 1599 537 C 1680 537 1739 554 1777 590 C 1814 625 1833 683 1833 764 C 1833 848 1814 908 1778 942 C 1742 976 1681 993 1597 993 L 1360 993 L 1360 537 L 1599 537 Z" unicode="Ф" />
<glyph horiz-adv-x="1675" d="M 100 1518 L 580 1518 L 853 1124 L 1106 1518 L 1577 1518 L 1074 806 L 1634 0 L 1153 0 L 819 481 L 510 0 L 39 0 L 599 799 L 100 1518 Z" unicode="Х" />
<glyph horiz-adv-x="1786" d="M 1280 0 L 139 0 L 139 1518 L 563 1518 L 563 358 L 1145 358 L 1145 1518 L 1565 1518 L 1565 367 L 1706 367 L 1706 -340 L 1280 -340 L 1280 0 Z" unicode="Ц" />
<glyph horiz-adv-x="1653" d="M 1092 459 C 1056 431 998 409 917 393 C 836 377 741 369 633 369 C 453 369 320 409 233 491 C 145 573 102 703 102 881 L 102 1518 L 526 1518 L 526 973 C 526 913 534 869 551 841 C 567 813 594 792 632 778 C 669 764 720 758 784 758 C 859 758 919 765 963 780 C 1007 794 1039 816 1059 845 C 1079 874 1090 919 1090 979 L 1090 1518 L 1513 1518 L 1513 0 L 1092 0 L 1092 459 Z" unicode="Ч" />
<glyph horiz-adv-x="2517" d="M 139 1542 L 563 1542 L 563 358 L 1047 358 L 1047 1542 L 1475 1542 L 1475 358 L 1958 358 L 1958 1542 L 2378 1542 L 2378 0 L 139 0 L 139 1542 Z" unicode="Ш" />
<glyph horiz-adv-x="2599" d="M 2093 0 L 139 0 L 139 1542 L 563 1542 L 563 358 L 1047 358 L 1047 1542 L 1475 1542 L 1475 358 L 1958 358 L 1958 1542 L 2378 1542 L 2378 367 L 2519 367 L 2519 -340 L 2093 -340 L 2093 0 Z" unicode="Щ" />
<glyph horiz-adv-x="1692" d="M 219 1135 L 80 1135 L 80 1518 L 633 1518 L 633 1104 L 981 1104 C 1133 1104 1257 1084 1353 1046 C 1449 1008 1519 951 1565 875 C 1611 799 1634 696 1634 567 C 1634 367 1578 223 1468 134 C 1357 44 1186 0 956 0 L 219 0 L 219 1135 Z M 975 350 C 1061 350 1121 364 1156 393 C 1190 422 1208 473 1208 545 C 1208 620 1191 672 1158 700 C 1125 728 1063 743 973 743 L 633 743 L 633 350 L 975 350 Z" unicode="Ъ" />
<glyph horiz-adv-x="2226" d="M 139 1518 L 553 1518 L 553 1104 L 901 1104 C 1053 1104 1177 1084 1273 1046 C 1369 1008 1439 951 1485 875 C 1531 799 1554 696 1554 567 C 1554 431 1529 322 1480 240 C 1431 158 1357 98 1258 59 C 1158 19 1031 0 877 0 L 139 0 L 139 1518 Z M 895 350 C 981 350 1041 364 1076 393 C 1110 422 1128 473 1128 545 C 1128 620 1111 672 1078 700 C 1045 728 983 743 893 743 L 553 743 L 553 350 L 895 350 Z M 1663 1518 L 2087 1518 L 2087 0 L 1663 0 L 1663 1518 Z" unicode="Ы" />
<glyph horiz-adv-x="1612" d="M 139 1518 L 553 1518 L 553 1104 L 901 1104 C 1053 1104 1177 1084 1273 1046 C 1369 1008 1439 951 1485 875 C 1531 799 1554 696 1554 567 C 1554 431 1529 322 1480 240 C 1431 158 1357 98 1258 59 C 1158 19 1031 0 877 0 L 139 0 L 139 1518 Z M 895 350 C 981 350 1041 364 1076 393 C 1110 422 1128 473 1128 545 C 1128 620 1111 672 1078 700 C 1045 728 983 743 893 743 L 553 743 L 553 350 L 895 350 Z" unicode="Ь" />
<glyph horiz-adv-x="1589" d="M 449 586 L 449 944 L 1087 944 C 1038 1083 913 1153 713 1153 C 641 1153 579 1142 527 1122 C 475 1101 424 1065 375 1014 L 82 1307 C 160 1389 252 1449 356 1486 C 460 1523 587 1542 737 1542 C 999 1542 1196 1476 1330 1346 C 1463 1215 1530 1020 1530 760 C 1530 486 1466 287 1338 163 C 1210 39 1010 -23 737 -23 C 591 -23 465 -3 361 34 C 257 72 160 139 72 233 L 350 506 C 396 462 436 430 470 412 C 504 394 543 380 586 370 C 628 360 679 356 737 356 C 837 356 917 374 977 412 C 1036 449 1076 507 1097 586 L 449 586 Z" unicode="Э" />
<glyph horiz-adv-x="2486" d="M 139 1518 L 563 1518 L 563 963 L 813 963 C 845 1157 925 1302 1054 1398 C 1182 1494 1365 1542 1602 1542 C 2152 1542 2427 1281 2427 760 C 2427 236 2152 -25 1602 -25 C 1358 -25 1171 26 1041 129 C 911 231 834 384 809 586 L 563 586 L 563 0 L 139 0 L 139 1518 Z M 1602 348 C 1736 348 1835 379 1900 442 C 1964 504 1997 608 1997 752 C 1997 892 1965 994 1901 1058 C 1837 1121 1738 1153 1602 1153 C 1466 1153 1366 1121 1302 1058 C 1238 994 1206 892 1206 752 C 1206 608 1238 505 1303 442 C 1367 379 1467 348 1602 348 Z" unicode="Ю" />
<glyph horiz-adv-x="1636" d="M 1083 455 L 808 455 L 563 0 L 109 0 L 385 510 C 311 540 254 577 213 621 C 172 665 142 717 122 777 C 102 836 92 909 92 995 C 92 1126 114 1229 160 1303 C 205 1377 275 1431 369 1466 C 463 1500 582 1518 727 1518 L 1497 1518 L 1497 0 L 1083 0 L 1083 455 Z M 1083 807 L 1083 1157 L 743 1157 C 655 1157 595 1144 565 1120 C 535 1096 520 1049 520 979 C 520 913 535 867 566 843 C 596 819 655 807 741 807 L 1083 807 Z" unicode="Я" />
<glyph horiz-adv-x="1348" d="M 487 -18 C 379 -18 291 -4 225 21 C 158 47 109 86 78 138 C 46 190 31 261 31 352 C 31 452 53 530 99 587 C 144 643 215 684 313 710 C 411 735 563 748 770 748 L 807 748 C 805 779 798 800 786 812 C 774 823 755 831 729 837 C 703 843 665 846 616 846 C 558 846 500 837 442 821 C 383 805 330 782 283 752 L 80 1049 C 146 1093 233 1129 342 1157 C 450 1185 557 1200 662 1200 C 800 1200 906 1186 982 1158 C 1058 1130 1112 1084 1146 1022 C 1179 960 1196 865 1196 737 L 1196 424 C 1196 382 1201 357 1212 348 C 1223 338 1248 334 1288 334 L 1288 4 C 1260 -2 1202 -6 1116 -6 C 1045 -6 993 2 959 19 C 925 35 898 62 877 100 C 847 64 800 35 736 14 C 671 -7 588 -18 487 -18 Z M 416 387 C 416 357 427 337 450 325 C 472 313 513 307 571 307 C 652 307 712 319 750 343 C 788 367 807 408 807 465 L 807 504 L 797 504 C 720 504 658 502 611 499 C 563 496 525 491 497 484 C 468 477 447 467 435 455 C 422 442 416 419 416 387 Z" unicode="а" />
<glyph horiz-adv-x="1389" d="M 696 -23 C 473 -23 311 31 209 139 C 107 247 57 417 57 649 L 57 788 C 57 997 79 1158 123 1270 C 167 1382 239 1463 339 1513 C 439 1563 579 1589 760 1589 L 995 1589 L 995 1231 L 780 1231 C 665 1231 584 1213 537 1177 C 490 1141 467 1078 467 989 C 490 1026 531 1056 590 1078 C 648 1100 726 1112 823 1112 C 939 1112 1035 1093 1110 1055 C 1185 1017 1241 957 1277 877 C 1313 796 1331 682 1331 535 C 1331 352 1277 213 1169 119 C 1061 24 903 -23 696 -23 Z M 696 324 C 846 324 922 398 922 547 C 922 622 903 676 865 710 C 827 743 771 760 696 760 C 618 760 561 743 523 711 C 485 678 467 623 467 547 C 467 469 485 413 523 377 C 561 341 618 324 696 324 Z" unicode="б" />
<glyph horiz-adv-x="1378" d="M 113 1174 L 723 1174 C 922 1174 1062 1151 1144 1107 C 1225 1062 1266 987 1266 883 C 1266 736 1216 644 1118 608 C 1182 592 1227 563 1255 520 C 1282 476 1296 410 1296 322 C 1296 241 1277 177 1241 131 C 1204 85 1146 51 1068 31 C 990 10 875 0 723 0 L 113 0 L 113 1174 Z M 764 285 C 820 285 858 291 876 305 C 894 319 903 343 903 379 C 903 414 893 438 874 452 C 855 466 818 473 764 473 L 494 473 L 494 285 L 764 285 Z M 733 698 C 786 698 822 704 842 716 C 862 728 872 752 872 788 C 872 824 861 847 841 859 C 821 871 785 877 733 877 L 494 877 L 494 698 L 733 698 Z" unicode="в" />
<glyph horiz-adv-x="1151" d="M 113 1174 L 1106 1174 L 1106 829 L 518 829 L 518 0 L 113 0 L 113 1174 Z" unicode="г" />
<glyph horiz-adv-x="1630" d="M 80 338 L 115 338 C 156 338 184 344 198 356 C 212 368 219 397 219 442 L 219 1174 L 1411 1174 L 1411 338 L 1550 338 L 1550 -340 L 1171 -340 L 1171 0 L 459 0 L 459 -340 L 80 -340 L 80 338 Z M 1012 315 L 1012 838 L 625 838 L 625 414 C 625 367 615 334 596 315 L 1012 315 Z" unicode="д" />
<glyph horiz-adv-x="1294" d="M 692 -23 C 475 -23 315 25 212 123 C 108 220 57 376 57 590 C 57 735 80 852 128 940 C 175 1028 246 1094 340 1136 C 434 1178 551 1200 692 1200 C 874 1200 1008 1157 1096 1072 C 1184 986 1230 845 1236 649 L 1237 560 L 1235 449 L 450 449 C 461 398 486 361 524 338 C 562 314 618 303 692 303 C 768 303 835 311 894 327 C 953 343 1007 370 1055 406 L 1257 145 C 1179 84 1097 41 1011 15 C 925 -10 818 -23 692 -23 Z M 866 688 C 863 738 855 775 843 797 C 831 819 812 835 786 847 C 760 858 725 864 680 864 C 608 864 553 850 516 824 C 479 798 456 756 448 698 L 446 688 L 866 688 Z" unicode="е" />
<glyph horiz-adv-x="1960" d="M 791 1174 L 1169 1174 L 1169 776 L 1487 1174 L 1929 1174 L 1546 700 L 1960 0 L 1509 0 L 1273 391 L 1169 266 L 1169 0 L 791 0 L 791 266 L 686 391 L 451 0 L 0 0 L 413 700 L 31 1174 L 473 1174 L 791 776 L 791 1174 Z" unicode="ж" />
<glyph horiz-adv-x="1294" d="M 623 -25 C 496 -25 379 -12 273 11 C 166 35 79 69 12 113 L 178 389 C 308 319 437 285 565 285 C 645 285 698 287 726 292 C 753 297 772 306 784 319 C 795 332 801 352 801 379 C 801 402 795 419 785 430 C 774 440 755 448 727 452 C 699 456 642 459 555 459 L 287 459 L 287 735 L 551 735 C 629 735 680 737 703 741 C 725 745 741 753 751 763 C 761 773 766 790 766 813 C 766 841 753 860 727 870 C 701 880 645 885 559 885 C 501 885 440 878 375 864 C 309 850 259 833 225 813 L 39 1081 C 98 1117 184 1145 298 1167 C 412 1189 523 1200 631 1200 C 822 1200 962 1176 1050 1129 C 1138 1081 1182 1009 1182 911 C 1182 837 1172 779 1152 737 C 1132 695 1096 663 1044 639 C 1107 621 1151 588 1175 540 C 1199 492 1212 426 1212 342 C 1212 218 1166 125 1074 65 C 982 5 831 -25 623 -25 Z" unicode="з" />
<glyph horiz-adv-x="1432" d="M 113 1174 L 508 1174 L 508 643 L 885 1174 L 1319 1174 L 1319 0 L 924 0 L 924 623 L 477 0 L 113 0 L 113 1174 Z" unicode="и" />
<glyph horiz-adv-x="1432" d="M 113 1174 L 508 1174 L 508 643 L 885 1174 L 1319 1174 L 1319 0 L 924 0 L 924 623 L 477 0 L 113 0 L 113 1174 Z M 715 1260 C 621 1260 543 1275 482 1306 C 420 1336 371 1383 334 1445 C 297 1507 268 1597 246 1714 L 535 1767 C 551 1686 571 1633 595 1607 C 619 1581 659 1569 715 1569 C 770 1569 809 1581 833 1606 C 857 1631 877 1685 895 1767 L 1188 1716 C 1163 1595 1132 1504 1094 1443 C 1056 1381 1007 1335 946 1305 C 884 1275 807 1260 715 1260 Z" unicode="й" />
<glyph horiz-adv-x="1305" d="M 113 1174 L 514 1174 L 514 777 L 831 1174 L 1274 1174 L 891 699 L 1305 0 L 854 0 L 618 390 L 514 266 L 514 0 L 113 0 L 113 1174 Z" unicode="к" />
<glyph horiz-adv-x="1530" d="M 80 338 L 115 338 C 158 338 187 344 202 358 C 217 372 225 400 225 442 L 225 1174 L 1417 1174 L 1417 0 L 1012 0 L 1012 838 L 625 838 L 625 391 C 625 297 612 221 588 163 C 563 105 526 63 476 36 C 426 9 355 -4 264 -4 C 173 -4 112 -1 80 4 L 80 338 Z" unicode="л" />
<glyph horiz-adv-x="1776" d="M 113 1174 L 625 1174 L 889 510 L 1153 1174 L 1663 1174 L 1663 0 L 1260 0 L 1260 590 L 1038 0 L 711 0 L 492 594 L 492 0 L 113 0 L 113 1174 Z" unicode="м" />
<glyph horiz-adv-x="1423" d="M 113 1174 L 518 1174 L 518 786 L 905 786 L 905 1174 L 1311 1174 L 1311 0 L 905 0 L 905 422 L 518 422 L 518 0 L 113 0 L 113 1174 Z" unicode="н" />
<glyph horiz-adv-x="1386" d="M 694 -23 C 478 -23 318 27 214 127 C 109 227 57 381 57 590 C 57 798 109 951 214 1051 C 318 1150 478 1200 694 1200 C 910 1200 1069 1150 1173 1051 C 1277 952 1329 798 1329 590 C 1329 380 1277 226 1173 126 C 1069 26 910 -23 694 -23 Z M 694 324 C 773 324 831 343 867 381 C 903 419 922 485 922 578 C 922 670 903 736 867 774 C 830 812 772 831 694 831 C 639 831 595 822 562 804 C 528 786 504 759 489 725 C 474 691 467 642 467 578 C 467 484 485 418 522 380 C 558 342 616 324 694 324 Z" unicode="о" />
<glyph horiz-adv-x="1417" d="M 113 1174 L 1305 1174 L 1305 0 L 899 0 L 899 838 L 512 838 L 512 0 L 113 0 L 113 1174 Z" unicode="п" />
<glyph horiz-adv-x="1432" d="M 113 1151 L 428 1176 L 459 1081 C 505 1123 561 1153 628 1172 C 695 1190 776 1200 870 1200 C 1038 1200 1164 1150 1248 1052 C 1332 954 1374 800 1374 590 C 1374 381 1329 227 1241 129 C 1152 31 1020 -18 846 -18 C 690 -18 581 12 518 72 L 518 -338 L 113 -338 L 113 1151 Z M 762 324 C 810 324 848 332 878 350 C 907 368 928 394 942 428 C 956 462 963 510 963 573 C 963 640 956 691 942 725 C 928 759 907 786 878 804 C 849 822 810 831 762 831 C 677 831 615 811 576 771 C 537 731 518 665 518 573 C 518 506 526 456 542 423 C 558 389 583 364 619 348 C 655 332 702 324 762 324 Z" unicode="р" />
<glyph horiz-adv-x="1227" d="M 678 -18 C 540 -18 425 2 333 44 C 241 86 172 150 126 238 C 80 326 57 443 57 590 C 57 739 81 858 129 946 C 177 1034 248 1098 344 1139 C 439 1179 557 1200 698 1200 C 918 1200 1085 1132 1200 997 L 915 729 C 877 769 841 795 809 809 C 777 822 739 829 696 829 C 616 829 557 810 521 774 C 485 737 467 672 467 578 C 467 482 485 416 522 379 C 559 342 618 324 700 324 C 748 324 790 331 825 347 C 859 362 898 390 940 430 L 1198 184 C 1114 105 1035 52 961 24 C 887 -4 792 -18 678 -18 Z" unicode="с" />
<glyph horiz-adv-x="1274" d="M 434 829 L 45 829 L 45 1174 L 1229 1174 L 1229 829 L 840 829 L 840 0 L 434 0 L 434 829 Z" unicode="т" />
<glyph horiz-adv-x="1253" d="M -14 1174 L 424 1174 L 644 548 L 856 1174 L 1268 1174 L 815 -18 C 781 -110 743 -179 701 -224 C 659 -268 606 -300 541 -320 C 476 -340 390 -350 283 -350 L 158 -346 L 158 -43 L 244 -43 C 295 -43 331 -41 353 -37 C 375 -33 391 -27 402 -19 C 412 -10 421 7 428 33 L -14 1174 Z" unicode="у" />
<glyph horiz-adv-x="2210" d="M 911 74 C 834 9 720 -23 569 -23 C 227 -23 57 182 57 594 C 57 998 232 1200 584 1200 C 734 1200 843 1170 911 1110 L 911 1589 L 1294 1589 L 1294 1108 C 1359 1169 1477 1200 1649 1200 C 1817 1200 1942 1150 2026 1052 C 2110 953 2152 799 2152 590 C 2152 381 2107 227 2019 129 C 1930 31 1798 -18 1624 -18 C 1468 -18 1359 12 1296 72 L 1296 -338 L 911 -338 L 911 74 Z M 670 326 C 750 326 811 346 851 387 C 891 428 911 497 911 594 C 911 660 903 710 888 742 C 872 774 847 797 812 813 C 777 828 730 836 670 836 C 622 836 583 827 554 811 C 524 794 503 770 489 738 C 475 706 469 658 469 594 C 469 525 475 473 489 437 C 503 401 524 374 554 355 C 583 335 622 326 670 326 Z M 1540 324 C 1588 324 1626 332 1656 350 C 1685 368 1706 394 1720 428 C 1734 462 1741 510 1741 573 C 1741 640 1734 691 1720 725 C 1706 759 1685 786 1656 804 C 1627 822 1588 831 1540 831 C 1456 831 1395 811 1355 772 C 1315 732 1296 666 1296 573 C 1296 506 1304 456 1320 423 C 1336 389 1361 364 1397 348 C 1433 332 1480 324 1540 324 Z" unicode="ф" />
<glyph horiz-adv-x="1288" d="M 35 1174 L 489 1174 L 665 916 L 827 1174 L 1255 1174 L 872 613 L 1292 0 L 838 0 L 622 315 L 422 0 L -6 0 L 417 615 L 35 1174 Z" unicode="х" />
<glyph horiz-adv-x="1524" d="M 1065 0 L 113 0 L 113 1174 L 518 1174 L 518 326 L 905 326 L 905 1174 L 1305 1174 L 1305 338 L 1444 338 L 1444 -340 L 1065 -340 L 1065 0 Z" unicode="ц" />
<glyph horiz-adv-x="1382" d="M 866 336 C 832 308 783 286 719 270 C 655 254 582 246 502 246 C 402 246 321 262 260 296 C 198 330 153 381 125 450 C 96 519 82 615 82 737 L 82 1174 L 487 1174 L 487 821 C 487 765 492 725 503 701 C 513 677 531 658 555 646 C 579 633 612 627 653 627 C 705 627 746 633 777 646 C 807 658 829 678 843 704 C 857 730 864 771 864 827 L 864 1174 L 1270 1174 L 1270 0 L 866 0 L 866 336 Z" unicode="ч" />
<glyph horiz-adv-x="2138" d="M 113 1174 L 518 1174 L 518 326 L 870 326 L 870 1174 L 1276 1174 L 1276 326 L 1626 326 L 1626 1174 L 2025 1174 L 2025 0 L 113 0 L 113 1174 Z" unicode="ш" />
<glyph horiz-adv-x="2245" d="M 1786 0 L 113 0 L 113 1174 L 518 1174 L 518 326 L 870 326 L 870 1174 L 1276 1174 L 1276 326 L 1626 326 L 1626 1174 L 2025 1174 L 2025 338 L 2165 338 L 2165 -340 L 1786 -340 L 1786 0 Z" unicode="щ" />
<glyph horiz-adv-x="1466" d="M 219 829 L 80 829 L 80 1174 L 621 1174 L 621 930 L 891 930 C 1058 930 1184 893 1268 820 C 1352 747 1395 633 1395 479 C 1395 316 1351 195 1264 117 C 1176 39 1045 0 870 0 L 219 0 L 219 829 Z M 803 311 C 870 311 917 322 943 345 C 969 368 983 407 983 463 C 983 521 969 561 943 583 C 917 605 870 616 803 616 L 621 616 L 621 311 L 803 311 Z" unicode="ъ" />
<glyph horiz-adv-x="1870" d="M 113 1174 L 514 1174 L 514 930 L 784 930 C 950 930 1076 893 1161 821 C 1245 749 1288 635 1288 479 C 1288 317 1244 196 1157 118 C 1070 39 939 0 764 0 L 113 0 L 113 1174 Z M 696 311 C 762 311 809 322 836 345 C 863 367 877 407 877 463 C 877 521 863 561 837 583 C 811 605 764 616 696 616 L 514 616 L 514 311 L 696 311 Z M 1352 1174 L 1757 1174 L 1757 0 L 1352 0 L 1352 1174 Z" unicode="ы" />
<glyph horiz-adv-x="1360" d="M 113 1174 L 514 1174 L 514 930 L 784 930 C 950 930 1076 893 1161 821 C 1245 749 1288 635 1288 479 C 1288 317 1244 196 1157 118 C 1070 39 939 0 764 0 L 113 0 L 113 1174 Z M 696 311 C 762 311 809 322 836 345 C 863 367 877 407 877 463 C 877 521 863 561 837 583 C 811 605 764 616 696 616 L 514 616 L 514 311 L 696 311 Z" unicode="ь" />
<glyph horiz-adv-x="1227" d="M 340 453 L 340 709 L 758 709 C 746 758 722 794 686 816 C 650 838 598 850 530 850 C 500 850 472 845 448 837 C 423 828 400 817 380 803 C 359 789 333 765 303 733 L 29 997 C 143 1132 313 1200 539 1200 C 677 1200 793 1179 887 1138 C 981 1097 1051 1032 1098 944 C 1145 856 1169 738 1169 590 C 1169 442 1146 325 1100 238 C 1054 151 986 87 895 45 C 803 3 688 -18 549 -18 C 431 -18 334 -3 258 25 C 182 54 103 107 23 184 L 272 424 C 310 387 348 361 387 346 C 426 331 474 324 532 324 C 603 324 656 333 690 353 C 724 373 747 406 758 453 L 340 453 Z" unicode="э" />
<glyph horiz-adv-x="1937" d="M 113 1174 L 518 1174 L 518 776 L 644 776 C 666 918 727 1025 826 1095 C 925 1165 1065 1200 1245 1200 C 1461 1200 1620 1150 1724 1051 C 1828 952 1880 798 1880 590 C 1880 380 1828 226 1724 126 C 1620 26 1461 -23 1245 -23 C 1120 -23 1016 -6 932 26 C 848 59 782 108 734 174 C 686 239 654 325 639 432 L 518 432 L 518 0 L 113 0 L 113 1174 Z M 1245 324 C 1324 324 1382 343 1418 381 C 1454 419 1473 485 1473 578 C 1473 670 1454 736 1418 774 C 1381 812 1323 831 1245 831 C 1190 831 1146 822 1113 804 C 1079 786 1055 759 1040 725 C 1025 691 1018 642 1018 578 C 1018 484 1036 418 1073 380 C 1109 342 1167 324 1245 324 Z" unicode="ю" />
<glyph horiz-adv-x="1413" d="M 899 297 L 699 297 L 539 0 L 104 0 L 298 357 C 228 390 176 438 142 500 C 108 562 92 640 92 735 C 92 887 135 998 222 1068 C 309 1138 443 1174 625 1174 L 1300 1174 L 1300 0 L 899 0 L 899 297 Z M 899 610 L 899 840 L 647 840 C 594 840 557 831 537 814 C 516 796 506 766 506 723 C 506 681 515 652 534 635 C 553 618 590 610 645 610 L 899 610 Z" unicode="я" />
<glyph horiz-adv-x="1294" d="M 692 -23 C 475 -23 315 25 212 123 C 108 220 57 376 57 590 C 57 735 80 852 128 940 C 175 1028 246 1094 340 1136 C 434 1178 551 1200 692 1200 C 874 1200 1008 1157 1096 1072 C 1184 986 1230 845 1236 649 L 1237 560 L 1235 449 L 450 449 C 461 398 486 361 524 338 C 562 314 618 303 692 303 C 768 303 835 311 894 327 C 953 343 1007 370 1055 406 L 1257 145 C 1179 84 1097 41 1011 15 C 925 -10 818 -23 692 -23 Z M 866 688 C 863 738 855 775 843 797 C 831 819 812 835 786 847 C 760 858 725 864 680 864 C 608 864 553 850 516 824 C 479 798 456 756 448 698 L 446 688 L 866 688 Z M 225 1597 L 590 1597 L 590 1280 L 225 1280 L 225 1597 Z M 707 1597 L 1071 1597 L 1071 1280 L 707 1280 L 707 1597 Z" unicode="ё" />
<glyph horiz-adv-x="1407" d="M 778 -43 L 809 -43 C 843 -43 866 -37 877 -26 C 887 -14 893 11 895 53 L 895 563 C 895 619 889 659 879 683 C 868 707 851 726 827 739 C 803 751 771 758 729 758 C 676 758 634 751 604 738 C 574 725 552 705 538 679 C 524 652 518 611 518 557 L 518 0 L 113 0 L 113 1182 L 0 1182 L 0 1505 L 113 1505 L 113 1589 L 516 1589 L 516 1505 L 731 1505 L 731 1182 L 516 1182 L 516 1049 C 550 1077 599 1099 663 1115 C 727 1131 800 1139 881 1139 C 980 1139 1060 1122 1121 1088 C 1182 1054 1227 1003 1256 935 C 1285 867 1300 771 1300 647 L 1300 0 C 1300 -88 1286 -157 1258 -207 C 1230 -256 1185 -292 1125 -314 C 1064 -336 974 -348 854 -348 L 778 -348 L 778 -43 Z" unicode="ђ" />
<glyph horiz-adv-x="1151" d="M 113 1174 L 1106 1174 L 1106 829 L 518 829 L 518 0 L 113 0 L 113 1174 Z M 617 1686 L 1102 1686 L 693 1280 L 339 1280 L 617 1686 Z" unicode="ѓ" />
<glyph horiz-adv-x="1227" d="M 678 -18 C 540 -18 425 2 333 44 C 241 86 172 150 126 238 C 80 326 57 443 57 590 C 57 739 81 858 129 946 C 177 1034 248 1098 344 1139 C 439 1179 557 1200 698 1200 C 918 1200 1085 1132 1200 997 L 926 733 C 892 769 865 793 845 806 C 825 818 803 829 779 837 C 754 845 726 850 696 850 C 626 850 574 838 539 816 C 503 793 480 757 469 709 L 887 709 L 887 453 L 468 453 C 480 405 503 372 538 353 C 573 333 627 324 700 324 C 754 324 799 331 836 347 C 873 362 910 388 948 424 L 1198 184 C 1114 105 1035 52 961 24 C 887 -4 792 -18 678 -18 Z" unicode="є" />
<glyph horiz-adv-x="1227" d="M 596 -18 C 482 -18 374 -5 272 20 C 169 46 78 85 0 139 L 199 418 C 253 381 320 351 398 328 C 476 304 551 293 621 293 C 667 293 700 294 722 297 C 744 300 759 305 769 312 C 779 319 784 331 784 348 C 784 366 773 379 753 387 C 732 395 690 403 627 410 C 507 419 415 432 351 450 C 287 468 235 492 197 522 C 159 552 130 592 110 640 C 90 688 80 745 80 811 C 80 945 124 1044 212 1106 C 300 1168 438 1200 627 1200 C 733 1200 831 1190 923 1171 C 1014 1152 1091 1125 1155 1090 L 973 791 C 926 813 871 831 807 844 C 743 857 688 864 641 864 C 585 864 545 860 521 854 C 497 847 485 832 485 809 C 485 795 489 785 497 779 C 505 772 521 766 545 761 C 568 756 596 752 629 750 C 747 737 831 725 881 714 C 930 703 973 689 1010 672 C 1046 655 1077 634 1102 608 C 1127 582 1146 550 1160 513 C 1173 475 1180 430 1180 377 C 1180 278 1160 201 1121 145 C 1082 89 1020 47 935 21 C 850 -4 737 -18 596 -18 Z" unicode="ѕ" />
<glyph horiz-adv-x="657" d="M 125 1174 L 530 1174 L 530 0 L 125 0 L 125 1174 Z M 123 1589 L 532 1589 L 532 1260 L 123 1260 L 123 1589 Z" unicode="і" />
<glyph horiz-adv-x="657" d="M -43 1597 L 281 1597 L 281 1280 L -43 1280 L -43 1597 Z M 377 1597 L 700 1597 L 700 1280 L 377 1280 L 377 1597 Z M 125 1174 L 530 1174 L 530 0 L 125 0 L 125 1174 Z" unicode="ї" />
<glyph horiz-adv-x="657" d="M 8 -43 L 39 -43 C 65 -43 84 -39 96 -33 C 107 -27 115 -16 119 0 C 123 16 125 46 125 92 L 125 1174 L 530 1174 L 530 94 C 530 -29 517 -121 491 -181 C 465 -241 422 -283 362 -309 C 302 -335 209 -348 84 -348 L 8 -348 L 8 -43 Z M 123 1589 L 532 1589 L 532 1260 L 123 1260 L 123 1589 Z" unicode="ј" />
<glyph horiz-adv-x="2251" d="M 80 338 L 115 338 C 158 338 187 344 202 358 C 217 372 225 400 225 442 L 225 1174 L 1405 1174 L 1405 930 L 1675 930 C 1841 930 1967 893 2052 821 C 2136 749 2179 635 2179 479 C 2179 317 2135 196 2048 118 C 1961 39 1830 0 1655 0 L 1012 0 L 1012 838 L 625 838 L 625 391 C 625 297 612 221 588 163 C 563 105 526 63 476 36 C 426 9 355 -4 264 -4 C 173 -4 112 -1 80 4 L 80 338 Z M 1587 311 C 1654 311 1701 322 1727 345 C 1753 368 1767 407 1767 463 C 1767 521 1753 561 1727 583 C 1701 605 1654 616 1587 616 L 1405 616 L 1405 311 L 1587 311 Z" unicode="љ" />
<glyph horiz-adv-x="2144" d="M 113 1174 L 518 1174 L 518 786 L 905 786 L 905 1174 L 1298 1174 L 1298 930 L 1569 930 C 1736 930 1862 893 1946 820 C 2030 747 2073 633 2073 479 C 2073 317 2029 196 1942 118 C 1854 39 1723 0 1548 0 L 905 0 L 905 422 L 518 422 L 518 0 L 113 0 L 113 1174 Z M 1481 311 C 1548 311 1595 322 1621 345 C 1647 368 1661 407 1661 463 C 1661 521 1647 561 1621 583 C 1595 605 1548 616 1481 616 L 1298 616 L 1298 311 L 1481 311 Z" unicode="њ" />
<glyph horiz-adv-x="1407" d="M 0 1505 L 113 1505 L 113 1589 L 516 1589 L 516 1505 L 731 1505 L 731 1182 L 516 1182 L 516 1049 C 550 1077 599 1099 663 1115 C 727 1131 800 1139 881 1139 C 980 1139 1060 1122 1121 1088 C 1182 1054 1227 1003 1256 935 C 1285 867 1300 771 1300 647 L 1300 0 L 895 0 L 895 563 C 895 619 889 659 879 683 C 868 707 851 726 827 739 C 803 751 771 758 729 758 C 676 758 634 751 604 738 C 574 725 552 705 538 679 C 524 652 518 611 518 557 L 518 0 L 113 0 L 113 1182 L 0 1182 L 0 1505 Z" unicode="ћ" />
<glyph horiz-adv-x="1305" d="M 113 1174 L 514 1174 L 514 777 L 831 1174 L 1274 1174 L 891 699 L 1305 0 L 854 0 L 618 390 L 514 266 L 514 0 L 113 0 L 113 1174 Z M 692 1686 L 1177 1686 L 768 1280 L 414 1280 L 692 1686 Z" unicode="ќ" />
<glyph horiz-adv-x="1253" d="M -14 1174 L 424 1174 L 644 548 L 856 1174 L 1268 1174 L 815 -18 C 781 -110 743 -179 701 -224 C 659 -268 606 -300 541 -320 C 476 -340 390 -350 283 -350 L 158 -346 L 158 -43 L 244 -43 C 295 -43 331 -41 353 -37 C 375 -33 391 -27 402 -19 C 412 -10 421 7 428 33 L -14 1174 Z M 627 1260 C 533 1260 455 1275 394 1306 C 332 1336 283 1383 246 1445 C 209 1507 180 1597 158 1714 L 447 1767 C 463 1686 483 1633 507 1607 C 531 1581 571 1569 627 1569 C 682 1569 721 1581 745 1606 C 769 1631 789 1685 807 1767 L 1100 1716 C 1075 1595 1044 1504 1006 1443 C 968 1381 919 1335 858 1305 C 796 1275 719 1260 627 1260 Z" unicode="ў" />
<glyph horiz-adv-x="1417" d="M 518 0 L 113 0 L 113 1174 L 518 1174 L 518 326 L 905 326 L 905 1174 L 1305 1174 L 1305 0 L 897 0 L 897 -340 L 518 -340 L 518 0 Z" unicode="џ" />
<glyph horiz-adv-x="1296" d="M 139 1518 L 854 1518 L 854 1858 L 1280 1858 L 1280 1135 L 563 1135 L 563 0 L 139 0 L 139 1518 Z" unicode="Ґ" />
<glyph horiz-adv-x="1151" d="M 113 1174 L 727 1174 L 727 1518 L 1106 1518 L 1106 829 L 518 829 L 518 0 L 113 0 L 113 1174 Z" unicode="ґ" />
<glyph horiz-adv-x="1579" d="M 63 874 L 1513 874 L 1513 514 L 63 514 L 63 874 Z" unicode="–" />
<glyph horiz-adv-x="2013" d="M 63 874 L 1950 874 L 1950 514 L 63 514 L 63 874 Z" unicode="—" />
<glyph horiz-adv-x="657" d="M 98 993 C 98 1111 107 1197 126 1253 C 144 1309 176 1356 222 1396 C 268 1435 341 1476 442 1520 L 539 1323 C 469 1291 424 1267 403 1252 C 382 1237 367 1221 358 1204 C 348 1186 344 1161 344 1128 L 557 1128 L 557 688 L 98 688 L 98 993 Z" unicode="‘" />
<glyph horiz-adv-x="657" d="M 119 881 C 178 907 220 928 245 944 C 269 960 286 978 296 996 C 306 1014 311 1040 311 1075 L 98 1075 L 98 1518 L 557 1518 L 557 1210 C 557 1095 548 1010 531 955 C 514 899 483 852 439 812 C 394 772 319 730 213 686 L 119 881 Z" unicode="’" />
<glyph horiz-adv-x="657" d="M 119 -195 C 178 -169 220 -147 244 -131 C 268 -115 286 -98 296 -80 C 306 -62 311 -35 311 0 L 98 0 L 98 442 L 557 442 L 557 133 C 557 21 547 -62 528 -119 C 508 -176 474 -226 426 -268 C 378 -310 307 -351 213 -391 L 119 -195 Z" unicode="‚" />
<glyph horiz-adv-x="1206" d="M 98 1008 C 98 1120 107 1204 125 1259 C 143 1314 175 1361 221 1400 C 267 1438 338 1478 434 1518 L 524 1327 C 462 1298 420 1276 398 1261 C 376 1246 360 1230 351 1213 C 342 1195 338 1171 338 1139 L 545 1139 L 545 709 L 98 709 L 98 1008 Z M 662 1008 C 662 1126 671 1212 690 1266 C 709 1320 742 1366 788 1404 C 834 1442 903 1480 995 1518 L 1087 1327 C 1022 1297 979 1274 958 1259 C 936 1244 921 1229 912 1213 C 903 1197 899 1172 899 1139 L 1106 1139 L 1106 709 L 662 709 L 662 1008 Z" unicode="“" />
<glyph horiz-adv-x="1206" d="M 119 899 C 175 925 216 946 241 963 C 266 979 283 996 293 1013 C 302 1030 307 1056 307 1090 L 98 1090 L 98 1518 L 545 1518 L 545 1221 C 545 1103 535 1017 517 964 C 499 911 467 866 423 828 C 378 790 307 751 209 709 L 119 899 Z M 680 899 C 736 925 777 946 802 963 C 827 979 844 996 854 1013 C 863 1030 868 1056 868 1090 L 662 1090 L 662 1518 L 1106 1518 L 1106 1221 C 1106 1102 1096 1016 1078 962 C 1059 908 1027 863 982 826 C 936 788 866 749 772 709 L 680 899 Z" unicode="”" />
<glyph horiz-adv-x="1206" d="M 119 -190 C 175 -164 216 -143 241 -127 C 265 -111 282 -94 292 -77 C 302 -59 307 -34 307 0 L 98 0 L 98 428 L 545 428 L 545 131 C 545 17 535 -66 515 -121 C 495 -175 461 -223 414 -263 C 366 -303 298 -341 209 -379 L 119 -190 Z M 680 -190 C 736 -164 777 -143 802 -127 C 826 -111 843 -94 853 -77 C 863 -59 868 -34 868 0 L 662 0 L 662 428 L 1106 428 L 1106 131 C 1106 18 1096 -65 1076 -120 C 1056 -174 1023 -222 977 -262 C 931 -302 863 -341 774 -379 L 680 -190 Z" unicode="„" />
<glyph horiz-adv-x="1284" d="M 440 762 L 84 762 L 84 1126 L 440 1126 L 440 1589 L 842 1589 L 842 1126 L 1200 1126 L 1200 762 L 842 762 L 842 -340 L 440 -340 L 440 762 Z" unicode="†" />
<glyph horiz-adv-x="1284" d="M 440 123 L 84 123 L 84 487 L 440 487 L 440 762 L 84 762 L 84 1126 L 440 1126 L 440 1589 L 842 1589 L 842 1126 L 1200 1126 L 1200 762 L 842 762 L 842 487 L 1200 487 L 1200 123 L 842 123 L 842 -340 L 440 -340 L 440 123 Z" unicode="‡" />
<glyph horiz-adv-x="844" d="M 170 893 L 674 893 L 674 352 L 170 352 L 170 893 Z" unicode="•" />
<glyph horiz-adv-x="1892" d="M 98 442 L 557 442 L 557 0 L 98 0 L 98 442 Z M 717 442 L 1176 442 L 1176 0 L 717 0 L 717 442 Z M 1335 442 L 1792 442 L 1792 0 L 1335 0 L 1335 442 Z" unicode="…" />
<glyph horiz-adv-x="3813" d="M 580 514 C 412 514 282 558 190 647 C 98 735 53 863 53 1030 C 53 1193 99 1319 191 1408 C 283 1497 412 1542 580 1542 C 744 1542 872 1497 963 1407 C 1054 1317 1100 1192 1100 1030 C 1100 864 1054 737 963 648 C 871 558 744 514 580 514 Z M 580 815 C 638 815 679 833 703 870 C 727 907 739 960 739 1030 C 739 1096 726 1146 702 1181 C 678 1215 637 1233 580 1233 C 521 1233 479 1215 453 1181 C 427 1147 414 1096 414 1030 C 414 960 426 907 452 870 C 478 833 520 815 580 815 Z M 2122 -18 C 1954 -18 1825 26 1734 116 C 1642 206 1597 334 1597 500 C 1597 662 1642 787 1734 877 C 1826 967 1955 1012 2122 1012 C 2287 1012 2415 966 2507 876 C 2598 786 2644 660 2644 500 C 2644 336 2598 208 2508 118 C 2417 27 2288 -18 2122 -18 Z M 2122 283 C 2180 283 2221 301 2246 338 C 2271 374 2284 428 2284 500 C 2284 564 2271 614 2246 648 C 2220 682 2179 700 2122 700 C 2064 700 2022 683 1996 649 C 1970 615 1958 566 1958 500 C 1958 428 1970 374 1996 338 C 2021 301 2063 283 2122 283 Z M 3238 -18 C 3069 -18 2939 27 2849 117 C 2759 207 2714 335 2714 500 C 2714 661 2759 787 2850 877 C 2941 967 3070 1012 3238 1012 C 3403 1012 3531 966 3623 876 C 3714 786 3760 660 3760 500 C 3760 336 3714 208 3624 118 C 3533 27 3404 -18 3238 -18 Z M 3238 283 C 3296 283 3338 301 3363 338 C 3387 374 3400 428 3400 500 C 3400 564 3387 614 3362 648 C 3337 682 3296 700 3238 700 C 3180 700 3138 683 3112 649 C 3086 615 3074 566 3074 500 C 3074 428 3086 374 3112 338 C 3137 301 3179 283 3238 283 Z M 1585 1520 L 1960 1520 L 1110 0 L 735 0 L 1585 1520 Z" unicode="‰" />
<glyph horiz-adv-x="1061" d="M 164 586 L 473 1174 L 836 1174 L 559 586 L 836 0 L 473 0 L 164 586 Z" unicode="‹" />
<glyph horiz-adv-x="1061" d="M 502 588 L 225 1174 L 588 1174 L 897 588 L 588 0 L 225 0 L 502 588 Z" unicode="›" />
<glyph horiz-adv-x="1202" d="M 850 1518 L 1204 1518 L 354 0 L 0 0 L 850 1518 Z" unicode="⁄" />
<glyph horiz-adv-x="1528" d="M 49 696 L 288 696 L 287 760 L 287 778 L 49 778 L 49 1004 L 305 1004 C 333 1184 401 1318 509 1408 C 616 1497 766 1542 958 1542 C 1032 1542 1095 1539 1149 1533 C 1203 1527 1250 1519 1292 1507 C 1333 1495 1382 1476 1440 1448 L 1260 1114 C 1177 1159 1080 1182 969 1182 C 891 1182 831 1167 788 1138 C 745 1108 715 1064 699 1004 L 1087 1004 L 1087 778 L 678 778 L 678 768 L 679 696 L 1087 696 L 1087 471 L 720 471 C 762 371 843 322 963 322 C 1075 322 1176 348 1264 401 L 1450 96 C 1376 52 1300 20 1222 2 C 1143 -15 1050 -25 942 -25 C 776 -25 641 14 537 92 C 433 170 361 285 323 438 L 315 471 L 49 471 L 49 696 Z" unicode="€" />
<glyph horiz-adv-x="3041" d="M 139 1518 L 594 1518 L 1186 715 L 1186 1518 L 1591 1518 L 1591 0 L 1200 0 L 545 887 L 545 0 L 139 0 L 139 1518 Z M 2273 551 C 2098 551 1968 591 1884 673 C 1799 754 1757 879 1757 1049 C 1757 1215 1798 1339 1882 1420 C 1965 1501 2095 1542 2273 1542 C 2448 1542 2577 1502 2661 1422 C 2745 1342 2787 1217 2787 1049 C 2787 878 2744 752 2660 672 C 2575 591 2446 551 2273 551 Z M 2273 831 C 2335 831 2382 847 2412 879 C 2442 911 2458 964 2458 1038 C 2458 1112 2442 1164 2411 1196 C 2380 1227 2334 1243 2273 1243 C 2211 1243 2165 1227 2135 1195 C 2104 1163 2089 1110 2089 1038 C 2089 966 2104 913 2134 880 C 2164 847 2210 831 2273 831 Z M 1819 481 L 2726 481 L 2726 197 L 1819 197 L 1819 481 Z" unicode="№" />
<glyph horiz-adv-x="2310" d="M 1040 1518 L 1380 1518 L 1589 952 L 1798 1518 L 2138 1518 L 2138 567 L 1845 567 L 1845 1026 L 1681 567 L 1489 567 L 1325 1028 L 1325 567 L 1040 567 L 1040 1518 Z M 377 1253 L 82 1253 L 82 1518 L 973 1518 L 973 1253 L 678 1253 L 678 567 L 377 567 L 377 1253 Z" unicode="™" />
<glyph horiz-adv-x="1664" d="M 832 1376 C 706 1376 599 1328 510 1234 C 420 1139 376 1006 376 836 C 376 673 405 538 464 432 C 522 325 609 241 724 180 L 724 0 L 88 0 L 88 196 L 536 196 C 456 225 378 295 304 406 C 229 516 192 664 192 848 C 192 1024 247 1184 358 1330 C 468 1475 626 1548 832 1548 C 1037 1548 1195 1478 1306 1338 C 1416 1198 1472 1034 1472 848 C 1472 664 1434 516 1360 406 C 1285 295 1208 225 1128 196 L 1576 196 L 1576 0 L 940 0 L 940 180 C 1054 241 1141 325 1200 432 C 1258 538 1288 673 1288 836 C 1288 974 1246 1099 1162 1210 C 1078 1320 968 1376 832 1376 Z" unicode="Ω" />
<glyph horiz-adv-x="1280" d="M 476 -32 C 342 -32 239 5 166 80 C 92 154 56 248 56 360 C 56 506 108 636 214 750 C 319 863 449 920 604 920 C 668 920 734 908 802 886 C 870 863 924 840 964 816 C 972 872 976 928 976 984 C 976 1109 953 1207 908 1278 C 862 1348 800 1384 720 1384 C 634 1384 567 1374 518 1356 C 468 1337 418 1312 368 1280 L 324 1444 C 374 1473 430 1498 492 1518 C 553 1538 629 1548 720 1548 C 877 1548 992 1496 1064 1394 C 1136 1291 1172 1149 1172 968 C 1172 690 1104 454 968 260 C 832 65 668 -32 476 -32 Z M 488 128 C 716 128 868 313 944 684 C 922 705 882 726 824 748 C 765 769 706 780 648 780 C 520 780 424 738 360 654 C 296 570 264 476 264 372 C 264 300 282 241 318 196 C 354 150 410 128 488 128 Z" unicode="∂" />
<glyph horiz-adv-x="1536" d="M 76 0 L 652 1536 L 884 1536 L 1456 0 L 76 0 Z M 352 148 L 1164 148 L 752 1256 L 352 148 Z" unicode="∆" />
<glyph horiz-adv-x="1536" d="M 332 0 L 332 1348 L 80 1348 L 80 1524 L 1456 1524 L 1456 1348 L 1212 1348 L 1212 0 L 1004 0 L 1004 1356 L 540 1356 L 540 0 L 332 0 Z" unicode="∏" />
<glyph horiz-adv-x="1152" d="M 1084 1524 L 1084 1344 L 332 1344 L 796 784 L 304 188 L 1080 188 L 1080 0 L 40 0 L 40 172 L 560 788 L 68 1380 L 68 1524 L 1084 1524 Z" unicode="∑" />
<glyph horiz-adv-x="1507" d="M 176 903 L 1331 903 L 1331 541 L 176 541 L 176 903 Z" unicode="−" />
<glyph horiz-adv-x="1202" d="M 850 1518 L 1204 1518 L 354 0 L 0 0 L 850 1518 Z" unicode="∕" />
<glyph horiz-adv-x="657" d="M 98 1016 L 557 1016 L 557 561 L 98 561 L 98 1016 Z" unicode="∙" />
<glyph horiz-adv-x="1446" d="M 31 954 L 459 954 L 635 477 L 1014 1518 L 1415 1518 L 834 -12 L 410 -12 L 31 954 Z" unicode="√" />
<glyph horiz-adv-x="1874" d="M 539 315 C 397 315 288 348 214 415 C 139 482 102 579 102 705 C 102 831 139 927 214 995 C 289 1062 397 1096 539 1096 C 676 1096 811 1034 943 910 C 1075 1034 1206 1096 1337 1096 C 1479 1096 1587 1062 1661 995 C 1735 928 1772 831 1772 705 C 1772 578 1734 481 1658 415 C 1582 348 1475 315 1337 315 C 1199 315 1065 376 934 500 C 854 430 784 381 723 355 C 661 328 600 315 539 315 Z M 549 805 C 461 805 418 771 418 705 C 418 671 428 646 449 630 C 469 614 503 606 549 606 C 601 606 663 638 734 703 C 693 741 659 767 632 782 C 605 797 577 805 549 805 Z M 1329 606 C 1373 606 1405 613 1425 629 C 1445 645 1456 670 1456 705 C 1456 739 1446 765 1427 781 C 1407 797 1375 805 1329 805 C 1277 805 1215 772 1144 707 C 1180 673 1213 647 1242 631 C 1271 614 1300 606 1329 606 Z" unicode="∞" />
<glyph horiz-adv-x="1152" d="M -8 -392 L 56 -260 C 96 -273 132 -280 164 -280 C 196 -280 222 -268 242 -246 C 262 -223 277 -178 288 -112 L 516 1224 C 553 1437 674 1544 880 1544 C 941 1544 995 1536 1042 1522 C 1088 1507 1125 1492 1152 1476 L 1088 1304 C 1008 1354 935 1380 868 1380 C 806 1380 760 1360 730 1322 C 699 1283 680 1238 672 1188 L 448 -224 C 434 -296 402 -348 350 -382 C 298 -415 240 -432 176 -432 C 136 -432 99 -428 66 -420 C 32 -412 8 -402 -8 -392 Z" unicode="∫" />
<glyph horiz-adv-x="1536" d="M 236 400 C 230 429 228 456 228 480 C 228 546 248 604 288 652 C 328 700 390 724 476 724 C 542 724 600 714 650 696 C 699 677 745 659 788 642 C 830 624 872 610 912 598 C 952 586 988 580 1020 580 C 1070 580 1106 590 1128 610 C 1149 630 1160 654 1160 684 L 1156 716 L 1300 716 C 1305 686 1308 660 1308 636 C 1308 569 1288 512 1248 464 C 1208 416 1145 392 1060 392 C 993 392 935 400 886 418 C 836 435 790 452 748 470 C 705 487 664 501 624 512 C 584 522 548 528 516 528 C 465 528 429 518 408 500 C 386 481 376 458 376 432 L 380 400 L 236 400 Z M 236 860 C 230 889 228 916 228 940 C 228 1006 248 1064 288 1112 C 328 1160 390 1184 476 1184 C 542 1184 600 1174 650 1156 C 699 1137 745 1119 788 1102 C 830 1084 872 1070 912 1058 C 952 1046 988 1040 1020 1040 C 1070 1040 1106 1050 1128 1070 C 1149 1090 1160 1114 1160 1144 L 1156 1176 L 1300 1176 C 1305 1146 1308 1120 1308 1096 C 1308 1029 1288 972 1248 924 C 1208 876 1145 852 1060 852 C 993 852 935 860 886 878 C 836 895 790 912 748 930 C 705 947 664 961 624 972 C 584 982 548 988 516 988 C 465 988 429 978 408 960 C 386 941 376 918 376 892 L 380 860 L 236 860 Z" unicode="≈" />
<glyph horiz-adv-x="1507" d="M 383 279 L 188 279 L 188 629 L 555 629 L 641 815 L 188 815 L 188 1163 L 791 1163 L 887 1368 L 1217 1368 L 1120 1163 L 1319 1163 L 1319 815 L 950 815 L 864 629 L 1319 629 L 1319 279 L 713 279 L 618 74 L 289 74 L 383 279 Z" unicode="≠" />
<glyph horiz-adv-x="1507" d="M 233 348 L 797 348 L 236 614 L 236 866 L 1194 1319 L 1194 952 L 662 731 L 1194 510 L 1194 0 L 233 0 L 233 348 Z" unicode="≤" />
<glyph horiz-adv-x="1507" d="M 313 510 L 846 731 L 313 952 L 313 1319 L 1272 866 L 1272 614 L 710 348 L 1274 348 L 1274 0 L 313 0 L 313 510 Z" unicode="≥" />
<glyph horiz-adv-x="1327" d="M -4 760 L 455 1518 L 850 1518 L 1307 760 L 848 0 L 453 0 L -4 760 Z M 899 754 L 649 1206 L 401 764 L 653 311 L 899 754 Z" unicode="◊" />
<glyph horiz-adv-x="1704" d="M 338 1356 C 406 1418 484 1467 572 1502 C 659 1536 752 1554 852 1554 C 951 1554 1045 1536 1133 1501 C 1221 1466 1299 1418 1368 1356 L 1354 1339 C 1287 1399 1211 1447 1125 1482 C 1039 1516 948 1534 852 1534 C 754 1534 663 1516 579 1482 C 494 1447 418 1399 352 1339 L 338 1356 Z M 852 -35 C 752 -35 659 -17 571 18 C 483 53 404 102 336 164 L 350 180 C 416 119 492 71 578 37 C 663 3 754 -14 852 -14 C 948 -14 1039 3 1124 37 C 1209 71 1285 118 1352 178 L 1359 172 L 1366 164 C 1297 101 1219 52 1132 17 C 1044 -17 951 -35 852 -35 Z M 1430 260 C 1550 404 1610 570 1610 760 C 1610 948 1550 1114 1430 1260 L 1446 1274 C 1504 1205 1549 1127 1581 1039 C 1613 951 1630 858 1630 760 C 1630 662 1613 569 1581 482 C 1549 394 1504 316 1446 246 L 1430 260 Z M 258 246 C 200 314 154 392 122 480 C 90 567 74 660 74 760 C 74 857 90 949 122 1037 C 154 1125 200 1203 258 1272 L 262 1269 L 272 1260 C 153 1112 94 946 94 760 C 94 570 154 404 274 260 L 258 246 Z M 852 123 C 692 123 555 175 440 281 L 447 289 L 455 295 C 569 193 701 143 852 143 C 928 143 1000 156 1068 183 C 1135 210 1195 247 1247 295 L 1262 279 C 1207 230 1145 192 1075 164 C 1005 136 931 123 852 123 Z M 1249 1223 C 1197 1271 1137 1308 1069 1335 C 1001 1362 929 1376 852 1376 C 700 1376 568 1325 455 1225 L 440 1239 C 559 1344 696 1397 852 1397 C 1007 1397 1144 1344 1264 1239 L 1249 1223 Z M 375 348 C 276 469 227 606 227 760 C 227 838 240 911 266 981 C 292 1051 327 1113 373 1169 L 389 1155 C 345 1101 310 1041 285 973 C 260 905 248 834 248 760 C 248 610 295 477 389 362 L 375 348 Z M 1329 350 L 1315 362 C 1409 478 1456 611 1456 760 C 1456 911 1408 1043 1313 1155 L 1329 1169 C 1375 1113 1411 1051 1437 981 C 1463 911 1477 838 1477 760 C 1477 606 1427 470 1329 350 Z M 1167 1130 C 1077 1210 972 1251 852 1251 C 733 1251 629 1211 539 1133 L 524 1147 C 617 1230 726 1272 852 1272 C 978 1272 1088 1230 1182 1147 L 1167 1130 Z M 852 248 C 725 248 615 289 522 373 L 537 389 C 626 308 731 268 852 268 C 972 268 1077 308 1165 389 L 1180 373 C 1088 289 978 248 852 248 Z M 1237 432 L 1221 446 C 1295 536 1333 640 1333 760 C 1333 881 1295 985 1221 1073 L 1237 1087 C 1315 995 1354 886 1354 760 C 1354 633 1315 524 1237 432 Z M 467 432 C 389 527 350 636 350 760 C 350 881 388 990 465 1087 L 481 1073 C 407 982 371 878 371 760 C 371 639 407 534 481 446 L 467 432 Z M 852 348 C 753 348 665 381 588 449 L 602 463 C 673 400 756 369 852 369 C 948 369 1030 400 1100 463 L 1114 446 C 1038 380 951 348 852 348 Z M 1163 498 L 1147 512 C 1205 583 1235 666 1235 760 C 1235 854 1205 936 1147 1008 L 1163 1022 C 1224 946 1255 859 1255 760 C 1255 660 1224 573 1163 498 Z M 541 498 C 479 573 449 660 449 760 C 449 859 479 946 541 1022 L 557 1008 C 498 936 469 854 469 760 C 469 666 498 583 557 512 L 541 498 Z M 590 1073 C 662 1138 749 1171 852 1171 C 953 1171 1040 1137 1114 1071 L 1109 1064 L 1102 1057 C 1030 1119 947 1151 852 1151 C 756 1151 673 1119 604 1057 L 590 1073 Z M 1106 551 L 1090 565 C 1134 624 1157 689 1157 760 C 1157 831 1133 896 1087 954 L 1104 969 C 1153 907 1178 837 1178 760 C 1178 681 1154 611 1106 551 Z M 641 1014 C 701 1066 772 1092 852 1092 C 930 1092 1000 1065 1061 1012 L 1049 997 C 991 1046 925 1071 852 1071 C 780 1071 714 1046 655 997 L 641 1014 Z M 852 428 C 775 428 705 454 641 506 L 655 522 C 713 473 779 449 852 449 C 924 449 990 473 1049 522 L 1061 506 C 998 454 928 428 852 428 Z M 598 551 C 550 611 526 681 526 760 C 526 837 550 907 600 969 L 614 954 C 569 896 547 832 547 760 C 547 687 569 622 614 565 L 598 551 Z M 1042 608 C 1076 654 1094 705 1094 760 C 1094 816 1076 867 1040 913 L 1057 928 C 1095 880 1114 824 1114 760 C 1114 695 1095 640 1057 594 L 1042 608 Z M 647 592 C 609 640 590 696 590 760 C 590 824 609 880 647 926 L 662 911 C 627 864 610 814 610 760 C 610 703 628 652 664 606 L 647 592 Z M 852 492 C 786 492 730 512 682 553 L 696 569 C 742 531 794 512 852 512 C 909 512 960 531 1006 569 L 1020 555 C 970 513 914 492 852 492 Z M 684 965 C 733 1007 789 1028 852 1028 C 916 1028 972 1007 1020 967 L 1006 950 C 960 988 908 1008 852 1008 C 793 1008 742 988 698 950 L 684 965 Z M 733 911 L 717 928 C 757 960 802 977 852 977 C 902 977 947 960 987 928 L 971 911 C 937 941 897 956 852 956 C 806 956 767 941 733 911 Z M 684 627 C 655 667 641 711 641 760 C 641 808 655 853 684 893 L 700 879 C 674 843 662 804 662 760 C 662 717 674 678 700 643 L 684 627 Z M 852 543 C 802 543 757 559 717 592 L 731 608 C 767 578 807 563 852 563 C 895 563 935 578 971 608 L 985 592 C 945 559 900 543 852 543 Z M 1020 627 L 1004 641 C 1029 676 1042 716 1042 760 C 1042 804 1029 843 1004 879 L 1018 893 C 1048 855 1063 810 1063 760 C 1063 712 1048 668 1020 627 Z" unicode="" />
<glyph horiz-adv-x="1753" d="M 1049 829 L 672 829 L 672 0 L 266 0 L 266 829 L 45 829 L 45 1174 L 266 1174 L 266 1196 C 266 1306 282 1393 316 1455 C 349 1517 401 1563 472 1593 C 542 1623 638 1638 758 1638 C 826 1638 871 1637 894 1635 L 926 1632 L 926 1303 L 813 1303 C 757 1303 720 1295 701 1281 C 681 1266 672 1238 672 1198 L 672 1174 L 1049 1174 L 1049 1196 C 1049 1307 1065 1394 1098 1456 C 1131 1518 1183 1563 1254 1593 C 1325 1623 1420 1638 1540 1638 C 1608 1638 1653 1637 1676 1635 L 1708 1632 L 1708 1303 L 1595 1303 C 1540 1303 1503 1295 1483 1281 C 1463 1266 1454 1238 1454 1198 L 1454 1174 L 1708 1174 L 1708 829 L 1454 829 L 1454 0 L 1049 0 L 1049 829 Z" unicode="ﬀ" />
<glyph horiz-adv-x="1581" d="M 45 1174 L 266 1174 L 266 1196 C 266 1306 282 1393 316 1455 C 349 1517 401 1563 472 1593 C 542 1623 638 1638 758 1638 C 826 1638 871 1637 894 1635 L 926 1632 L 926 1303 L 813 1303 C 757 1303 720 1295 701 1281 C 681 1266 672 1238 672 1198 L 672 1174 L 926 1174 L 926 829 L 672 829 L 672 0 L 266 0 L 266 829 L 45 829 L 45 1174 Z M 1049 1174 L 1454 1174 L 1454 0 L 1049 0 L 1049 1174 Z M 1047 1589 L 1458 1589 L 1458 1260 L 1047 1260 L 1047 1589 Z" unicode="ﬁ" />
</font>
</defs>
</svg>
