<?xml version="1.0" encoding="utf-8"?>
<!-- Generator: Adobe Illustrator 26.0.3, SVG Export Plug-In . SVG Version: 6.00 Build 0)  -->
<svg version="1.1" id="Layer_3" xmlns="http://www.w3.org/2000/svg" xmlns:xlink="http://www.w3.org/1999/xlink" x="0px" y="0px"
	 viewBox="0 0 432 144" style="enable-background:new 0 0 432 144;" xml:space="preserve">
<style type="text/css">
	.Arched_x0020_Green{fill:url(#SVGID_1_);stroke:#FFFFFF;stroke-width:0.25;stroke-miterlimit:1;}
	.st0{fill:none;stroke:#000000;stroke-width:0.5955;}
	.st1{fill:#8D0034;}
	.st2{fill:#FFFFFF;}
	.st3{fill:#FEBC18;}
</style>
<linearGradient id="SVGID_1_" gradientUnits="userSpaceOnUse" x1="-1107.4346" y1="1431.8167" x2="-1106.7274" y2="1431.1096">
	<stop  offset="0" style="stop-color:#20AC4B"/>
	<stop  offset="0.9831" style="stop-color:#19361A"/>
</linearGradient>
<g>
	<path d="M142.9,89.9c-0.4-1.3-1.1-2.7-2.8-2.7c-1.3,0-2.1,0.9-2.1,2.1c0,1.3,0.8,1.9,2.6,2.8c1.9,1,3.5,2,3.5,4.1
		c0,2.2-1.9,4-4.8,4c-0.8,0-1.5-0.1-2-0.3c-0.5-0.2-0.9-0.3-1.2-0.4c-0.2-0.5-0.4-2.2-0.6-3.3l0.7-0.2c0.4,1.3,1.5,3.5,3.4,3.5
		c1.4,0,2.2-0.9,2.2-2.2c0-1.3-1-2-2.5-2.8c-1.8-0.9-3.5-2-3.5-4.1c0-2.1,1.7-3.8,4.5-3.8c1.2,0,2.2,0.3,2.7,0.5
		c0.1,0.7,0.2,1.6,0.4,2.9L142.9,89.9z"/>
	<path d="M158.5,96.4c-0.3,1-0.8,2.5-1.1,3.2c-0.5,0.1-2.3,0.5-3.8,0.5c-5.2,0-7.5-3.5-7.5-6.7c0-4.2,3.2-7.1,8-7.1
		c1.6,0,3.1,0.4,3.6,0.5c0.2,1.1,0.3,2,0.4,3.2l-0.7,0.1c-0.6-2.3-2-3.1-3.8-3.1c-3.1,0-4.8,2.8-4.8,5.8c0,3.7,2.1,6.2,4.9,6.2
		c1.8,0,3-1.1,4-3.1L158.5,96.4z"/>
	<path d="M173.8,87.3c-1.6,0.1-1.7,0.2-1.7,2v7.9c0,1.7,0.2,1.8,1.7,2v0.6h-5.9v-0.6c1.6-0.1,1.8-0.3,1.8-2v-3.9h-6v3.9
		c0,1.7,0.2,1.8,1.7,2v0.6h-5.8v-0.6c1.5-0.1,1.7-0.3,1.7-2v-7.9c0-1.7-0.2-1.8-1.8-2v-0.7h5.8v0.7c-1.5,0.1-1.7,0.2-1.7,2v3.1h6
		v-3.1c0-1.7-0.1-1.8-1.7-2v-0.7h5.8V87.3z"/>
	<path d="M189.2,93.1c0,4.4-3.1,7-6.9,7c-3.9,0-6.7-2.9-6.7-6.8c0-3.5,2.5-6.9,7-6.9C186.2,86.4,189.2,89.1,189.2,93.1z M178.3,92.8
		c0,3.6,1.7,6.5,4.4,6.5c2,0,3.8-1.9,3.8-5.7c0-4.1-1.8-6.5-4.3-6.5C180.1,87.2,178.3,89.2,178.3,92.8z"/>
	<path d="M205,93.1c0,4.4-3.1,7-6.9,7c-3.9,0-6.7-2.9-6.7-6.8c0-3.5,2.5-6.9,7-6.9C202,86.4,205,89.1,205,93.1z M194.1,92.8
		c0,3.6,1.7,6.5,4.4,6.5c2,0,3.8-1.9,3.8-5.7c0-4.1-1.8-6.5-4.3-6.5C195.9,87.2,194.1,89.2,194.1,92.8z"/>
	<path d="M217,96.5c-0.2,0.8-0.6,2.8-0.7,3.3h-9.6v-0.6c1.7-0.1,1.9-0.3,1.9-2v-7.9c0-1.7-0.2-1.8-1.8-2v-0.7h5.9v0.7
		c-1.6,0.1-1.7,0.2-1.7,2v8c0,1,0.1,1.4,0.5,1.6c0.4,0.2,1,0.2,1.7,0.2c1,0,1.7-0.1,2.1-0.7c0.4-0.4,0.7-1.1,1.1-2L217,96.5z"/>
	<path d="M223.7,96.6c0-2.8,1.5-4.9,3.2-5.7c0.9-0.5,1.8-0.8,2.6-0.8c2,0,3.1,1.3,3.1,3.4c0,1.9-0.8,3.9-2.3,5.2
		c-0.9,0.8-2.3,1.4-3.5,1.4C224.4,100.1,223.7,98.3,223.7,96.6z M228.2,99c0.9-0.4,2-2.7,2-5.6c0-1.7-0.6-2.4-1.4-2.4
		c-0.2,0-0.4,0-0.6,0.1c-0.7,0.3-2,2.1-2,5.5c0,1.6,0.7,2.5,1.5,2.5C227.8,99.1,228,99.1,228.2,99z"/>
	<path d="M236.4,90.5c0.4-1.7,0.9-3,1.9-4.1c1.1-1.1,2.5-1.7,3.3-1.7c0.9,0,1.5,0.6,1.5,1.1c0,0.5-0.4,0.9-0.7,1.1
		c-0.2,0.1-0.4,0.2-0.6,0c-0.5-0.6-1-1-1.4-1c-0.5,0-1,0.5-1.7,4.7h2.5l-0.5,0.8l-2.2,0.2c-0.4,2.1-0.6,3.8-1.2,6.2
		c-0.8,3.6-1.7,5.1-3.1,6.3c-0.9,0.8-1.8,1.2-2.4,1.2c-0.7,0-1.4-0.5-1.4-1c0-0.4,0.3-0.9,0.7-1.1c0.2-0.1,0.3-0.1,0.4,0
		c0.4,0.4,1.1,0.7,1.6,0.7c0.3,0,0.6-0.2,0.8-0.5c0.2-0.3,0.5-1.1,1.1-4.8c0.5-3,0.8-4.9,1.2-7h-1.7l-0.1-0.2l0.7-0.7H236.4z"/>
	<path d="M263.2,87.3c-1.6,0.1-1.7,0.2-1.7,2v7.9c0,1.7,0.2,1.8,1.7,2v0.6h-5.9v-0.6c1.6-0.1,1.8-0.3,1.8-2v-3.9h-6v3.9
		c0,1.7,0.2,1.8,1.7,2v0.6H249v-0.6c1.5-0.1,1.7-0.3,1.7-2v-7.9c0-1.7-0.2-1.8-1.8-2v-0.7h5.8v0.7c-1.5,0.1-1.7,0.2-1.7,2v3.1h6
		v-3.1c0-1.7-0.1-1.8-1.7-2v-0.7h5.8V87.3z"/>
	<path d="M275.9,96.5c-0.1,0.8-0.5,2.7-0.7,3.3h-10.1v-0.6c1.8-0.1,1.9-0.3,1.9-2v-7.9c0-1.8-0.2-1.9-1.7-2v-0.7h9.3
		c0,0.4,0.1,1.8,0.2,3l-0.7,0.1c-0.2-0.8-0.4-1.4-0.7-1.7c-0.3-0.4-0.9-0.5-2.1-0.5h-1.2c-0.7,0-0.8,0-0.8,0.7v4.4h1.6
		c1.7,0,1.9-0.1,2.2-1.5h0.7v4h-0.7c-0.3-1.5-0.5-1.5-2.2-1.5h-1.6v3.6c0,1,0.1,1.4,0.5,1.7c0.4,0.2,1.1,0.2,1.9,0.2
		c1.2,0,1.9-0.1,2.4-0.7c0.4-0.4,0.7-1.1,1.1-1.9L275.9,96.5z"/>
	<path d="M285.2,99.8v-0.6c1.2-0.2,1.3-0.4,1.1-1.3c-0.2-0.7-0.6-1.6-0.9-2.6h-4c-0.3,0.7-0.5,1.5-0.8,2.3c-0.3,1.1-0.2,1.3,1.2,1.5
		v0.6h-4.5v-0.6c1.3-0.2,1.6-0.4,2.3-2.1l4.2-10.5l0.9-0.2c1.3,3.5,2.6,7.2,3.9,10.6c0.7,1.8,0.9,2,2.2,2.2v0.6H285.2z M283.4,89.7
		L283.4,89.7c-0.6,1.6-1.2,3.1-1.8,4.7h3.4L283.4,89.7z"/>
	<path d="M302.7,96.5c-0.2,0.8-0.6,2.8-0.7,3.3h-9.6v-0.6c1.7-0.1,1.9-0.3,1.9-2v-7.9c0-1.7-0.2-1.8-1.8-2v-0.7h5.9v0.7
		c-1.6,0.1-1.7,0.2-1.7,2v8c0,1,0.1,1.4,0.5,1.6c0.4,0.2,1,0.2,1.7,0.2c1,0,1.7-0.1,2.1-0.7c0.4-0.4,0.7-1.1,1.1-2L302.7,96.5z"/>
	<path d="M313.7,90c-0.2-1-0.5-1.6-0.8-2c-0.4-0.4-0.8-0.5-2.1-0.5h-1.1v9.7c0,1.7,0.2,1.8,2,2v0.6h-6.3v-0.6c1.7-0.1,1.9-0.3,1.9-2
		v-9.7h-0.9c-1.7,0-2,0.2-2.3,0.6c-0.3,0.3-0.5,1-0.8,2h-0.7c0.1-1.4,0.2-2.8,0.2-3.9h0.5c0.3,0.5,0.6,0.5,1.1,0.5h8.1
		c0.5,0,0.8-0.1,1.1-0.5h0.5c0,0.9,0.1,2.6,0.2,3.8L313.7,90z"/>
	<path d="M330.4,87.3c-1.6,0.1-1.7,0.2-1.7,2v7.9c0,1.7,0.2,1.8,1.7,2v0.6h-5.9v-0.6c1.6-0.1,1.8-0.3,1.8-2v-3.9h-6v3.9
		c0,1.7,0.2,1.8,1.7,2v0.6h-5.8v-0.6c1.5-0.1,1.7-0.3,1.7-2v-7.9c0-1.7-0.2-1.8-1.8-2v-0.7h5.8v0.7c-1.5,0.1-1.7,0.2-1.7,2v3.1h6
		v-3.1c0-1.7-0.1-1.8-1.7-2v-0.7h5.8V87.3z"/>
	<path d="M344.5,89.9c-0.4-1.3-1.1-2.7-2.8-2.7c-1.3,0-2.1,0.9-2.1,2.1c0,1.3,0.8,1.9,2.6,2.8c1.9,1,3.5,2,3.5,4.1
		c0,2.2-1.9,4-4.8,4c-0.8,0-1.5-0.1-2-0.3c-0.5-0.2-0.9-0.3-1.2-0.4c-0.2-0.5-0.4-2.2-0.6-3.3l0.7-0.2c0.4,1.3,1.5,3.5,3.4,3.5
		c1.4,0,2.2-0.9,2.2-2.2c0-1.3-1-2-2.5-2.8c-1.8-0.9-3.5-2-3.5-4.1c0-2.1,1.7-3.8,4.5-3.8c1.2,0,2.2,0.3,2.7,0.5
		c0.1,0.7,0.2,1.6,0.4,2.9L344.5,89.9z"/>
	<path d="M360.1,96.4c-0.3,1-0.8,2.5-1.1,3.2c-0.5,0.1-2.3,0.5-3.8,0.5c-5.2,0-7.5-3.5-7.5-6.7c0-4.2,3.2-7.1,8-7.1
		c1.6,0,3.1,0.4,3.6,0.5c0.2,1.1,0.3,2,0.4,3.2l-0.7,0.1c-0.6-2.3-2-3.1-3.8-3.1c-3.1,0-4.8,2.8-4.8,5.8c0,3.7,2.1,6.2,4.9,6.2
		c1.8,0,3-1.1,4-3.1L360.1,96.4z"/>
	<path d="M361.5,99.8v-0.6c1.6-0.1,1.7-0.3,1.7-2v-7.9c0-1.7-0.2-1.9-1.7-2v-0.7h5.8v0.7c-1.6,0.1-1.7,0.3-1.7,2v7.9
		c0,1.7,0.2,1.8,1.7,2v0.6H361.5z"/>
	<path d="M380.1,96.5c-0.1,0.8-0.5,2.7-0.7,3.3h-10.1v-0.6c1.8-0.1,1.9-0.3,1.9-2v-7.9c0-1.8-0.2-1.9-1.7-2v-0.7h9.3
		c0,0.4,0.1,1.8,0.2,3l-0.7,0.1c-0.2-0.8-0.4-1.4-0.7-1.7c-0.3-0.4-0.9-0.5-2.1-0.5h-1.2c-0.7,0-0.8,0-0.8,0.7v4.4h1.6
		c1.7,0,1.9-0.1,2.2-1.5h0.7v4h-0.7c-0.3-1.5-0.5-1.5-2.2-1.5h-1.6v3.6c0,1,0.1,1.4,0.5,1.7c0.4,0.2,1.1,0.2,1.9,0.2
		c1.2,0,1.9-0.1,2.4-0.7c0.4-0.4,0.7-1.1,1.1-1.9L380.1,96.5z"/>
	<path d="M395.6,87.3c-1.1,0.1-1.5,0.3-1.6,1.3c-0.1,0.6-0.2,1.6-0.2,3.4v8.1h-0.9l-8.5-10.3h0v4.8c0,1.8,0.1,2.7,0.1,3.3
		c0.1,1,0.5,1.3,1.9,1.4v0.6h-4.9v-0.6c1.1-0.1,1.6-0.4,1.7-1.3c0.1-0.7,0.2-1.6,0.2-3.4v-4.3c0-1.4,0-1.7-0.4-2.1
		c-0.4-0.5-0.8-0.7-1.7-0.7v-0.6h3.5l8,9.3h0.1v-4c0-1.8-0.1-2.8-0.1-3.4c-0.1-0.9-0.5-1.2-2-1.3v-0.6h4.9V87.3z"/>
	<path d="M409.3,96.4c-0.3,1-0.8,2.5-1.1,3.2c-0.5,0.1-2.3,0.5-3.8,0.5c-5.2,0-7.5-3.5-7.5-6.7c0-4.2,3.2-7.1,8-7.1
		c1.6,0,3.1,0.4,3.6,0.5c0.2,1.1,0.3,2,0.4,3.2l-0.7,0.1c-0.6-2.3-2-3.1-3.8-3.1c-3.1,0-4.8,2.8-4.8,5.8c0,3.7,2.1,6.2,4.9,6.2
		c1.8,0,3-1.1,4-3.1L409.3,96.4z"/>
	<path d="M421.4,96.5c-0.1,0.8-0.5,2.7-0.7,3.3h-10.1v-0.6c1.8-0.1,1.9-0.3,1.9-2v-7.9c0-1.8-0.2-1.9-1.7-2v-0.7h9.3
		c0,0.4,0.1,1.8,0.2,3l-0.7,0.1c-0.2-0.8-0.4-1.4-0.7-1.7c-0.3-0.4-0.9-0.5-2.1-0.5h-1.2c-0.7,0-0.8,0-0.8,0.7v4.4h1.6
		c1.7,0,1.9-0.1,2.2-1.5h0.7v4h-0.7c-0.3-1.5-0.5-1.5-2.2-1.5h-1.6v3.6c0,1,0.1,1.4,0.5,1.7c0.4,0.2,1.1,0.2,1.9,0.2
		c1.2,0,1.9-0.1,2.4-0.7c0.4-0.4,0.7-1.1,1.1-1.9L421.4,96.5z"/>
	<path d="M430.5,89.9c-0.4-1.3-1.1-2.7-2.8-2.7c-1.3,0-2.1,0.9-2.1,2.1c0,1.3,0.8,1.9,2.6,2.8c1.9,1,3.5,2,3.5,4.1
		c0,2.2-1.9,4-4.8,4c-0.8,0-1.5-0.1-2-0.3c-0.5-0.2-0.9-0.3-1.2-0.4c-0.2-0.5-0.4-2.2-0.6-3.3l0.7-0.2c0.4,1.3,1.5,3.5,3.4,3.5
		c1.4,0,2.2-0.9,2.2-2.2c0-1.3-1-2-2.5-2.8c-1.8-0.9-3.5-2-3.5-4.1c0-2.1,1.7-3.8,4.5-3.8c1.2,0,2.2,0.3,2.7,0.5
		c0.1,0.7,0.2,1.6,0.4,2.9L430.5,89.9z"/>
	<path d="M143.1,122.4v-0.6c1.2-0.2,1.3-0.4,1.1-1.3c-0.2-0.7-0.6-1.6-0.9-2.6h-4c-0.3,0.7-0.5,1.5-0.8,2.3
		c-0.3,1.1-0.2,1.3,1.2,1.5v0.6h-4.5v-0.6c1.3-0.2,1.6-0.4,2.3-2.1l4.2-10.5l0.9-0.2c1.3,3.5,2.6,7.2,3.9,10.6
		c0.7,1.8,0.9,2,2.2,2.2v0.6H143.1z M141.3,112.3L141.3,112.3c-0.6,1.6-1.2,3.1-1.8,4.7h3.4L141.3,112.3z"/>
	<path d="M164.4,109.9c-1.1,0.1-1.5,0.3-1.6,1.3c-0.1,0.6-0.2,1.6-0.2,3.4v8.1h-0.9l-8.5-10.3h0v4.8c0,1.8,0.1,2.7,0.1,3.3
		c0.1,1,0.5,1.3,1.9,1.4v0.6h-4.9v-0.6c1.1-0.1,1.6-0.4,1.7-1.3c0.1-0.7,0.2-1.6,0.2-3.4v-4.3c0-1.4,0-1.7-0.4-2.1
		c-0.4-0.5-0.8-0.7-1.7-0.7v-0.6h3.5l8,9.3h0.1v-4c0-1.8-0.1-2.8-0.1-3.4c-0.1-0.9-0.5-1.2-2-1.3v-0.6h4.9V109.9z"/>
	<path d="M172.2,109.3c2.6,0,4.5,0.5,5.8,1.7c1,1,1.8,2.4,1.8,4.3c0,2.4-1,4.2-2.5,5.4c-1.5,1.2-3.6,1.7-6.1,1.7H166v-0.6
		c1.7-0.1,1.8-0.3,1.8-2v-7.9c0-1.7-0.2-1.9-1.7-2v-0.7H172.2z M170.3,119.7c0,1.5,0.4,1.9,1.9,1.9c3.1,0,4.9-2.4,4.9-5.9
		c0-2-0.7-3.6-1.8-4.6c-0.9-0.7-2-1.1-3.3-1.1c-0.8,0-1.2,0.1-1.4,0.3c-0.2,0.2-0.2,0.5-0.2,1.1V119.7z"/>
	<path d="M192.1,109.3c1.5,0,2.7,0.2,3.5,0.8c0.9,0.6,1.4,1.6,1.4,2.9c0,2.7-2,3.9-4.1,4.2c-0.3,0-0.6,0-0.9,0l-1.4-0.3v2.9
		c0,1.7,0.2,1.8,1.9,2v0.6h-6v-0.6c1.6-0.1,1.7-0.3,1.7-2v-7.9c0-1.7-0.2-1.9-1.6-2v-0.7H192.1z M190.7,116.1
		c0.3,0.1,0.7,0.2,1.2,0.2c1,0,2.6-0.6,2.6-3.3c0-2.2-1.3-3.1-2.7-3.1c-0.4,0-0.8,0.1-0.9,0.2c-0.1,0.1-0.2,0.3-0.2,0.7V116.1z"/>
	<path d="M212.3,110c-1.2,0.1-1.6,0.4-1.7,1.2c-0.1,0.6-0.1,1.4-0.1,3v2c0,2.2-0.3,3.9-1.5,5.2c-0.9,1-2.3,1.5-3.7,1.5
		c-1.3,0-2.5-0.3-3.5-1c-1.2-0.9-1.7-2.4-1.7-4.8v-4.9c0-1.9-0.2-2-1.7-2.1v-0.7h5.8v0.7c-1.5,0.1-1.7,0.2-1.7,2.1v4.5
		c0,3.1,1.2,4.9,3.5,4.9c2.6,0,3.6-2,3.6-5.4v-1.9c0-1.6-0.1-2.4-0.2-3c-0.1-0.7-0.6-1.1-2-1.2v-0.7h5V110z"/>
	<path d="M221.2,115.4c2.2,0.3,3.8,1.2,3.8,3.2c0,1.4-0.7,2.4-1.9,3c-1,0.6-2.5,0.9-4.2,0.9H214v-0.7c1.6-0.1,1.8-0.3,1.8-2v-7.9
		c0-1.7-0.1-1.8-1.6-2v-0.7h5.6c1.5,0,2.5,0.2,3.2,0.7c0.7,0.5,1.2,1.3,1.2,2.3C224.2,114.2,222.5,115,221.2,115.4L221.2,115.4z
		 M218.7,115.1c2,0,2.9-0.8,2.9-2.5c0-1.7-1-2.6-2.4-2.6c-0.5,0-0.9,0.1-1,0.2c-0.2,0.1-0.2,0.4-0.2,0.9v3.9H218.7z M218.1,119.8
		c0,1.5,0.4,1.9,1.6,1.9c1.3,0,2.7-0.9,2.7-2.9c0-1.9-1.3-2.9-3.6-2.9h-0.6V119.8z"/>
	<path d="M236.8,119.1c-0.2,0.8-0.6,2.8-0.7,3.3h-9.6v-0.6c1.7-0.1,1.9-0.3,1.9-2v-7.9c0-1.7-0.2-1.8-1.8-2v-0.7h5.9v0.7
		c-1.6,0.1-1.7,0.2-1.7,2v8c0,1,0.1,1.4,0.5,1.6c0.4,0.2,1,0.2,1.7,0.2c1,0,1.7-0.1,2.1-0.7c0.4-0.4,0.7-1.1,1.1-2L236.8,119.1z"/>
	<path d="M238.2,122.4v-0.6c1.6-0.1,1.7-0.3,1.7-2v-7.9c0-1.7-0.2-1.9-1.7-2v-0.7h5.8v0.7c-1.6,0.1-1.7,0.3-1.7,2v7.9
		c0,1.7,0.2,1.8,1.7,2v0.6H238.2z"/>
	<path d="M258,119c-0.3,1-0.8,2.5-1.1,3.2c-0.5,0.1-2.3,0.5-3.8,0.5c-5.2,0-7.5-3.5-7.5-6.7c0-4.2,3.2-7.1,8-7.1
		c1.6,0,3.1,0.4,3.6,0.5c0.2,1.1,0.3,2,0.4,3.2l-0.7,0.1c-0.6-2.3-2-3.1-3.8-3.1c-3.1,0-4.8,2.8-4.8,5.8c0,3.7,2.1,6.2,4.9,6.2
		c1.8,0,3-1.1,4-3.1L258,119z"/>
	<path d="M278.7,110c-1.6,0.1-1.7,0.2-1.7,2v7.9c0,1.7,0.2,1.8,1.7,2v0.6h-5.9v-0.6c1.6-0.1,1.8-0.3,1.8-2V116h-6v3.9
		c0,1.7,0.2,1.8,1.7,2v0.6h-5.8v-0.6c1.5-0.1,1.7-0.3,1.7-2v-7.9c0-1.7-0.2-1.8-1.8-2v-0.7h5.8v0.7c-1.5,0.1-1.7,0.2-1.7,2v3.1h6
		v-3.1c0-1.7-0.1-1.8-1.7-2v-0.7h5.8V110z"/>
	<path d="M291.4,119.1c-0.1,0.8-0.5,2.7-0.7,3.3h-10.1v-0.6c1.8-0.1,1.9-0.3,1.9-2v-7.9c0-1.8-0.2-1.9-1.7-2v-0.7h9.3
		c0,0.4,0.1,1.8,0.2,3l-0.7,0.1c-0.2-0.8-0.4-1.4-0.7-1.7c-0.3-0.4-0.9-0.5-2.1-0.5h-1.2c-0.7,0-0.8,0-0.8,0.7v4.4h1.6
		c1.7,0,1.9-0.1,2.2-1.5h0.7v4h-0.7c-0.3-1.5-0.5-1.5-2.2-1.5h-1.6v3.6c0,1,0.1,1.4,0.5,1.7c0.4,0.2,1.1,0.2,1.9,0.2
		c1.2,0,1.9-0.1,2.4-0.7c0.4-0.4,0.7-1.1,1.1-1.9L291.4,119.1z"/>
	<path d="M300.7,122.4v-0.6c1.2-0.2,1.3-0.4,1.1-1.3c-0.2-0.7-0.6-1.6-0.9-2.6h-4c-0.3,0.7-0.5,1.5-0.8,2.3
		c-0.3,1.1-0.2,1.3,1.2,1.5v0.6h-4.5v-0.6c1.3-0.2,1.6-0.4,2.3-2.1l4.2-10.5l0.9-0.2c1.3,3.5,2.6,7.2,3.9,10.6
		c0.7,1.8,0.9,2,2.2,2.2v0.6H300.7z M298.9,112.3L298.9,112.3c-0.6,1.6-1.2,3.1-1.8,4.7h3.4L298.9,112.3z"/>
	<path d="M318.3,119.1c-0.2,0.8-0.6,2.8-0.7,3.3h-9.6v-0.6c1.7-0.1,1.9-0.3,1.9-2v-7.9c0-1.7-0.2-1.8-1.8-2v-0.7h5.9v0.7
		c-1.6,0.1-1.7,0.2-1.7,2v8c0,1,0.1,1.4,0.5,1.6c0.4,0.2,1,0.2,1.7,0.2c1,0,1.7-0.1,2.1-0.7c0.4-0.4,0.7-1.1,1.1-2L318.3,119.1z"/>
	<path d="M329.3,112.6c-0.2-1-0.5-1.6-0.8-2c-0.4-0.4-0.8-0.5-2.1-0.5h-1.1v9.7c0,1.7,0.2,1.8,2,2v0.6H321v-0.6
		c1.7-0.1,1.9-0.3,1.9-2v-9.7H322c-1.7,0-2,0.2-2.3,0.6c-0.3,0.3-0.5,1-0.8,2h-0.7c0.1-1.4,0.2-2.8,0.2-3.9h0.5
		c0.3,0.5,0.6,0.5,1.1,0.5h8.1c0.5,0,0.8-0.1,1.1-0.5h0.5c0,0.9,0.1,2.6,0.2,3.8L329.3,112.6z"/>
	<path d="M346,110c-1.6,0.1-1.7,0.2-1.7,2v7.9c0,1.7,0.2,1.8,1.7,2v0.6h-5.9v-0.6c1.6-0.1,1.8-0.3,1.8-2V116h-6v3.9
		c0,1.7,0.2,1.8,1.7,2v0.6h-5.8v-0.6c1.5-0.1,1.7-0.3,1.7-2v-7.9c0-1.7-0.2-1.8-1.8-2v-0.7h5.8v0.7c-1.5,0.1-1.7,0.2-1.7,2v3.1h6
		v-3.1c0-1.7-0.1-1.8-1.7-2v-0.7h5.8V110z"/>
</g>
<g>
	<path d="M148.1,36.3c3.9,0,6.8,0.6,8.9,2c2.3,1.6,3.6,4.1,3.6,7.4c0,6.8-5,9.9-10.3,10.6c-0.8,0.1-1.6,0.1-2.2,0.1l-3.6-0.9V63
		c0,4.3,0.5,4.6,4.9,5v1.6h-15.2V68c3.9-0.4,4.4-0.7,4.4-5V43c0-4.4-0.5-4.7-4.1-5v-1.7H148.1z M144.4,53.7c0.7,0.3,1.8,0.5,3.1,0.5
		c2.4,0,6.5-1.5,6.5-8.2c0-5.7-3.4-7.7-6.9-7.7c-1.1,0-1.9,0.3-2.3,0.5c-0.4,0.3-0.5,0.9-0.5,1.9V53.7z"/>
	<path d="M178.2,69.6V68c3.1-0.5,3.4-1,2.7-3.2c-0.6-1.7-1.4-4.1-2.4-6.6h-10.2c-0.7,1.9-1.4,3.8-2,5.9c-0.9,2.8-0.6,3.4,3.1,3.8
		v1.6h-11.3V68c3.3-0.5,4-0.9,5.7-5.3l10.5-26.5l2.3-0.6c3.3,8.9,6.5,18.1,9.8,26.9c1.7,4.5,2.4,5.1,5.6,5.5v1.6H178.2z M173.6,44
		h-0.2c-1.5,3.9-2.9,7.9-4.3,11.8h8.5L173.6,44z"/>
	<path d="M223.9,70.1c-0.4,0-1-0.1-1.6-0.1c-5.5-0.3-7.6-1.6-9.7-4.9c-1.5-2.3-3.1-5.2-4.6-7.8c-0.8-1.5-1.7-2.2-3.7-2.2h-1.2V63
		c0,4.2,0.5,4.7,4.4,5v1.6h-14.7V68c3.9-0.4,4.5-0.8,4.5-5v-20c0-4.2-0.5-4.6-4.3-4.9v-1.7h13.8c4.2,0,6.8,0.5,8.8,1.8
		c2,1.4,3.4,3.6,3.4,6.8c0,4.5-2.9,7-6.5,8.5c0.8,1.6,2.8,5,4.3,7.3c1.8,2.8,2.9,4.4,4,5.5c1.2,1.3,2.2,1.9,3.3,2.3L223.9,70.1z
		 M204.8,53.3c2.4,0,4-0.4,5.2-1.4c1.8-1.5,2.6-3.5,2.6-6.2c0-5.5-3.3-7.5-6.6-7.5c-1.3,0-2.1,0.3-2.5,0.5c-0.4,0.3-0.5,0.9-0.5,2
		v12.5H204.8z"/>
	<path d="M249.8,69.6c-2.9-3.5-7.1-9.2-11.1-14.5c-1.1-1.5-1.8-1.7-2.6-1.6v9.4c0,4.4,0.5,4.8,4.5,5.1v1.6h-14.5V68
		c3.7-0.4,4.3-0.7,4.3-5.1V43.1c0-4.5-0.5-4.8-4.4-5.1v-1.7h14.4V38c-3.7,0.3-4.2,0.7-4.2,5.1v8.8c1.1-0.3,2.3-1.1,3.8-2.6
		c3.2-3.2,5.8-6.1,7.7-8.6c1.3-1.7,1.3-2.4-1.1-2.7l-1-0.1v-1.7h12.9V38c-3.4,0.3-5.2,0.9-8.2,3.6c-2.6,2.5-5.3,5.3-8,8.1
		c3.4,4.9,7.9,10.5,11.2,14.4c2.4,2.8,3.6,3.5,5.8,3.8v1.6H249.8z"/>
	<path d="M261.4,69.6V68c3.9-0.4,4.4-0.7,4.4-5V43c0-4.4-0.5-4.7-4.4-5v-1.7h14.7V38c-3.9,0.3-4.4,0.7-4.4,5V63c0,4.3,0.4,4.7,4.4,5
		v1.6H261.4z"/>
	<path d="M315.1,38c-2.8,0.2-3.9,0.9-4.1,3.2c-0.2,1.5-0.4,3.9-0.4,8.6v20.4h-2.2l-21.5-26h-0.1v12c0,4.6,0.2,6.9,0.4,8.4
		c0.3,2.4,1.2,3.2,4.9,3.4v1.6h-12.4V68c2.9-0.2,4.1-1,4.4-3.3c0.2-1.7,0.4-4,0.4-8.6V45.2c0-3.5-0.1-4.2-1-5.4
		c-1-1.3-2.1-1.7-4.4-1.9v-1.6h8.8L308,59.9h0.2V49.7c0-4.6-0.3-7-0.4-8.5c-0.3-2.2-1.4-3-5.1-3.2v-1.6h12.3V38z"/>
	<path d="M336.4,44.5c-1-3.2-2.8-6.9-7-6.9c-3.2,0-5.2,2.4-5.2,5.2c0,3.2,2.1,4.9,6.5,7c4.9,2.5,9,5.1,9,10.4
		c0,5.7-4.8,10.1-12.1,10.1c-1.9,0-3.7-0.3-5.1-0.8c-1.4-0.4-2.3-0.8-2.9-1.1c-0.5-1.2-1.1-5.5-1.5-8.4l1.7-0.5
		c0.9,3.2,3.7,8.8,8.7,8.8c3.4,0,5.5-2.3,5.5-5.7c0-3.3-2.5-5.2-6.3-7.2c-4.6-2.4-8.8-5.1-8.8-10.3c0-5.3,4.3-9.7,11.3-9.7
		c3,0,5.6,0.9,6.9,1.3c0.2,1.9,0.5,4,0.9,7.3L336.4,44.5z"/>
	<path d="M378.1,52.6c0,11-7.9,17.8-17.5,17.8c-9.9,0-17.1-7.4-17.1-17.3c0-8.9,6.4-17.6,17.7-17.6
		C370.3,35.6,378.1,42.4,378.1,52.6z M350.5,52c0,9.1,4.4,16.3,11.2,16.3c5.2,0,9.5-4.8,9.5-14.3c0-10.4-4.7-16.4-10.9-16.4
		C354.9,37.6,350.5,42.9,350.5,52z"/>
	<path d="M415.7,38c-2.8,0.2-3.9,0.9-4.1,3.2c-0.2,1.5-0.4,3.9-0.4,8.6v20.4H409l-21.5-26h-0.1v12c0,4.6,0.2,6.9,0.4,8.4
		c0.3,2.4,1.2,3.2,4.9,3.4v1.6h-12.4V68c2.9-0.2,4.1-1,4.4-3.3c0.2-1.7,0.4-4,0.4-8.6V45.2c0-3.5-0.1-4.2-1-5.4
		c-1-1.3-2.1-1.7-4.4-1.9v-1.6h8.8l20.2,23.6h0.2V49.7c0-4.6-0.3-7-0.4-8.5c-0.3-2.2-1.4-3-5.1-3.2v-1.6h12.3V38z"/>
</g>
<line class="st0" x1="121.7" y1="36.3" x2="121.7" y2="122.6"/>
<g>
	<g>
		<path class="st1" d="M14,41.7l-3.2,1.2c-2.1,0.8-4.2,1.5-6,2.2c-1.5,0.6-1.7,0.8-1.8,1.8H2.6v-4.5h0.5l0.1,0.5
			c0.1,0.7,0.3,0.7,0.9,0.5c0.5-0.2,1.6-0.6,2.5-0.9v-3.2c-0.5-0.2-1.5-0.5-2.2-0.8c-0.9-0.3-1.1-0.2-1.2,0.6l0,0.5H2.6v-3.8h0.5
			c0.1,1.1,0.2,1.3,1.8,1.9l8.9,3.5L14,41.7z M7.4,39.4v2.7l3.8-1.3v-0.1L7.4,39.4z"/>
		<path class="st1" d="M13.8,52.8c0,1.9-0.4,3.7-1.5,4.8c-0.8,0.8-2.1,1.4-3.6,1.4c-4.2,0-6.1-3.3-6.1-7.3v-4.2h0.5
			c0.1,1.4,0.2,1.5,2.1,1.5h6c1.9,0,2-0.1,2.1-1.4h0.5V52.8z M5.2,51c-1.6,0-1.9,0.2-1.9,1.5c0,2.9,2,4.3,4.9,4.3c3.7,0,5-1.9,5-4.6
			c0-0.6-0.1-1-0.2-1.1C12.9,51,12.6,51,12.1,51H5.2z"/>
		<path class="st1" d="M8.3,67.9c-1.1,0-1.9-0.8-1.9-1.9c0-1,0.9-1.9,1.9-1.9c1.1,0,1.9,0.9,1.9,1.9C10.2,67.1,9.4,67.9,8.3,67.9z"
			/>
		<path class="st1" d="M13.8,75.4l-8.2,3.8l8.2,3.6V86h-0.5c-0.1-1.4-0.2-1.5-2.1-1.4l-6,0.2c-1.9,0.1-2,0.1-2.1,1.5H2.6v-4.8h0.5
			c0.1,1.3,0.2,1.4,2.1,1.4l6.6-0.1v-0.1l-9-3.9v-0.5l8.6-3.8v-0.1L7,74.3c-1.6,0-2.5,0-3,0.1c-0.7,0.1-0.8,0.4-0.9,1.6H2.6v-4.1
			h0.5c0.1,0.9,0.2,1.2,0.9,1.3c0.5,0.1,1.5,0.2,3.2,0.3l3.5,0.2c2.3,0.1,2.5,0,2.6-1.5h0.5V75.4z"/>
		<path class="st1" d="M14,93.1l-3.2,1.2c-2.1,0.8-4.2,1.6-5.9,2.3c-1.5,0.6-1.6,0.8-1.7,1.8l-0.5,0l-0.1-4.5l0.5,0l0.1,0.5
			c0.1,0.7,0.3,0.7,0.9,0.5c0.5-0.2,1.6-0.6,2.5-1l0-3.2C6,90.5,5.1,90.2,4.3,90c-0.9-0.3-1.1-0.2-1.2,0.6l0,0.5l-0.5,0l-0.1-3.8
			l0.5,0c0.2,1.1,0.2,1.3,1.8,1.8l9,3.4L14,93.1z M7.4,90.9l0,2.7l3.8-1.4v-0.1L7.4,90.9z"/>
		<path class="st1" d="M11.8,98.4c1.8-0.6,1.9-0.7,1.5-2.1l0.5-0.1l1.4,4.6l-0.5,0.1c-0.5-1.1-0.6-1.2-2.4-0.7l-5.3,1.7
			c-1.8,0.6-3.3,0.9-4.8-0.3c-0.6-0.4-1.1-1-1.6-1.7l0.4-0.3c0.9,0.9,1.7,1.1,2.7,1.1c0.8-0.1,1.8-0.3,2.9-0.7L11.8,98.4z"/>
		<path class="st1" d="M15.4,113.2c-3.1,2-6.5,1.1-8.3-1.6c-1.8-2.8-0.9-6.1,1.7-7.8c2.4-1.5,6.1-1.6,8.3,1.8
			C18.8,108,18.2,111.3,15.4,113.2z M10.5,105.3c-2.6,1.7-3.9,4.2-2.6,6.2c1,1.5,3,1.8,5.7,0.1c3-1.9,3.9-4.2,2.7-6.2
			C15.3,103.9,13.1,103.7,10.5,105.3z"/>
		<path class="st1" d="M23.5,112.2c1,0.8,1.6,1.5,1.8,2.3c0.2,0.8,0.1,1.6-0.5,2.4c-0.9,1.1-2.3,1.3-3.7,0.8
			c-0.1,0.5-0.4,1.9-0.4,2.8c-0.1,1.1-0.2,1.9-0.1,2.4c0.1,0.6,0.1,1,0.4,1.4l-0.3,0.3l-0.5-0.5c-1.4-1.3-1.5-2-1.4-3.2
			c0.1-1,0.4-2.2,0.5-3.2c0.1-0.5,0.1-0.8-0.3-1.1l-0.4-0.4L17,118c-1.2,1.4-1.2,1.6-0.2,2.5l-0.3,0.4l-3.7-3.1l0.3-0.4
			c1.1,0.8,1.3,0.8,2.5-0.6l3.9-4.6c1.2-1.4,1.2-1.6,0.2-2.5l0.3-0.4L23.5,112.2z M18.8,115.8l0.5,0.4c0.5,0.4,1,0.7,1.5,0.7
			c0.9,0,1.6-0.5,2.1-1.1c1.1-1.4,0.6-2.6-0.3-3.3c-0.6-0.5-0.7-0.5-1.1-0.1L18.8,115.8z"/>
		<path class="st1" d="M34.2,119.6c-0.1,0.3-0.7,1.4-1.1,2.4l-0.5-0.2c0.3-0.8,0.3-1.3,0.2-1.7c-0.1-0.4-0.5-0.8-1.5-1.3l-0.8-0.4
			c-0.6-0.3-0.6-0.3-0.9,0.2l-1.8,3.2l1.3,0.7c1.3,0.7,1.4,0.7,2.2-0.4l0.5,0.3l-1.8,3.2l-0.5-0.3c0.5-1.3,0.5-1.3-0.8-2.1l-1.3-0.7
			l-1.4,2.5c-0.5,0.9-0.7,1.3-0.5,1.7c0.2,0.3,0.7,0.7,1.3,1c0.8,0.4,1.5,0.8,2,0.6c0.4-0.1,1-0.5,1.6-1.1l0.4,0.3
			c-0.3,0.5-1.5,1.8-1.9,2.2l-7.3-4.1l0.2-0.4c1.3,0.6,1.5,0.6,2.4-1l3-5.2c0.9-1.6,0.9-1.8-0.2-2.5l0.2-0.4L34.2,119.6z"/>
		<path class="st1" d="M38.3,121.4l0.5,9l6.4-6.3l3,1.2l-0.2,0.4c-1.3-0.4-1.4-0.4-2.1,1.4l-2.1,5.7c-0.7,1.8-0.6,1.9,0.6,2.5
			l-0.2,0.5l-4.5-1.8l0.2-0.4c1.3,0.4,1.4,0.4,2.1-1.4l2.4-6.2l-0.1,0l-7,6.9l-0.5-0.2l-0.3-9.4l-0.1,0l-1.8,4.1
			c-0.6,1.4-0.9,2.3-1.1,2.8c-0.2,0.6,0.1,0.9,1.1,1.4l-0.2,0.4l-3.8-1.5L31,130c0.8,0.3,1.2,0.2,1.6-0.3c0.3-0.4,0.8-1.3,1.5-2.8
			l1.5-3.2c1-2.1,0.9-2.3-0.4-3l0.2-0.4L38.3,121.4z"/>
		<path class="st1" d="M56.2,133.5c-0.3,1-1.4,1.6-2.4,1.2c-1-0.3-1.5-1.4-1.2-2.4c0.3-1,1.4-1.6,2.4-1.2
			C56,131.4,56.5,132.5,56.2,133.5z"/>
		<path class="st1" d="M64.4,124.6c1.8-0.7,3.6-1,5-0.3c1,0.4,2.1,1.4,2.7,2.8c1.5,3.9-0.8,6.9-4.6,8.3l-3.9,1.5l-0.2-0.4
			c1.3-0.6,1.4-0.8,0.7-2.5l-2.2-5.6c-0.7-1.7-0.9-1.8-2.1-1.4l-0.2-0.4L64.4,124.6z M66,133.2c0.6,1.5,0.9,1.7,2.1,1.2
			c2.6-1.1,3.2-3.5,2.1-6.2c-1.4-3.4-3.6-3.8-6.2-2.8c-0.5,0.2-0.9,0.5-1,0.6c-0.1,0.1,0.1,0.4,0.2,0.8L66,133.2z"/>
		<path class="st1" d="M77,118.9c0.2,0.2,0.8,1.3,1.4,2.2l-0.4,0.3c-0.5-0.7-0.9-1-1.3-1.1c-0.4-0.1-0.9,0-1.9,0.5l-0.8,0.4
			c-0.6,0.3-0.6,0.3-0.3,0.9l1.7,3.2l1.3-0.7c1.3-0.7,1.3-0.8,0.8-2l0.5-0.2l1.7,3.2l-0.5,0.2c-0.8-1.1-0.8-1.2-2.2-0.5l-1.3,0.7
			l1.3,2.5c0.5,0.9,0.7,1.3,1.1,1.3c0.4,0,0.9-0.2,1.6-0.6c0.8-0.4,1.4-0.8,1.6-1.4c0.1-0.4,0.1-1.1,0-1.9l0.5-0.1
			c0.2,0.6,0.7,2.3,0.8,2.8l-7.5,3.8l-0.2-0.4c1.3-0.8,1.3-1,0.5-2.6l-2.7-5.4c-0.8-1.7-1-1.7-2.2-1.2l-0.2-0.4L77,118.9z"/>
		<path class="st1" d="M82.4,115.6l0.3,0.4c-1.1,0.8-1.1,1-0.1,2.5l3.2,5.1c1,1.6,1.2,1.6,2.3,1l0.3,0.4l-4.1,2.6l-0.3-0.4
			c1.1-0.8,1.1-1,0.1-2.6l-3.2-5.1c-1-1.6-1.2-1.6-2.4-1l-0.3-0.4L82.4,115.6z"/>
		<path class="st1" d="M91.5,115.3c0.7,0.8,0.5,2-0.3,2.7c-0.8,0.6-2,0.5-2.7-0.3c-0.7-0.8-0.5-2,0.3-2.7
			C89.6,114.4,90.8,114.5,91.5,115.3z"/>
		<g>
			<path class="st1" d="M103.1,104.5c0.6,0.2,1.1,0.4,1.5,0.4c0,1.1-0.1,2.5-0.5,3.8c-1.2,3.6-4.2,5.4-7.4,4.3
				c-3.7-1.2-4.7-4.8-3.7-8c0.5-1.4,1.1-2.5,1.4-3c0.6,0.1,1.5,0.3,2.7,0.6l-0.1,0.5c-2.2-0.2-3.1,1-3.5,2.3
				c-0.7,2.3,0.5,4.4,3.5,5.3c2.5,0.8,5.5,0.6,6.4-2.4c0.2-0.5,0.2-0.9,0.2-1.2c0-0.4-0.3-0.6-0.9-0.8l-1.4-0.4
				c-1.1-0.4-1.2-0.3-1.9,1.4l-0.5-0.2l1.5-4.5l0.5,0.2c-0.1,0.9-0.1,1,1,1.4L103.1,104.5z"/>
			<path class="st1" d="M95.3,95.4l0.5,0.1c-0.1,1.4,0,1.5,1.9,1.8l5.9,0.8c1,0.1,1.5,0.1,1.7-0.2c0.2-0.3,0.4-0.8,0.4-1.4
				c0.1-0.8,0.3-2.9,0-3.3c-0.3-0.3-0.8-0.7-1.6-1.1l0.2-0.5c0.5,0.2,2.2,0.8,2.7,1l-1.3,9.2l-0.5-0.1c0.1-1.4,0-1.6-1.9-1.9l-6-0.8
				c-1.8-0.3-2-0.1-2.3,1.2l-0.5-0.1L95.3,95.4z"/>
			<path class="st1" d="M101.6,79.9c3.7,0.3,5.9,3,5.6,6.2c-0.2,3.4-2.9,5.4-6,5.2c-2.8-0.2-5.9-2.4-5.6-6.4
				C95.8,82,98.3,79.7,101.6,79.9z M100.8,89.1c3.1,0.2,5.6-1,5.8-3.4c0.1-1.8-1.3-3.3-4.5-3.5c-3.6-0.2-5.7,1-5.8,3.3
				C96.1,87.3,97.8,88.9,100.8,89.1z"/>
			<path class="st1" d="M95.9,74.8c0-1.3,0.1-2.2,0.6-2.8c0.4-0.7,1.2-1.1,2.2-1.1c1.4,0,2.5,0.9,3,2.3c0.5-0.3,1.7-0.9,2.5-1.5
				c0.9-0.7,1.6-1.1,1.9-1.4c0.4-0.4,0.7-0.7,0.8-1.2l0.4,0.1l0,0.7c-0.1,1.9-0.6,2.5-1.6,3.1c-0.8,0.6-1.9,1.1-2.8,1.6
				c-0.5,0.3-0.7,0.5-0.7,1V76h2.3c1.9,0,2-0.1,2.1-1.4h0.5v4.9h-0.5c-0.1-1.4-0.2-1.5-2.1-1.5h-6c-1.9,0-2,0.1-2.1,1.4h-0.5V74.8z
				 M101.6,76v-0.7c0-0.7-0.1-1.2-0.4-1.6c-0.6-0.7-1.4-0.9-2.2-0.9c-1.8,0-2.4,1.2-2.4,2.3c0,0.8,0.1,0.9,0.6,0.9H101.6z"/>
			<path class="st1" d="M95.9,62.9h0.5c0.1,1.3,0.2,1.4,2.1,1.4h6c1.9,0,2-0.1,2.1-1.4h0.5v4.9h-0.5c-0.1-1.3-0.2-1.5-2.1-1.5h-6
				c-1.9,0-2,0.1-2.1,1.5h-0.5V62.9z"/>
			<path class="st1" d="M95.7,56l3.2-1.2c2.1-0.8,4.2-1.5,6-2.2c1.5-0.6,1.7-0.8,1.8-1.8h0.5v4.5h-0.5l-0.1-0.5
				c-0.1-0.7-0.3-0.7-0.9-0.5c-0.5,0.2-1.6,0.6-2.5,0.9v3.2c0.5,0.2,1.5,0.5,2.2,0.8c0.9,0.3,1.1,0.2,1.2-0.6l0-0.5h0.5v3.8h-0.5
				c-0.1-1.1-0.2-1.3-1.8-1.9l-8.9-3.5L95.7,56z M102.3,58.3v-2.7l-3.8,1.3V57L102.3,58.3z"/>
			<path class="st1" d="M95.9,46.3l8.2-3.8l-8.2-3.6v-3.3h0.5c0.1,1.4,0.2,1.5,2.1,1.4l6-0.2c1.9-0.1,2-0.1,2.1-1.5h0.5v4.8h-0.5
				c-0.1-1.3-0.2-1.4-2.1-1.4l-6.6,0.1V39l9,3.9v0.5l-8.6,3.8v0.1l4.5,0.1c1.5,0,2.5,0,3-0.1c0.7-0.1,0.8-0.4,0.9-1.6h0.5v4.1h-0.5
				c-0.1-0.9-0.2-1.2-0.9-1.3c-0.5-0.1-1.5-0.2-3.2-0.3L98.9,48c-2.3-0.1-2.5,0-2.6,1.5h-0.5V46.3z"/>
		</g>
	</g>
	<g>
		<path d="M2.5,18.7v-0.9c2.7-0.2,2.9-0.4,2.9-3.4V5.1c0-3-0.2-3.2-2.7-3.3V0.8h8.7v0.9C8.7,1.9,8.5,2.1,8.5,5.1v9.5
			c0,1.6,0.2,2.4,0.7,2.6c0.5,0.3,1.4,0.3,2.8,0.3c1.5,0,2.8-0.3,3.4-1c0.5-0.5,0.9-1.4,1.3-2.7l1,0.1c-0.2,0.9-0.8,4-1,4.8H2.5z"/>
		<path d="M18,10.2c0-6.7,5.1-9.8,9.2-9.8c5.6,0,9.2,4,9.2,9.2c0,6.3-4.6,9.6-9.2,9.6C21.3,19.2,18,14.5,18,10.2z M27.6,18
			c3,0,5.4-2,5.4-7.6c0-4.6-2.2-8.8-6.1-8.8c-3.1,0-5.4,2.8-5.4,7.6C21.5,14.4,23.8,18,27.6,18z"/>
		<path d="M40.3,18.7v-0.9c2.8-0.2,3-0.4,3-3.3V12c0-0.8-0.1-1-0.6-1.9c-0.8-1.5-1.9-3.3-3.7-6.4c-1-1.8-1.3-1.8-3-2V0.8h7.8v0.9
			l-1.2,0.2C41.7,2,41.6,2.3,42,3.1c0.2,0.4,2.7,4.8,3.6,6.4c1.2-2.1,2.4-4.8,3-6.1c0.5-1.1,0.4-1.3-0.6-1.4l-1.1-0.2V0.8h6.8v0.9
			c-2.1,0.2-2.3,0.5-3.3,2c-1.1,1.6-2.2,3.5-3.5,5.8c-0.6,1.1-0.6,1.4-0.6,2v2.9c0,2.9,0.2,3.1,3.1,3.3v0.9H40.3z"/>
		<path d="M52.8,10.2c0-6.7,5.1-9.8,9.2-9.8c5.6,0,9.2,4,9.2,9.2c0,6.3-4.6,9.6-9.2,9.6C56,19.2,52.8,14.5,52.8,10.2z M62.4,18
			c3,0,5.4-2,5.4-7.6c0-4.6-2.2-8.8-6.1-8.8c-3.1,0-5.4,2.8-5.4,7.6C56.3,14.4,58.5,18,62.4,18z"/>
		<path d="M72.6,18.7v-0.9c2.7-0.2,2.9-0.4,2.9-3.4V5.1c0-3-0.2-3.2-2.7-3.3V0.8h8.7v0.9c-2.7,0.2-2.9,0.3-2.9,3.3v9.5
			c0,1.6,0.2,2.4,0.7,2.6c0.5,0.3,1.4,0.3,2.8,0.3c1.5,0,2.8-0.3,3.4-1c0.5-0.5,0.9-1.4,1.3-2.7l1,0.1c-0.2,0.9-0.8,4-1,4.8H72.6z"
			/>
		<path d="M99.2,17.8l0.7-0.1c1.1-0.1,1.4-0.4,0.7-2.3l-1.3-3.2h-5.4c-0.3,0.6-0.9,2.5-1.3,3.7c-0.5,1.4-0.1,1.8,1,1.8l0.9,0.1v0.9
			h-6.8v-0.9c1.7-0.2,2.4-0.4,3.5-3.1l5.8-14.1l1-0.2l5.8,14.8c0.9,2.4,1.7,2.5,3.4,2.6v0.9h-7.8V17.8z M94.3,10.8h4.5l-2.3-6.1
			h-0.1L94.3,10.8z"/>
	</g>
	<path d="M55,68.8"/>
	<g>
		<path class="st1" d="M89.8,36.3V92c0,20.4-34.9,29-34.9,29s-35-8.6-35-29V36.3H89.8z"/>
	</g>
	<path class="st2" d="M21.8,55.6l0.4-2.3h3.2v10.3h-2.6v-8H21.8z"/>
	<path class="st2" d="M34.6,55.8c0,1.1-0.7,2-1.6,2.3v0c1.2,0.4,2,1.3,2,2.7c0,2.1-2.1,3.1-3.9,3.1c-1.8,0-3.9-1-3.9-3.1
		c0-1.3,0.8-2.3,2-2.7v0c-0.9-0.3-1.6-1.2-1.6-2.3c0-2,1.7-2.9,3.5-2.9C32.9,52.9,34.6,53.9,34.6,55.8z M30,55.9
		c0,0.6,0.5,1.2,1.1,1.2s1.1-0.5,1.1-1.2c0-0.6-0.5-1.2-1.1-1.2S30,55.2,30,55.9z M29.9,60.5c0,0.7,0.5,1.2,1.2,1.2
		c0.7,0,1.2-0.6,1.2-1.2c0-0.7-0.5-1.3-1.2-1.3C30.5,59.2,29.9,59.8,29.9,60.5z"/>
	<path class="st2" d="M36.4,55.9v-2.5h8.5l-5.7,10.2H36l4.5-7.8H36.4z"/>
	<path class="st2" d="M53.2,58.4c0,2.6-1.3,5.4-4.2,5.4c-3,0-4.2-2.8-4.2-5.4c0-2.6,1.3-5.4,4.2-5.4C52,53,53.2,55.8,53.2,58.4z
		 M47.4,58.4c0,1,0.3,3.1,1.6,3.1c1.3,0,1.7-2.1,1.7-3.1c0-1-0.3-3.1-1.7-3.1C47.7,55.3,47.4,57.4,47.4,58.4z"/>
	<g>
		<g>
			<path class="st2" d="M27.5,80.3c0,0,1.1,0.8-0.8,5.3c-0.4,0.9-2.1,4.1,0,6.4c1.4,1.6,3.7,1,3.7,1c0.1,0.9,0.2,1.3,0.2,1.3h-1.7
				c-1.5,0.1-1.6,1.7-1.6,1.7v7l1.2,1.2h3.8c0.1-1.7-2.2-2.5-2.2-2.5v-3h3.6c1.9-0.1,2.9-3.8,2.9-3.8l1.4,0.1c0.1,0.2-2,3.9-2,3.9
				l4.1,3.9v1.3h4.5c0.2-1.1-2-2.2-2-2.2l-2.8-3c-0.4-0.4-0.1-0.8,0.4-1c0.5-0.2,1-0.3,1.6-0.5c0.6-0.2,3.2-1.9,2.1-5
				c-1.1-3.1-4.6-1.8-4.6-2.2c0-0.4,1.9-4.7,1.9-4.7l-1.5-2.3l1.8,1.2l4.8-0.9c0.5,4.1,2.4,3,2.4,3v-3c0,0-0.1-2-1.9-2.6
				c-2.2-0.7-3.7-0.3-4.4-0.4c-0.6-0.1-0.5-0.7-0.5-0.7l2.9,0.1l2.5-2.1l1.4-0.1c2.5-0.4,1.6-2.4,1.6-2.4s-2.2,0-3.6,0
				c-1.4,0-4.9,2.6-4.9,2.6s-0.5-2.9,2.2-3.9c2.7-1,2.1-1.8,2.1-1.8l-2.5,0.9c0,0-0.3-0.3,0.1-0.9c0.2-0.4,2.3-1.1,2.3-1.1
				c1.6-0.6,1.1-1.9,1.1-1.9l-2.8,0.3c-0.7-0.6-0.6-0.7-1.5-0.8c-0.9-0.1-2.4,1.2-2.2,0.7c0.1-0.4,0.3-1.7,0.4-3
				c0.1-1.2-3.7,4.3-3.7,4.3c-4.9,9.4-3.6,15.7-3.6,15.7c-3.3,1.5-3.3,5.1-3.3,4.1c0-5.3,1.7-4.9,1.7-8.2c-0.1-3.3-3.6-3-3.6-3
				c-1.4,0-1.8,0.9-1.8,0.9S27.2,80,27.5,80.3z"/>
			<polygon class="st1" points="41.5,70.4 43.5,70.4 43.1,69.7 			"/>
		</g>
		<path class="st2" d="M54.9,104.4c0,0-2.8,0.3-5.3-2.2c-2.4-2.4-2.3-5.2-2.3-5.2v-5.5c0,0-0.7-0.2-0.7-0.8c0-0.8,0.8-0.7,0.8-0.7
			h1.8c-0.1,1.9,1.1,1.6,1.1,1.6c1.2,0,1-1.6,1-1.6h3.7h0h3.7c0,0-0.3,1.7,1,1.6c0,0,1.2,0.2,1.1-1.6h1.8c0,0,0.9-0.1,0.8,0.7
			c0,0.7-0.7,0.8-0.7,0.8V97c0,0,0.1,2.8-2.3,5.2C57.7,104.7,54.8,104.4,54.9,104.4L54.9,104.4z"/>
		<g>
			<path class="st2" d="M82.2,80.3c0,0-1.1,0.8,0.8,5.3c0.4,0.9,2.1,4.1,0,6.4c-1.4,1.6-3.7,1-3.7,1c-0.1,0.9-0.2,1.3-0.2,1.3h1.7
				c1.5,0.1,1.6,1.7,1.6,1.7v7l-1.2,1.2h-3.8c-0.1-1.7,2.2-2.5,2.2-2.5v-3H76c-1.9-0.1-2.9-3.8-2.9-3.8l-1.4,0.1
				c-0.1,0.2,2,3.9,2,3.9l-4.1,3.9v1.3H65c-0.2-1.1,2-2.2,2-2.2l2.8-3c0.4-0.4,0.1-0.8-0.4-1c-0.5-0.2-1-0.3-1.6-0.5
				c-0.6-0.2-3.2-1.9-2.1-5c1.1-3.1,4.6-1.8,4.6-2.2c0-0.4-1.9-4.7-1.9-4.7l1.5-2.3l-1.8,1.2l-4.8-0.9c-0.5,4.1-2.4,3-2.4,3v-3
				c0,0,0.1-2,1.9-2.6c2.2-0.7,3.7-0.3,4.4-0.4c0.7-0.1,0.5-0.7,0.5-0.7L64.9,80l-2.5-2.1L61,77.8c-2.5-0.4-1.6-2.4-1.6-2.4
				s2.2,0,3.6,0c1.4,0,4.9,2.6,4.9,2.6s0.5-2.9-2.2-3.9c-2.7-1-2.1-1.8-2.1-1.8l2.5,0.9c0,0,0.3-0.3-0.1-0.9
				c-0.2-0.4-2.3-1.1-2.3-1.1c-1.6-0.6-1.1-1.9-1.1-1.9l2.8,0.3c0.6-0.6,0.6-0.7,1.5-0.8c0.9-0.1,2.4,1.2,2.2,0.7
				c-0.1-0.4-0.3-1.7-0.4-3c-0.1-1.2,3.7,4.3,3.7,4.3c4.9,9.4,3.6,15.7,3.6,15.7c3.3,1.5,3.3,5.1,3.3,4.1c0-5.3-1.7-4.9-1.7-8.2
				c0.1-3.3,3.6-3,3.6-3c1.4,0,1.8,0.9,1.8,0.9S82.5,80,82.2,80.3z"/>
			<polygon class="st1" points="68.2,70.4 66.2,70.4 66.6,69.7 			"/>
		</g>
		<path class="st2" d="M55.2,83.6l0-14.1l0,0c0.2-0.1,0.4-0.4,0.4-0.6c0-0.4-0.3-0.7-0.7-0.7c0,0,0,0,0,0c0,0,0,0,0,0
			c-0.4,0-0.7,0.3-0.7,0.7c0,0.3,0.1,0.5,0.4,0.6l0,0l0,14.1l-4.7,4.7v1.5h0.7l0-1.2l4.3-4.4l4.3,4.4l0,1.2h0.7v-1.5L55.2,83.6z"/>
	</g>
	<g>
		<polygon class="st3" points="54.9,36.3 54.9,40.9 59.9,36.3 		"/>
		<polygon class="st3" points="85,63.6 89.8,63.6 89.8,59.1 		"/>
		<polygon class="st3" points="64.9,36.3 54.9,45.4 54.9,50 70,36.3 		"/>
		<polygon class="st3" points="75,36.3 54.9,54.5 54.9,59.1 80,36.3 		"/>
		<polygon class="st3" points="85,36.3 54.9,63.6 59.9,63.6 89.8,36.3 		"/>
		<polygon class="st3" points="64.9,63.6 70,63.6 89.8,45.4 89.8,40.9 		"/>
		<polygon class="st3" points="75,63.6 80,63.6 89.8,54.5 89.8,50 		"/>
	</g>
	<g>
		<path d="M2.5,24.5h1.3v3.7c0,0.4,0,0.7,0.1,0.9c0.1,0.3,0.5,0.5,1,0.5c0.5,0,0.8-0.2,1-0.5C6,28.9,6,28.6,6,28.2v-3.7h1.3v3.7
			c0,0.6-0.1,1.1-0.3,1.5c-0.4,0.6-1.1,1-2.1,1c-1,0-1.7-0.3-2.1-1c-0.2-0.4-0.3-0.8-0.3-1.5V24.5z"/>
		<path d="M9.6,24.5h1.3l2.4,4.1v-4.1h1.2v5.9h-1.2l-2.4-4.2v4.2H9.6V24.5z"/>
		<path d="M17.8,30.5h-1.2v-5.9h1.2V30.5z"/>
		<path d="M23.5,24.5h1.3l-2,5.9h-1.2l-2-5.9h1.3l1.3,4.5L23.5,24.5z"/>
		<path d="M30.7,25.6h-3.1v1.3h2.9v1h-2.9v1.5h3.3v1.1h-4.5v-5.9h4.4V25.6z"/>
		<path d="M36.5,24.7c0.2,0.1,0.4,0.2,0.6,0.4c0.1,0.2,0.2,0.3,0.3,0.5c0.1,0.2,0.1,0.4,0.1,0.6c0,0.3-0.1,0.6-0.2,0.8
			c-0.1,0.3-0.4,0.5-0.7,0.6c0.3,0.1,0.5,0.3,0.6,0.5c0.1,0.2,0.2,0.5,0.2,0.9v0.4c0,0.3,0,0.5,0,0.6c0,0.2,0.1,0.3,0.2,0.3v0.2
			h-1.4c0-0.1-0.1-0.2-0.1-0.3c0-0.2-0.1-0.3-0.1-0.5l0-0.6c0-0.4-0.1-0.6-0.2-0.8c-0.1-0.1-0.4-0.2-0.7-0.2H34v2.3h-1.2v-5.9h2.8
			C36,24.5,36.3,24.6,36.5,24.7z M34,25.6v1.6h1.3c0.3,0,0.5,0,0.6-0.1c0.2-0.1,0.4-0.3,0.4-0.7c0-0.4-0.1-0.6-0.3-0.7
			c-0.1-0.1-0.3-0.1-0.6-0.1H34z"/>
		<path d="M40.2,28.6c0,0.3,0.1,0.5,0.2,0.6c0.2,0.2,0.6,0.4,1.1,0.4c0.3,0,0.5,0,0.7-0.1c0.4-0.1,0.5-0.4,0.5-0.7
			c0-0.2-0.1-0.3-0.3-0.5c-0.2-0.1-0.4-0.2-0.8-0.3L41,28c-0.6-0.1-1.1-0.3-1.3-0.5c-0.4-0.3-0.6-0.7-0.6-1.3c0-0.5,0.2-1,0.6-1.3
			c0.4-0.4,1-0.5,1.7-0.5c0.6,0,1.2,0.2,1.6,0.5c0.4,0.3,0.7,0.8,0.7,1.4h-1.2c0-0.4-0.2-0.6-0.5-0.8c-0.2-0.1-0.4-0.1-0.7-0.1
			c-0.3,0-0.6,0.1-0.8,0.2c-0.2,0.1-0.3,0.3-0.3,0.5c0,0.2,0.1,0.4,0.3,0.5c0.1,0.1,0.4,0.2,0.8,0.2l1,0.2c0.5,0.1,0.8,0.3,1,0.4
			c0.4,0.3,0.5,0.7,0.5,1.2c0,0.5-0.2,1-0.6,1.4c-0.4,0.4-1,0.5-1.8,0.5c-0.8,0-1.4-0.2-1.8-0.5c-0.4-0.4-0.7-0.8-0.7-1.5H40.2z"/>
		<path d="M47.1,30.5h-1.2v-5.9h1.2V30.5z"/>
		<path d="M53.8,24.5v1.1H52v4.9h-1.2v-4.9H49v-1.1H53.8z"/>
		<path d="M58.5,24.5h1.4l-2,3.7v2.2h-1.2v-2.2l-2.1-3.7h1.5l1.2,2.6L58.5,24.5z"/>
		<path d="M65.1,25.1c0.5-0.5,1.1-0.7,1.8-0.7c1,0,1.7,0.3,2.2,1c0.3,0.4,0.4,0.7,0.4,1.1h-1.2c-0.1-0.3-0.2-0.5-0.3-0.6
			c-0.2-0.3-0.5-0.4-1-0.4c-0.4,0-0.8,0.2-1,0.5c-0.3,0.4-0.4,0.9-0.4,1.5c0,0.7,0.1,1.2,0.4,1.5c0.3,0.3,0.6,0.5,1,0.5
			c0.4,0,0.8-0.1,1-0.4c0.1-0.2,0.2-0.4,0.3-0.7h1.2c-0.1,0.6-0.4,1.2-0.8,1.6c-0.4,0.4-1,0.6-1.7,0.6c-0.8,0-1.5-0.3-2-0.8
			c-0.5-0.6-0.7-1.3-0.7-2.3C64.3,26.5,64.6,25.7,65.1,25.1z"/>
		<path d="M71.3,30.5v-5.9h1.2v2.3h2.3v-2.3h1.2v5.9h-1.2v-2.7h-2.3v2.7H71.3z"/>
		<path d="M79.6,30.5h-1.2v-5.9h1.2V30.5z"/>
		<path d="M82.4,25.1c0.5-0.5,1.1-0.7,1.8-0.7c1,0,1.7,0.3,2.2,1c0.3,0.4,0.4,0.7,0.4,1.1h-1.2c-0.1-0.3-0.2-0.5-0.3-0.6
			c-0.2-0.3-0.5-0.4-1-0.4c-0.4,0-0.8,0.2-1,0.5c-0.3,0.4-0.4,0.9-0.4,1.5c0,0.7,0.1,1.2,0.4,1.5c0.3,0.3,0.6,0.5,1,0.5
			c0.4,0,0.8-0.1,1-0.4c0.1-0.2,0.2-0.4,0.3-0.7h1.2c-0.1,0.6-0.4,1.2-0.8,1.6c-0.4,0.4-1,0.6-1.7,0.6c-0.8,0-1.5-0.3-2-0.8
			c-0.5-0.6-0.7-1.3-0.7-2.3C81.5,26.5,81.8,25.7,82.4,25.1z"/>
		<path d="M89.7,24.5h1.4l2.1,5.9h-1.3l-0.4-1.2h-2.2l-0.4,1.2h-1.3L89.7,24.5z M89.6,28.2h1.5l-0.8-2.3L89.6,28.2z"/>
		<path d="M98.5,26.4c-0.1-0.4-0.3-0.7-0.7-0.9c-0.2-0.1-0.4-0.1-0.7-0.1c-0.5,0-0.9,0.2-1.2,0.5c-0.3,0.4-0.5,0.9-0.5,1.6
			c0,0.7,0.2,1.2,0.5,1.5c0.3,0.3,0.7,0.5,1.1,0.5c0.4,0,0.8-0.1,1-0.4c0.3-0.2,0.4-0.6,0.5-0.9h-1.4v-1h2.5v3.2h-0.8l-0.1-0.7
			c-0.2,0.3-0.5,0.5-0.6,0.6c-0.3,0.2-0.7,0.3-1.2,0.3c-0.8,0-1.4-0.3-1.9-0.8c-0.5-0.5-0.8-1.3-0.8-2.2c0-1,0.3-1.7,0.8-2.3
			c0.5-0.6,1.2-0.9,2.1-0.9c0.8,0,1.4,0.2,1.8,0.6c0.5,0.4,0.7,0.9,0.8,1.4H98.5z"/>
		<path d="M106.3,29.9c-0.4,0.5-1.1,0.7-1.9,0.7c-0.9,0-1.5-0.2-2-0.7c-0.6-0.6-0.9-1.4-0.9-2.5c0-1.1,0.3-1.9,0.9-2.5
			c0.5-0.5,1.1-0.7,2-0.7c0.8,0,1.5,0.2,1.9,0.7c0.6,0.5,0.9,1.4,0.9,2.5C107.2,28.6,106.9,29.4,106.3,29.9z M105.5,29
			c0.3-0.4,0.4-0.9,0.4-1.5s-0.1-1.2-0.4-1.5c-0.3-0.4-0.7-0.5-1.2-0.5c-0.5,0-0.9,0.2-1.2,0.5c-0.3,0.4-0.4,0.9-0.4,1.5
			c0,0.7,0.1,1.2,0.4,1.5c0.3,0.4,0.7,0.5,1.2,0.5C104.8,29.6,105.2,29.4,105.5,29z"/>
	</g>
</g>
</svg>
