<?xml version="1.0" encoding="utf-8"?>
<!-- Generator: Adobe Illustrator 23.1.1, SVG Export Plug-In . SVG Version: 6.00 Build 0)  -->
<svg version="1.1" xmlns="http://www.w3.org/2000/svg" xmlns:xlink="http://www.w3.org/1999/xlink" x="0px" y="0px"
	 viewBox="0 0 206 46" style="enable-background:new 0 0 206 46;" xml:space="preserve">
<style type="text/css">
	.st0{display:none;}
	.st1{display:inline;}
	.st2{fill:#FFFFFF;}
	.st3{fill:#8A1E41;}
	.st4{display:inline;fill:#FFFFFF;}
	.st5{fill:#8D0034;}
	.st6{fill:#FEBC18;}
</style>
<g id="LUC_x5F_stacked_x5F_reverse" class="st0">
	<g class="st1">
		<g>
			<g>
				<path class="st2" d="M54.5,26.9v-1.3c3.9-0.2,4.2-0.5,4.2-4.9V7.1c0-4.4-0.3-4.6-3.9-4.8V0.9h12.5v1.3C63.4,2.5,63,2.7,63,7.1
					v13.8c0,2.3,0.3,3.4,1.1,3.8c0.8,0.4,2,0.5,4,0.5c2.2,0,4-0.4,4.9-1.5c0.7-0.7,1.3-2,1.9-3.9l1.5,0.2c-0.3,1.3-1.1,5.8-1.5,6.9
					H54.5z"/>
				<path class="st2" d="M76.8,14.5c0-9.8,7.4-14.3,13.3-14.3c8.1,0,13.3,5.9,13.3,13.4c0,9.2-6.7,14-13.2,14
					C81.5,27.6,76.8,20.8,76.8,14.5z M90.6,25.9c4.3,0,7.7-2.9,7.7-11.1C98.3,8.1,95.2,2,89.6,2c-4.5,0-7.8,4-7.8,11.1
					C81.8,20.7,85.1,25.9,90.6,25.9z"/>
				<path class="st2" d="M108.9,26.9v-1.3c4-0.3,4.3-0.6,4.3-4.8v-3.6c0-1.1-0.1-1.5-0.8-2.7c-1.2-2.2-2.7-4.8-5.3-9.3
					c-1.5-2.6-1.8-2.6-4.4-2.9V0.9h11.2v1.3l-1.7,0.2c-1.3,0.2-1.3,0.5-0.8,1.7c0.3,0.6,3.9,7,5.2,9.3c1.7-3.1,3.5-7,4.4-8.9
					c0.7-1.6,0.6-1.9-0.9-2l-1.6-0.2V0.9h9.9v1.3c-3,0.3-3.2,0.7-4.8,3c-1.5,2.3-3.2,5.1-5,8.4c-0.8,1.6-0.9,2-0.9,2.9v4.2
					c0,4.3,0.3,4.5,4.5,4.8v1.3H108.9z"/>
				<path class="st2" d="M126.8,14.5c0-9.8,7.4-14.3,13.3-14.3c8.1,0,13.3,5.9,13.3,13.4c0,9.2-6.7,14-13.2,14
					C131.5,27.6,126.8,20.8,126.8,14.5z M140.6,25.9c4.3,0,7.7-2.9,7.7-11.1c0-6.6-3.1-12.8-8.7-12.8c-4.5,0-7.8,4-7.8,11.1
					C131.8,20.7,135.1,25.9,140.6,25.9z"/>
				<path class="st2" d="M155.3,26.9v-1.3c3.9-0.2,4.2-0.5,4.2-4.9V7.1c0-4.4-0.3-4.6-3.9-4.8V0.9h12.5v1.3
					c-3.9,0.2-4.2,0.5-4.2,4.8v13.8c0,2.3,0.3,3.4,1.1,3.8c0.8,0.4,2,0.5,4,0.5c2.2,0,4-0.4,4.9-1.5c0.7-0.7,1.3-2,1.9-3.9l1.5,0.2
					c-0.3,1.3-1.1,5.8-1.5,6.9H155.3z"/>
				<path class="st2" d="M193.6,25.6l1.1-0.1c1.6-0.2,2.1-0.6,1-3.4l-1.9-4.7H186c-0.4,0.9-1.3,3.7-1.9,5.4c-0.7,2-0.2,2.6,1.5,2.7
					l1.3,0.1v1.3H177v-1.3c2.5-0.3,3.4-0.5,5-4.5l8.3-20.5l1.4-0.4l8.3,21.5c1.3,3.4,2.4,3.7,4.9,3.8v1.3h-11.3V25.6z M186.6,15.4
					h6.5l-3.2-8.9h-0.1L186.6,15.4z"/>
			</g>
			<g>
				<path class="st2" d="M54.5,32.2h1.8v5.3c0,0.6,0.1,1,0.2,1.3c0.2,0.5,0.7,0.7,1.4,0.7c0.7,0,1.2-0.2,1.4-0.7
					c0.1-0.3,0.2-0.7,0.2-1.3v-5.3h1.8v5.3c0,0.9-0.1,1.6-0.4,2.1c-0.5,0.9-1.5,1.4-3,1.4c-1.5,0-2.5-0.5-3-1.4
					c-0.3-0.5-0.4-1.2-0.4-2.1V32.2z"/>
				<path class="st2" d="M64.5,32.2h1.9l3.4,6v-6h1.7v8.7h-1.8l-3.5-6.1v6.1h-1.7V32.2z"/>
				<path class="st2" d="M76.5,40.9h-1.8v-8.7h1.8V40.9z"/>
				<path class="st2" d="M84.7,32.2h1.9l-2.9,8.7h-1.7L79,32.2h1.9l1.9,6.6L84.7,32.2z"/>
				<path class="st2" d="M95,33.7h-4.5v1.8h4.2v1.5h-4.2v2.2h4.7v1.6h-6.5v-8.7H95V33.7z"/>
				<path class="st2" d="M103.4,32.4c0.3,0.1,0.6,0.3,0.8,0.6c0.2,0.2,0.3,0.5,0.4,0.7c0.1,0.3,0.2,0.6,0.2,0.9
					c0,0.4-0.1,0.8-0.3,1.2c-0.2,0.4-0.5,0.7-1,0.8c0.4,0.2,0.7,0.4,0.8,0.7c0.2,0.3,0.2,0.7,0.2,1.4v0.6c0,0.4,0,0.7,0,0.8
					c0,0.2,0.2,0.4,0.3,0.5v0.2h-2c-0.1-0.2-0.1-0.3-0.1-0.5c0-0.2-0.1-0.5-0.1-0.7l0-0.8c0-0.6-0.1-0.9-0.3-1.1
					c-0.2-0.2-0.5-0.3-1-0.3h-1.7v3.4h-1.7v-8.7h4.1C102.6,32.2,103.1,32.3,103.4,32.4z M99.7,33.7V36h1.9c0.4,0,0.7,0,0.9-0.1
					c0.3-0.2,0.5-0.5,0.5-1c0-0.5-0.2-0.9-0.5-1.1c-0.2-0.1-0.5-0.2-0.8-0.2H99.7z"/>
				<path class="st2" d="M108.7,38.2c0.1,0.4,0.2,0.7,0.3,0.9c0.3,0.4,0.8,0.5,1.5,0.5c0.4,0,0.8,0,1.1-0.1c0.5-0.2,0.8-0.5,0.8-1
					c0-0.3-0.1-0.5-0.4-0.7c-0.2-0.2-0.6-0.3-1.2-0.4l-0.9-0.2c-0.9-0.2-1.5-0.4-1.9-0.7c-0.6-0.4-0.9-1-0.9-1.9
					c0-0.8,0.3-1.4,0.8-1.9c0.6-0.5,1.4-0.8,2.5-0.8c0.9,0,1.7,0.2,2.3,0.7c0.6,0.5,1,1.2,1,2.1h-1.7c0-0.5-0.3-0.9-0.7-1.1
					c-0.3-0.1-0.6-0.2-1.1-0.2c-0.5,0-0.9,0.1-1.1,0.3c-0.3,0.2-0.4,0.4-0.4,0.8c0,0.3,0.1,0.5,0.4,0.7c0.2,0.1,0.6,0.2,1.1,0.4
					l1.5,0.4c0.7,0.2,1.2,0.4,1.5,0.6c0.5,0.4,0.8,1,0.8,1.8c0,0.8-0.3,1.4-0.9,2c-0.6,0.5-1.5,0.8-2.6,0.8c-1.1,0-2-0.3-2.7-0.8
					c-0.6-0.5-1-1.2-1-2.1H108.7z"/>
				<path class="st2" d="M118.6,40.9h-1.8v-8.7h1.8V40.9z"/>
				<path class="st2" d="M128.3,32.2v1.5h-2.6v7.1h-1.8v-7.1h-2.6v-1.5H128.3z"/>
				<path class="st2" d="M135,32.2h2l-2.9,5.4v3.2h-1.8v-3.2l-3-5.4h2.1l1.8,3.8L135,32.2z"/>
				<path class="st2" d="M144.6,33.1c0.7-0.7,1.6-1.1,2.6-1.1c1.4,0,2.5,0.5,3.1,1.4c0.4,0.5,0.6,1.1,0.6,1.6h-1.8
					c-0.1-0.4-0.3-0.7-0.4-0.9c-0.3-0.4-0.8-0.6-1.4-0.6c-0.6,0-1.1,0.3-1.5,0.8c-0.4,0.5-0.6,1.3-0.6,2.3c0,1,0.2,1.7,0.6,2.2
					c0.4,0.5,0.9,0.7,1.5,0.7c0.6,0,1.1-0.2,1.4-0.6c0.2-0.2,0.3-0.6,0.4-1h1.8c-0.2,0.9-0.5,1.7-1.2,2.3c-0.6,0.6-1.4,0.9-2.4,0.9
					c-1.2,0-2.2-0.4-2.9-1.2c-0.7-0.8-1-1.9-1-3.3C143.4,35.1,143.8,33.9,144.6,33.1z"/>
				<path class="st2" d="M153.4,40.9v-8.7h1.8v3.3h3.3v-3.3h1.8v8.7h-1.8V37h-3.3v3.9H153.4z"/>
				<path class="st2" d="M165.4,40.9h-1.8v-8.7h1.8V40.9z"/>
				<path class="st2" d="M169.4,33.1c0.7-0.7,1.6-1.1,2.6-1.1c1.4,0,2.5,0.5,3.1,1.4c0.4,0.5,0.6,1.1,0.6,1.6h-1.8
					c-0.1-0.4-0.3-0.7-0.4-0.9c-0.3-0.4-0.8-0.6-1.4-0.6c-0.6,0-1.1,0.3-1.5,0.8c-0.4,0.5-0.6,1.3-0.6,2.3c0,1,0.2,1.7,0.6,2.2
					c0.4,0.5,0.9,0.7,1.5,0.7c0.6,0,1.1-0.2,1.4-0.6c0.2-0.2,0.3-0.6,0.4-1h1.8c-0.2,0.9-0.5,1.7-1.2,2.3c-0.6,0.6-1.4,0.9-2.4,0.9
					c-1.2,0-2.2-0.4-2.9-1.2c-0.7-0.8-1-1.9-1-3.3C168.2,35.1,168.6,33.9,169.4,33.1z"/>
				<path class="st2" d="M180,32.2h2l3,8.7h-1.9l-0.6-1.8h-3.2l-0.6,1.8h-1.9L180,32.2z M179.9,37.6h2.2l-1.1-3.4L179.9,37.6z"/>
				<path class="st2" d="M192.6,34.9c-0.1-0.6-0.5-1-1-1.2c-0.3-0.1-0.6-0.2-1-0.2c-0.7,0-1.3,0.3-1.7,0.8c-0.4,0.5-0.7,1.3-0.7,2.4
					c0,1.1,0.2,1.8,0.7,2.3c0.5,0.4,1,0.7,1.6,0.7c0.6,0,1.1-0.2,1.5-0.5c0.4-0.3,0.6-0.8,0.7-1.4h-2v-1.4h3.6v4.6h-1.2l-0.2-1.1
					c-0.3,0.4-0.7,0.7-0.9,0.9c-0.5,0.3-1.1,0.4-1.7,0.4c-1.1,0-2.1-0.4-2.8-1.2c-0.8-0.8-1.1-1.9-1.1-3.3c0-1.4,0.4-2.5,1.1-3.4
					c0.8-0.8,1.8-1.3,3-1.3c1.1,0,2,0.3,2.6,0.8c0.7,0.6,1,1.3,1.1,2.1H192.6z"/>
				<path class="st2" d="M203.9,40.1c-0.6,0.7-1.6,1-2.8,1c-1.2,0-2.2-0.3-2.8-1c-0.9-0.8-1.3-2-1.3-3.6c0-1.6,0.4-2.8,1.3-3.6
					c0.6-0.7,1.6-1,2.8-1c1.2,0,2.2,0.3,2.8,1c0.9,0.8,1.3,2,1.3,3.6C205.2,38.1,204.7,39.3,203.9,40.1z M202.7,38.8
					c0.4-0.5,0.6-1.3,0.6-2.3c0-1-0.2-1.7-0.6-2.3c-0.4-0.5-1-0.8-1.7-0.8c-0.7,0-1.3,0.3-1.7,0.8c-0.4,0.5-0.6,1.3-0.6,2.3
					c0,1,0.2,1.7,0.6,2.3c0.4,0.5,1,0.8,1.7,0.8C201.8,39.6,202.3,39.3,202.7,38.8z"/>
			</g>
		</g>
		<g>
			<g>
				<path class="st2" d="M5.9,3.3L4.5,3.8C3.6,4.2,2.7,4.5,2,4.8C1.3,5,1.2,5.1,1.2,5.6H1v-2h0.2l0,0.2c0,0.3,0.1,0.3,0.4,0.2
					c0.2-0.1,0.7-0.3,1.1-0.4V2.2C2.5,2.1,2.1,2,1.7,1.9C1.3,1.7,1.2,1.8,1.2,2.1l0,0.2H1V0.7h0.2C1.2,1.1,1.3,1.2,2,1.5L5.9,3
					L5.9,3.3z M3,2.3v1.2l1.7-0.6v0L3,2.3z"/>
				<path class="st2" d="M5.9,8.2c0,0.8-0.2,1.6-0.7,2.1c-0.3,0.3-0.9,0.6-1.6,0.6C1.8,10.9,1,9.5,1,7.7V5.9h0.2
					c0,0.6,0.1,0.7,0.9,0.7h2.6c0.8,0,0.9-0.1,0.9-0.6h0.2V8.2z M2.1,7.4c-0.7,0-0.8,0.1-0.8,0.7c0,1.3,0.9,1.9,2.1,1.9
					c1.6,0,2.2-0.8,2.2-2c0-0.3,0-0.4-0.1-0.5c0,0-0.2,0-0.4,0H2.1z"/>
				<path class="st2" d="M3.5,14.9c-0.5,0-0.8-0.4-0.8-0.8c0-0.5,0.4-0.8,0.8-0.8c0.5,0,0.8,0.4,0.8,0.8C4.3,14.5,3.9,14.9,3.5,14.9
					z"/>
				<path class="st2" d="M5.9,18.1l-3.6,1.7l3.6,1.6v1.4H5.6c-0.1-0.6-0.1-0.6-0.9-0.6l-2.6,0.1c-0.8,0-0.9,0-0.9,0.7H1v-2.1h0.2
					c0.1,0.6,0.1,0.6,0.9,0.6l2.9,0v0l-3.9-1.7v-0.2l3.8-1.7v0l-1.9-0.1c-0.7,0-1.1,0-1.3,0c-0.3,0-0.3,0.2-0.4,0.7H1v-1.8h0.2
					c0,0.4,0.1,0.5,0.4,0.6c0.2,0,0.7,0.1,1.4,0.1l1.5,0.1c1,0.1,1.1,0,1.1-0.7h0.2V18.1z"/>
				<path class="st2" d="M6,25.9l-1.4,0.5c-0.9,0.4-1.8,0.7-2.6,1c-0.7,0.3-0.7,0.4-0.8,0.8l-0.2,0l0-2l0.2,0l0,0.2
					c0,0.3,0.1,0.3,0.4,0.2c0.2-0.1,0.7-0.3,1.1-0.4l0-1.4c-0.2-0.1-0.6-0.2-1-0.3c-0.4-0.1-0.5-0.1-0.5,0.3l0,0.2L1,25l0-1.7l0.2,0
					c0.1,0.5,0.1,0.6,0.8,0.8l3.9,1.5L6,25.9z M3,25l0,1.2l1.6-0.6v0L3,25z"/>
				<path class="st2" d="M5,28.3c0.8-0.2,0.8-0.3,0.7-0.9l0.2-0.1l0.6,2l-0.2,0.1c-0.2-0.5-0.3-0.5-1-0.3l-2.3,0.7
					c-0.8,0.2-1.4,0.4-2.1-0.1c-0.2-0.2-0.5-0.4-0.7-0.7l0.2-0.1c0.4,0.4,0.8,0.5,1.2,0.5c0.4,0,0.8-0.2,1.3-0.3L5,28.3z"/>
				<path class="st2" d="M6.6,34.8C5.2,35.6,3.7,35.3,3,34c-0.8-1.3-0.4-2.7,0.7-3.4c1-0.7,2.7-0.7,3.6,0.8C8,32.5,7.8,34,6.6,34.8z
					 M4.4,31.3c-1.1,0.7-1.7,1.8-1.1,2.7c0.4,0.7,1.3,0.8,2.5,0c1.3-0.9,1.7-1.9,1.2-2.7C6.5,30.7,5.6,30.6,4.4,31.3z"/>
				<path class="st2" d="M10.1,34.3c0.4,0.4,0.7,0.7,0.8,1c0.1,0.3,0.1,0.7-0.2,1.1c-0.4,0.5-1,0.6-1.6,0.4C9,37,8.9,37.6,8.9,38
					c0,0.5-0.1,0.8-0.1,1c0,0.3,0,0.4,0.2,0.6l-0.1,0.1l-0.2-0.2C8,39,7.9,38.7,8,38.1c0-0.4,0.2-1,0.2-1.4c0-0.2,0-0.4-0.2-0.5
					l-0.2-0.2l-0.6,0.8c-0.5,0.6-0.5,0.7-0.1,1.1L7,38.1l-1.6-1.4l0.1-0.2C6,37,6.1,37,6.6,36.3l1.7-2c0.5-0.6,0.5-0.7,0.1-1.1
					L8.5,33L10.1,34.3z M8.1,35.9l0.2,0.2c0.2,0.2,0.4,0.3,0.7,0.3c0.4,0,0.7-0.2,0.9-0.5c0.5-0.6,0.3-1.2-0.1-1.5
					c-0.3-0.2-0.3-0.2-0.5,0L8.1,35.9z"/>
				<path class="st2" d="M14.8,37.6c0,0.1-0.3,0.6-0.5,1l-0.2-0.1c0.1-0.4,0.1-0.6,0.1-0.7c0-0.2-0.2-0.3-0.6-0.6L13.2,37
					c-0.2-0.1-0.3-0.1-0.4,0.1L12,38.5l0.6,0.3c0.6,0.3,0.6,0.3,0.9-0.2l0.2,0.1L13,40.2L12.7,40c0.2-0.6,0.2-0.6-0.3-0.9l-0.6-0.3
					l-0.6,1.1c-0.2,0.4-0.3,0.6-0.2,0.7c0.1,0.1,0.3,0.3,0.6,0.4c0.3,0.2,0.6,0.3,0.9,0.2c0.2-0.1,0.4-0.2,0.7-0.5l0.2,0.2
					c-0.2,0.2-0.7,0.8-0.8,1l-3.2-1.8l0.1-0.2c0.6,0.3,0.7,0.3,1.1-0.5l1.3-2.3c0.4-0.7,0.4-0.8-0.1-1.1l0.1-0.2L14.8,37.6z"/>
				<path class="st2" d="M16.5,38.4l0.2,4l2.8-2.8l1.3,0.5l-0.1,0.2c-0.6-0.2-0.6-0.2-0.9,0.6l-0.9,2.5c-0.3,0.8-0.3,0.8,0.3,1.1
					l-0.1,0.2l-1.9-0.8l0.1-0.2c0.6,0.2,0.6,0.2,0.9-0.6l1-2.7l0,0l-3,3l-0.2-0.1l-0.1-4.1l0,0L15,41c-0.3,0.6-0.4,1-0.5,1.2
					c-0.1,0.3,0,0.4,0.5,0.6L14.9,43l-1.7-0.7l0.1-0.2c0.4,0.1,0.5,0.1,0.7-0.1c0.1-0.2,0.3-0.6,0.6-1.2l0.7-1.4
					c0.4-0.9,0.4-1-0.2-1.3l0.1-0.2L16.5,38.4z"/>
				<path class="st2" d="M24.4,43.7c-0.1,0.4-0.6,0.7-1,0.5c-0.4-0.1-0.7-0.6-0.5-1.1c0.1-0.4,0.6-0.7,1-0.5
					C24.3,42.8,24.5,43.3,24.4,43.7z"/>
				<path class="st2" d="M27.9,39.8c0.8-0.3,1.6-0.4,2.2-0.2c0.4,0.2,0.9,0.6,1.2,1.2c0.7,1.7-0.4,3-2,3.7l-1.7,0.7L27.5,45
					c0.6-0.3,0.6-0.3,0.3-1.1l-1-2.5c-0.3-0.8-0.4-0.8-0.9-0.6l-0.1-0.2L27.9,39.8z M28.6,43.6c0.3,0.6,0.4,0.7,0.9,0.5
					c1.1-0.5,1.4-1.6,0.9-2.7c-0.6-1.5-1.6-1.7-2.7-1.2c-0.2,0.1-0.4,0.2-0.4,0.3c0,0.1,0,0.2,0.1,0.4L28.6,43.6z"/>
				<path class="st2" d="M33.4,37.3c0.1,0.1,0.3,0.6,0.6,1l-0.2,0.1c-0.2-0.3-0.4-0.4-0.6-0.5c-0.2-0.1-0.4,0-0.8,0.2l-0.3,0.2
					c-0.3,0.1-0.3,0.1-0.1,0.4l0.7,1.4l0.6-0.3c0.6-0.3,0.6-0.3,0.4-0.9l0.2-0.1l0.7,1.4l-0.2,0.1c-0.3-0.5-0.4-0.5-0.9-0.2
					l-0.6,0.3l0.6,1.1c0.2,0.4,0.3,0.6,0.5,0.6c0.2,0,0.4-0.1,0.7-0.2c0.3-0.2,0.6-0.4,0.7-0.6c0-0.2,0-0.5,0-0.9l0.2-0.1
					c0.1,0.2,0.3,1,0.3,1.2l-3.3,1.7l-0.1-0.2c0.6-0.3,0.6-0.4,0.2-1.1l-1.2-2.4c-0.4-0.7-0.5-0.8-1-0.5l-0.1-0.2L33.4,37.3z"/>
				<path class="st2" d="M35.8,35.8l0.1,0.2c-0.5,0.3-0.5,0.4-0.1,1.1l1.4,2.3c0.4,0.7,0.5,0.7,1,0.5l0.1,0.2l-1.8,1.1L36.4,41
					c0.5-0.4,0.5-0.4,0.1-1.1l-1.4-2.3c-0.4-0.7-0.5-0.7-1-0.4L34,37L35.8,35.8z"/>
				<path class="st2" d="M39.7,35.7c0.3,0.4,0.2,0.9-0.1,1.2c-0.4,0.3-0.9,0.2-1.2-0.1c-0.3-0.4-0.2-0.9,0.1-1.2
					C38.9,35.3,39.4,35.4,39.7,35.7z"/>
				<g>
					<path class="st2" d="M44.8,30.9c0.3,0.1,0.5,0.2,0.6,0.2c0,0.5,0,1.1-0.2,1.7c-0.5,1.6-1.8,2.4-3.2,1.9
						c-1.6-0.5-2.1-2.1-1.6-3.5c0.2-0.6,0.5-1.1,0.6-1.3c0.2,0.1,0.6,0.1,1.2,0.3l0,0.2c-1-0.1-1.3,0.4-1.5,1
						c-0.3,1,0.2,1.9,1.5,2.3c1.1,0.4,2.4,0.3,2.8-1.1c0.1-0.2,0.1-0.4,0.1-0.5c0-0.2-0.1-0.3-0.4-0.3l-0.6-0.2
						c-0.5-0.2-0.5-0.1-0.8,0.6L43,32.1l0.6-2l0.2,0.1c-0.1,0.4,0,0.4,0.5,0.6L44.8,30.9z"/>
					<path class="st2" d="M41.4,26.9l0.2,0c0,0.6,0,0.7,0.8,0.8l2.6,0.4c0.4,0.1,0.6,0,0.8-0.1c0.1-0.1,0.2-0.4,0.2-0.6
						c0-0.3,0.1-1.3,0-1.4c-0.1-0.1-0.4-0.3-0.7-0.5l0.1-0.2c0.2,0.1,1,0.4,1.2,0.4l-0.6,4.1l-0.2,0c0-0.6,0-0.7-0.8-0.8l-2.6-0.4
						c-0.8-0.1-0.9-0.1-1,0.5l-0.2,0L41.4,26.9z"/>
					<path class="st2" d="M44.1,20.1c1.6,0.1,2.6,1.3,2.5,2.7c-0.1,1.5-1.3,2.4-2.6,2.3c-1.2-0.1-2.6-1-2.4-2.8
						C41.6,21,42.7,20,44.1,20.1z M43.8,24.2c1.4,0.1,2.4-0.4,2.5-1.5c0.1-0.8-0.6-1.4-2-1.5c-1.6-0.1-2.5,0.5-2.5,1.5
						C41.8,23.4,42.5,24.1,43.8,24.2z"/>
					<path class="st2" d="M41.6,17.9c0-0.6,0.1-0.9,0.3-1.2c0.2-0.3,0.5-0.5,1-0.5c0.6,0,1.1,0.4,1.3,1c0.2-0.1,0.7-0.4,1.1-0.7
						c0.4-0.3,0.7-0.5,0.8-0.6c0.2-0.2,0.3-0.3,0.3-0.5l0.2,0l0,0.3c-0.1,0.8-0.3,1.1-0.7,1.4c-0.3,0.2-0.8,0.5-1.2,0.7
						c-0.2,0.1-0.3,0.2-0.3,0.4v0.2h1c0.8,0,0.9-0.1,0.9-0.6h0.2v2.1h-0.2c0-0.6-0.1-0.7-0.9-0.7h-2.6c-0.8,0-0.9,0.1-0.9,0.6h-0.2
						V17.9z M44.1,18.4v-0.3c0-0.3,0-0.5-0.2-0.7c-0.2-0.3-0.6-0.4-1-0.4c-0.8,0-1,0.5-1,1c0,0.4,0,0.4,0.3,0.4H44.1z"/>
					<path class="st2" d="M41.6,12.7h0.2c0,0.6,0.1,0.6,0.9,0.6h2.6c0.8,0,0.9-0.1,0.9-0.6h0.2v2.1h-0.2c0-0.6-0.1-0.7-0.9-0.7h-2.6
						c-0.8,0-0.9,0.1-0.9,0.7h-0.2V12.7z"/>
					<path class="st2" d="M41.5,9.6l1.4-0.5c0.9-0.3,1.8-0.7,2.6-1c0.7-0.3,0.7-0.4,0.8-0.8h0.2v2h-0.2l0-0.2c0-0.3-0.1-0.3-0.4-0.2
						c-0.2,0.1-0.7,0.3-1.1,0.4v1.4c0.2,0.1,0.6,0.2,1,0.3c0.4,0.1,0.5,0.1,0.5-0.3l0-0.2h0.2v1.7h-0.2c-0.1-0.5-0.1-0.6-0.8-0.8
						l-3.9-1.5L41.5,9.6z M44.4,10.6V9.4L42.8,10v0L44.4,10.6z"/>
					<path class="st2" d="M41.6,5.3l3.6-1.7l-3.6-1.6V0.7h0.2c0.1,0.6,0.1,0.6,0.9,0.6l2.6-0.1c0.8,0,0.9,0,0.9-0.7h0.2v2.1h-0.2
						c-0.1-0.6-0.1-0.6-0.9-0.6l-2.9,0v0l3.9,1.7v0.2l-3.8,1.7v0l1.9,0.1c0.7,0,1.1,0,1.3,0c0.3,0,0.3-0.2,0.4-0.7h0.2v1.8h-0.2
						c0-0.4-0.1-0.5-0.4-0.6c-0.2,0-0.7-0.1-1.4-0.1L43,6.1c-1-0.1-1.1,0-1.1,0.7h-0.2V5.3z"/>
				</g>
			</g>
			<g>
				<g>
					<path class="st2" d="M9.8,9.4l0.2-1h1.4V13h-1.1V9.4H9.8z"/>
					<path class="st2" d="M15.2,9.5c0,0.5-0.3,0.8-0.7,1l0,0c0.6,0.2,0.9,0.6,0.9,1.2c0,0.9-0.9,1.4-1.7,1.4c-0.7,0-1.7-0.5-1.7-1.4
						c0-0.6,0.4-1,0.9-1.2l0,0c-0.4-0.1-0.7-0.6-0.7-1c0-0.8,0.7-1.3,1.5-1.3C14.5,8.2,15.2,8.7,15.2,9.5z M13.3,9.5
						c0,0.3,0.2,0.5,0.5,0.5s0.5-0.2,0.5-0.5C14.2,9.2,14,9,13.7,9C13.5,9,13.3,9.2,13.3,9.5z M13.2,11.6c0,0.3,0.3,0.6,0.6,0.6
						s0.6-0.3,0.6-0.6S14,11,13.7,11C13.5,11,13.2,11.3,13.2,11.6z"/>
					<path class="st2" d="M15.9,9.5V8.4h3.7L17.2,13h-1.4l1.9-3.5H15.9z"/>
					<path class="st2" d="M23.1,10.6c0,1.1-0.6,2.3-1.9,2.3c-1.3,0-1.9-1.2-1.9-2.3s0.6-2.3,1.9-2.3C22.6,8.3,23.1,9.5,23.1,10.6z
						 M20.5,10.6c0,0.5,0.1,1.4,0.7,1.4c0.6,0,0.7-0.9,0.7-1.4s-0.2-1.3-0.7-1.3C20.7,9.2,20.5,10.2,20.5,10.6z"/>
				</g>
				<g>
					<path class="st2" d="M22.2,18.1c0,0-1,0-1.6,0c-0.6,0-2.1,1.1-2.1,1.1s-0.2-1.3,0.9-1.7c1.2-0.5,0.9-0.8,0.9-0.8l-1.1,0.4
						c0,0-0.1-0.1,0.1-0.4c0.1-0.2,1-0.5,1-0.5c0.7-0.3,0.5-0.8,0.5-0.8l-1.3,0.1c-0.3-0.3-0.3-0.3-0.6-0.4c-0.4-0.1-1,0.5-1,0.3
						c0.1-0.2,0.1-0.7,0.2-1.3c0.1-0.6-1.6,1.9-1.6,1.9c-2.1,4.1-1.6,6.9-1.6,6.9c-1.4,0.7-1.4,2.2-1.4,1.8c0-2.3,0.7-2.2,0.7-3.6
						c0-1.5-1.6-1.3-1.6-1.3c-0.6,0-0.8,0.4-0.8,0.4s0.3-0.1,0.5,0.1c0,0,0.5,0.4-0.4,2.3c-0.2,0.4-0.9,1.8,0,2.8
						c0.6,0.7,1.7,0.5,1.7,0.5c0.1,0.4,0.1,0.6,0.1,0.6h-0.7c-0.6,0-0.7,0.7-0.7,0.7v3.1l0.5,0.5h1.7c0-0.7-0.9-1.1-0.9-1.1v-1.3H15
						c0.8-0.1,1.3-1.7,1.3-1.7l0.6,0.1c0,0.1-0.8,1.7-0.8,1.7l1.8,1.7v0.5h1.9c0.1-0.5-0.8-0.9-0.8-0.9l-1.2-0.9
						c-0.2-0.2-0.1-0.4,0.2-0.4c0.3-0.1,0.5-0.1,0.6-0.3c0.3-0.1,1.4-0.8,0.9-2.2s-2-0.8-2-0.9c0-0.2,0.8-2.1,0.8-2.1l-0.6-1
						l0.8,0.5l2.1-0.4c0.2,1.8,1,1.3,1,1.3v-1.3c0,0,0-0.8-0.8-1.1c-0.9-0.3-1.6-0.1-1.9-0.2c-0.3-0.1-0.2-0.3-0.2-0.3h1.2l1.1-0.9
						l0.6-0.1C22.6,19,22.2,18.1,22.2,18.1z M19,15.6l0.2,0.3h-0.8L19,15.6z"/>
					<path class="st2" d="M23.9,30.9c0,0-1.2,0.1-2.3-0.9c-1-1-1-2.3-1-2.3v-2.4c0,0-0.3-0.1-0.3-0.4c0-0.4,0.4-0.3,0.4-0.3h0.7
						c0,0.8,0.5,0.7,0.5,0.7c0.6,0,0.5-0.7,0.5-0.7h1.6l0,0h1.6c0,0-0.1,0.7,0.5,0.7c0,0,0.5,0.1,0.5-0.7h0.7c0,0,0.4-0.1,0.4,0.3
						c0,0.3-0.3,0.4-0.3,0.4v2.4c0,0,0,1.2-1,2.3C25.1,31,23.9,30.9,23.9,30.9L23.9,30.9z"/>
					<path class="st2" d="M35.8,25.4c0.9-1,0.2-2.4,0-2.8c-0.8-2-0.4-2.3-0.4-2.3c0.1-0.2,0.5-0.1,0.5-0.1s-0.2-0.4-0.8-0.4
						c0,0-1.6-0.1-1.6,1.3c0,1.5,0.7,1.3,0.7,3.6c0,0.4,0-1.1-1.4-1.8c0,0,0.6-2.8-1.6-6.9c0,0-1.7-2.4-1.6-1.9
						c0.1,0.6,0.1,1.1,0.2,1.3c0.1,0.2-0.6-0.4-1-0.3c-0.4,0.1-0.4,0.1-0.6,0.4l-1.3-0.2c0,0-0.2,0.6,0.5,0.8c0,0,0.9,0.3,1,0.5
						c0.2,0.3,0.1,0.4,0.1,0.4l-1.2-0.4c0,0-0.3,0.4,0.9,0.8c1.2,0.5,0.9,1.7,0.9,1.7s-1.6-1.1-2.1-1.1c-0.6,0-1.6,0-1.6,0
						s-0.4,0.8,0.7,1l0.6,0.1l1.1,0.9h1.2c0,0,0.1,0.3-0.2,0.3c-0.3,0.1-0.9-0.1-1.9,0.2c-0.8,0.3-0.8,1.1-0.8,1.1v1.3
						c0,0,0.8,0.5,1-1.3l2.1,0.4l0.8-0.5l-0.6,1c0,0,0.8,2,0.8,2.1c0,0.2-1.6-0.4-2,0.9c-0.5,1.4,0.6,2.1,0.9,2.2
						c0.3,0.1,0.5,0.2,0.6,0.3c0.2,0.1,0.4,0.3,0.2,0.4l-1.3,1.4c0,0-0.9,0.4-0.8,0.9h1.9v-0.5l1.8-1.7c0,0-0.9-1.6-0.8-1.7l0.6-0.1
						c0,0,0.5,1.6,1.3,1.7h1.6v1.2c0,0-1,0.3-0.9,1.1h1.7l0.5-0.5v-3.1c0,0,0-0.7-0.7-0.7h-0.7c0,0,0-0.2,0.1-0.6
						C34.2,25.9,35.2,26.2,35.8,25.4z M28.4,16l0.2-0.3l0.6,0.3H28.4z"/>
					<path class="st2" d="M24,21.8v-6.2l0,0c0.1-0.1,0.2-0.2,0.2-0.3c0-0.2-0.1-0.3-0.3-0.3l0,0l0,0c-0.2,0-0.3,0.1-0.3,0.3
						c0,0.1,0.1,0.2,0.2,0.3l0,0v6.2l-2,2.1v0.7H22v-0.6l1.9-2l1.9,2v0.6H26v-0.7L24,21.8z"/>
				</g>
				<g>
					<path class="st2" d="M39,10.9L36.9,13h1.6v12.4c0,8.1-13.5,11.9-14.7,12.2c-1.2-0.3-14.7-4-14.7-12.2V1.6h14.7v1.4l2.2-2H8.5
						v24.4c0,3.7,2.7,7.2,7.6,9.9c3.7,2.1,7.5,3,7.5,3h0.1h0.1c0,0,3.8-0.9,7.5-3c5-2.7,7.6-6.2,7.6-9.9L39,10.9"/>
					<polygon class="st2" points="28.1,0.9 23.8,4.9 23.8,6.9 30.3,0.9 					"/>
					<polygon class="st2" points="32.5,0.9 23.8,8.9 23.8,10.9 34.7,0.9 					"/>
					<polygon class="st2" points="36.9,0.9 23.8,13 26,13 39,0.9 					"/>
					<polygon class="st2" points="28.1,13 30.3,13 39,4.9 39,2.9 					"/>
					<polygon class="st2" points="32.5,13 34.7,13 39,8.9 39,6.9 					"/>
				</g>
			</g>
		</g>
	</g>
</g>
<g id="LUC_x5F_stacked_x5F_one-color">
	<g>
		<g>
			<g>
				<path d="M5.9,3.3L4.5,3.8C3.6,4.2,2.7,4.5,2,4.8C1.3,5,1.2,5.1,1.2,5.6H1v-2h0.2l0,0.2c0,0.3,0.1,0.3,0.4,0.2
					c0.2-0.1,0.7-0.3,1.1-0.4V2.2C2.5,2.1,2.1,2,1.7,1.9C1.3,1.7,1.2,1.8,1.2,2.1l0,0.2H1V0.7h0.2C1.2,1.1,1.3,1.2,2,1.5L5.9,3
					L5.9,3.3z M3,2.3v1.2l1.7-0.6v0L3,2.3z"/>
				<path d="M5.9,8.2c0,0.8-0.2,1.6-0.7,2.1c-0.3,0.3-0.9,0.6-1.6,0.6C1.8,10.9,1,9.5,1,7.7V5.9h0.2c0,0.6,0.1,0.7,0.9,0.7h2.6
					c0.8,0,0.9-0.1,0.9-0.6h0.2V8.2z M2.1,7.4c-0.7,0-0.8,0.1-0.8,0.7c0,1.3,0.9,1.9,2.1,1.9c1.6,0,2.2-0.8,2.2-2
					c0-0.3,0-0.4-0.1-0.5c0,0-0.2,0-0.4,0H2.1z"/>
				<path d="M3.5,14.9c-0.5,0-0.8-0.4-0.8-0.8c0-0.5,0.4-0.8,0.8-0.8c0.5,0,0.8,0.4,0.8,0.8C4.3,14.5,3.9,14.9,3.5,14.9z"/>
				<path d="M5.9,18.1l-3.6,1.7l3.6,1.6v1.4H5.6c-0.1-0.6-0.1-0.6-0.9-0.6l-2.6,0.1c-0.8,0-0.9,0-0.9,0.7H1v-2.1h0.2
					c0.1,0.6,0.1,0.6,0.9,0.6l2.9,0v0l-3.9-1.7v-0.2l3.8-1.7v0l-1.9-0.1c-0.7,0-1.1,0-1.3,0c-0.3,0-0.3,0.2-0.4,0.7H1v-1.8h0.2
					c0,0.4,0.1,0.5,0.4,0.6c0.2,0,0.7,0.1,1.4,0.1l1.5,0.1c1,0.1,1.1,0,1.1-0.7h0.2V18.1z"/>
				<path d="M6,25.9l-1.4,0.5c-0.9,0.4-1.8,0.7-2.6,1c-0.7,0.3-0.7,0.4-0.8,0.8l-0.2,0l0-2l0.2,0l0,0.2c0,0.3,0.1,0.3,0.4,0.2
					c0.2-0.1,0.7-0.3,1.1-0.4l0-1.4c-0.2-0.1-0.6-0.2-1-0.3c-0.4-0.1-0.5-0.1-0.5,0.3l0,0.2L1,25l0-1.7l0.2,0
					c0.1,0.5,0.1,0.6,0.8,0.8l3.9,1.5L6,25.9z M3,25l0,1.2l1.6-0.6v0L3,25z"/>
				<path d="M5,28.3c0.8-0.2,0.8-0.3,0.7-0.9l0.2-0.1l0.6,2l-0.2,0.1c-0.2-0.5-0.3-0.5-1-0.3l-2.3,0.7c-0.8,0.2-1.4,0.4-2.1-0.1
					c-0.2-0.2-0.5-0.4-0.7-0.7l0.2-0.1c0.4,0.4,0.8,0.5,1.2,0.5c0.4,0,0.8-0.2,1.3-0.3L5,28.3z"/>
				<path d="M6.6,34.8C5.2,35.6,3.7,35.3,3,34c-0.8-1.3-0.4-2.7,0.7-3.4c1-0.7,2.7-0.7,3.6,0.8C8,32.5,7.8,34,6.6,34.8z M4.4,31.3
					c-1.1,0.7-1.7,1.8-1.1,2.7c0.4,0.7,1.3,0.8,2.5,0c1.3-0.9,1.7-1.9,1.2-2.7C6.5,30.7,5.6,30.6,4.4,31.3z"/>
				<path d="M10.1,34.3c0.4,0.4,0.7,0.7,0.8,1c0.1,0.3,0.1,0.7-0.2,1.1c-0.4,0.5-1,0.6-1.6,0.4C9,37,8.9,37.6,8.9,38
					c0,0.5-0.1,0.8-0.1,1c0,0.3,0,0.4,0.2,0.6l-0.1,0.1l-0.2-0.2C8,39,7.9,38.7,8,38.1c0-0.4,0.2-1,0.2-1.4c0-0.2,0-0.4-0.2-0.5
					l-0.2-0.2l-0.6,0.8c-0.5,0.6-0.5,0.7-0.1,1.1L7,38.1l-1.6-1.4l0.1-0.2C6,37,6.1,37,6.6,36.3l1.7-2c0.5-0.6,0.5-0.7,0.1-1.1
					L8.5,33L10.1,34.3z M8.1,35.9l0.2,0.2c0.2,0.2,0.4,0.3,0.7,0.3c0.4,0,0.7-0.2,0.9-0.5c0.5-0.6,0.3-1.2-0.1-1.5
					c-0.3-0.2-0.3-0.2-0.5,0L8.1,35.9z"/>
				<path d="M14.8,37.6c0,0.1-0.3,0.6-0.5,1l-0.2-0.1c0.1-0.4,0.1-0.6,0.1-0.7c0-0.2-0.2-0.3-0.6-0.6L13.2,37
					c-0.2-0.1-0.3-0.1-0.4,0.1L12,38.5l0.6,0.3c0.6,0.3,0.6,0.3,0.9-0.2l0.2,0.1L13,40.2L12.7,40c0.2-0.6,0.2-0.6-0.3-0.9l-0.6-0.3
					l-0.6,1.1c-0.2,0.4-0.3,0.6-0.2,0.7c0.1,0.1,0.3,0.3,0.6,0.4c0.3,0.2,0.6,0.3,0.9,0.2c0.2-0.1,0.4-0.2,0.7-0.5l0.2,0.2
					c-0.2,0.2-0.7,0.8-0.8,1l-3.2-1.8l0.1-0.2c0.6,0.3,0.7,0.3,1.1-0.5l1.3-2.3c0.4-0.7,0.4-0.8-0.1-1.1l0.1-0.2L14.8,37.6z"/>
				<path d="M16.5,38.4l0.2,4l2.8-2.8l1.3,0.5l-0.1,0.2c-0.6-0.2-0.6-0.2-0.9,0.6l-0.9,2.5c-0.3,0.8-0.3,0.8,0.3,1.1l-0.1,0.2
					l-1.9-0.8l0.1-0.2c0.6,0.2,0.6,0.2,0.9-0.6l1-2.7l0,0l-3,3l-0.2-0.1l-0.1-4.1l0,0L15,41c-0.3,0.6-0.4,1-0.5,1.2
					c-0.1,0.3,0,0.4,0.5,0.6L14.9,43l-1.7-0.7l0.1-0.2c0.4,0.1,0.5,0.1,0.7-0.1c0.1-0.2,0.3-0.6,0.6-1.2l0.7-1.4
					c0.4-0.9,0.4-1-0.2-1.3l0.1-0.2L16.5,38.4z"/>
				<path d="M24.4,43.7c-0.1,0.4-0.6,0.7-1,0.5c-0.4-0.1-0.7-0.6-0.5-1.1c0.1-0.4,0.6-0.7,1-0.5C24.3,42.8,24.5,43.3,24.4,43.7z"/>
				<path d="M27.9,39.8c0.8-0.3,1.6-0.4,2.2-0.2c0.4,0.2,0.9,0.6,1.2,1.2c0.7,1.7-0.4,3-2,3.7l-1.7,0.7L27.5,45
					c0.6-0.3,0.6-0.3,0.3-1.1l-1-2.5c-0.3-0.8-0.4-0.8-0.9-0.6l-0.1-0.2L27.9,39.8z M28.6,43.6c0.3,0.6,0.4,0.7,0.9,0.5
					c1.1-0.5,1.4-1.6,0.9-2.7c-0.6-1.5-1.6-1.7-2.7-1.2c-0.2,0.1-0.4,0.2-0.4,0.3c0,0.1,0,0.2,0.1,0.4L28.6,43.6z"/>
				<path d="M33.4,37.3c0.1,0.1,0.3,0.6,0.6,1l-0.2,0.1c-0.2-0.3-0.4-0.4-0.6-0.5c-0.2-0.1-0.4,0-0.8,0.2l-0.3,0.2
					c-0.3,0.1-0.3,0.1-0.1,0.4l0.7,1.4l0.6-0.3c0.6-0.3,0.6-0.3,0.4-0.9l0.2-0.1l0.7,1.4l-0.2,0.1c-0.3-0.5-0.4-0.5-0.9-0.2
					l-0.6,0.3l0.6,1.1c0.2,0.4,0.3,0.6,0.5,0.6c0.2,0,0.4-0.1,0.7-0.2c0.3-0.2,0.6-0.4,0.7-0.6c0-0.2,0-0.5,0-0.9l0.2-0.1
					c0.1,0.2,0.3,1,0.3,1.2l-3.3,1.7l-0.1-0.2c0.6-0.3,0.6-0.4,0.2-1.1l-1.2-2.4c-0.4-0.7-0.5-0.8-1-0.5l-0.1-0.2L33.4,37.3z"/>
				<path d="M35.8,35.8l0.1,0.2c-0.5,0.3-0.5,0.4-0.1,1.1l1.4,2.3c0.4,0.7,0.5,0.7,1,0.5l0.1,0.2l-1.8,1.1L36.4,41
					c0.5-0.4,0.5-0.4,0.1-1.1l-1.4-2.3c-0.4-0.7-0.5-0.7-1-0.4L34,37L35.8,35.8z"/>
				<path d="M39.7,35.7c0.3,0.4,0.2,0.9-0.1,1.2c-0.4,0.3-0.9,0.2-1.2-0.1c-0.3-0.4-0.2-0.9,0.1-1.2C38.9,35.3,39.4,35.4,39.7,35.7z
					"/>
				<g>
					<path d="M44.8,30.9c0.3,0.1,0.5,0.2,0.6,0.2c0,0.5,0,1.1-0.2,1.7c-0.5,1.6-1.8,2.4-3.2,1.9c-1.6-0.5-2.1-2.1-1.6-3.5
						c0.2-0.6,0.5-1.1,0.6-1.3c0.2,0.1,0.6,0.1,1.2,0.3l0,0.2c-1-0.1-1.3,0.4-1.5,1c-0.3,1,0.2,1.9,1.5,2.3c1.1,0.4,2.4,0.3,2.8-1.1
						c0.1-0.2,0.1-0.4,0.1-0.5c0-0.2-0.1-0.3-0.4-0.3l-0.6-0.2c-0.5-0.2-0.5-0.1-0.8,0.6L43,32.1l0.6-2l0.2,0.1
						c-0.1,0.4,0,0.4,0.5,0.6L44.8,30.9z"/>
					<path d="M41.4,26.9l0.2,0c0,0.6,0,0.7,0.8,0.8l2.6,0.4c0.4,0.1,0.6,0,0.8-0.1c0.1-0.1,0.2-0.4,0.2-0.6c0-0.3,0.1-1.3,0-1.4
						c-0.1-0.1-0.4-0.3-0.7-0.5l0.1-0.2c0.2,0.1,1,0.4,1.2,0.4l-0.6,4.1l-0.2,0c0-0.6,0-0.7-0.8-0.8l-2.6-0.4
						c-0.8-0.1-0.9-0.1-1,0.5l-0.2,0L41.4,26.9z"/>
					<path d="M44.1,20.1c1.6,0.1,2.6,1.3,2.5,2.7c-0.1,1.5-1.3,2.4-2.6,2.3c-1.2-0.1-2.6-1-2.4-2.8C41.6,21,42.7,20,44.1,20.1z
						 M43.8,24.2c1.4,0.1,2.4-0.4,2.5-1.5c0.1-0.8-0.6-1.4-2-1.5c-1.6-0.1-2.5,0.5-2.5,1.5C41.8,23.4,42.5,24.1,43.8,24.2z"/>
					<path d="M41.6,17.9c0-0.6,0.1-0.9,0.3-1.2c0.2-0.3,0.5-0.5,1-0.5c0.6,0,1.1,0.4,1.3,1c0.2-0.1,0.7-0.4,1.1-0.7
						c0.4-0.3,0.7-0.5,0.8-0.6c0.2-0.2,0.3-0.3,0.3-0.5l0.2,0l0,0.3c-0.1,0.8-0.3,1.1-0.7,1.4c-0.3,0.2-0.8,0.5-1.2,0.7
						c-0.2,0.1-0.3,0.2-0.3,0.4v0.2h1c0.8,0,0.9-0.1,0.9-0.6h0.2v2.1h-0.2c0-0.6-0.1-0.7-0.9-0.7h-2.6c-0.8,0-0.9,0.1-0.9,0.6h-0.2
						V17.9z M44.1,18.4v-0.3c0-0.3,0-0.5-0.2-0.7c-0.2-0.3-0.6-0.4-1-0.4c-0.8,0-1,0.5-1,1c0,0.4,0,0.4,0.3,0.4H44.1z"/>
					<path d="M41.6,12.7h0.2c0,0.6,0.1,0.6,0.9,0.6h2.6c0.8,0,0.9-0.1,0.9-0.6h0.2v2.1h-0.2c0-0.6-0.1-0.7-0.9-0.7h-2.6
						c-0.8,0-0.9,0.1-0.9,0.7h-0.2V12.7z"/>
					<path d="M41.5,9.6l1.4-0.5c0.9-0.3,1.8-0.7,2.6-1c0.7-0.3,0.7-0.4,0.8-0.8h0.2v2h-0.2l0-0.2c0-0.3-0.1-0.3-0.4-0.2
						c-0.2,0.1-0.7,0.3-1.1,0.4v1.4c0.2,0.1,0.6,0.2,1,0.3c0.4,0.1,0.5,0.1,0.5-0.3l0-0.2h0.2v1.7h-0.2c-0.1-0.5-0.1-0.6-0.8-0.8
						l-3.9-1.5L41.5,9.6z M44.4,10.6V9.4L42.8,10v0L44.4,10.6z"/>
					<path d="M41.6,5.3l3.6-1.7l-3.6-1.6V0.7h0.2c0.1,0.6,0.1,0.6,0.9,0.6l2.6-0.1c0.8,0,0.9,0,0.9-0.7h0.2v2.1h-0.2
						c-0.1-0.6-0.1-0.6-0.9-0.6l-2.9,0v0l3.9,1.7v0.2l-3.8,1.7v0l1.9,0.1c0.7,0,1.1,0,1.3,0c0.3,0,0.3-0.2,0.4-0.7h0.2v1.8h-0.2
						c0-0.4-0.1-0.5-0.4-0.6c-0.2,0-0.7-0.1-1.4-0.1L43,6.1c-1-0.1-1.1,0-1.1,0.7h-0.2V5.3z"/>
				</g>
			</g>
			<g>
				<path d="M23.8,15.2"/>
				<g>
					<path d="M39,0.9v24.5c0,9-15.2,12.8-15.2,12.8S8.5,34.4,8.5,25.4V0.9H39z"/>
				</g>
				<path class="st2" d="M9.4,9.4l0.2-1H11v4.5H9.8V9.4H9.4z"/>
				<path class="st2" d="M14.9,9.5c0,0.5-0.3,0.9-0.7,1v0c0.5,0.2,0.9,0.6,0.9,1.2c0,0.9-0.9,1.4-1.7,1.4c-0.8,0-1.7-0.4-1.7-1.4
					c0-0.6,0.4-1,0.9-1.2v0c-0.4-0.1-0.7-0.5-0.7-1c0-0.9,0.8-1.3,1.5-1.3C14.2,8.2,14.9,8.6,14.9,9.5z M12.9,9.5
					c0,0.3,0.2,0.5,0.5,0.5s0.5-0.2,0.5-0.5c0-0.3-0.2-0.5-0.5-0.5S12.9,9.3,12.9,9.5z M12.9,11.6c0,0.3,0.2,0.5,0.5,0.5
					c0.3,0,0.5-0.2,0.5-0.5c0-0.3-0.2-0.6-0.5-0.6C13.1,11,12.9,11.3,12.9,11.6z"/>
				<path class="st2" d="M15.7,9.5V8.4h3.7l-2.5,4.5h-1.4l2-3.4H15.7z"/>
				<path class="st2" d="M23.1,10.6c0,1.1-0.5,2.4-1.8,2.4c-1.3,0-1.8-1.2-1.8-2.4s0.6-2.4,1.8-2.4C22.5,8.3,23.1,9.5,23.1,10.6z
					 M20.5,10.6c0,0.4,0.1,1.4,0.7,1.4c0.6,0,0.7-0.9,0.7-1.4c0-0.4-0.1-1.4-0.7-1.4C20.6,9.3,20.5,10.2,20.5,10.6z"/>
				<g>
					<g>
						<path class="st2" d="M11.8,20.3c0,0,0.5,0.3-0.4,2.3c-0.2,0.4-0.9,1.8,0,2.8c0.6,0.7,1.6,0.4,1.6,0.4c0.1,0.4,0.1,0.6,0.1,0.6
							h-0.7c-0.7,0-0.7,0.8-0.7,0.8v3.1l0.5,0.5h1.7c0-0.8-0.9-1.1-0.9-1.1v-1.3h1.5c0.8-0.1,1.3-1.7,1.3-1.7l0.6,0.1
							c0,0.1-0.9,1.7-0.9,1.7l1.8,1.7v0.5h2c0.1-0.5-0.9-0.9-0.9-0.9l-1.2-1.3c-0.2-0.2,0-0.3,0.2-0.4c0.2-0.1,0.4-0.1,0.7-0.2
							c0.3-0.1,1.4-0.8,0.9-2.2c-0.5-1.3-2-0.8-2-1c0-0.2,0.8-2.1,0.8-2.1l-0.7-1l0.8,0.5l2.1-0.4c0.2,1.8,1,1.3,1,1.3v-1.3
							c0,0,0-0.9-0.8-1.1c-0.9-0.3-1.6-0.1-1.9-0.2c-0.3-0.1-0.2-0.3-0.2-0.3l1.2,0l1.1-0.9l0.6-0.1c1.1-0.2,0.7-1.1,0.7-1.1
							s-1,0-1.6,0c-0.6,0-2.1,1.1-2.1,1.1S17.8,18,19,17.5c1.2-0.4,0.9-0.8,0.9-0.8l-1.1,0.4c0,0-0.1-0.1,0.1-0.4
							c0.1-0.2,1-0.5,1-0.5c0.7-0.3,0.5-0.8,0.5-0.8l-1.2,0.1c-0.3-0.3-0.3-0.3-0.7-0.4c-0.4-0.1-1,0.5-1,0.3
							c0.1-0.2,0.1-0.8,0.2-1.3C17.7,13.6,16,16,16,16c-2.1,4.1-1.5,6.9-1.5,6.9c-1.4,0.7-1.4,2.2-1.4,1.8c0-2.3,0.8-2.2,0.7-3.6
							c0-1.5-1.6-1.3-1.6-1.3c-0.6,0-0.8,0.4-0.8,0.4S11.7,20.1,11.8,20.3z"/>
						<polygon class="st3" points="18,15.9 18.8,15.9 18.6,15.6 						"/>
					</g>
					<path class="st2" d="M23.8,30.9c0,0-1.2,0.1-2.3-1c-1-1.1-1-2.3-1-2.3v-2.4c0,0-0.3-0.1-0.3-0.4c0-0.4,0.4-0.3,0.4-0.3h0.8
						c0,0.8,0.5,0.7,0.5,0.7c0.5,0,0.4-0.7,0.4-0.7h1.6h0h1.6c0,0-0.1,0.7,0.4,0.7c0,0,0.5,0.1,0.5-0.7H27c0,0,0.4-0.1,0.4,0.3
						c0,0.3-0.3,0.4-0.3,0.4v2.4c0,0,0,1.3-1,2.3C25,31,23.8,30.9,23.8,30.9L23.8,30.9z"/>
					<g>
						<path class="st2" d="M35.7,20.3c0,0-0.5,0.3,0.4,2.3c0.2,0.4,0.9,1.8,0,2.8c-0.6,0.7-1.6,0.4-1.6,0.4
							c-0.1,0.4-0.1,0.6-0.1,0.6h0.7c0.7,0,0.7,0.8,0.7,0.8v3.1l-0.5,0.5h-1.7c0-0.8,0.9-1.1,0.9-1.1v-1.3H33
							c-0.8-0.1-1.3-1.7-1.3-1.7l-0.6,0.1c0,0.1,0.9,1.7,0.9,1.7l-1.8,1.7v0.5h-2c-0.1-0.5,0.9-0.9,0.9-0.9l1.2-1.3
							c0.2-0.2,0-0.3-0.2-0.4c-0.2-0.1-0.4-0.1-0.7-0.2c-0.3-0.1-1.4-0.8-0.9-2.2c0.5-1.3,2-0.8,2-1c0-0.2-0.8-2.1-0.8-2.1l0.7-1
							l-0.8,0.5l-2.1-0.4c-0.2,1.8-1,1.3-1,1.3v-1.3c0,0,0-0.9,0.8-1.1c0.9-0.3,1.6-0.1,1.9-0.2c0.3-0.1,0.2-0.3,0.2-0.3l-1.2,0
							L27,19.2l-0.6-0.1c-1.1-0.2-0.7-1.1-0.7-1.1s1,0,1.6,0c0.6,0,2.1,1.1,2.1,1.1s0.2-1.3-0.9-1.7c-1.2-0.4-0.9-0.8-0.9-0.8
							l1.1,0.4c0,0,0.1-0.1-0.1-0.4c-0.1-0.2-1-0.5-1-0.5c-0.7-0.3-0.5-0.8-0.5-0.8l1.2,0.1c0.3-0.3,0.3-0.3,0.7-0.4
							c0.4-0.1,1,0.5,1,0.3c-0.1-0.2-0.1-0.8-0.2-1.3c-0.1-0.5,1.6,1.9,1.6,1.9c2.1,4.1,1.5,6.9,1.5,6.9c1.4,0.7,1.4,2.2,1.4,1.8
							c0-2.3-0.8-2.2-0.7-3.6c0-1.5,1.6-1.3,1.6-1.3c0.6,0,0.8,0.4,0.8,0.4S35.8,20.1,35.7,20.3z"/>
						<polygon class="st3" points="29.6,15.9 28.7,15.9 28.9,15.6 						"/>
					</g>
					<path class="st2" d="M23.9,21.8l0-6.2l0,0c0.1-0.1,0.2-0.2,0.2-0.3c0-0.2-0.1-0.3-0.3-0.3c0,0,0,0,0,0c0,0,0,0,0,0
						c-0.2,0-0.3,0.1-0.3,0.3c0,0.1,0.1,0.2,0.2,0.3l0,0l0,6.2l-2,2.1v0.7h0.3l0-0.5l1.9-2l1.9,2l0,0.5H26v-0.7L23.9,21.8z"/>
				</g>
				<g>
					<polygon class="st2" points="23.8,0.9 23.8,2.9 26,0.9 					"/>
					<polygon class="st2" points="37,12.9 39.1,12.9 39.1,10.9 					"/>
					<polygon class="st2" points="28.1,0.9 23.8,4.9 23.8,6.9 30.3,0.9 					"/>
					<polygon class="st2" points="32.5,0.9 23.8,8.9 23.8,10.9 34.7,0.9 					"/>
					<polygon class="st2" points="36.9,0.9 23.8,13 26,13 39,0.9 					"/>
					<polygon class="st2" points="28.1,13 30.3,13 39,4.9 39,2.9 					"/>
					<polygon class="st2" points="32.5,13 34.7,13 39,8.9 39,6.9 					"/>
				</g>
			</g>
		</g>
		<g>
			<g>
				<path d="M54.5,26.9v-1.3c3.9-0.2,4.2-0.5,4.2-4.9V7.1c0-4.4-0.3-4.6-3.9-4.8V0.9h12.5v1.3C63.4,2.5,63,2.7,63,7.1v13.8
					c0,2.3,0.3,3.4,1.1,3.8c0.8,0.4,2,0.5,4,0.5c2.2,0,4-0.4,4.9-1.5c0.7-0.7,1.3-2,1.9-3.9l1.5,0.2c-0.3,1.3-1.1,5.8-1.5,6.9H54.5z
					"/>
				<path d="M76.8,14.5c0-9.8,7.4-14.3,13.3-14.3c8.1,0,13.3,5.9,13.3,13.4c0,9.2-6.7,14-13.2,14C81.5,27.6,76.8,20.8,76.8,14.5z
					 M90.6,25.9c4.3,0,7.7-2.9,7.7-11.1C98.3,8.1,95.2,2,89.6,2c-4.5,0-7.8,4-7.8,11.1C81.8,20.7,85.1,25.9,90.6,25.9z"/>
				<path d="M108.9,26.9v-1.3c4-0.3,4.3-0.6,4.3-4.8v-3.6c0-1.1-0.1-1.5-0.8-2.7c-1.2-2.2-2.7-4.8-5.3-9.3c-1.5-2.6-1.8-2.6-4.4-2.9
					V0.9h11.2v1.3l-1.7,0.2c-1.3,0.2-1.3,0.5-0.8,1.7c0.3,0.6,3.9,7,5.2,9.3c1.7-3.1,3.5-7,4.4-8.9c0.7-1.6,0.6-1.9-0.9-2l-1.6-0.2
					V0.9h9.9v1.3c-3,0.3-3.2,0.7-4.8,3c-1.5,2.3-3.2,5.1-5,8.4c-0.8,1.6-0.9,2-0.9,2.9v4.2c0,4.3,0.3,4.5,4.5,4.8v1.3H108.9z"/>
				<path d="M126.8,14.5c0-9.8,7.4-14.3,13.3-14.3c8.1,0,13.3,5.9,13.3,13.4c0,9.2-6.7,14-13.2,14C131.5,27.6,126.8,20.8,126.8,14.5
					z M140.6,25.9c4.3,0,7.7-2.9,7.7-11.1c0-6.6-3.1-12.8-8.7-12.8c-4.5,0-7.8,4-7.8,11.1C131.8,20.7,135.1,25.9,140.6,25.9z"/>
				<path d="M155.3,26.9v-1.3c3.9-0.2,4.2-0.5,4.2-4.9V7.1c0-4.4-0.3-4.6-3.9-4.8V0.9h12.5v1.3c-3.9,0.2-4.2,0.5-4.2,4.8v13.8
					c0,2.3,0.3,3.4,1.1,3.8c0.8,0.4,2,0.5,4,0.5c2.2,0,4-0.4,4.9-1.5c0.7-0.7,1.3-2,1.9-3.9l1.5,0.2c-0.3,1.3-1.1,5.8-1.5,6.9H155.3
					z"/>
				<path d="M193.6,25.6l1.1-0.1c1.6-0.2,2.1-0.6,1-3.4l-1.9-4.7H186c-0.4,0.9-1.3,3.7-1.9,5.4c-0.7,2-0.2,2.6,1.5,2.7l1.3,0.1v1.3
					H177v-1.3c2.5-0.3,3.4-0.5,5-4.5l8.3-20.5l1.4-0.4l8.3,21.5c1.3,3.4,2.4,3.7,4.9,3.8v1.3h-11.3V25.6z M186.6,15.4h6.5l-3.2-8.9
					h-0.1L186.6,15.4z"/>
			</g>
			<g>
				<path d="M54.5,32.2h1.8v5.3c0,0.6,0.1,1,0.2,1.3c0.2,0.5,0.7,0.7,1.4,0.7c0.7,0,1.2-0.2,1.4-0.7c0.1-0.3,0.2-0.7,0.2-1.3v-5.3
					h1.8v5.3c0,0.9-0.1,1.6-0.4,2.1c-0.5,0.9-1.5,1.4-3,1.4c-1.5,0-2.5-0.5-3-1.4c-0.3-0.5-0.4-1.2-0.4-2.1V32.2z"/>
				<path d="M64.5,32.2h1.9l3.4,6v-6h1.7v8.7h-1.8l-3.5-6.1v6.1h-1.7V32.2z"/>
				<path d="M76.5,40.9h-1.8v-8.7h1.8V40.9z"/>
				<path d="M84.7,32.2h1.9l-2.9,8.7h-1.7L79,32.2h1.9l1.9,6.6L84.7,32.2z"/>
				<path d="M95,33.7h-4.5v1.8h4.2v1.5h-4.2v2.2h4.7v1.6h-6.5v-8.7H95V33.7z"/>
				<path d="M103.4,32.4c0.3,0.1,0.6,0.3,0.8,0.6c0.2,0.2,0.3,0.5,0.4,0.7c0.1,0.3,0.2,0.6,0.2,0.9c0,0.4-0.1,0.8-0.3,1.2
					c-0.2,0.4-0.5,0.7-1,0.8c0.4,0.2,0.7,0.4,0.8,0.7c0.2,0.3,0.2,0.7,0.2,1.4v0.6c0,0.4,0,0.7,0,0.8c0,0.2,0.2,0.4,0.3,0.5v0.2h-2
					c-0.1-0.2-0.1-0.3-0.1-0.5c0-0.2-0.1-0.5-0.1-0.7l0-0.8c0-0.6-0.1-0.9-0.3-1.1c-0.2-0.2-0.5-0.3-1-0.3h-1.7v3.4h-1.7v-8.7h4.1
					C102.6,32.2,103.1,32.3,103.4,32.4z M99.7,33.7V36h1.9c0.4,0,0.7,0,0.9-0.1c0.3-0.2,0.5-0.5,0.5-1c0-0.5-0.2-0.9-0.5-1.1
					c-0.2-0.1-0.5-0.2-0.8-0.2H99.7z"/>
				<path d="M108.7,38.2c0.1,0.4,0.2,0.7,0.3,0.9c0.3,0.4,0.8,0.5,1.5,0.5c0.4,0,0.8,0,1.1-0.1c0.5-0.2,0.8-0.5,0.8-1
					c0-0.3-0.1-0.5-0.4-0.7c-0.2-0.2-0.6-0.3-1.2-0.4l-0.9-0.2c-0.9-0.2-1.5-0.4-1.9-0.7c-0.6-0.4-0.9-1-0.9-1.9
					c0-0.8,0.3-1.4,0.8-1.9c0.6-0.5,1.4-0.8,2.5-0.8c0.9,0,1.7,0.2,2.3,0.7c0.6,0.5,1,1.2,1,2.1h-1.7c0-0.5-0.3-0.9-0.7-1.1
					c-0.3-0.1-0.6-0.2-1.1-0.2c-0.5,0-0.9,0.1-1.1,0.3c-0.3,0.2-0.4,0.4-0.4,0.8c0,0.3,0.1,0.5,0.4,0.7c0.2,0.1,0.6,0.2,1.1,0.4
					l1.5,0.4c0.7,0.2,1.2,0.4,1.5,0.6c0.5,0.4,0.8,1,0.8,1.8c0,0.8-0.3,1.4-0.9,2c-0.6,0.5-1.5,0.8-2.6,0.8c-1.1,0-2-0.3-2.7-0.8
					c-0.6-0.5-1-1.2-1-2.1H108.7z"/>
				<path d="M118.6,40.9h-1.8v-8.7h1.8V40.9z"/>
				<path d="M128.3,32.2v1.5h-2.6v7.1h-1.8v-7.1h-2.6v-1.5H128.3z"/>
				<path d="M135,32.2h2l-2.9,5.4v3.2h-1.8v-3.2l-3-5.4h2.1l1.8,3.8L135,32.2z"/>
				<path d="M144.6,33.1c0.7-0.7,1.6-1.1,2.6-1.1c1.4,0,2.5,0.5,3.1,1.4c0.4,0.5,0.6,1.1,0.6,1.6h-1.8c-0.1-0.4-0.3-0.7-0.4-0.9
					c-0.3-0.4-0.8-0.6-1.4-0.6c-0.6,0-1.1,0.3-1.5,0.8c-0.4,0.5-0.6,1.3-0.6,2.3c0,1,0.2,1.7,0.6,2.2c0.4,0.5,0.9,0.7,1.5,0.7
					c0.6,0,1.1-0.2,1.4-0.6c0.2-0.2,0.3-0.6,0.4-1h1.8c-0.2,0.9-0.5,1.7-1.2,2.3c-0.6,0.6-1.4,0.9-2.4,0.9c-1.2,0-2.2-0.4-2.9-1.2
					c-0.7-0.8-1-1.9-1-3.3C143.4,35.1,143.8,33.9,144.6,33.1z"/>
				<path d="M153.4,40.9v-8.7h1.8v3.3h3.3v-3.3h1.8v8.7h-1.8V37h-3.3v3.9H153.4z"/>
				<path d="M165.4,40.9h-1.8v-8.7h1.8V40.9z"/>
				<path d="M169.4,33.1c0.7-0.7,1.6-1.1,2.6-1.1c1.4,0,2.5,0.5,3.1,1.4c0.4,0.5,0.6,1.1,0.6,1.6h-1.8c-0.1-0.4-0.3-0.7-0.4-0.9
					c-0.3-0.4-0.8-0.6-1.4-0.6c-0.6,0-1.1,0.3-1.5,0.8c-0.4,0.5-0.6,1.3-0.6,2.3c0,1,0.2,1.7,0.6,2.2c0.4,0.5,0.9,0.7,1.5,0.7
					c0.6,0,1.1-0.2,1.4-0.6c0.2-0.2,0.3-0.6,0.4-1h1.8c-0.2,0.9-0.5,1.7-1.2,2.3c-0.6,0.6-1.4,0.9-2.4,0.9c-1.2,0-2.2-0.4-2.9-1.2
					c-0.7-0.8-1-1.9-1-3.3C168.2,35.1,168.6,33.9,169.4,33.1z"/>
				<path d="M180,32.2h2l3,8.7h-1.9l-0.6-1.8h-3.2l-0.6,1.8h-1.9L180,32.2z M179.9,37.6h2.2l-1.1-3.4L179.9,37.6z"/>
				<path d="M192.6,34.9c-0.1-0.6-0.5-1-1-1.2c-0.3-0.1-0.6-0.2-1-0.2c-0.7,0-1.3,0.3-1.7,0.8c-0.4,0.5-0.7,1.3-0.7,2.4
					c0,1.1,0.2,1.8,0.7,2.3c0.5,0.4,1,0.7,1.6,0.7c0.6,0,1.1-0.2,1.5-0.5c0.4-0.3,0.6-0.8,0.7-1.4h-2v-1.4h3.6v4.6h-1.2l-0.2-1.1
					c-0.3,0.4-0.7,0.7-0.9,0.9c-0.5,0.3-1.1,0.4-1.7,0.4c-1.1,0-2.1-0.4-2.8-1.2c-0.8-0.8-1.1-1.9-1.1-3.3c0-1.4,0.4-2.5,1.1-3.4
					c0.8-0.8,1.8-1.3,3-1.3c1.1,0,2,0.3,2.6,0.8c0.7,0.6,1,1.3,1.1,2.1H192.6z"/>
				<path d="M203.9,40.1c-0.6,0.7-1.6,1-2.8,1c-1.2,0-2.2-0.3-2.8-1c-0.9-0.8-1.3-2-1.3-3.6c0-1.6,0.4-2.8,1.3-3.6
					c0.6-0.7,1.6-1,2.8-1c1.2,0,2.2,0.3,2.8,1c0.9,0.8,1.3,2,1.3,3.6C205.2,38.1,204.7,39.3,203.9,40.1z M202.7,38.8
					c0.4-0.5,0.6-1.3,0.6-2.3c0-1-0.2-1.7-0.6-2.3c-0.4-0.5-1-0.8-1.7-0.8c-0.7,0-1.3,0.3-1.7,0.8c-0.4,0.5-0.6,1.3-0.6,2.3
					c0,1,0.2,1.7,0.6,2.3c0.4,0.5,1,0.8,1.7,0.8C201.8,39.6,202.3,39.3,202.7,38.8z"/>
			</g>
		</g>
	</g>
</g>
<g id="LUC_x5F_stacked_x5F_color" class="st0">
	<path class="st4" d="M23.9,15.2"/>
	<g class="st1">
		<g>
			<g>
				<path class="st5" d="M5.9,3.3L4.5,3.8C3.6,4.2,2.7,4.5,2,4.8C1.3,5,1.2,5.1,1.2,5.6H1v-2h0.2l0,0.2c0,0.3,0.1,0.3,0.4,0.2
					c0.2-0.1,0.7-0.3,1.1-0.4V2.2C2.5,2.1,2.1,2,1.7,1.9C1.3,1.7,1.2,1.8,1.2,2.1l0,0.2H1V0.7h0.2C1.2,1.1,1.3,1.2,2,1.5L5.9,3
					L5.9,3.3z M3,2.3v1.2l1.7-0.6v0L3,2.3z"/>
				<path class="st5" d="M5.9,8.2c0,0.8-0.2,1.6-0.7,2.1c-0.3,0.3-0.9,0.6-1.6,0.6C1.8,10.9,1,9.5,1,7.7V5.9h0.2
					c0,0.6,0.1,0.7,0.9,0.7h2.6c0.8,0,0.9-0.1,0.9-0.6h0.2V8.2z M2.1,7.4c-0.7,0-0.8,0.1-0.8,0.7c0,1.3,0.9,1.9,2.1,1.9
					c1.6,0,2.2-0.8,2.2-2c0-0.3,0-0.4-0.1-0.5c0,0-0.2,0-0.4,0H2.1z"/>
				<path class="st5" d="M3.5,14.9c-0.5,0-0.8-0.4-0.8-0.8c0-0.5,0.4-0.8,0.8-0.8c0.5,0,0.8,0.4,0.8,0.8C4.3,14.5,3.9,14.9,3.5,14.9
					z"/>
				<path class="st5" d="M5.9,18.1l-3.6,1.7l3.6,1.6v1.4H5.6c-0.1-0.6-0.1-0.6-0.9-0.6l-2.6,0.1c-0.8,0-0.9,0-0.9,0.7H1v-2.1h0.2
					c0.1,0.6,0.1,0.6,0.9,0.6l2.9,0v0l-3.9-1.7v-0.2l3.8-1.7v0l-1.9-0.1c-0.7,0-1.1,0-1.3,0c-0.3,0-0.3,0.2-0.4,0.7H1v-1.8h0.2
					c0,0.4,0.1,0.5,0.4,0.6c0.2,0,0.7,0.1,1.4,0.1l1.5,0.1c1,0.1,1.1,0,1.1-0.7h0.2V18.1z"/>
				<path class="st5" d="M6,25.9l-1.4,0.5c-0.9,0.4-1.8,0.7-2.6,1c-0.7,0.3-0.7,0.4-0.8,0.8l-0.2,0l0-2l0.2,0l0,0.2
					c0,0.3,0.1,0.3,0.4,0.2c0.2-0.1,0.7-0.3,1.1-0.4l0-1.4c-0.2-0.1-0.6-0.2-1-0.3c-0.4-0.1-0.5-0.1-0.5,0.3l0,0.2L1,25l0-1.7l0.2,0
					c0.1,0.5,0.1,0.6,0.8,0.8l3.9,1.5L6,25.9z M3,25l0,1.2l1.6-0.6v0L3,25z"/>
				<path class="st5" d="M5,28.3c0.8-0.2,0.8-0.3,0.7-0.9l0.2-0.1l0.6,2l-0.2,0.1c-0.2-0.5-0.3-0.5-1-0.3l-2.3,0.7
					c-0.8,0.2-1.4,0.4-2.1-0.1c-0.2-0.2-0.5-0.4-0.7-0.7l0.2-0.1c0.4,0.4,0.8,0.5,1.2,0.5c0.4,0,0.8-0.2,1.3-0.3L5,28.3z"/>
				<path class="st5" d="M6.6,34.8C5.2,35.6,3.7,35.3,3,34c-0.8-1.3-0.4-2.7,0.7-3.4c1-0.7,2.7-0.7,3.6,0.8C8,32.5,7.8,34,6.6,34.8z
					 M4.4,31.3c-1.1,0.7-1.7,1.8-1.1,2.7c0.4,0.7,1.3,0.8,2.5,0c1.3-0.9,1.7-1.9,1.2-2.7C6.5,30.7,5.6,30.6,4.4,31.3z"/>
				<path class="st5" d="M10.1,34.3c0.4,0.4,0.7,0.7,0.8,1c0.1,0.3,0.1,0.7-0.2,1.1c-0.4,0.5-1,0.6-1.6,0.4C9,37,8.9,37.6,8.9,38
					c0,0.5-0.1,0.8-0.1,1c0,0.3,0,0.4,0.2,0.6l-0.1,0.1l-0.2-0.2C8,39,7.9,38.7,8,38.1c0-0.4,0.2-1,0.2-1.4c0-0.2,0-0.4-0.2-0.5
					l-0.2-0.2l-0.6,0.8c-0.5,0.6-0.5,0.7-0.1,1.1L7,38.1l-1.6-1.4l0.1-0.2C6,37,6.1,37,6.6,36.3l1.7-2c0.5-0.6,0.5-0.7,0.1-1.1
					L8.5,33L10.1,34.3z M8.1,35.9l0.2,0.2c0.2,0.2,0.4,0.3,0.7,0.3c0.4,0,0.7-0.2,0.9-0.5c0.5-0.6,0.3-1.2-0.1-1.5
					c-0.3-0.2-0.3-0.2-0.5,0L8.1,35.9z"/>
				<path class="st5" d="M14.8,37.6c0,0.1-0.3,0.6-0.5,1l-0.2-0.1c0.1-0.4,0.1-0.6,0.1-0.7c0-0.2-0.2-0.3-0.6-0.6L13.2,37
					c-0.2-0.1-0.3-0.1-0.4,0.1L12,38.5l0.6,0.3c0.6,0.3,0.6,0.3,0.9-0.2l0.2,0.1L13,40.2L12.7,40c0.2-0.6,0.2-0.6-0.3-0.9l-0.6-0.3
					l-0.6,1.1c-0.2,0.4-0.3,0.6-0.2,0.7c0.1,0.1,0.3,0.3,0.6,0.4c0.3,0.2,0.6,0.3,0.9,0.2c0.2-0.1,0.4-0.2,0.7-0.5l0.2,0.2
					c-0.2,0.2-0.7,0.8-0.8,1l-3.2-1.8l0.1-0.2c0.6,0.3,0.7,0.3,1.1-0.5l1.3-2.3c0.4-0.7,0.4-0.8-0.1-1.1l0.1-0.2L14.8,37.6z"/>
				<path class="st5" d="M16.5,38.4l0.2,4l2.8-2.8l1.3,0.5l-0.1,0.2c-0.6-0.2-0.6-0.2-0.9,0.6l-0.9,2.5c-0.3,0.8-0.3,0.8,0.3,1.1
					l-0.1,0.2l-1.9-0.8l0.1-0.2c0.6,0.2,0.6,0.2,0.9-0.6l1-2.7l0,0l-3,3l-0.2-0.1l-0.1-4.1l0,0L15,41c-0.3,0.6-0.4,1-0.5,1.2
					c-0.1,0.3,0,0.4,0.5,0.6L14.9,43l-1.7-0.7l0.1-0.2c0.4,0.1,0.5,0.1,0.7-0.1c0.1-0.2,0.3-0.6,0.6-1.2l0.7-1.4
					c0.4-0.9,0.4-1-0.2-1.3l0.1-0.2L16.5,38.4z"/>
				<path class="st5" d="M24.4,43.7c-0.1,0.4-0.6,0.7-1,0.5c-0.4-0.1-0.7-0.6-0.5-1.1c0.1-0.4,0.6-0.7,1-0.5
					C24.3,42.8,24.5,43.3,24.4,43.7z"/>
				<path class="st5" d="M27.9,39.8c0.8-0.3,1.6-0.4,2.2-0.2c0.4,0.2,0.9,0.6,1.2,1.2c0.7,1.7-0.4,3-2,3.7l-1.7,0.7L27.5,45
					c0.6-0.3,0.6-0.3,0.3-1.1l-1-2.5c-0.3-0.8-0.4-0.8-0.9-0.6l-0.1-0.2L27.9,39.8z M28.6,43.6c0.3,0.6,0.4,0.7,0.9,0.5
					c1.1-0.5,1.4-1.6,0.9-2.7c-0.6-1.5-1.6-1.7-2.7-1.2c-0.2,0.1-0.4,0.2-0.4,0.3c0,0.1,0,0.2,0.1,0.4L28.6,43.6z"/>
				<path class="st5" d="M33.4,37.3c0.1,0.1,0.3,0.6,0.6,1l-0.2,0.1c-0.2-0.3-0.4-0.4-0.6-0.5c-0.2-0.1-0.4,0-0.8,0.2l-0.3,0.2
					c-0.3,0.1-0.3,0.1-0.1,0.4l0.7,1.4l0.6-0.3c0.6-0.3,0.6-0.3,0.4-0.9l0.2-0.1l0.7,1.4l-0.2,0.1c-0.3-0.5-0.4-0.5-0.9-0.2
					l-0.6,0.3l0.6,1.1c0.2,0.4,0.3,0.6,0.5,0.6c0.2,0,0.4-0.1,0.7-0.2c0.3-0.2,0.6-0.4,0.7-0.6c0-0.2,0-0.5,0-0.9l0.2-0.1
					c0.1,0.2,0.3,1,0.3,1.2l-3.3,1.7l-0.1-0.2c0.6-0.3,0.6-0.4,0.2-1.1l-1.2-2.4c-0.4-0.7-0.5-0.8-1-0.5l-0.1-0.2L33.4,37.3z"/>
				<path class="st5" d="M35.8,35.8l0.1,0.2c-0.5,0.3-0.5,0.4-0.1,1.1l1.4,2.3c0.4,0.7,0.5,0.7,1,0.5l0.1,0.2l-1.8,1.1L36.4,41
					c0.5-0.4,0.5-0.4,0.1-1.1l-1.4-2.3c-0.4-0.7-0.5-0.7-1-0.4L34,37L35.8,35.8z"/>
				<path class="st5" d="M39.7,35.7c0.3,0.4,0.2,0.9-0.1,1.2c-0.4,0.3-0.9,0.2-1.2-0.1c-0.3-0.4-0.2-0.9,0.1-1.2
					C38.9,35.3,39.4,35.4,39.7,35.7z"/>
				<g>
					<path class="st5" d="M44.8,30.9c0.3,0.1,0.5,0.2,0.6,0.2c0,0.5,0,1.1-0.2,1.7c-0.5,1.6-1.8,2.4-3.2,1.9
						c-1.6-0.5-2.1-2.1-1.6-3.5c0.2-0.6,0.5-1.1,0.6-1.3c0.2,0.1,0.6,0.1,1.2,0.3l0,0.2c-1-0.1-1.3,0.4-1.5,1
						c-0.3,1,0.2,1.9,1.5,2.3c1.1,0.4,2.4,0.3,2.8-1.1c0.1-0.2,0.1-0.4,0.1-0.5c0-0.2-0.1-0.3-0.4-0.3l-0.6-0.2
						c-0.5-0.2-0.5-0.1-0.8,0.6L43,32.1l0.6-2l0.2,0.1c-0.1,0.4,0,0.4,0.5,0.6L44.8,30.9z"/>
					<path class="st5" d="M41.4,26.9l0.2,0c0,0.6,0,0.7,0.8,0.8l2.6,0.4c0.4,0.1,0.6,0,0.8-0.1c0.1-0.1,0.2-0.4,0.2-0.6
						c0-0.3,0.1-1.3,0-1.4c-0.1-0.1-0.4-0.3-0.7-0.5l0.1-0.2c0.2,0.1,1,0.4,1.2,0.4l-0.6,4.1l-0.2,0c0-0.6,0-0.7-0.8-0.8l-2.6-0.4
						c-0.8-0.1-0.9-0.1-1,0.5l-0.2,0L41.4,26.9z"/>
					<path class="st5" d="M44.1,20.1c1.6,0.1,2.6,1.3,2.5,2.7c-0.1,1.5-1.3,2.4-2.6,2.3c-1.2-0.1-2.6-1-2.4-2.8
						C41.6,21,42.7,20,44.1,20.1z M43.8,24.2c1.4,0.1,2.4-0.4,2.5-1.5c0.1-0.8-0.6-1.4-2-1.5c-1.6-0.1-2.5,0.5-2.5,1.5
						C41.8,23.4,42.5,24.1,43.8,24.2z"/>
					<path class="st5" d="M41.6,17.9c0-0.6,0.1-0.9,0.3-1.2c0.2-0.3,0.5-0.5,1-0.5c0.6,0,1.1,0.4,1.3,1c0.2-0.1,0.7-0.4,1.1-0.7
						c0.4-0.3,0.7-0.5,0.8-0.6c0.2-0.2,0.3-0.3,0.3-0.5l0.2,0l0,0.3c-0.1,0.8-0.3,1.1-0.7,1.4c-0.3,0.2-0.8,0.5-1.2,0.7
						c-0.2,0.1-0.3,0.2-0.3,0.4v0.2h1c0.8,0,0.9-0.1,0.9-0.6h0.2v2.1h-0.2c0-0.6-0.1-0.7-0.9-0.7h-2.6c-0.8,0-0.9,0.1-0.9,0.6h-0.2
						V17.9z M44.1,18.4v-0.3c0-0.3,0-0.5-0.2-0.7c-0.2-0.3-0.6-0.4-1-0.4c-0.8,0-1,0.5-1,1c0,0.4,0,0.4,0.3,0.4H44.1z"/>
					<path class="st5" d="M41.6,12.7h0.2c0,0.6,0.1,0.6,0.9,0.6h2.6c0.8,0,0.9-0.1,0.9-0.6h0.2v2.1h-0.2c0-0.6-0.1-0.7-0.9-0.7h-2.6
						c-0.8,0-0.9,0.1-0.9,0.7h-0.2V12.7z"/>
					<path class="st5" d="M41.5,9.6l1.4-0.5c0.9-0.3,1.8-0.7,2.6-1c0.7-0.3,0.7-0.4,0.8-0.8h0.2v2h-0.2l0-0.2c0-0.3-0.1-0.3-0.4-0.2
						c-0.2,0.1-0.7,0.3-1.1,0.4v1.4c0.2,0.1,0.6,0.2,1,0.3c0.4,0.1,0.5,0.1,0.5-0.3l0-0.2h0.2v1.7h-0.2c-0.1-0.5-0.1-0.6-0.8-0.8
						l-3.9-1.5L41.5,9.6z M44.4,10.6V9.4L42.8,10v0L44.4,10.6z"/>
					<path class="st5" d="M41.6,5.3l3.6-1.7l-3.6-1.6V0.7h0.2c0.1,0.6,0.1,0.6,0.9,0.6l2.6-0.1c0.8,0,0.9,0,0.9-0.7h0.2v2.1h-0.2
						c-0.1-0.6-0.1-0.6-0.9-0.6l-2.9,0v0l3.9,1.7v0.2l-3.8,1.7v0l1.9,0.1c0.7,0,1.1,0,1.3,0c0.3,0,0.3-0.2,0.4-0.7h0.2v1.8h-0.2
						c0-0.4-0.1-0.5-0.4-0.6c-0.2,0-0.7-0.1-1.4-0.1L43,6.1c-1-0.1-1.1,0-1.1,0.7h-0.2V5.3z"/>
				</g>
			</g>
			<g>
				<path d="M23.8,15.2"/>
				<g>
					<path class="st5" d="M39,0.9v24.5c0,9-15.2,12.8-15.2,12.8S8.5,34.4,8.5,25.4V0.9H39z"/>
				</g>
				<path class="st2" d="M9.4,9.4l0.2-1H11v4.5H9.8V9.4H9.4z"/>
				<path class="st2" d="M14.9,9.5c0,0.5-0.3,0.9-0.7,1v0c0.5,0.2,0.9,0.6,0.9,1.2c0,0.9-0.9,1.4-1.7,1.4c-0.8,0-1.7-0.4-1.7-1.4
					c0-0.6,0.4-1,0.9-1.2v0c-0.4-0.1-0.7-0.5-0.7-1c0-0.9,0.8-1.3,1.5-1.3C14.2,8.2,14.9,8.6,14.9,9.5z M12.9,9.5
					c0,0.3,0.2,0.5,0.5,0.5s0.5-0.2,0.5-0.5c0-0.3-0.2-0.5-0.5-0.5S12.9,9.3,12.9,9.5z M12.9,11.6c0,0.3,0.2,0.5,0.5,0.5
					c0.3,0,0.5-0.2,0.5-0.5c0-0.3-0.2-0.6-0.5-0.6C13.1,11,12.9,11.3,12.9,11.6z"/>
				<path class="st2" d="M15.7,9.5V8.4h3.7l-2.5,4.5h-1.4l2-3.4H15.7z"/>
				<path class="st2" d="M23.1,10.6c0,1.1-0.5,2.4-1.8,2.4c-1.3,0-1.8-1.2-1.8-2.4s0.6-2.4,1.8-2.4C22.5,8.3,23.1,9.5,23.1,10.6z
					 M20.5,10.6c0,0.4,0.1,1.4,0.7,1.4c0.6,0,0.7-0.9,0.7-1.4c0-0.4-0.1-1.4-0.7-1.4C20.6,9.3,20.5,10.2,20.5,10.6z"/>
				<g>
					<g>
						<path class="st2" d="M11.8,20.3c0,0,0.5,0.3-0.4,2.3c-0.2,0.4-0.9,1.8,0,2.8c0.6,0.7,1.6,0.4,1.6,0.4c0.1,0.4,0.1,0.6,0.1,0.6
							h-0.7c-0.7,0-0.7,0.8-0.7,0.8v3.1l0.5,0.5h1.7c0-0.8-0.9-1.1-0.9-1.1v-1.3h1.5c0.8-0.1,1.3-1.7,1.3-1.7l0.6,0.1
							c0,0.1-0.9,1.7-0.9,1.7l1.8,1.7v0.5h2c0.1-0.5-0.9-0.9-0.9-0.9l-1.2-1.3c-0.2-0.2,0-0.3,0.2-0.4c0.2-0.1,0.4-0.1,0.7-0.2
							c0.3-0.1,1.4-0.8,0.9-2.2c-0.5-1.3-2-0.8-2-1c0-0.2,0.8-2.1,0.8-2.1l-0.7-1l0.8,0.5l2.1-0.4c0.2,1.8,1,1.3,1,1.3v-1.3
							c0,0,0-0.9-0.8-1.1c-0.9-0.3-1.6-0.1-1.9-0.2c-0.3-0.1-0.2-0.3-0.2-0.3l1.2,0l1.1-0.9l0.6-0.1c1.1-0.2,0.7-1.1,0.7-1.1
							s-1,0-1.6,0c-0.6,0-2.1,1.1-2.1,1.1S17.8,18,19,17.5c1.2-0.4,0.9-0.8,0.9-0.8l-1.1,0.4c0,0-0.1-0.1,0.1-0.4
							c0.1-0.2,1-0.5,1-0.5c0.7-0.3,0.5-0.8,0.5-0.8l-1.2,0.1c-0.3-0.3-0.3-0.3-0.7-0.4c-0.4-0.1-1,0.5-1,0.3
							c0.1-0.2,0.1-0.8,0.2-1.3C17.7,13.6,16,16,16,16c-2.1,4.1-1.5,6.9-1.5,6.9c-1.4,0.7-1.4,2.2-1.4,1.8c0-2.3,0.8-2.2,0.7-3.6
							c0-1.5-1.6-1.3-1.6-1.3c-0.6,0-0.8,0.4-0.8,0.4S11.7,20.1,11.8,20.3z"/>
						<polygon class="st3" points="18,15.9 18.8,15.9 18.6,15.6 						"/>
					</g>
					<path class="st2" d="M23.8,30.9c0,0-1.2,0.1-2.3-1c-1-1.1-1-2.3-1-2.3v-2.4c0,0-0.3-0.1-0.3-0.4c0-0.4,0.4-0.3,0.4-0.3h0.8
						c0,0.8,0.5,0.7,0.5,0.7c0.5,0,0.4-0.7,0.4-0.7h1.6h0h1.6c0,0-0.1,0.7,0.4,0.7c0,0,0.5,0.1,0.5-0.7H27c0,0,0.4-0.1,0.4,0.3
						c0,0.3-0.3,0.4-0.3,0.4v2.4c0,0,0,1.3-1,2.3C25,31,23.8,30.9,23.8,30.9L23.8,30.9z"/>
					<g>
						<path class="st2" d="M35.7,20.3c0,0-0.5,0.3,0.4,2.3c0.2,0.4,0.9,1.8,0,2.8c-0.6,0.7-1.6,0.4-1.6,0.4
							c-0.1,0.4-0.1,0.6-0.1,0.6h0.7c0.7,0,0.7,0.8,0.7,0.8v3.1l-0.5,0.5h-1.7c0-0.8,0.9-1.1,0.9-1.1v-1.3H33
							c-0.8-0.1-1.3-1.7-1.3-1.7l-0.6,0.1c0,0.1,0.9,1.7,0.9,1.7l-1.8,1.7v0.5h-2c-0.1-0.5,0.9-0.9,0.9-0.9l1.2-1.3
							c0.2-0.2,0-0.3-0.2-0.4c-0.2-0.1-0.4-0.1-0.7-0.2c-0.3-0.1-1.4-0.8-0.9-2.2c0.5-1.3,2-0.8,2-1c0-0.2-0.8-2.1-0.8-2.1l0.7-1
							l-0.8,0.5l-2.1-0.4c-0.2,1.8-1,1.3-1,1.3v-1.3c0,0,0-0.9,0.8-1.1c0.9-0.3,1.6-0.1,1.9-0.2c0.3-0.1,0.2-0.3,0.2-0.3l-1.2,0
							L27,19.2l-0.6-0.1c-1.1-0.2-0.7-1.1-0.7-1.1s1,0,1.6,0c0.6,0,2.1,1.1,2.1,1.1s0.2-1.3-0.9-1.7c-1.2-0.4-0.9-0.8-0.9-0.8
							l1.1,0.4c0,0,0.1-0.1-0.1-0.4c-0.1-0.2-1-0.5-1-0.5c-0.7-0.3-0.5-0.8-0.5-0.8l1.2,0.1c0.3-0.3,0.3-0.3,0.7-0.4
							c0.4-0.1,1,0.5,1,0.3c-0.1-0.2-0.1-0.8-0.2-1.3c-0.1-0.5,1.6,1.9,1.6,1.9c2.1,4.1,1.5,6.9,1.5,6.9c1.4,0.7,1.4,2.2,1.4,1.8
							c0-2.3-0.8-2.2-0.7-3.6c0-1.5,1.6-1.3,1.6-1.3c0.6,0,0.8,0.4,0.8,0.4S35.8,20.1,35.7,20.3z"/>
						<polygon class="st3" points="29.6,15.9 28.7,15.9 28.9,15.6 						"/>
					</g>
					<path class="st2" d="M23.9,21.8l0-6.2l0,0c0.1-0.1,0.2-0.2,0.2-0.3c0-0.2-0.1-0.3-0.3-0.3c0,0,0,0,0,0c0,0,0,0,0,0
						c-0.2,0-0.3,0.1-0.3,0.3c0,0.1,0.1,0.2,0.2,0.3l0,0l0,6.2l-2,2.1v0.7h0.3l0-0.5l1.9-2l1.9,2l0,0.5H26v-0.7L23.9,21.8z"/>
				</g>
				<g>
					<polygon class="st6" points="23.8,0.9 23.8,2.9 26,0.9 					"/>
					<polygon class="st6" points="37,12.9 39.1,12.9 39.1,10.9 					"/>
					<polygon class="st6" points="28.1,0.9 23.8,4.9 23.8,6.9 30.3,0.9 					"/>
					<polygon class="st6" points="32.5,0.9 23.8,8.9 23.8,10.9 34.7,0.9 					"/>
					<polygon class="st6" points="36.9,0.9 23.8,13 26,13 39,0.9 					"/>
					<polygon class="st6" points="28.1,13 30.3,13 39,4.9 39,2.9 					"/>
					<polygon class="st6" points="32.5,13 34.7,13 39,8.9 39,6.9 					"/>
				</g>
			</g>
		</g>
		<g>
			<g>
				<path d="M54.5,26.9v-1.3c3.9-0.2,4.2-0.5,4.2-4.9V7.1c0-4.4-0.3-4.6-3.9-4.8V0.9h12.5v1.3C63.4,2.5,63,2.7,63,7.1v13.8
					c0,2.3,0.3,3.4,1.1,3.8c0.8,0.4,2,0.5,4,0.5c2.2,0,4-0.4,4.9-1.5c0.7-0.7,1.3-2,1.9-3.9l1.5,0.2c-0.3,1.3-1.1,5.8-1.5,6.9H54.5z
					"/>
				<path d="M76.8,14.5c0-9.8,7.4-14.3,13.3-14.3c8.1,0,13.3,5.9,13.3,13.4c0,9.2-6.7,14-13.2,14C81.5,27.6,76.8,20.8,76.8,14.5z
					 M90.6,25.9c4.3,0,7.7-2.9,7.7-11.1C98.3,8.1,95.2,2,89.6,2c-4.5,0-7.8,4-7.8,11.1C81.8,20.7,85.1,25.9,90.6,25.9z"/>
				<path d="M108.9,26.9v-1.3c4-0.3,4.3-0.6,4.3-4.8v-3.6c0-1.1-0.1-1.5-0.8-2.7c-1.2-2.2-2.7-4.8-5.3-9.3c-1.5-2.6-1.8-2.6-4.4-2.9
					V0.9h11.2v1.3l-1.7,0.2c-1.3,0.2-1.3,0.5-0.8,1.7c0.3,0.6,3.9,7,5.2,9.3c1.7-3.1,3.5-7,4.4-8.9c0.7-1.6,0.6-1.9-0.9-2l-1.6-0.2
					V0.9h9.9v1.3c-3,0.3-3.2,0.7-4.8,3c-1.5,2.3-3.2,5.1-5,8.4c-0.8,1.6-0.9,2-0.9,2.9v4.2c0,4.3,0.3,4.5,4.5,4.8v1.3H108.9z"/>
				<path d="M126.8,14.5c0-9.8,7.4-14.3,13.3-14.3c8.1,0,13.3,5.9,13.3,13.4c0,9.2-6.7,14-13.2,14C131.5,27.6,126.8,20.8,126.8,14.5
					z M140.6,25.9c4.3,0,7.7-2.9,7.7-11.1c0-6.6-3.1-12.8-8.7-12.8c-4.5,0-7.8,4-7.8,11.1C131.8,20.7,135.1,25.9,140.6,25.9z"/>
				<path d="M155.3,26.9v-1.3c3.9-0.2,4.2-0.5,4.2-4.9V7.1c0-4.4-0.3-4.6-3.9-4.8V0.9h12.5v1.3c-3.9,0.2-4.2,0.5-4.2,4.8v13.8
					c0,2.3,0.3,3.4,1.1,3.8c0.8,0.4,2,0.5,4,0.5c2.2,0,4-0.4,4.9-1.5c0.7-0.7,1.3-2,1.9-3.9l1.5,0.2c-0.3,1.3-1.1,5.8-1.5,6.9H155.3
					z"/>
				<path d="M193.6,25.6l1.1-0.1c1.6-0.2,2.1-0.6,1-3.4l-1.9-4.7H186c-0.4,0.9-1.3,3.7-1.9,5.4c-0.7,2-0.2,2.6,1.5,2.7l1.3,0.1v1.3
					H177v-1.3c2.5-0.3,3.4-0.5,5-4.5l8.3-20.5l1.4-0.4l8.3,21.5c1.3,3.4,2.4,3.7,4.9,3.8v1.3h-11.3V25.6z M186.6,15.4h6.5l-3.2-8.9
					h-0.1L186.6,15.4z"/>
			</g>
			<g>
				<path d="M54.5,32.2h1.8v5.3c0,0.6,0.1,1,0.2,1.3c0.2,0.5,0.7,0.7,1.4,0.7c0.7,0,1.2-0.2,1.4-0.7c0.1-0.3,0.2-0.7,0.2-1.3v-5.3
					h1.8v5.3c0,0.9-0.1,1.6-0.4,2.1c-0.5,0.9-1.5,1.4-3,1.4c-1.5,0-2.5-0.5-3-1.4c-0.3-0.5-0.4-1.2-0.4-2.1V32.2z"/>
				<path d="M64.5,32.2h1.9l3.4,6v-6h1.7v8.7h-1.8l-3.5-6.1v6.1h-1.7V32.2z"/>
				<path d="M76.5,40.9h-1.8v-8.7h1.8V40.9z"/>
				<path d="M84.7,32.2h1.9l-2.9,8.7h-1.7L79,32.2h1.9l1.9,6.6L84.7,32.2z"/>
				<path d="M95,33.7h-4.5v1.8h4.2v1.5h-4.2v2.2h4.7v1.6h-6.5v-8.7H95V33.7z"/>
				<path d="M103.4,32.4c0.3,0.1,0.6,0.3,0.8,0.6c0.2,0.2,0.3,0.5,0.4,0.7c0.1,0.3,0.2,0.6,0.2,0.9c0,0.4-0.1,0.8-0.3,1.2
					c-0.2,0.4-0.5,0.7-1,0.8c0.4,0.2,0.7,0.4,0.8,0.7c0.2,0.3,0.2,0.7,0.2,1.4v0.6c0,0.4,0,0.7,0,0.8c0,0.2,0.2,0.4,0.3,0.5v0.2h-2
					c-0.1-0.2-0.1-0.3-0.1-0.5c0-0.2-0.1-0.5-0.1-0.7l0-0.8c0-0.6-0.1-0.9-0.3-1.1c-0.2-0.2-0.5-0.3-1-0.3h-1.7v3.4h-1.7v-8.7h4.1
					C102.6,32.2,103.1,32.3,103.4,32.4z M99.7,33.7V36h1.9c0.4,0,0.7,0,0.9-0.1c0.3-0.2,0.5-0.5,0.5-1c0-0.5-0.2-0.9-0.5-1.1
					c-0.2-0.1-0.5-0.2-0.8-0.2H99.7z"/>
				<path d="M108.7,38.2c0.1,0.4,0.2,0.7,0.3,0.9c0.3,0.4,0.8,0.5,1.5,0.5c0.4,0,0.8,0,1.1-0.1c0.5-0.2,0.8-0.5,0.8-1
					c0-0.3-0.1-0.5-0.4-0.7c-0.2-0.2-0.6-0.3-1.2-0.4l-0.9-0.2c-0.9-0.2-1.5-0.4-1.9-0.7c-0.6-0.4-0.9-1-0.9-1.9
					c0-0.8,0.3-1.4,0.8-1.9c0.6-0.5,1.4-0.8,2.5-0.8c0.9,0,1.7,0.2,2.3,0.7c0.6,0.5,1,1.2,1,2.1h-1.7c0-0.5-0.3-0.9-0.7-1.1
					c-0.3-0.1-0.6-0.2-1.1-0.2c-0.5,0-0.9,0.1-1.1,0.3c-0.3,0.2-0.4,0.4-0.4,0.8c0,0.3,0.1,0.5,0.4,0.7c0.2,0.1,0.6,0.2,1.1,0.4
					l1.5,0.4c0.7,0.2,1.2,0.4,1.5,0.6c0.5,0.4,0.8,1,0.8,1.8c0,0.8-0.3,1.4-0.9,2c-0.6,0.5-1.5,0.8-2.6,0.8c-1.1,0-2-0.3-2.7-0.8
					c-0.6-0.5-1-1.2-1-2.1H108.7z"/>
				<path d="M118.6,40.9h-1.8v-8.7h1.8V40.9z"/>
				<path d="M128.3,32.2v1.5h-2.6v7.1h-1.8v-7.1h-2.6v-1.5H128.3z"/>
				<path d="M135,32.2h2l-2.9,5.4v3.2h-1.8v-3.2l-3-5.4h2.1l1.8,3.8L135,32.2z"/>
				<path d="M144.6,33.1c0.7-0.7,1.6-1.1,2.6-1.1c1.4,0,2.5,0.5,3.1,1.4c0.4,0.5,0.6,1.1,0.6,1.6h-1.8c-0.1-0.4-0.3-0.7-0.4-0.9
					c-0.3-0.4-0.8-0.6-1.4-0.6c-0.6,0-1.1,0.3-1.5,0.8c-0.4,0.5-0.6,1.3-0.6,2.3c0,1,0.2,1.7,0.6,2.2c0.4,0.5,0.9,0.7,1.5,0.7
					c0.6,0,1.1-0.2,1.4-0.6c0.2-0.2,0.3-0.6,0.4-1h1.8c-0.2,0.9-0.5,1.7-1.2,2.3c-0.6,0.6-1.4,0.9-2.4,0.9c-1.2,0-2.2-0.4-2.9-1.2
					c-0.7-0.8-1-1.9-1-3.3C143.4,35.1,143.8,33.9,144.6,33.1z"/>
				<path d="M153.4,40.9v-8.7h1.8v3.3h3.3v-3.3h1.8v8.7h-1.8V37h-3.3v3.9H153.4z"/>
				<path d="M165.4,40.9h-1.8v-8.7h1.8V40.9z"/>
				<path d="M169.4,33.1c0.7-0.7,1.6-1.1,2.6-1.1c1.4,0,2.5,0.5,3.1,1.4c0.4,0.5,0.6,1.1,0.6,1.6h-1.8c-0.1-0.4-0.3-0.7-0.4-0.9
					c-0.3-0.4-0.8-0.6-1.4-0.6c-0.6,0-1.1,0.3-1.5,0.8c-0.4,0.5-0.6,1.3-0.6,2.3c0,1,0.2,1.7,0.6,2.2c0.4,0.5,0.9,0.7,1.5,0.7
					c0.6,0,1.1-0.2,1.4-0.6c0.2-0.2,0.3-0.6,0.4-1h1.8c-0.2,0.9-0.5,1.7-1.2,2.3c-0.6,0.6-1.4,0.9-2.4,0.9c-1.2,0-2.2-0.4-2.9-1.2
					c-0.7-0.8-1-1.9-1-3.3C168.2,35.1,168.6,33.9,169.4,33.1z"/>
				<path d="M180,32.2h2l3,8.7h-1.9l-0.6-1.8h-3.2l-0.6,1.8h-1.9L180,32.2z M179.9,37.6h2.2l-1.1-3.4L179.9,37.6z"/>
				<path d="M192.6,34.9c-0.1-0.6-0.5-1-1-1.2c-0.3-0.1-0.6-0.2-1-0.2c-0.7,0-1.3,0.3-1.7,0.8c-0.4,0.5-0.7,1.3-0.7,2.4
					c0,1.1,0.2,1.8,0.7,2.3c0.5,0.4,1,0.7,1.6,0.7c0.6,0,1.1-0.2,1.5-0.5c0.4-0.3,0.6-0.8,0.7-1.4h-2v-1.4h3.6v4.6h-1.2l-0.2-1.1
					c-0.3,0.4-0.7,0.7-0.9,0.9c-0.5,0.3-1.1,0.4-1.7,0.4c-1.1,0-2.1-0.4-2.8-1.2c-0.8-0.8-1.1-1.9-1.1-3.3c0-1.4,0.4-2.5,1.1-3.4
					c0.8-0.8,1.8-1.3,3-1.3c1.1,0,2,0.3,2.6,0.8c0.7,0.6,1,1.3,1.1,2.1H192.6z"/>
				<path d="M203.9,40.1c-0.6,0.7-1.6,1-2.8,1c-1.2,0-2.2-0.3-2.8-1c-0.9-0.8-1.3-2-1.3-3.6c0-1.6,0.4-2.8,1.3-3.6
					c0.6-0.7,1.6-1,2.8-1c1.2,0,2.2,0.3,2.8,1c0.9,0.8,1.3,2,1.3,3.6C205.2,38.1,204.7,39.3,203.9,40.1z M202.7,38.8
					c0.4-0.5,0.6-1.3,0.6-2.3c0-1-0.2-1.7-0.6-2.3c-0.4-0.5-1-0.8-1.7-0.8c-0.7,0-1.3,0.3-1.7,0.8c-0.4,0.5-0.6,1.3-0.6,2.3
					c0,1,0.2,1.7,0.6,2.3c0.4,0.5,1,0.8,1.7,0.8C201.8,39.6,202.3,39.3,202.7,38.8z"/>
			</g>
		</g>
	</g>
</g>
</svg>
