<?xml version="1.0" encoding="utf-8"?>
<!-- Generator: Adobe Illustrator 27.9.5, SVG Export Plug-In . SVG Version: 9.03 Build 54986)  -->
<svg version="1.1" id="Layer_1" xmlns="http://www.w3.org/2000/svg" xmlns:xlink="http://www.w3.org/1999/xlink" x="0px" y="0px"
	 viewBox="0 0 62.3 62.3" style="enable-background:new 0 0 62.3 62.3;" xml:space="preserve">
<style type="text/css">
	.st0{fill:#5A0722;}
	.st1{fill:#FFFFFF;}
</style>
<g id="cell">
	<g>
		<circle class="st0" cx="31" cy="31" r="30"/>
		<g>
			<path class="st1" d="M24.9,14.6c-1.3,0-2.4,1.1-2.4,2.4v28c0,1.3,1.1,2.4,2.4,2.4H37c1.3,0,2.4-1.1,2.4-2.4V17
				c0-1.3-1.1-2.4-2.4-2.4H24.9z M19.8,16.6c0-2.5,2-4.4,4.4-4.4h13.6c2.5,0,4.4,2,4.4,4.4v28.7c0,2.5-2,4.4-4.4,4.4H24.2
				c-2.5,0-4.4-2-4.4-4.4C19.8,45.3,19.8,16.6,19.8,16.6z"/>
			<circle class="st1" cx="31" cy="43.4" r="1.7"/>
			<rect x="21.5" y="36.9" class="st1" width="18.9" height="2.6"/>
		</g>
	</g>
</g>
<g id="ticktoc">
</g>
<g id="youtube">
</g>
<g id="instagram">
</g>
<g id="twitter">
</g>
<g id="linkedin">
</g>
<g id="facebook">
</g>
</svg>
