<?xml version="1.0" encoding="utf-8"?>
<!-- Generator: Adobe Illustrator 27.9.5, SVG Export Plug-In . SVG Version: 9.03 Build 54986)  -->
<svg version="1.1" id="Layer_1" xmlns="http://www.w3.org/2000/svg" xmlns:xlink="http://www.w3.org/1999/xlink" x="0px" y="0px"
	 viewBox="0 0 62.3 62.3" style="enable-background:new 0 0 62.3 62.3;" xml:space="preserve">
<style type="text/css">
	.st0{fill:#5A0722;}
	.st1{fill:#FFFFFF;}
</style>
<g id="ticktoc">
	<g>
		<circle class="st0" cx="31" cy="31" r="30"/>
		<path class="st1" d="M44.2,28.6c-2.6,0-5.2-0.8-7.4-2.4v10.7c0,5.4-4.4,9.8-9.8,9.8s-9.8-4.4-9.8-9.8s4.4-9.8,9.8-9.8
			c0.4,0,0.9,0,1.3,0.1v5.4c-2.4-0.7-4.9,0.6-5.6,2.9c-0.7,2.4,0.6,4.9,2.9,5.6c2.4,0.7,4.9-0.6,5.6-2.9c0.1-0.4,0.2-0.9,0.2-1.3
			v-21h5.3c0,0.4,0,0.9,0.1,1.3l0,0c0.4,2,1.5,3.7,3.2,4.8c1.2,0.8,2.6,1.2,4,1.2v5.4H44.2z"/>
	</g>
</g>
<g id="youtube">
</g>
<g id="instagram">
</g>
<g id="twitter">
</g>
<g id="linkedin">
</g>
<g id="facebook">
</g>
</svg>
