<?xml version="1.0" encoding="utf-8"?>
<!-- Generator: Adobe Illustrator 27.9.5, SVG Export Plug-In . SVG Version: 9.03 Build 54986)  -->
<svg version="1.1" id="Layer_1" xmlns="http://www.w3.org/2000/svg" xmlns:xlink="http://www.w3.org/1999/xlink" x="0px" y="0px"
	 viewBox="0 0 62.3 62.3" style="enable-background:new 0 0 62.3 62.3;" xml:space="preserve">
<style type="text/css">
	.st0{fill:#5A0722;}
	.st1{fill:#FFFFFF;}
	.st2{display:none;}
</style>
<g id="email">
	<g>
		<circle class="st0" cx="31" cy="31" r="30"/>
		<path class="st1" d="M18.8,21.8c-0.6,0-1,0.5-1,1v1.4l11,9c1.3,1.1,3.2,1.1,4.5,0l11-9v-1.4c0-0.6-0.5-1-1-1
			C43.3,21.8,18.8,21.8,18.8,21.8z M17.7,28.2v10.9c0,0.6,0.5,1,1,1h24.5c0.6,0,1-0.5,1-1V28.2l-9,7.4c-2.4,2-6,2-8.4,0L17.7,28.2z
			 M14.9,23c0-2.2,1.8-4,4-4H43c2.2,0,4,1.8,4,4v16c0,2.2-1.8,4-4,4H19c-2.2,0-4-1.8-4-4V23H14.9z"/>
	</g>
</g>
<g id="cell" class="st2">
</g>
<g id="ticktoc" class="st2">
</g>
<g id="youtube" class="st2">
</g>
<g id="instagram" class="st2">
</g>
<g id="twitter" class="st2">
</g>
<g id="linkedin" class="st2">
</g>
<g id="facebook" class="st2">
</g>
</svg>
