<?xml version="1.0" encoding="utf-8"?>
<!-- Generator: Adobe Illustrator 27.9.5, SVG Export Plug-In . SVG Version: 9.03 Build 54986)  -->
<svg version="1.1" id="Layer_1" xmlns="http://www.w3.org/2000/svg" xmlns:xlink="http://www.w3.org/1999/xlink" x="0px" y="0px"
	 viewBox="0 0 62.3 62.3" style="enable-background:new 0 0 62.3 62.3;" xml:space="preserve">
<style type="text/css">
	.st0{fill:#5A0722;}
	.st1{fill:#FFFFFF;}
</style>
<g id="instagram">
	<g>
		<circle class="st0" cx="31" cy="31" r="30"/>
		<path class="st1" d="M31,23c-4.4,0-8,3.6-8,8s3.6,8,8,8s8-3.6,8-8S35.4,23,31,23z M31,36.2c-2.8,0-5.2-2.3-5.2-5.2
			s2.3-5.2,5.2-5.2s5.2,2.3,5.2,5.2S33.9,36.2,31,36.2L31,36.2z M41.2,22.7c0,1-0.8,1.9-1.9,1.9c-1,0-1.9-0.8-1.9-1.9
			c0-1,0.8-1.9,1.9-1.9C40.3,20.8,41.2,21.7,41.2,22.7z M46.4,24.6c-0.1-2.5-0.7-4.7-2.5-6.5c-1.8-1.8-4-2.4-6.5-2.5
			c-2.6-0.1-10.3-0.1-12.8,0s-4.7,0.7-6.5,2.5s-2.4,4-2.5,6.5c-0.1,2.6-0.1,10.3,0,12.8s0.7,4.7,2.5,6.5s4,2.4,6.5,2.5
			c2.6,0.1,10.3,0.1,12.8,0s4.7-0.7,6.5-2.5s2.4-4,2.5-6.5C46.6,34.8,46.6,27.2,46.4,24.6L46.4,24.6z M43.1,40.2
			c-0.5,1.4-1.6,2.4-3,3c-2,0.8-6.9,0.6-9.2,0.6s-7.1,0.2-9.2-0.6c-1.4-0.5-2.4-1.6-3-3c-0.8-2-0.6-6.9-0.6-9.2s-0.2-7.1,0.6-9.2
			c0.5-1.4,1.6-2.4,3-3c2-0.8,6.9-0.6,9.2-0.6s7.1-0.2,9.2,0.6c1.4,0.5,2.4,1.6,3,3c0.8,2,0.6,6.9,0.6,9.2S43.9,38.1,43.1,40.2z"/>
	</g>
</g>
<g id="twitter">
</g>
<g id="linkedin">
</g>
<g id="facebook">
</g>
</svg>
