<?xml version="1.0" encoding="utf-8"?>
<!-- Generator: Adobe Illustrator 27.9.1, SVG Export Plug-In . SVG Version: 6.00 Build 0)  -->
<svg version="1.1" id="Layer_1" xmlns="http://www.w3.org/2000/svg" xmlns:xlink="http://www.w3.org/1999/xlink" x="0px" y="0px"
	 viewBox="0 0 225 50" style="enable-background:new 0 0 225 50;" xml:space="preserve">
<style type="text/css">
	.st0{fill:#231F20;}
	.st1{fill:#8D0034;}
	.st2{fill:#FFFFFF;}
	.st3{fill:#FEBC18;}
</style>
<g id="horizontal">
	<path class="st0" d="M61.4,28.6v-1.4c4.2-0.2,4.5-0.6,4.5-5.2V7.4c0-4.7-0.4-4.9-4.2-5.2V0.8h13.5v1.4c-4.2,0.2-4.5,0.5-4.5,5.2
		v14.7c0,2.4,0.3,3.7,1.2,4.1s2.1,0.5,4.3,0.5s4.3-0.4,5.3-1.6c1-1.2,1.7-2.7,2.1-4.2l1.6,0.2c-0.3,1.4-1.2,6.2-1.6,7.4L61.4,28.6z"
		/>
	<path class="st0" d="M85.6,15.3C85.6,4.8,93.6,0,100,0c8.7,0,14.4,6.3,14.4,14.3c0,9.8-7.2,15-14.3,15c-7.7,0.3-14.2-5.8-14.5-13.5
		C85.6,15.7,85.6,15.5,85.6,15.3z M100.6,27.5c4.7,0,8.3-3.1,8.3-11.9c0-7.1-3.4-13.7-9.4-13.7c-4.9,0-8.4,4.3-8.4,11.9
		C91,21.9,94.5,27.5,100.6,27.5L100.6,27.5z"/>
	<path class="st0" d="M120.3,28.6v-1.4c4.4-0.3,4.7-0.6,4.7-5.2v-3.8c0-1.1-0.3-2.1-0.9-2.9c-1.3-2.3-3-5.2-5.8-9.9
		c-1.6-2.8-2-2.8-4.7-3.1V0.8h12.1v1.4l-1.9,0.2c-1.4,0.2-1.4,0.6-0.8,1.8c0.3,0.6,4.2,7.5,5.6,9.9c1.9-3.3,3.8-7.5,4.7-9.6
		c0.8-1.8,0.7-2-1-2.2l-1.8-0.2V0.8h10.7v1.4c-3.3,0.3-3.5,0.8-5.1,3.2s-3.4,5.4-5.4,9.1c-0.6,0.9-1,1.9-1,3v4.5
		c0,4.5,0.4,4.9,4.9,5.2v1.4L120.3,28.6z"/>
	<path class="st0" d="M139.6,15.3c0-10.5,8-15.3,14.4-15.3c8.7,0,14.4,6.3,14.4,14.3c0,9.8-7.2,15-14.3,15
		c-7.7,0.3-14.2-5.8-14.5-13.5C139.7,15.7,139.6,15.5,139.6,15.3z M154.6,27.5c4.7,0,8.4-3.1,8.4-11.9c0-7.1-3.4-13.7-9.4-13.7
		c-4.9,0-8.4,4.3-8.4,11.9C145.1,21.9,148.6,27.5,154.6,27.5L154.6,27.5z"/>
	<path class="st0" d="M170.5,28.6v-1.4c4.2-0.2,4.5-0.6,4.5-5.2V7.4c0-4.7-0.4-4.9-4.2-5.2V0.8h13.5v1.4c-4.2,0.2-4.5,0.5-4.5,5.2
		v14.7c0,2.4,0.3,3.7,1.1,4.1s2.1,0.5,4.4,0.5s4.3-0.4,5.3-1.6c1-1.2,1.7-2.7,2.1-4.2l1.6,0.2c-0.3,1.4-1.2,6.2-1.6,7.4L170.5,28.6z
		"/>
	<path class="st0" d="M211.9,27.1l1.1-0.1c1.7-0.2,2.2-0.7,1-3.6l-2.1-5h-8.4c-0.4,1-1.5,3.9-2.1,5.8c-0.7,2.1-0.2,2.7,1.6,2.9
		l1.4,0.1v1.4H194v-1.5c2.7-0.3,3.7-0.6,5.4-4.9l9-21.9L210,0l9,23c1.4,3.7,2.6,3.9,5.3,4.1v1.4h-12.3V27.1z M204.3,16.2h7l-3.5-9.5
		h-0.1L204.3,16.2z"/>
	<path class="st0" d="M61.4,34.2h2v5.7c0,0.5,0,0.9,0.2,1.4c0.6,0.8,1.8,1,2.6,0.4c0.1-0.1,0.3-0.2,0.4-0.4c0.2-0.4,0.3-0.9,0.2-1.4
		v-5.7h2v5.7c0,0.8-0.1,1.6-0.4,2.3c-1.5,1.8-4.2,2-6,0.5c-0.2-0.2-0.3-0.3-0.5-0.5c-0.3-0.7-0.5-1.5-0.5-2.3L61.4,34.2z"/>
	<path class="st0" d="M72.4,34.2h2l3.7,6.5v-6.5h1.8v9.3h-1.9l-3.8-6.6v6.6h-1.8L72.4,34.2z"/>
	<path class="st0" d="M85.2,43.5h-1.9v-9.3h1.9V43.5z"/>
	<path class="st0" d="M94.1,34.2h2l-3.1,9.3h-1.8l-3.2-9.3H90l2,7L94.1,34.2z"/>
	<path class="st0" d="M105.2,35.9h-4.9v2h4.5v1.6h-4.5v2.4h5.1v1.7h-7v-9.3h6.8L105.2,35.9z"/>
	<path class="st0" d="M114.4,34.5c0.3,0.1,0.6,0.4,0.9,0.7c0.2,0.2,0.4,0.5,0.5,0.8c0.1,0.3,0.2,0.7,0.2,1c0,0.5-0.1,0.9-0.3,1.3
		c-0.2,0.4-0.6,0.8-1.1,0.9c0.4,0.1,0.7,0.4,0.9,0.7c0.2,0.5,0.3,1,0.3,1.5v0.6c0,0.3,0,0.6,0.1,0.9c0,0.2,0.2,0.4,0.4,0.5v0.2h-2.1
		c-0.1-0.2-0.1-0.3-0.1-0.5c-0.1-0.3-0.1-0.5-0.1-0.8v-0.9c0-0.4-0.1-0.8-0.3-1.2c-0.3-0.2-0.7-0.3-1.1-0.3h-1.9v3.6h-1.9v-9.2h4.5
		C113.4,34.2,113.9,34.3,114.4,34.5z M110.4,35.8v2.5h2.1c0.3,0,0.6,0,0.9-0.2c0.4-0.2,0.6-0.6,0.6-1c0.1-0.4-0.2-0.9-0.5-1.1
		c-0.3-0.1-0.6-0.2-0.9-0.2L110.4,35.8z"/>
	<path class="st0" d="M120.1,40.7c0,0.3,0.2,0.7,0.4,0.9c0.4,0.4,1,0.6,1.6,0.6c0.4,0,0.8,0,1.1-0.2c0.5-0.1,0.8-0.6,0.8-1.1
		c0-0.3-0.2-0.6-0.4-0.7c-0.4-0.2-0.8-0.4-1.3-0.4l-1-0.2c-0.7-0.1-1.4-0.4-2-0.7c-0.6-0.5-1-1.2-0.9-2c0-0.8,0.3-1.5,0.9-2.1
		c0.8-0.6,1.7-0.9,2.7-0.8c0.9,0,1.8,0.2,2.5,0.8c0.7,0.5,1.1,1.4,1.1,2.2h-1.9c0-0.5-0.3-1-0.8-1.2c-0.4-0.2-0.8-0.2-1.1-0.2
		c-0.4,0-0.9,0.1-1.2,0.3c-0.3,0.2-0.5,0.5-0.5,0.8c0,0.3,0.2,0.6,0.4,0.7c0.4,0.2,0.8,0.3,1.2,0.4l1.6,0.4c0.6,0.1,1.1,0.3,1.6,0.7
		c0.6,0.5,0.9,1.2,0.8,1.9c0,0.8-0.4,1.6-1,2.1c-0.8,0.6-1.8,0.9-2.8,0.8c-1,0.1-2-0.2-2.9-0.8c-0.7-0.6-1-1.4-1-2.3L120.1,40.7z"/>
	<path class="st0" d="M130.8,43.5h-1.9v-9.3h1.9V43.5z"/>
	<path class="st0" d="M141.3,34.2v1.6h-2.8v7.6h-1.9v-7.6h-2.8v-1.6H141.3z"/>
	<path class="st0" d="M148.6,34.2h2.2l-3.1,5.8v3.5h-1.9V40l-3.2-5.8h2.3l1.9,4L148.6,34.2z"/>
	<path class="st0" d="M158.9,35.2c0.7-0.8,1.8-1.2,2.9-1.1c1.3-0.1,2.6,0.5,3.4,1.5c0.4,0.5,0.6,1.1,0.6,1.7h-1.9
		c-0.1-0.4-0.2-0.7-0.5-1c-0.4-0.4-1-0.6-1.5-0.6c-0.7,0-1.3,0.3-1.6,0.8c-0.4,0.7-0.7,1.6-0.6,2.4c-0.1,0.8,0.2,1.7,0.6,2.3
		c0.4,0.5,1,0.8,1.6,0.8c0.6,0,1.1-0.2,1.5-0.7c0.2-0.3,0.4-0.7,0.5-1.1h1.9c-0.1,0.9-0.6,1.8-1.3,2.5c-0.7,0.6-1.7,1-2.6,1
		c-1.2,0.1-2.3-0.4-3.1-1.3c-0.8-1-1.2-2.3-1.1-3.5C157.6,37.6,158,36.2,158.9,35.2z"/>
	<path class="st0" d="M168.5,43.5v-9.3h1.9v3.5h3.6v-3.5h1.9v9.3H174v-4.1h-3.6v4.1H168.5z"/>
	<path class="st0" d="M181.5,43.5h-1.9v-9.3h1.9V43.5z"/>
	<path class="st0" d="M185.8,35.2c1.8-1.6,4.5-1.5,6.1,0.3c0,0,0.1,0.1,0.1,0.1c0.4,0.5,0.6,1.1,0.6,1.7h-1.9
		c-0.1-0.4-0.2-0.7-0.5-1c-0.4-0.4-1-0.6-1.5-0.6c-0.7,0-1.3,0.3-1.6,0.8c-0.4,0.7-0.7,1.6-0.6,2.4c-0.1,0.8,0.2,1.7,0.6,2.3
		c0.4,0.5,1,0.8,1.6,0.8c0.6,0,1.1-0.2,1.5-0.7c0.2-0.3,0.4-0.7,0.5-1.1h1.9c-0.1,0.9-0.6,1.8-1.3,2.5c-0.7,0.6-1.7,1-2.6,1
		c-1.2,0.1-2.3-0.4-3.1-1.3c-0.8-1-1.2-2.3-1.1-3.5C184.4,37.6,184.8,36.2,185.8,35.2z"/>
	<path class="st0" d="M197.2,34.2h2.2l3.3,9.3h-2.1l-0.6-1.9h-3.4l-0.6,1.9h-2L197.2,34.2z M197.1,40h2.4l-1.2-3.7L197.1,40z"/>
	<path class="st0" d="M210.8,37.1c-0.1-0.6-0.5-1.1-1.1-1.3c-0.3-0.1-0.7-0.2-1.1-0.2c-0.7,0-1.4,0.3-1.8,0.8
		c-0.5,0.7-0.8,1.6-0.7,2.5c-0.1,0.9,0.2,1.8,0.8,2.4c0.5,0.5,1.1,0.7,1.8,0.7c0.6,0,1.2-0.2,1.6-0.5c0.4-0.4,0.7-0.9,0.8-1.5h-2.1
		v-1.5h3.9v5h-1.3l-0.2-1.2c-0.3,0.4-0.6,0.7-1,0.9c-0.6,0.3-1.2,0.5-1.9,0.5c-1.1,0-2.2-0.4-3-1.3c-0.9-1-1.3-2.2-1.2-3.5
		c-0.1-1.3,0.4-2.6,1.2-3.6c1.7-1.6,4.2-1.8,6.1-0.5c0.7,0.5,1.1,1.4,1.2,2.2L210.8,37.1z"/>
	<path class="st0" d="M223.1,42.7c-1.8,1.4-4.3,1.4-6.1,0c-1-1-1.5-2.4-1.4-3.8c-0.1-1.4,0.4-2.8,1.4-3.8c1.8-1.4,4.3-1.4,6.1,0
		c1,1,1.5,2.4,1.4,3.8C224.5,40.3,224,41.7,223.1,42.7z M221.8,41.3c0.9-1.5,0.9-3.3,0-4.8c-0.4-0.6-1.1-0.9-1.8-0.8
		c-0.7,0-1.4,0.3-1.8,0.8c-0.9,1.5-0.9,3.3,0,4.8c0.4,0.6,1.1,0.9,1.8,0.8C220.7,42.2,221.4,41.9,221.8,41.3z"/>
	<path class="st1" d="M42.1,0.8v26.6c0,9.8-16.6,13.8-16.6,13.8S9,37,9,27.3V0.8H42.1z"/>
	<path class="st2" d="M10,9.9l0.2-1.1h1.5v4.9h-1.2V9.9H10z"/>
	<path class="st2" d="M16,10c0,0.5-0.3,0.9-0.8,1.1l0,0c0.6,0.1,1,0.7,1,1.3c0,1-1,1.5-1.8,1.5s-1.9-0.5-1.9-1.5
		c0-0.6,0.4-1.1,1-1.3l0,0c-0.5-0.2-0.8-0.6-0.8-1.1c0-0.8,0.8-1.4,1.6-1.4c0,0,0.1,0,0.1,0C15.2,8.6,15.9,9.2,16,10
		C16,10,16,10,16,10z M13.8,10c0,0.3,0.2,0.6,0.5,0.6c0.3,0,0.6-0.2,0.6-0.5c0,0,0-0.1,0-0.1c0-0.3-0.2-0.6-0.5-0.6
		c-0.3,0-0.6,0.2-0.6,0.5C13.8,10,13.8,10,13.8,10z M13.8,12.2c-0.1,0.3,0.1,0.6,0.4,0.7c0.3,0.1,0.6-0.1,0.7-0.4c0-0.1,0-0.1,0-0.2
		c0-0.3-0.2-0.6-0.5-0.7C14.1,11.6,13.8,11.9,13.8,12.2C13.8,12.2,13.8,12.3,13.8,12.2L13.8,12.2z"/>
	<path class="st2" d="M16.8,10.1V8.9h4l-2.7,4.9h-1.5l2.2-3.7L16.8,10.1z"/>
	<path class="st2" d="M24.8,11.3c0,1.2-0.6,2.6-2,2.6s-2-1.3-2-2.6s0.6-2.6,2-2.6S24.8,10,24.8,11.3z M22,11.3
		c0,0.5,0.2,1.5,0.8,1.5s0.8-1,0.8-1.5s-0.2-1.5-0.8-1.5S22,10.8,22,11.3z"/>
	<path class="st2" d="M12.6,21.7c0,0,0.5,0.4-0.4,2.5c-0.2,0.4-1,2,0,3c0.5,0.5,1.1,0.6,1.8,0.5c0.1,0.4,0.1,0.6,0.1,0.6h-0.8
		c-0.7,0-0.8,0.8-0.8,0.8v3.4l0.5,0.5H15c0-0.8-1-1.2-1-1.2v-1.4h1.7c0.9-0.1,1.4-1.8,1.4-1.8l0.7,0.1c-0.3,0.6-0.6,1.3-0.9,1.9
		l2,1.9v0.5h2c0.1-0.5-0.9-1-0.9-1l-1.3-1.5c-0.2-0.2,0-0.4,0.2-0.5s0.5-0.1,0.8-0.2c0.9-0.4,1.4-1.4,1-2.4c-0.5-1.5-2.2-0.9-2.2-1
		s0.9-2.2,0.9-2.2l-0.7-1.1l0.9,0.6l2.2-0.5c0.2,1.9,1.1,1.5,1.1,1.5v-1.5c0-0.6-0.4-1-0.9-1.2c-0.7-0.2-1.4-0.3-2.1-0.2
		c-0.1,0-0.3-0.2-0.2-0.3c0,0,0,0,0,0h1.4l1.2-1l0.7-0.1c1.2-0.2,0.8-1.1,0.8-1.1h-1.7c-0.8,0.3-1.6,0.7-2.3,1.2
		c-0.1-0.8,0.3-1.6,1-1.9c1.3-0.5,1-0.9,1-0.9l-1.2,0.4c0,0-0.1-0.1,0.1-0.5c0.3-0.2,0.7-0.4,1.1-0.5c0.4-0.1,0.6-0.4,0.5-0.8
		c0,0,0-0.1,0-0.1l-1.3,0.1c-0.3-0.3-0.3-0.3-0.7-0.4s-1.1,0.6-1.1,0.3c0.1-0.5,0.2-0.9,0.2-1.4c0.1-0.6-1.8,2-1.8,2
		c-2.3,4.5-1.7,7.5-1.7,7.5c-0.8,0.4-1.3,1.1-1.5,2c0-2.5,0.8-2.3,0.8-3.9S13,21.2,13,21.2c-0.3,0-0.7,0.1-0.9,0.4
		C12.2,21.6,12.5,21.6,12.6,21.7z"/>
	<polygon class="st1" points="19.3,17 20.2,17 20,16.7 	"/>
	<path class="st2" d="M25.6,33.2c-1,0-1.9-0.4-2.5-1.1c-0.7-0.7-1.1-1.5-1.1-2.5v-2.6c-0.2,0-0.3-0.2-0.3-0.4c0-0.4,0.4-0.3,0.4-0.3
		h0.8c0,0.9,0.5,0.8,0.5,0.8c0.6,0,0.5-0.8,0.5-0.8h3.5c0,0-0.1,0.8,0.5,0.8c0,0,0.5,0.1,0.5-0.8h0.8c0,0,0.4-0.1,0.4,0.3
		c0,0.2-0.1,0.4-0.3,0.4v2.6c0,0.9-0.4,1.8-1.1,2.5C27.4,32.9,26.5,33.3,25.6,33.2L25.6,33.2z"/>
	<path class="st2" d="M38.5,21.7c0,0-0.5,0.4,0.4,2.5c0.2,0.4,1,2,0,3c-0.5,0.5-1.1,0.6-1.8,0.5c-0.1,0.4-0.1,0.6-0.1,0.6h0.8
		c0.7,0,0.8,0.8,0.8,0.8v3.4l-0.5,0.5h-1.8c0-0.8,1-1.2,1-1.2v-1.4h-1.6c-0.9-0.1-1.4-1.8-1.4-1.8l-0.7,0.1c0.3,0.6,0.6,1.3,0.9,1.9
		l-2,1.9v0.5h-2.1c-0.1-0.5,0.9-1,0.9-1l1.3-1.5c0.2-0.2,0-0.4-0.2-0.5S32,30,31.8,29.9c-0.9-0.4-1.3-1.4-1-2.4
		c0.5-1.5,2.2-0.9,2.2-1s-0.9-2.2-0.9-2.2l0.7-1.1l-0.9,0.6l-2.3-0.5c-0.2,1.9-1.1,1.5-1.1,1.5v-1.5c0-0.6,0.4-1,0.9-1.2
		c0.7-0.2,1.4-0.3,2.1-0.2c0.1,0,0.3-0.2,0.2-0.3c0,0,0,0,0,0h-1.3l-1.2-1l-0.7-0.1c-1.2-0.2-0.8-1.1-0.8-1.1h1.7
		c0.8,0.3,1.6,0.7,2.3,1.2c0.1-0.8-0.3-1.6-1-1.9c-1.3-0.5-1-0.9-1-0.9l1.2,0.5c0,0,0.1-0.1-0.1-0.5c-0.3-0.2-0.7-0.4-1.1-0.5
		c-0.4-0.1-0.6-0.4-0.5-0.8c0,0,0-0.1,0-0.1l1.3,0.1c0.3-0.3,0.3-0.3,0.7-0.4s1.1,0.6,1.1,0.3c-0.1-0.5-0.2-1-0.2-1.5
		c-0.1-0.6,1.8,2,1.8,2c2.3,4.5,1.7,7.5,1.7,7.5c0.8,0.4,1.3,1.1,1.5,2c0-2.5-0.8-2.3-0.8-3.9s1.7-1.4,1.7-1.4
		c0.3,0,0.7,0.1,0.9,0.4C39,21.6,38.7,21.6,38.5,21.7z"/>
	<polygon class="st1" points="31.9,17 30.9,17 31.1,16.7 	"/>
	<path class="st2" d="M25.8,23.3v-6.7l0,0c0.1-0.1,0.2-0.2,0.2-0.3c0-0.2-0.2-0.3-0.3-0.3l0,0l0,0c-0.2,0-0.3,0.2-0.3,0.3
		c0,0.1,0.1,0.2,0.2,0.3l0,0v6.7l-2.2,2.3v0.7h0.3v-0.6l2.1-2.1l2.1,2.1v0.6H28v-0.7L25.8,23.3z"/>
	<polygon class="st3" points="25.6,0.8 25.6,2.9 28,0.8 	"/>
	<polygon class="st3" points="39.9,13.8 42.1,13.8 42.1,11.6 	"/>
	<polygon class="st3" points="30.4,0.8 25.6,5.1 25.6,7.3 32.7,0.8 	"/>
	<polygon class="st3" points="35.1,0.8 25.6,9.4 25.6,11.6 37.5,0.8 	"/>
	<polygon class="st3" points="39.9,0.8 25.6,13.8 28,13.8 42.1,0.8 	"/>
	<polygon class="st3" points="30.4,13.8 32.7,13.8 42.1,5.1 42.1,2.9 	"/>
	<polygon class="st3" points="35.1,13.8 37.5,13.8 42.1,9.4 42.1,7.3 	"/>
	<path class="st1" d="M6.2,3.3L4.7,3.9c-1,0.4-2,0.7-2.8,1S1.1,5.3,1.1,5.8H0.8V3.6h0.2v0.2c0,0.3,0.1,0.3,0.4,0.2s0.8-0.3,1.2-0.5
		V2.1C2.4,2,2,1.9,1.7,1.7S1.1,1.7,1.1,2v0.2H0.9V0.4h0.2C1.2,0.9,1.2,1,1.9,1.3L6.2,3L6.2,3.3z M3.1,2.2v1.3l1.8-0.6l0,0L3.1,2.2z"
		/>
	<path class="st1" d="M6.1,8.5c0.1,0.8-0.2,1.6-0.7,2.3c-0.5,0.4-1.1,0.7-1.7,0.7c-2,0-2.9-1.5-2.9-3.5V6h0.2c0,0.7,0.1,0.7,1,0.7H5
		c0.9,0,1-0.1,1-0.7h0.2L6.1,8.5z M2.1,7.7c-0.8,0-0.9,0.1-0.9,0.7c0,1.4,1,2,2.3,2c1.7,0,2.4-0.9,2.4-2.2c0-0.2,0-0.4-0.1-0.5
		c0,0-0.2,0-0.4,0L2.1,7.7z"/>
	<path class="st1" d="M6.1,19.3l-3.9,1.8l3.9,1.7v1.5H6c-0.1-0.7-0.1-0.7-1-0.7l-2.9,0.1c-0.9,0-0.9,0-1,0.7H0.9v-2.3h0.2
		c0.1,0.6,0.1,0.7,1,0.7h3.1l0,0L1,20.9v-0.2L5,18.9l0,0H2.9c-0.5,0-1,0-1.4,0c-0.3,0-0.4,0.2-0.4,0.7H0.9v-2h0.2
		c0,0.4,0.1,0.6,0.4,0.6s0.7,0.1,1.5,0.2l1.7,0.1c1.1,0.1,1.2,0,1.2-0.7h0.2L6.1,19.3z"/>
	<path class="st1" d="M6.2,27.7l-1.5,0.6c-1,0.4-2,0.8-2.8,1.1s-0.8,0.4-0.8,0.9H0.9V28h0.2v0.2c0,0.3,0.1,0.3,0.4,0.2
		s0.8-0.3,1.2-0.5v-1.5c-0.2-0.1-0.7-0.2-1-0.3s-0.5-0.1-0.6,0.3v0.2H0.9v-1.8h0.2c0.1,0.5,0.1,0.6,0.8,0.9l4.2,1.6L6.2,27.7z
		 M3.1,26.7V28l1.8-0.7l0,0L3.1,26.7z"/>
	<path class="st1" d="M5.2,30.1c0.8-0.3,0.9-0.3,0.7-1l0.2-0.1l0.7,2.2l-0.2,0.1c-0.2-0.5-0.3-0.6-1.1-0.3L3,31.8
		c-0.7,0.4-1.6,0.3-2.3-0.1c-0.3-0.2-0.5-0.5-0.7-0.8l0.2-0.2c0.3,0.4,0.8,0.6,1.3,0.5c0.5-0.1,0.9-0.2,1.4-0.3L5.2,30.1z"/>
	<path class="st1" d="M7.2,37.1c-1.3,0.8-2.9,0.5-3.8-0.8c0-0.1-0.1-0.1-0.1-0.2c-0.7-1.2-0.4-2.8,0.8-3.6c0,0,0.1-0.1,0.2-0.1
		c1.3-0.8,3-0.4,3.8,0.9c0,0,0.1,0.1,0.1,0.1C9,34.7,8.6,36.3,7.4,37C7.3,37,7.3,37.1,7.2,37.1z M5.1,33.3c-1.3,0.8-1.9,1.9-1.3,2.9
		c0.4,0.7,1.4,0.9,2.7,0.2s1.9-1.9,1.4-2.9C7.4,32.7,6.4,32.5,5.1,33.3z"/>
	<path class="st1" d="M16,40.5c0,0.1-0.3,0.7-0.6,1.1l-0.2-0.1c0.1-0.2,0.2-0.5,0.1-0.8c0-0.2-0.2-0.4-0.7-0.6l-0.3-0.2
		c-0.3-0.2-0.3-0.2-0.4,0.1L13,41.4l0.6,0.4c0.6,0.4,0.6,0.3,1-0.2l0.2,0.1L14,43.2l-0.2-0.1c0.3-0.6,0.3-0.6-0.3-1l-0.6-0.4
		l-0.7,1.1c-0.2,0.4-0.3,0.6-0.3,0.8c0.2,0.2,0.4,0.4,0.6,0.5c0.3,0.2,0.6,0.3,0.9,0.3c0.3-0.1,0.6-0.3,0.8-0.5l0.2,0.2
		c-0.3,0.4-0.6,0.7-1,1L10,43l0.1-0.2c0.6,0.3,0.7,0.3,1.2-0.4l1.5-2.4c0.5-0.8,0.5-0.8,0-1.2l0.1-0.2L16,40.5z"/>
	<path class="st1" d="M17.9,41.2l0.1,4.3l3.1-2.9l1.4,0.6l-0.1,0.2c-0.6-0.2-0.7-0.2-1,0.6l-1.1,2.7c-0.3,0.8-0.3,0.9,0.3,1.2
		l-0.1,0.2l-2.1-0.9l0.1-0.2c0.6,0.2,0.6,0.2,1-0.7l1.2-2.9l0,0l-3.4,3.2l-0.2-0.1v-4.5l0,0L16.3,44c-0.2,0.4-0.5,0.9-0.7,1.3
		c-0.1,0.3,0,0.4,0.5,0.7L16,46.2l-1.8-0.8l0.1-0.2c0.4,0.1,0.6,0.1,0.7-0.2s0.4-0.6,0.7-1.3l0.8-1.5c0.5-1,0.5-1.1-0.2-1.4l0.1-0.2
		L17.9,41.2z"/>
	<path class="st1" d="M30.5,42.3c0.8-0.4,1.6-0.4,2.4-0.2c0.6,0.3,1,0.7,1.2,1.3c0.7,1.9-0.4,3.3-2.2,4l-1.9,0.7L30.1,48
		c0.6-0.3,0.6-0.4,0.3-1.2l-1-2.7c-0.3-0.8-0.4-0.9-1-0.7l-0.1-0.2L30.5,42.3z M31.3,46.4c0.3,0.7,0.4,0.8,1,0.6
		c1-0.4,1.6-1.5,1.2-2.6c0-0.1-0.1-0.2-0.2-0.4c-0.7-1.6-1.7-1.8-2.9-1.3c-0.2,0.1-0.3,0.1-0.5,0.3c0,0.1,0,0.2,0.1,0.4L31.3,46.4z"
		/>
	<path class="st1" d="M36.6,39.7c0.1,0.1,0.4,0.6,0.7,1L37,40.9c-0.1-0.2-0.4-0.4-0.6-0.5c-0.2-0.1-0.4,0-0.9,0.2l-0.4,0.2
		c-0.3,0.1-0.3,0.2-0.2,0.4l0.8,1.5l0.6-0.3c0.6-0.3,0.6-0.4,0.4-1l0.2-0.1l0.8,1.5L37.6,43c-0.4-0.5-0.4-0.6-1-0.2L36,43l0.6,1.3
		c0.2,0.4,0.3,0.6,0.5,0.6c0.3,0,0.5-0.1,0.7-0.3c0.4-0.2,0.7-0.4,0.8-0.6c0.1-0.3,0.1-0.6,0-0.9l0.2-0.1c0.1,0.4,0.3,0.8,0.3,1.3
		l-3.5,1.8l-0.1-0.2c0.6-0.4,0.6-0.5,0.2-1.2l-1.3-2.5c-0.4-0.8-0.5-0.8-1.1-0.6l-0.1-0.2L36.6,39.7z"/>
	<path class="st1" d="M39.1,38.2l0.1,0.2c-0.5,0.4-0.5,0.5,0,1.2l1.5,2.4c0.5,0.8,0.5,0.8,1.1,0.5l0.1,0.2l-2,1.2l-0.1-0.2
		c0.5-0.4,0.5-0.5,0.1-1.2l-1.5-2.4c-0.4-0.7-0.5-0.7-1.1-0.5l-0.1-0.2L39.1,38.2z"/>
	<path class="st1" d="M48.5,33c0.2,0.1,0.5,0.1,0.7,0.2c0,0.6-0.1,1.2-0.2,1.8c-0.3,1.5-1.8,2.4-3.2,2.1c-0.1,0-0.2,0-0.3-0.1
		c-1.5-0.5-2.3-2.1-1.8-3.6c0-0.1,0.1-0.2,0.1-0.2c0.2-0.5,0.4-1,0.7-1.4c0.3,0.1,0.7,0.2,1.3,0.3v0.3c-0.8-0.2-1.5,0.3-1.7,1
		c0,0,0,0.1,0,0.1c-0.3,1.1,0.2,2.1,1.6,2.5c1.2,0.4,2.6,0.3,3.1-1.1c0.1-0.2,0.1-0.4,0.1-0.5c0-0.2-0.1-0.3-0.4-0.4l-0.7-0.2
		c-0.5-0.2-0.6-0.2-0.9,0.7l-0.2-0.1l0.7-2.2l0.2,0.1c-0.1,0.4,0,0.5,0.5,0.6L48.5,33z"/>
	<path class="st1" d="M44.7,28.7H45c0,0.7,0,0.7,0.9,0.8l2.8,0.4c0.5,0.1,0.7,0,0.8-0.1c0.1-0.2,0.2-0.4,0.2-0.7
		c0-0.4,0.2-1.3,0-1.5c-0.2-0.2-0.5-0.4-0.8-0.5L49,27c0.2,0.1,1,0.4,1.3,0.5l-0.6,4.4h-0.2c0-0.7,0-0.8-0.9-0.9l-2.8-0.4
		c-0.9-0.1-1-0.1-1.1,0.6h-0.2L44.7,28.7z"/>
	<path class="st1" d="M47.7,21.4c1.5,0,2.7,1.2,2.7,2.7c0,0.1,0,0.2,0,0.3c0,1.4-1.2,2.5-2.7,2.5c-0.1,0-0.1,0-0.2,0
		c-1.5-0.1-2.7-1.4-2.7-2.9c0,0,0-0.1,0-0.1c0-1.4,1.2-2.5,2.6-2.5C47.6,21.4,47.7,21.4,47.7,21.4z M47.4,25.8
		c1.5,0.1,2.7-0.5,2.7-1.6c0.1-0.8-0.6-1.5-2.1-1.7c-1.7-0.1-2.7,0.5-2.8,1.6C45.2,24.9,46,25.7,47.4,25.8z"/>
	<path class="st1" d="M45,19c0-0.5,0.1-0.9,0.3-1.3c0.2-0.3,0.6-0.5,1-0.5c0.7,0,1.2,0.5,1.4,1.1c0.2-0.1,0.8-0.5,1.2-0.7
		c0.3-0.2,0.6-0.4,0.9-0.7c0.2-0.1,0.3-0.3,0.4-0.6h0.2v0.3c0,0.6-0.2,1.2-0.8,1.5c-0.4,0.3-0.9,0.5-1.3,0.8
		c-0.2,0.1-0.3,0.3-0.3,0.5v0.3h1.1c0.9,0,1-0.1,1-0.7h0.2v2.3h-0.2c0-0.7-0.1-0.7-1-0.7h-2.8c-0.9,0-1,0.1-1,0.7H45V19z M47.7,19.6
		v-0.3c0-0.3-0.1-0.5-0.2-0.8c-0.3-0.3-0.6-0.4-1-0.4c-0.6-0.1-1.1,0.4-1.1,1c0,0,0,0.1,0,0.1c0,0.4,0,0.4,0.3,0.4L47.7,19.6z"/>
	<path class="st1" d="M45,13.3h0.2c0,0.6,0.1,0.7,1,0.7h2.8c0.9,0,1-0.1,1-0.7h0.2v2.3h-0.2c0-0.6-0.1-0.7-1-0.7h-2.8
		c-0.9,0-1,0.1-1,0.7H45V13.3z"/>
	<path class="st1" d="M45,10.1l1.5-0.6c1-0.4,2-0.7,2.8-1s0.8-0.4,0.8-0.9h0.2v2.1h-0.2V9.6c0-0.3-0.1-0.3-0.4-0.2s-0.8,0.3-1.2,0.5
		v1.5c0.2,0.1,0.7,0.2,1,0.4s0.5,0.1,0.6-0.3v-0.2h0.2V13h-0.2c-0.1-0.5-0.1-0.6-0.8-0.9L45,10.4L45,10.1z M48.1,11.2V9.9l-1.8,0.6
		l0,0L48.1,11.2z"/>
	<path class="st1" d="M45,5.5L49,3.7L45.1,2V0.4h0.2c0.1,0.7,0.1,0.7,1,0.7L49.1,1c0.9,0,0.9,0,1-0.7h0.2v2.3h-0.2
		c-0.1-0.6-0.1-0.7-1-0.6H46l0,0l4.2,1.9V4l-4.1,1.8l0,0l2.1,0.1c0.5,0,0.9,0,1.4,0c0.3,0,0.4-0.2,0.4-0.7h0.2v1.9h-0.2
		c0-0.4-0.1-0.6-0.4-0.6c-0.5-0.1-1-0.1-1.5-0.1l-1.7,0c-1.1-0.1-1.2,0-1.2,0.7H45L45,5.5z"/>
	<circle class="st1" cx="25.6" cy="46.4" r="0.9"/>
	<circle class="st1" cx="42.6" cy="38.8" r="0.9"/>
	<circle class="st1" cx="3.5" cy="14.8" r="0.9"/>
	<path class="st1" d="M11.1,36.8c0.4,0.3,0.7,0.7,0.9,1.1c0.1,0.4,0,0.8-0.3,1.1c-0.4,0.5-1.2,0.6-1.8,0.3c0,0.3-0.2,0.9-0.2,1.3
		c-0.1,0.4-0.1,0.7-0.1,1.1c0,0.2,0,0.5,0.2,0.7l-0.2,0.1l-0.3-0.2c-0.5-0.4-0.7-1-0.6-1.5c0.1-0.5,0.2-1,0.3-1.5
		c0.1-0.2,0-0.4-0.1-0.5l-0.2-0.2l-0.7,0.8c-0.6,0.7-0.6,0.7-0.2,1.2l-0.1,0.2L6,39.2L6.1,39c0.5,0.4,0.6,0.4,1.2-0.3l1.9-2.1
		c0.6-0.7,0.6-0.7,0.2-1.2l0.1-0.2L11.1,36.8z M8.8,38.3l0.2,0.2c0.2,0.2,0.4,0.3,0.7,0.4c0.4,0,0.8-0.2,1-0.5
		c0.4-0.4,0.4-1.1,0.1-1.5c0,0-0.1-0.1-0.1-0.1c-0.3-0.3-0.3-0.2-0.5-0.1L8.8,38.3z"/>
</g>
</svg>
