<?xml version="1.0" encoding="utf-8"?>
<!-- Generator: Adobe Illustrator 22.0.1, SVG Export Plug-In . SVG Version: 6.00 Build 0)  -->
<svg version="1.1" id="Layer_1" xmlns="http://www.w3.org/2000/svg" xmlns:xlink="http://www.w3.org/1999/xlink" x="0px" y="0px"
	 viewBox="0 0 40 40" style="enable-background:new 0 0 40 40;" xml:space="preserve">
<style type="text/css">
	.st0{fill:#FFFFFF;}
</style>
<g>
	<path class="st0" d="M22.8,25.2L33.7,36l2.3-2.3L25.1,22.8l0.4-0.7c1.3-2,2-4.3,2-6.7c0-6.8-5.5-12.3-12.3-12.3
		C8.5,3.2,3,8.7,3,15.5s5.5,12.3,12.3,12.3c2.5,0,4.9-0.7,6.9-2.1L22.8,25.2z M15.3,25.1c-5.3,0-9.6-4.3-9.6-9.6s4.3-9.6,9.6-9.6
		s9.6,4.3,9.6,9.6S20.6,25.1,15.3,25.1z"/>
</g>
</svg>
