<?xml version="1.0" encoding="UTF-8"?><svg id="brand_logo" xmlns="http://www.w3.org/2000/svg" viewBox="0 0 192.78 41.36"><defs><style>.cls-1{fill:#eaaa00;}.cls-1,.cls-2,.cls-3,.cls-4,.cls-5{stroke-width:0px;}.cls-2{fill:#5a0722;}.cls-3{fill:#000;}.cls-4{fill:#eaaa00;}.cls-5{fill:#fff;}</style></defs><path class="cls-3" d="M52.75,24.54v-1.23c3.64-.22,3.9-.48,3.9-4.5V6.32c0-4.02-.32-4.23-3.64-4.45V.64h11.59v1.23c-3.58.22-3.9.43-3.9,4.45v12.65c0,2.09.26,3.16.99,3.54.72.38,1.82.43,3.74.43,2.03,0,3.69-.38,4.52-1.34.63-.64,1.25-1.88,1.77-3.59l1.35.16c-.26,1.23-1.04,5.36-1.35,6.37h-18.98Z"/><path class="cls-3" d="M73.5,13.13c0-9,6.86-13.13,12.37-13.13,7.48,0,12.32,5.41,12.32,12.33,0,8.41-6.19,12.86-12.27,12.86-8.06,0-12.43-6.27-12.43-12.06ZM86.34,23.58c4,0,7.17-2.68,7.17-10.18,0-6.11-2.91-11.79-8.11-11.79-4.21,0-7.22,3.7-7.22,10.23,0,6.97,3.02,11.74,8.16,11.74Z"/><path class="cls-3" d="M103.3,24.54v-1.23c3.75-.27,4.01-.54,4.01-4.45v-3.27c0-1.02-.1-1.34-.78-2.52-1.09-1.98-2.55-4.45-4.94-8.52-1.35-2.36-1.72-2.41-4.06-2.68V.64h10.4v1.23l-1.61.22c-1.2.16-1.25.48-.73,1.55.26.54,3.59,6.43,4.83,8.52,1.61-2.84,3.22-6.43,4.05-8.2.68-1.5.57-1.72-.83-1.87l-1.51-.22V.64h9.15v1.23c-2.81.27-3.02.64-4.42,2.73-1.41,2.09-2.96,4.66-4.68,7.77-.78,1.45-.83,1.82-.83,2.62v3.86c0,3.91.32,4.18,4.16,4.45v1.23h-12.22Z"/><path class="cls-3" d="M119.94,13.13c0-9,6.86-13.13,12.37-13.13,7.48,0,12.32,5.41,12.32,12.33,0,8.41-6.19,12.86-12.27,12.86-8.06,0-12.43-6.27-12.43-12.06ZM132.79,23.58c4.01,0,7.17-2.68,7.17-10.18,0-6.11-2.91-11.79-8.11-11.79-4.21,0-7.23,3.7-7.23,10.23,0,6.97,3.02,11.74,8.16,11.74Z"/><path class="cls-3" d="M146.46,24.54v-1.23c3.64-.22,3.9-.48,3.9-4.5V6.32c0-4.02-.31-4.23-3.64-4.45V.64h11.6v1.23c-3.59.22-3.9.43-3.9,4.45v12.65c0,2.09.26,3.16.99,3.54.73.38,1.82.43,3.75.43,2.02,0,3.69-.38,4.52-1.34.63-.64,1.25-1.88,1.77-3.59l1.35.16c-.26,1.23-1.04,5.36-1.35,6.37h-18.98Z"/><path class="cls-3" d="M182.07,23.31l.99-.11c1.46-.16,1.92-.59.89-3.11l-1.77-4.34h-7.23c-.37.86-1.25,3.38-1.77,4.98-.63,1.82-.16,2.36,1.35,2.46l1.2.11v1.23h-9.1v-1.23c2.29-.27,3.18-.48,4.68-4.18L179.01.32l1.29-.32,7.75,19.78c1.25,3.16,2.24,3.38,4.52,3.54v1.23h-10.5v-1.23ZM175.52,13.93h6.03l-3.01-8.15h-.1l-2.91,8.15Z"/><path class="cls-3" d="M52.75,30.13h1.69v4.89c0,.55.06.95.19,1.2.2.45.64.67,1.31.67s1.11-.22,1.31-.67c.13-.25.19-.65.19-1.2v-4.89h1.69v4.89c0,.85-.13,1.51-.39,1.98-.49.86-1.42,1.3-2.8,1.3s-2.31-.43-2.8-1.3c-.26-.47-.39-1.13-.39-1.98v-4.89Z"/><path class="cls-3" d="M62.15,30.13h1.74l3.16,5.55v-5.55h1.55v7.96h-1.66l-3.24-5.64v5.64h-1.55v-7.96Z"/><path class="cls-3" d="M73.19,38.08h-1.65v-7.96h1.65v7.96Z"/><path class="cls-3" d="M80.8,30.13h1.73l-2.71,7.96h-1.57l-2.69-7.96h1.77l1.73,6.04,1.74-6.04Z"/><path class="cls-3" d="M90.38,31.54h-4.21v1.69h3.86v1.38h-3.86v2.05h4.4v1.43h-6.03v-7.96h5.83v1.41Z"/><path class="cls-3" d="M98.22,30.33c.29.13.54.31.74.56.17.2.3.42.4.67.1.24.15.53.15.84,0,.38-.1.75-.29,1.12-.19.36-.51.62-.94.77.37.15.63.36.78.63.15.27.23.69.23,1.25v.53c0,.37.02.61.04.74.04.21.15.35.31.45v.2h-1.83c-.05-.18-.09-.32-.11-.43-.05-.22-.07-.45-.07-.68v-.74c-.02-.51-.1-.85-.27-1.02-.17-.17-.48-.25-.94-.25h-1.62v3.12h-1.63v-7.96h3.8c.54.01.96.08,1.26.2ZM94.79,31.51v2.14h1.79c.35,0,.62-.05.8-.13.31-.15.47-.45.47-.89,0-.48-.15-.81-.46-.97-.17-.09-.43-.14-.77-.14h-1.83Z"/><path class="cls-3" d="M103.14,35.63c.05.36.15.64.3.82.27.33.75.49,1.41.49.4,0,.73-.05.98-.13.47-.16.71-.47.71-.92,0-.26-.12-.47-.35-.61-.23-.14-.6-.26-1.1-.37l-.86-.19c-.84-.19-1.43-.39-1.74-.61-.54-.37-.8-.94-.8-1.72,0-.71.26-1.3.79-1.77.52-.47,1.29-.71,2.31-.71.85,0,1.57.22,2.17.67.6.45.91,1.09.94,1.94h-1.6c-.03-.48-.24-.82-.64-1.02-.27-.13-.6-.2-.99-.2-.44,0-.79.09-1.05.26-.26.17-.39.41-.39.72,0,.28.13.5.39.64.17.09.52.21,1.06.33l1.4.33c.61.14,1.07.34,1.38.58.47.37.71.91.71,1.62s-.28,1.33-.84,1.81c-.56.48-1.36.72-2.38.72s-1.87-.24-2.47-.71c-.6-.47-.9-1.12-.9-1.95h1.59Z"/><path class="cls-3" d="M112.34,38.08h-1.65v-7.96h1.65v7.96Z"/><path class="cls-3" d="M121.33,30.13v1.41h-2.38v6.55h-1.67v-6.55h-2.39v-1.41h6.44Z"/><path class="cls-3" d="M127.59,30.13h1.88l-2.66,4.97v2.98h-1.66v-2.98l-2.75-4.97h1.96l1.65,3.47,1.58-3.47Z"/><path class="cls-3" d="M136.49,30.96c.64-.66,1.45-.98,2.45-.98,1.32,0,2.29.44,2.9,1.32.34.49.52.99.54,1.48h-1.66c-.1-.38-.24-.67-.41-.86-.3-.34-.74-.52-1.32-.52s-1.06.24-1.4.73c-.34.49-.52,1.18-.52,2.07s.18,1.56.54,2c.36.45.82.67,1.37.67s1.01-.19,1.31-.57c.17-.21.3-.51.41-.92h1.65c-.14.87-.51,1.57-1.09,2.11-.58.54-1.34.82-2.25.82-1.13,0-2.02-.37-2.67-1.1-.65-.74-.97-1.75-.97-3.03,0-1.39.37-2.46,1.1-3.21Z"/><path class="cls-3" d="M144.72,38.08v-7.96h1.65v3.04h3.09v-3.04h1.65v7.96h-1.65v-3.55h-3.09v3.55h-1.65Z"/><path class="cls-3" d="M155.86,38.08h-1.65v-7.96h1.65v7.96Z"/><path class="cls-3" d="M159.54,30.96c.64-.66,1.45-.98,2.44-.98,1.33,0,2.3.44,2.91,1.32.34.49.52.99.54,1.48h-1.66c-.1-.38-.24-.67-.41-.86-.29-.34-.74-.52-1.32-.52s-1.06.24-1.4.73c-.34.49-.51,1.18-.51,2.07s.18,1.56.54,2c.36.45.82.67,1.37.67s1.01-.19,1.31-.57c.17-.21.3-.51.41-.92h1.65c-.14.87-.5,1.57-1.09,2.11-.59.54-1.34.82-2.25.82-1.13,0-2.02-.37-2.67-1.1-.65-.74-.97-1.75-.97-3.03,0-1.39.37-2.46,1.11-3.21Z"/><path class="cls-3" d="M169.37,30.13h1.88l2.81,7.96h-1.8l-.52-1.64h-2.93l-.54,1.64h-1.74l2.84-7.96ZM169.26,35.08h2.04l-1-3.13-1.03,3.13Z"/><path class="cls-3" d="M181.09,32.61c-.13-.54-.43-.92-.92-1.14-.27-.12-.58-.18-.91-.18-.64,0-1.17.24-1.58.72-.41.48-.62,1.21-.62,2.18s.22,1.67.67,2.07c.44.4.95.61,1.52.61s1.02-.16,1.37-.48c.36-.32.58-.74.66-1.26h-1.84v-1.33h3.32v4.27h-1.1l-.17-.99c-.32.38-.61.64-.86.79-.44.27-.98.4-1.62.4-1.05,0-1.92-.37-2.59-1.1-.7-.73-1.05-1.73-1.05-3.01s.35-2.32,1.06-3.1c.71-.78,1.65-1.17,2.81-1.17,1.01,0,1.82.26,2.44.77.61.51.97,1.15,1.06,1.92h-1.64Z"/><path class="cls-3" d="M191.57,37.38c-.6.62-1.47.93-2.6.93s-2.01-.31-2.61-.93c-.8-.76-1.21-1.85-1.21-3.28s.4-2.55,1.21-3.28c.6-.62,1.47-.93,2.61-.93s2,.31,2.6.93c.8.73,1.21,1.83,1.21,3.28s-.4,2.52-1.21,3.28ZM190.54,36.17c.39-.49.58-1.18.58-2.07s-.19-1.58-.58-2.07c-.39-.49-.91-.73-1.57-.73s-1.18.24-1.58.73c-.39.48-.59,1.18-.59,2.07s.19,1.59.59,2.07c.4.49.92.73,1.58.73s1.18-.24,1.57-.73Z"/><path class="cls-2" d="M36.18.64v22.8c0,8.37-14.22,11.88-14.22,11.88,0,0-14.22-3.51-14.22-11.88V.64h28.44Z"/><path class="cls-5" d="M8.52,8.54l.17-.93h1.32v4.23h-1.05v-3.29h-.44Z"/><path class="cls-5" d="M13.74,8.63c0,.44-.28.82-.66.95h0c.5.18.83.56.83,1.11,0,.87-.87,1.27-1.59,1.27s-1.59-.4-1.59-1.27c0-.55.33-.93.83-1.1h0c-.38-.14-.66-.52-.66-.96,0-.8.71-1.2,1.42-1.2s1.42.4,1.42,1.2ZM11.86,8.66c0,.26.21.47.46.47s.46-.21.46-.47-.2-.47-.46-.47-.46.21-.46.47ZM11.82,10.55c0,.28.22.51.5.51s.5-.23.5-.51-.22-.52-.5-.52-.5.23-.5.52Z"/><path class="cls-5" d="M14.46,8.66v-1.01h3.47l-2.32,4.19h-1.3l1.84-3.18h-1.69Z"/><path class="cls-5" d="M21.32,9.68c0,1.06-.51,2.2-1.72,2.2s-1.72-1.14-1.72-2.2.51-2.2,1.72-2.2,1.72,1.14,1.72,2.2ZM18.93,9.67c0,.39.13,1.27.67,1.27s.67-.87.67-1.27-.13-1.26-.67-1.26-.67.86-.67,1.26Z"/><path class="cls-5" d="M10.84,18.67s.43.31-.34,2.16c-.16.37-.84,1.67-.01,2.61.59.66,1.52.42,1.52.42.06.36.09.53.09.53h-.68c-.62.03-.65.71-.65.71v2.88l.47.47h1.56c.03-.71-.88-1.01-.88-1.01v-1.25h1.45c.77-.06,1.18-1.54,1.18-1.54l.56.06c.03.09-.8,1.6-.8,1.6l1.68,1.6v.48h1.83c.09-.45-.8-.83-.8-.83l-1.15-1.25c-.15-.16-.04-.32.16-.39.22-.07.39-.12.64-.22.25-.1,1.3-.76.86-2.04-.43-1.26-1.89-.74-1.89-.89s.77-1.93.77-1.93l-.62-.92.74.48,1.95-.36c.21,1.66.97,1.25.97,1.25v-1.25s-.03-.82-.77-1.07c-.88-.3-1.5-.12-1.77-.18-.26-.06-.19-.3-.19-.3l1.16.03,1.03-.86.56-.06c1.03-.18.65-.98.65-.98h-1.48c-.56,0-2.01,1.07-2.01,1.07,0,0-.21-1.19.88-1.6,1.09-.42.86-.74.86-.74l-1.03.36s-.12-.12.06-.39c.09-.14.92-.45.92-.45.65-.24.44-.77.44-.77l-1.15.12c-.27-.24-.24-.27-.62-.33-.38-.06-.97.48-.91.3.06-.18.12-.71.18-1.25.05-.48-1.5,1.75-1.5,1.75-2.01,3.83-1.45,6.42-1.45,6.42-1.33.62-1.33,2.07-1.33,1.69,0-2.15.71-2,.68-3.36-.03-1.36-1.47-1.24-1.47-1.24-.57,0-.74.36-.74.36,0,0,.29-.06.4.09Z"/><polygon class="cls-2" points="16.55 14.6 17.36 14.6 17.19 14.31 16.55 14.6"/><path class="cls-5" d="M21.97,28.54s-1.15.12-2.17-.91c-.98-.98-.94-2.15-.94-2.15v-2.23s-.28-.07-.29-.35c-.02-.35.34-.29.34-.29h.72c-.04.76.43.67.43.67.5.02.4-.67.4-.67h1.5,0,1.5s-.11.69.4.67c0,0,.47.09.43-.67h.72s.36-.05.34.29c-.01.27-.29.35-.29.35v2.23s.04,1.16-.94,2.15c-1.02,1.03-2.17.91-2.17.91h0Z"/><path class="cls-5" d="M33.09,18.67s-.43.31.34,2.16c.16.37.84,1.67.01,2.61-.59.66-1.52.42-1.52.42-.06.36-.09.53-.09.53h.68c.62.03.65.71.65.71v2.88l-.47.47h-1.56c-.03-.71.89-1.01.89-1.01v-1.25h-1.45c-.77-.06-1.18-1.54-1.18-1.54l-.56.06c-.03.09.8,1.6.8,1.6l-1.68,1.6v.48h-1.83c-.09-.45.8-.83.8-.83l1.15-1.25c.15-.16.04-.32-.16-.39-.22-.07-.39-.12-.64-.22-.25-.1-1.3-.76-.86-2.04.43-1.26,1.89-.74,1.89-.89s-.77-1.93-.77-1.93l.62-.92-.74.48-1.95-.36c-.21,1.66-.97,1.25-.97,1.25v-1.25s.03-.82.77-1.07c.88-.3,1.5-.12,1.77-.18.27-.06.19-.3.19-.3l-1.16.03-1.03-.86-.56-.06c-1.03-.18-.65-.98-.65-.98h1.48c.56,0,2.01,1.07,2.01,1.07,0,0,.21-1.19-.88-1.6-1.09-.42-.86-.74-.86-.74l1.03.36s.12-.12-.06-.39c-.1-.14-.92-.45-.92-.45-.65-.24-.44-.77-.44-.77l1.15.12c.26-.24.23-.27.62-.33.38-.06.97.48.91.3-.06-.18-.12-.71-.18-1.25-.05-.48,1.5,1.75,1.5,1.75,2.01,3.83,1.45,6.42,1.45,6.42,1.33.62,1.33,2.07,1.33,1.69,0-2.15-.7-2-.68-3.36.03-1.36,1.47-1.24,1.47-1.24.57,0,.74.36.74.36,0,0-.29-.06-.4.09Z"/><polygon class="cls-2" points="27.38 14.6 26.57 14.6 26.74 14.31 27.38 14.6"/><path class="cls-5" d="M22.13,20.03v-5.77s0,0,0,0c.08-.05.14-.14.14-.25,0-.16-.13-.29-.29-.29,0,0-.01,0-.02,0,0,0-.01,0-.02,0-.16,0-.29.13-.29.29,0,.11.06.2.14.25h0s0,5.78,0,5.78l-1.89,1.94v.62h.28v-.49s1.77-1.82,1.77-1.82l1.77,1.82v.49h.29v-.62l-1.89-1.94Z"/><polygon class="cls-4" points="21.99 .64 21.99 2.5 24.03 .64 21.99 .64"/><polygon class="cls-4" points="34.23 11.84 36.18 11.84 36.18 9.97 34.23 11.84"/><polygon class="cls-4" points="26.07 .64 21.99 4.37 21.99 6.24 28.11 .64 26.07 .64"/><polygon class="cls-1" points="30.15 .64 21.99 8.1 21.99 9.97 32.19 .64 30.15 .64"/><polygon class="cls-4" points="34.23 .64 21.99 11.84 24.03 11.84 36.18 .64 34.23 .64"/><polygon class="cls-4" points="26.07 11.84 28.11 11.84 36.18 4.37 36.18 2.51 26.07 11.84"/><polygon class="cls-4" points="30.15 11.84 32.19 11.84 36.18 8.1 36.18 6.24 30.15 11.84"/><path class="cls-2" d="M5.35,2.82l-1.3.48c-.85.32-1.72.62-2.42.89-.62.24-.67.34-.71.74h-.2v-1.84h.2l.03.2c.04.27.11.28.38.2.21-.07.64-.24,1.01-.39v-1.3c-.21-.09-.6-.22-.9-.31-.37-.13-.46-.07-.5.24l-.02.2h-.2V.37h.2c.05.43.08.51.71.76l3.64,1.41.09.28ZM2.65,1.88v1.11l1.54-.55v-.02l-1.54-.55Z"/><path class="cls-2" d="M5.27,7.33c0,.78-.17,1.5-.61,1.96-.32.32-.84.59-1.46.59-1.72,0-2.48-1.33-2.48-2.97v-1.72h.2c.04.57.1.63.85.63h2.45c.76,0,.81-.06.86-.57h.2v2.08ZM1.78,6.61c-.64,0-.78.07-.78.61,0,1.16.82,1.76,1.98,1.76,1.5,0,2.01-.76,2.01-1.88,0-.23-.03-.41-.06-.45-.04-.04-.16-.04-.34-.04H1.78Z"/><path class="cls-2" d="M5.27,16.54l-3.34,1.55,3.34,1.46v1.32h-.2c-.06-.57-.08-.59-.86-.58l-2.45.07c-.78.02-.8.04-.85.61h-.2v-1.95h.2c.05.55.07.57.85.56l2.69-.03v-.03l-3.65-1.59v-.21l3.51-1.53v-.03l-1.81-.05c-.63-.01-1.02,0-1.23.02-.27.03-.32.17-.36.64h-.2v-1.66h.2c.03.35.1.49.36.54.21.04.62.09,1.3.13l1.44.08c.93.05,1,0,1.06-.6h.2v1.29Z"/><path class="cls-2" d="M5.36,23.75l-1.3.5c-.85.33-1.71.65-2.41.92-.62.25-.67.34-.7.75h-.2s-.02-1.84-.02-1.84h.2s.03.19.03.19c.05.27.12.28.38.19.21-.07.64-.25,1-.4l-.02-1.3c-.21-.09-.61-.21-.9-.3-.37-.12-.46-.06-.49.25l-.02.2h-.2s-.02-1.55-.02-1.55h.2c.06.43.09.51.72.74l3.66,1.36.09.28ZM2.65,22.85v1.11s1.55-.57,1.55-.57v-.02l-1.55-.53Z"/><path class="cls-2" d="M4.51,25.88c.72-.23.76-.3.63-.86l.19-.06.59,1.89-.19.06c-.19-.46-.26-.5-.98-.27l-2.16.67c-.73.23-1.33.35-1.95-.1-.23-.16-.45-.39-.63-.68l.16-.14c.35.38.7.46,1.08.43.34-.03.73-.14,1.19-.28l2.07-.65Z"/><path class="cls-2" d="M6.23,31.84c-1.29.75-2.65.35-3.33-.8-.7-1.19-.27-2.49.83-3.14.99-.58,2.53-.55,3.36.87.61,1.04.31,2.38-.86,3.07ZM4.38,28.57c-1.09.64-1.66,1.62-1.15,2.48.37.63,1.18.8,2.31.14,1.26-.74,1.67-1.65,1.2-2.46-.38-.64-1.28-.78-2.35-.15Z"/><path class="cls-2" d="M13.76,34.77c-.05.1-.3.56-.49.95l-.18-.1c.12-.32.15-.53.12-.68-.04-.16-.21-.32-.57-.55l-.3-.19c-.22-.14-.24-.15-.37.06l-.79,1.26.51.32c.51.32.54.29.89-.13l.19.12-.79,1.26-.19-.12c.24-.51.24-.54-.27-.86l-.51-.32-.61.97c-.21.34-.3.52-.24.67.06.14.27.28.52.43.3.19.59.33.8.26.17-.05.4-.19.68-.41l.16.15c-.15.19-.66.71-.81.85l-2.89-1.82.1-.17c.53.28.61.27,1.01-.37l1.3-2.08c.4-.64.38-.72-.04-1.04l.1-.17,2.68,1.68Z"/><path class="cls-2" d="M15.37,35.41l.1,3.68,2.66-2.49,1.22.52-.08.18c-.54-.17-.58-.16-.87.55l-.9,2.28c-.29.73-.28.75.22,1.02l-.08.18-1.79-.77.08-.18c.52.16.55.16.85-.56l1.04-2.48h-.03s-2.9,2.72-2.9,2.72l-.19-.08-.02-3.83h-.03s-.76,1.63-.76,1.63c-.26.57-.41.93-.46,1.13-.08.26.03.37.44.59l-.08.18-1.52-.66.08-.18c.33.11.49.1.64-.12.12-.18.33-.54.63-1.14l.64-1.29c.41-.84.4-.92-.14-1.21l.08-.18,1.18.51Z"/><path class="cls-2" d="M26.22,36.34c.73-.29,1.46-.39,2.05-.14.42.18.85.57,1.08,1.14.63,1.6-.34,2.79-1.86,3.39l-1.6.62-.07-.18c.52-.25.55-.32.28-1.03l-.89-2.28c-.27-.7-.35-.74-.84-.59l-.07-.18,1.94-.76ZM26.84,39.84c.25.59.37.69.86.48,1.07-.45,1.3-1.44.85-2.51-.59-1.38-1.48-1.56-2.52-1.12-.21.09-.37.19-.39.24-.02.05.02.16.1.33l1.1,2.59Z"/><path class="cls-2" d="M31.4,34.13c.06.09.32.54.56.91l-.18.11c-.22-.27-.38-.4-.52-.45-.16-.05-.38.01-.76.21l-.31.16c-.24.12-.25.13-.13.35l.68,1.32.54-.27c.54-.27.53-.32.35-.83l.2-.1.68,1.32-.2.1c-.32-.46-.34-.48-.88-.2l-.54.27.52,1.02c.19.36.3.52.45.55.15.02.38-.09.64-.23.31-.16.59-.33.64-.55.05-.17.04-.44,0-.79l.21-.06c.08.23.27.93.31,1.13l-3.04,1.56-.09-.17c.52-.31.54-.39.2-1.06l-1.12-2.18c-.35-.67-.42-.7-.91-.49l-.09-.17,2.81-1.44Z"/><path class="cls-2" d="M33.57,32.79l.1.17c-.43.32-.45.39-.05,1.04l1.29,2.08c.4.64.48.66.95.42l.1.17-1.68,1.04-.1-.17c.44-.32.46-.4.06-1.04l-1.29-2.08c-.4-.64-.47-.66-.96-.41l-.1-.17,1.68-1.04Z"/><path class="cls-2" d="M41.62,28.38c.24.08.45.15.61.15-.01.45-.03,1.03-.19,1.54-.48,1.48-1.69,2.19-3.02,1.76-1.52-.49-1.92-1.96-1.49-3.27.19-.57.46-1,.59-1.22.23.06.59.13,1.11.24l-.04.22c-.9-.1-1.25.4-1.43.95-.3.92.2,1.77,1.41,2.16,1.02.33,2.23.24,2.62-.97.07-.21.08-.35.07-.47-.01-.14-.11-.23-.38-.32l-.56-.18c-.45-.15-.5-.13-.78.56l-.2-.07.6-1.85.2.06c-.06.36-.04.4.42.55l.46.15Z"/><path class="cls-2" d="M38.42,24.68l.19.03c-.04.56,0,.62.76.73l2.41.34c.4.06.6.04.7-.06.1-.11.14-.33.18-.56.05-.32.14-1.16-.01-1.33-.12-.14-.34-.28-.65-.44l.07-.22c.22.07.9.33,1.1.41l-.53,3.76-.2-.03c.04-.59,0-.65-.75-.76l-2.43-.34c-.75-.11-.81-.06-.93.49l-.19-.03.28-2Z"/><path class="cls-2" d="M41,18.38c1.49.1,2.39,1.21,2.3,2.54-.09,1.38-1.18,2.21-2.45,2.13-1.15-.08-2.4-.97-2.28-2.61.08-1.21,1.08-2.14,2.44-2.05ZM40.68,22.12c1.26.09,2.28-.4,2.35-1.4.05-.73-.52-1.33-1.83-1.42-1.45-.1-2.31.42-2.37,1.36-.05.74.62,1.37,1.86,1.45Z"/><path class="cls-2" d="M38.66,16.29c0-.51.06-.87.24-1.15.18-.27.48-.46.89-.46.59,0,1,.36,1.21.93.2-.11.69-.39,1-.61.38-.27.64-.45.78-.58.17-.17.27-.28.32-.48l.18.03v.29c-.07.76-.27,1-.66,1.27-.32.22-.77.46-1.13.66-.2.11-.27.2-.27.41v.22h.94c.76,0,.81-.06.85-.59h.2v1.97h-.2c-.04-.56-.1-.62-.85-.62h-2.45c-.76,0-.81.06-.85.59h-.2v-1.88ZM40.98,16.81v-.27c0-.28-.04-.48-.18-.66-.22-.28-.56-.38-.9-.38-.73,0-.98.5-.98.95,0,.34.03.35.25.35h1.81Z"/><path class="cls-2" d="M38.66,11.47h.2c.04.53.1.59.85.59h2.45c.76,0,.81-.06.85-.59h.2v1.97h-.2c-.04-.55-.1-.6-.85-.6h-2.45c-.76,0-.81.06-.85.6h-.2v-1.97Z"/><path class="cls-2" d="M38.57,8.67l1.3-.48c.85-.32,1.72-.62,2.42-.89.62-.24.67-.34.71-.74h.2v1.84h-.2l-.03-.2c-.04-.27-.11-.28-.38-.2-.21.07-.64.24-1.01.38v1.3c.21.09.6.22.9.32.37.13.46.07.5-.24l.02-.2h.2v1.55h-.2c-.06-.43-.08-.51-.71-.76l-3.64-1.41-.08-.28ZM41.28,9.6v-1.11l-1.54.55v.02l1.54.55Z"/><path class="cls-2" d="M38.66,4.7l3.34-1.55-3.34-1.46V.37h.2c.06.57.08.6.85.58l2.45-.07c.78-.02.8-.04.85-.61h.2v1.95h-.2c-.06-.55-.07-.57-.85-.56l-2.69.03v.03l3.65,1.59v.21l-3.51,1.53v.03l1.81.05c.63.01,1.01,0,1.22-.02.27-.03.32-.17.36-.64h.2v1.66h-.2c-.03-.35-.1-.49-.36-.54-.21-.03-.62-.09-1.3-.13l-1.44-.08c-.93-.05-1,0-1.06.6h-.2v-1.29Z"/><circle class="cls-2" cx="21.96" cy="39.82" r=".77"/><circle class="cls-2" cx="36.55" cy="33.34" r=".77"/><circle class="cls-2" cx="3.04" cy="12.74" r=".77"/><path class="cls-2" d="M9.53,31.58c.38.34.61.63.69.95.08.32.02.66-.25.97-.39.44-.94.5-1.5.27-.05.22-.18.77-.22,1.15-.06.46-.1.77-.09.96.01.24.02.39.14.56l-.14.12-.21-.21c-.53-.55-.57-.86-.51-1.33.05-.39.18-.88.27-1.28.05-.22.03-.33-.12-.47l-.17-.15-.63.69c-.51.56-.5.64-.14,1.03l-.13.14-1.46-1.32.13-.15c.44.35.52.34,1.03-.22l1.64-1.81c.51-.56.5-.64.14-1.03l.13-.15,1.4,1.26ZM7.58,32.95l.2.18c.21.19.38.29.61.31.36.02.65-.16.88-.41.49-.54.28-1.06-.05-1.36-.25-.23-.28-.21-.43-.05l-1.21,1.34Z"/></svg>