<?xml version="1.0" encoding="utf-8"?>
<!-- Generator: Adobe Illustrator 27.4.0, SVG Export Plug-In . SVG Version: 6.00 Build 0)  -->
<svg version="1.1" id="Layer_1" xmlns="http://www.w3.org/2000/svg" xmlns:xlink="http://www.w3.org/1999/xlink" x="0px" y="0px"
	 viewBox="0 0 1000 1350" style="enable-background:new 0 0 1000 1350;" xml:space="preserve">
<g id="Layer_2_00000026862125732595351510000013505043297231640473_">
</g>
<path d="M723.8,473.5L536.2,645.4h-31.5l189-171.9h-31.5L504.7,616.7v-28.6l126-114.6h-31.5l-94.5,85.9v-28.6l63-57.3h-31.5
	l-31.5,28.6v-28.6H284.5v349.9c0,128.5,219.7,182.4,219.7,182.4s219.6-53.9,219.6-182.4v-178h-30.1l30.1-28.7v-28.6l-61.6,57.3
	h-31.5l93.1-86v-28.6L599.2,645.4h-31.5l156.1-143.2V473.5z M504,674.1c0.1,0,0.2,0.1,0.3,0.1c0.1,0,0.2-0.1,0.3-0.1
	c2.4,0,4.4,1.9,4.4,4.4c0,1.7-0.9,3.1-2.2,3.9v0.1v88.6l29.1,29.7v9.4h-4.4v-7.5l-27.3-27.9l-27.3,27.9v7.5h-4.4v-9.4l29.3-29.7
	v-88.6v-0.1c-1.3-0.8-2.2-2.3-2.2-3.9C499.6,676.1,501.6,674.1,504,674.1z M467.7,578.6c18.6-0.1,26.5,17.4,26.5,33.7
	c0,16.2-7.9,33.7-26.5,33.7c-18.6,0-26.5-17.5-26.5-33.7S449.2,578.6,467.7,578.6z M388.3,596.6L388.3,596.6V581H442l-35.9,64.3H386
	l28.5-48.7H388.3z M333.3,596.1c0-12.3,10.9-18.3,21.9-18.3c11,0,21.9,6,21.9,18.3c0,6.8-4.3,12.6-10.1,14.6v0.2
	c7.7,2.6,12.8,8.4,12.8,16.9c0,13.3-13.5,19.4-24.6,19.4c-11.1,0-24.6-6.1-24.6-19.4c0-8.4,5.1-14.3,12.8-16.9v-0.2
	C337.5,608.7,333.3,602.9,333.3,596.1z M319.6,645.4h-16.3v-50.5h-6.8v-0.1l2.7-14.3h20.4V645.4z M418.2,784
	c0,0-11.8,27.3-11.8,29.6s22.5-5.6,29.2,13.7c6.9,19.6-9.4,29.7-13.2,31.2c-3.8,1.4-6.5,2.2-9.9,3.3c-3.1,1-4.7,3.5-2.4,6l17.8,19.1
	c0,0,13.7,5.9,12.3,12.8h-28.3v-7.3l-26-24.6c0,0,12.7-23.2,12.3-24.6l-8.7-0.9c0,0-6.4,22.8-18.2,23.7H349v19.1
	c0,0,14.2,4.6,13.7,15.5h-24.1l-7.3-7.3v-44.2c0,0,0.4-10.5,10-11h10.5c0,0-0.5-2.7-1.4-8.2c0,0-14.5,3.8-23.5-6.4
	c-12.8-14.4-2.2-34.4,0.2-40.1c11.9-28.4,5.3-33.2,5.3-33.2c-1.8-2.3-6.5-0.8-6.5-0.8s2.6-5.4,11.4-5.5c0,0,22.4-1.8,22.8,19.1
	c0.4,20.9-10.5,18.5-10.5,51.6c0,5.8,0-16.4,20.5-26c0,0-8.7-39.7,22.3-98.5c0,0,24-34.3,23.2-26.9c-0.9,8.2-1.8,16.4-2.7,19.1
	c-0.9,2.7,8.2-5.5,14.1-4.6c5.9,0.9,5.5,1.4,9.6,5l17.8-1.8c0,0,3.2,8.2-6.8,11.8c0,0-12.6,4.6-14.1,6.8c-2.7,4.1-0.9,5.9-0.9,5.9
	l16-5.5c0,0,3.7,5-13.2,11.4c-16.9,6.4-13.7,24.6-13.7,24.6s22.3-16.4,31-16.4s22.8,0,22.8,0s5.9,12.3-10,15l-8.7,0.9l-15.9,13.2
	l-18-0.5c0,0-1.2,3.6,2.9,4.5c4.2,0.9,13.7-1.8,27.4,2.7c11.5,3.8,11.9,16.4,11.9,16.4v19.1c0,0-11.8,6.4-15-19.1l-30.1,5.5
	l-11.4-7.3L418.2,784z M552.3,820.5v34.3c0,0,0.6,17.9-14.5,32.9c-15.8,15.8-33.5,14-33.4,14c0,0-17.7,1.8-33.5-14
	c-15.1-15.1-14.5-32.9-14.5-32.9v-34.3c0,0-4.3-1.1-4.5-5.3c-0.3-5.3,5.3-4.5,5.3-4.5h11.2c-0.6,11.7,6.7,10.3,6.7,10.3
	c7.8,0.3,6.1-10.3,6.1-10.3h23.1h0.1h23.1c0,0-1.7,10.6,6.1,10.3c0,0,7.3,1.4,6.7-10.3h11.2c0,0,5.6-0.8,5.3,4.5
	C556.6,819.4,552.3,820.5,552.3,820.5z M571.5,682.7c4.1-3.6,3.6-4.1,9.6-5c5.9-0.9,15.1,7.3,14.1,4.6c-0.9-2.7-1.8-10.9-2.7-19.1
	c-0.8-7.4,23.2,26.9,23.2,26.9c31,58.8,22.4,98.5,22.4,98.5c20.5,9.6,20.5,31.8,20.5,26c0-33.1-10.9-30.7-10.4-51.6
	c0.4-20.9,22.8-19.1,22.8-19.1c8.8,0.1,11.4,5.5,11.4,5.5s-4.5-1.5-6.2,0.8c0,0-6.6,4.8,5.3,33.2c2.4,5.7,13,25.7,0.2,40.1
	c-9,10.2-23.5,6.4-23.5,6.4c-0.9,5.5-1.4,8.2-1.4,8.2h10.5c9.6,0.5,10,11,10,11v44.2l-7.3,7.3h-24.1c-0.4-10.9,13.7-15.5,13.7-15.5
	V866h-22.4c-11.8-0.9-18.2-23.7-18.2-23.7l-8.7,0.9c-0.5,1.4,12.3,24.6,12.3,24.6l-26,24.6v7.3h-28.2c-1.4-6.9,12.3-12.8,12.3-12.8
	l17.8-19.1c2.3-2.5,0.7-5-2.4-6c-3.4-1.1-6.1-1.9-9.9-3.3c-3.9-1.5-20.1-11.6-13.2-31.2c6.7-19.3,29.2-11.4,29.2-13.7
	S590.4,784,590.4,784l9.6-14.1l-11.4,7.3l-30.1-5.5c-3.2,25.5-15.1,19.1-15.1,19.1v-19.1c0,0,0.4-12.6,11.9-16.4
	c13.7-4.5,23.2-1.8,27.3-2.7s2.9-4.5,2.9-4.5l-18,0.5l-16-13.2l-8.7-0.9c-16-2.7-10-15-10-15s14.1,0,22.8,0c8.6,0,31,16.4,31,16.4
	s3.2-18.2-13.7-24.6c-16.9-6.4-13.2-11.4-13.2-11.4l15.9,5.5c0,0,1.8-1.8-0.9-5.9c-1.5-2.2-14.2-6.8-14.2-6.8
	c-10-3.6-6.8-11.8-6.8-11.8L571.5,682.7z"/>
<g>
	<path d="M175.6,362.8V357c17.1-1,18.3-2.3,18.3-21.1v-58.6c0-18.9-1.5-19.9-17.1-20.9v-5.8h54.5v5.8c-16.8,1-18.3,2-18.3,20.9v59.4
		c0,9.8,1.2,14.8,4.7,16.6c3.4,1.8,8.5,2,17.6,2c9.5,0,17.4-1.8,21.2-6.3c3-3,5.9-8.8,8.3-16.9l6.3,0.8c-1.2,5.8-4.9,25.2-6.3,29.9
		H175.6z"/>
	<path d="M273,309.2c0-42.3,32.2-61.7,58.1-61.7c35.2,0,57.9,25.4,57.9,57.9c0,39.5-29.1,60.4-57.6,60.4
		C293.5,365.8,273,336.4,273,309.2z M333.4,358.3c18.8,0,33.7-12.6,33.7-47.8c0-28.7-13.7-55.4-38.1-55.4
		c-19.8,0-33.9,17.4-33.9,48.1C295,335.9,309.2,358.3,333.4,358.3z"/>
	<path d="M413,362.8V357c17.6-1.3,18.8-2.5,18.8-20.9v-15.4c0-4.8-0.5-6.3-3.7-11.8c-5.1-9.3-12-20.9-23.2-40
		c-6.3-11.1-8.1-11.3-19.1-12.6v-5.8h48.9v5.8l-7.6,1c-5.6,0.7-5.9,2.3-3.4,7.3c1.2,2.5,16.8,30.2,22.7,40
		c7.6-13.3,15.1-30.2,19-38.5c3.2-7,2.7-8.1-3.9-8.8l-7.1-1v-5.8h43v5.8c-13.2,1.3-14.2,3-20.7,12.8c-6.6,9.8-13.9,21.9-22,36.5
		c-3.7,6.8-3.9,8.5-3.9,12.3V336c0,18.4,1.5,19.6,19.6,20.9v5.8H413V362.8z"/>
	<path d="M491.2,309.2c0-42.3,32.2-61.7,58.1-61.7c35.2,0,57.9,25.4,57.9,57.9c0,39.5-29.1,60.4-57.6,60.4
		C511.7,365.8,491.2,336.4,491.2,309.2z M551.5,358.3c18.8,0,33.7-12.6,33.7-47.8c0-28.7-13.7-55.4-38.1-55.4
		c-19.8,0-33.9,17.4-33.9,48.1C513.2,335.9,527.3,358.3,551.5,358.3z"/>
	<path d="M615.7,362.8V357c17.1-1,18.3-2.3,18.3-21.1v-58.6c0-18.9-1.5-19.9-17.1-20.9v-5.8h54.5v5.8c-16.9,1-18.3,2-18.3,20.9v59.4
		c0,9.8,1.2,14.8,4.7,16.6c3.4,1.8,8.5,2,17.6,2c9.5,0,17.3-1.8,21.2-6.3c2.9-3,5.9-8.8,8.3-16.9l6.4,0.8
		c-1.2,5.8-4.9,25.2-6.4,29.9H615.7z"/>
	<path d="M783,357l4.6-0.5c6.8-0.8,9-2.8,4.2-14.6l-8.3-20.4h-33.9c-1.7,4-5.9,15.9-8.3,23.4c-2.9,8.6-0.7,11.1,6.3,11.6l5.6,0.5
		v5.8h-42.7V357c10.7-1.3,14.9-2.3,22-19.6l36.2-88.3l6.1-1.5l36.4,92.9c5.9,14.8,10.5,15.9,21.2,16.6v5.8H783V357z M752.2,313h28.3
		l-14.1-38.3h-0.5L752.2,313z"/>
</g>
<path d="M505.2,677.7"/>
<g>
	<path d="M348.1,596.6c0,4,3.2,7.2,7.1,7.2s7.1-3.2,7.1-7.2s-3.1-7.3-7.1-7.3S348.1,592.6,348.1,596.6z M347.5,625.6
		c0,4.4,3.4,7.8,7.7,7.8c4.3,0,7.7-3.5,7.7-7.8c0-4.4-3.4-8-7.7-8C351,617.6,347.5,621.2,347.5,625.6z"/>
	<path d="M457.4,612.2c0,6.1,2,19.5,10.4,19.5s10.4-13.4,10.4-19.5c0-6-2-19.3-10.4-19.3C459.3,592.9,457.4,606.1,457.4,612.2z"/>
	<g>
		<polygon points="420.6,687.7 433.1,687.7 430.5,683.4 		"/>
		<polygon points="588,687.7 575.4,687.7 578,683.4 		"/>
	</g>
</g>
<g>
	<path d="M175.6,399.5h7.9v23c0,2.6,0.3,4.4,0.9,5.6c0.9,2.1,3,3.1,6.2,3.1s5.2-1,6.1-3.1c0.6-1.2,0.9-3.1,0.9-5.6v-23h7.9v23
		c0,4-0.6,7.1-1.8,9.3c-2.3,4-6.7,6.1-13.1,6.1c-6.5,0-10.9-2-13.2-6.1c-1.2-2.2-1.8-5.3-1.8-9.3L175.6,399.5L175.6,399.5z"/>
	<path d="M219.7,399.5h8.2l14.8,26.1v-26.1h7.3v37.4h-7.8L227,410.4v26.5h-7.3V399.5z"/>
	<path d="M271.6,436.9h-7.8v-37.4h7.8V436.9z"/>
	<path d="M307.3,399.5h8.1l-12.7,37.4h-7.4l-12.6-37.4h8.3l8.1,28.4L307.3,399.5z"/>
	<path d="M352.3,406.2h-19.8v7.9h18.1v6.5h-18.1v9.6h20.7v6.7h-28.3v-37.4h27.4L352.3,406.2L352.3,406.2z"/>
	<path d="M389.2,400.5c1.4,0.6,2.5,1.5,3.5,2.6c0.8,0.9,1.4,2,1.9,3.1s0.7,2.5,0.7,3.9c0,1.8-0.5,3.5-1.3,5.2
		c-0.9,1.7-2.4,2.9-4.4,3.6c1.7,0.7,3,1.7,3.7,3s1.1,3.2,1.1,5.8v2.5c0,1.7,0.1,2.9,0.2,3.5c0.2,1,0.7,1.7,1.4,2.1v0.9h-8.6
		c-0.2-0.8-0.4-1.5-0.5-2c-0.2-1.1-0.3-2.1-0.3-3.2V428c0-2.4-0.5-4-1.3-4.8s-2.3-1.2-4.4-1.2H373v14.6h-7.6v-37.4h17.9
		C385.8,399.6,387.8,399.9,389.2,400.5z M373,406v10h8.4c1.7,0,2.9-0.2,3.8-0.6c1.5-0.7,2.2-2.1,2.2-4.2c0-2.3-0.7-3.8-2.1-4.6
		c-0.8-0.4-2-0.7-3.6-0.7H373V406z"/>
	<path d="M412.3,425.4c0.2,1.7,0.7,3,1.4,3.8c1.3,1.5,3.5,2.3,6.6,2.3c1.9,0,3.4-0.2,4.6-0.6c2.2-0.8,3.3-2.2,3.3-4.3
		c0-1.2-0.6-2.2-1.6-2.9c-1.1-0.7-2.8-1.2-5.2-1.7l-4.1-0.9c-4-0.9-6.7-1.8-8.2-2.9c-2.5-1.7-3.8-4.4-3.8-8.1c0-3.3,1.2-6.1,3.7-8.3
		c2.5-2.2,6.1-3.3,10.9-3.3c4,0,7.4,1.1,10.2,3.1c2.8,2.1,4.3,5.1,4.4,9.1H427c-0.1-2.2-1.1-3.8-3-4.8c-1.3-0.6-2.8-0.9-4.7-0.9
		c-2.1,0-3.7,0.4-4.9,1.2c-1.2,0.8-1.8,1.9-1.8,3.4c0,1.3,0.6,2.3,1.8,3c0.8,0.4,2.4,1,5,1.5l6.6,1.5c2.9,0.7,5,1.6,6.5,2.7
		c2.2,1.8,3.3,4.3,3.3,7.6c0,3.4-1.3,6.2-3.9,8.5c-2.6,2.2-6.4,3.4-11.2,3.4c-4.9,0-8.8-1.1-11.6-3.3c-2.8-2.2-4.2-5.3-4.2-9.2
		L412.3,425.4L412.3,425.4z"/>
	<path d="M455.5,436.9h-7.8v-37.4h7.8V436.9z"/>
	<path d="M497.7,399.5v6.6h-11.2v30.7h-7.9v-30.7h-11.2v-6.6H497.7z"/>
	<path d="M527.1,399.5h8.8l-12.5,23.4v14h-7.8v-14l-12.9-23.4h9.2l7.8,16.3L527.1,399.5z"/>
	<path d="M568.9,403.4c3-3.1,6.8-4.6,11.5-4.6c6.2,0,10.8,2.1,13.6,6.2c1.6,2.3,2.4,4.6,2.6,7h-7.8c-0.5-1.8-1.1-3.1-1.9-4.1
		c-1.4-1.6-3.5-2.4-6.2-2.4c-2.8,0-5,1.1-6.6,3.4s-2.4,5.5-2.4,9.7s0.9,7.3,2.5,9.4c1.7,2.1,3.8,3.1,6.5,3.1s4.7-0.9,6.1-2.7
		c0.8-1,1.4-2.4,1.9-4.3h7.8c-0.7,4.1-2.4,7.4-5.1,9.9c-2.7,2.5-6.3,3.8-10.6,3.8c-5.3,0-9.5-1.7-12.5-5.2s-4.6-8.2-4.6-14.2
		C563.7,412,565.4,407,568.9,403.4z"/>
	<path d="M607.6,436.9v-37.4h7.8v14.3h14.5v-14.3h7.8v37.4h-7.8v-16.7h-14.5v16.7H607.6z"/>
	<path d="M659.9,436.9h-7.8v-37.4h7.8V436.9z"/>
	<path d="M677.2,403.4c3-3.1,6.8-4.6,11.5-4.6c6.2,0,10.8,2.1,13.6,6.2c1.6,2.3,2.4,4.6,2.6,7h-7.8c-0.5-1.8-1.1-3.1-1.9-4.1
		c-1.4-1.6-3.5-2.4-6.2-2.4c-2.8,0-5,1.1-6.6,3.4s-2.4,5.5-2.4,9.7s0.8,7.3,2.5,9.4s3.8,3.1,6.5,3.1s4.7-0.9,6.1-2.7
		c0.8-1,1.4-2.4,1.9-4.3h7.7c-0.7,4.1-2.4,7.4-5.1,9.9c-2.8,2.5-6.3,3.8-10.6,3.8c-5.3,0-9.5-1.7-12.5-5.2s-4.6-8.2-4.6-14.2
		C672,412,673.7,407,677.2,403.4z"/>
	<path d="M723.4,399.5h8.8l13.2,37.4h-8.5l-2.5-7.7h-13.8l-2.5,7.7H710L723.4,399.5z M722.9,422.8h9.6l-4.7-14.7L722.9,422.8z"/>
	<path d="M778.4,411.2c-0.6-2.5-2-4.3-4.3-5.3c-1.3-0.6-2.7-0.8-4.3-0.8c-3,0-5.5,1.1-7.4,3.4s-2.9,5.7-2.9,10.2
		c0,4.6,1,7.8,3.2,9.7c2.1,1.9,4.5,2.8,7.1,2.8s4.8-0.7,6.4-2.2c1.7-1.5,2.7-3.5,3.1-5.9h-8.6v-6.2h15.6v20H781l-0.8-4.7
		c-1.5,1.8-2.9,3-4.1,3.7c-2.1,1.3-4.6,1.9-7.6,1.9c-5,0-9-1.7-12.2-5.1c-3.3-3.4-4.9-8.1-4.9-14.1s1.7-10.9,5-14.5
		s7.7-5.5,13.2-5.5c4.8,0,8.6,1.2,11.5,3.6s4.5,5.4,5,9H778.4z"/>
	<path d="M827.6,433.6c-2.8,2.9-6.9,4.4-12.2,4.4c-5.4,0-9.4-1.5-12.3-4.4c-3.8-3.6-5.7-8.7-5.7-15.4c0-6.8,1.9-12,5.7-15.4
		c2.8-2.9,6.9-4.4,12.3-4.4c5.3,0,9.4,1.5,12.2,4.4c3.8,3.4,5.7,8.6,5.7,15.4C833.3,424.9,831.4,430,827.6,433.6z M822.8,427.9
		c1.8-2.3,2.7-5.5,2.7-9.7s-0.9-7.4-2.7-9.7c-1.8-2.3-4.3-3.4-7.4-3.4c-3.1,0-5.6,1.1-7.4,3.4c-1.8,2.3-2.8,5.5-2.8,9.7
		s0.9,7.4,2.8,9.7c1.9,2.3,4.3,3.4,7.4,3.4S820.9,430.2,822.8,427.9z"/>
</g>
<g>
	<g>
		<path d="M247.6,507.2l-20.1,7.5c-13.2,4.9-26.6,9.6-37.4,13.7c-9.6,3.7-10.4,5.2-11,11.5h-3v-28.4h3l0.4,3c0.7,4.1,1.7,4.3,5.8,3
			c3.2-1.1,9.9-3.7,15.6-5.9v-20c-3.3-1.4-9.3-3.4-13.8-4.9c-5.7-2-7.2-1.1-7.7,3.7l-0.3,3h-3v-24h3c0.8,6.7,1.3,7.9,11,11.7
			l56.2,21.8L247.6,507.2z M205.8,492.7v17.2l23.8-8.4v-0.3L205.8,492.7z"/>
		<path d="M246.3,576.9c0,12.1-2.6,23.1-9.5,30.3c-5,5-13,9.1-22.5,9.1c-26.6,0-38.3-20.5-38.3-45.9v-26.5h3
			c0.6,8.9,1.5,9.7,13.2,9.7H230c11.7,0,12.6-0.9,13.2-8.9h3v32.2H246.3z M192.4,565.8c-10,0-12,1.1-12,9.4
			c0,17.9,12.6,27.2,30.6,27.2c23.1,0,31.1-11.7,31.1-29c0-3.6-0.4-6.4-1-7c-0.6-0.7-2.5-0.7-5.3-0.7L192.4,565.8L192.4,565.8z"/>
		<path d="M246.3,719.2l-51.6,23.9l51.6,22.6v20.4h-3c-0.9-8.7-1.3-9.2-13.2-9l-37.8,1.1c-12.1,0.3-12.3,0.7-13.2,9.4h-3v-30.2h3
			c0.8,8.4,1.1,8.8,13.2,8.6l41.5-0.4v-0.4l-56.4-24.6v-3.2l54.3-23.7v-0.4l-28-0.8c-9.7-0.2-15.7-0.1-18.9,0.3
			c-4.1,0.4-5,2.7-5.6,9.8h-3V697h3c0.4,5.4,1.5,7.6,5.6,8.3c3.2,0.5,9.6,1.4,20,2l22.3,1.2c14.4,0.8,15.5,0,16.3-9.3h3v20H246.3z"
			/>
		<path d="M247.8,830.4l-20.1,7.7c-13.1,5-26.5,10-37.2,14.2c-9.6,3.8-10.3,5.3-10.9,11.6h-3l-0.4-28.4l3-0.1l0.5,3
			c0.7,4.1,1.8,4.3,5.9,2.9c3.2-1.1,9.9-3.8,15.5-6.2l-0.3-20c-3.3-1.3-9.4-3.2-13.9-4.7c-5.8-1.9-7.2-1-7.6,3.8l-0.3,3l-3,0.1
			l-0.3-24h3c1,6.7,1.4,7.9,11.2,11.5l56.5,21.1L247.8,830.4z M205.8,816.5l0.2,17.2l23.7-8.7v-0.3L205.8,816.5z"/>
		<path d="M234.5,863.3c11.1-3.5,11.7-4.6,9.7-13.3l2.9-0.9l9.1,29.1l-2.9,0.9c-2.9-7.2-4-7.7-15.1-4.2l-33.3,10.4
			c-11.3,3.5-20.5,5.4-30.1-1.6c-3.5-2.5-7-6-9.7-10.6l2.5-2.1c5.4,5.9,10.9,7.2,16.7,6.7c5.3-0.5,11.4-2.2,18.4-4.4L234.5,863.3z"
			/>
		<path d="M261.1,955.4c-19.9,11.6-41,5.3-51.4-12.4c-10.8-18.4-4.1-38.5,12.8-48.5c15.3-9,39-8.5,51.9,13.5
			C283.9,924.2,279.3,944.8,261.1,955.4z M232.7,904.9c-16.9,9.9-25.6,25-17.8,38.3c5.7,9.7,18.2,12.4,35.7,2.1
			c19.4-11.4,25.8-25.5,18.5-38C263.2,897.4,249.2,895.3,232.7,904.9z"/>
		<path d="M377.4,1000.7c-0.8,1.6-4.6,8.6-7.6,14.6l-2.9-1.5c1.8-5,2.3-8.2,1.8-10.5c-0.6-2.5-3.2-4.9-8.8-8.5l-4.6-2.9
			c-3.5-2.2-3.7-2.3-5.7,1l-12.2,19.4l7.9,5c7.9,4.9,8.4,4.5,13.8-2l2.9,1.8l-12.2,19.4l-2.9-1.9c3.6-7.8,3.7-8.3-4.2-13.2l-7.9-4.9
			l-9.4,15c-3.3,5.3-4.6,8.1-3.7,10.3c1,2.1,4.2,4.3,8,6.7c4.6,2.9,9,5.2,12.4,4.1c2.6-0.8,6.1-2.9,10.5-6.3l2.4,2.3
			c-2.3,2.9-10.2,11-12.5,13.1l-44.7-28l1.6-2.6c8.2,4.4,9.4,4.1,15.6-5.8l20.1-32.1c6.2-9.9,5.9-11.1-0.7-16l1.6-2.6L377.4,1000.7z
			"/>
		<path d="M402.3,1010.6l1.6,56.8L445,1029l18.8,8.1l-1.2,2.8c-8.4-2.7-9-2.4-13.4,8.6l-14,35.2c-4.5,11.2-4.3,11.6,3.4,15.8
			l-1.2,2.8l-27.7-11.9l1.2-2.8c8.1,2.5,8.5,2.5,13.1-8.7l16-38.3l-0.4-0.2l-44.8,42.1l-3-1.3l-0.3-59.2l-0.4-0.2l-11.8,25.4
			c-4,8.9-6.3,14.4-7.2,17.5c-1.2,3.9,0.5,5.6,6.8,9.1l-1.2,2.8l-23.5-10.1l1.2-2.8c5.1,1.7,7.6,1.6,9.9-1.9
			c1.8-2.8,5.1-8.3,9.7-17.6l9.9-20c6.4-12.9,6.1-14.2-2.1-18.7l1.2-2.8L402.3,1010.6z"/>
		<path d="M569.9,1025c11.3-4.4,22.5-6,31.7-2.2c6.4,2.8,13.2,8.8,16.7,17.6c9.7,24.8-5.2,43.1-28.8,52.4l-24.7,9.6l-1.1-2.8
			c8-3.8,8.5-5,4.3-15.8l-13.8-35.2c-4.2-10.9-5.4-11.4-13-9.1l-1.1-2.8L569.9,1025z M579.5,1079c3.9,9.2,5.7,10.6,13.4,7.4
			c16.5-7,20.1-22.3,13.1-38.8c-9-21.3-22.9-24.1-38.9-17.3c-3.3,1.4-5.7,2.9-6.1,3.6c-0.4,0.7,0.4,2.5,1.5,5.1L579.5,1079z"/>
		<path d="M650,990.8c1,1.4,5,8.4,8.7,14l-2.8,1.7c-3.4-4.1-5.9-6.2-8.1-6.9c-2.5-0.8-5.9,0.2-11.8,3.3l-4.8,2.5
			c-3.7,1.9-3.9,2-2.1,5.4l10.4,20.4l8.3-4.2c8.3-4.2,8.2-4.9,5.3-12.8l3.1-1.6l10.4,20.4l-3.1,1.6c-4.9-7.1-5.3-7.4-13.5-3.1
			l-8.3,4.2l8.1,15.8c2.9,5.6,4.6,8.1,7,8.5c2.3,0.3,5.8-1.4,9.9-3.5c4.8-2.5,9-5.1,9.8-8.5c0.7-2.7,0.7-6.8-0.1-12.2l3.2-0.9
			c1.3,3.5,4.2,14.4,4.8,17.5l-46.9,24.1l-1.4-2.7c8-4.8,8.4-6,3-16.4l-17.2-33.7c-5.3-10.4-6.5-10.8-14.1-7.6l-1.3-2.7L650,990.8z"
			/>
		<path d="M683.4,970.1l1.6,2.6c-6.7,4.9-6.9,6.1-0.8,16l19.9,32.2c6.2,9.9,7.4,10.2,14.7,6.4l1.6,2.6l-25.9,16.1l-1.6-2.6
			c6.8-5,7.1-6.2,0.9-16.1l-19.9-32.2c-6.1-9.9-7.3-10.2-14.8-6.3l-1.6-2.6L683.4,970.1z"/>
		<g>
			<path d="M807.7,902c3.7,1.2,7,2.3,9.4,2.4c-0.2,7-0.4,16-3,23.8c-7.4,22.9-26.1,33.8-46.7,27.1c-23.4-7.6-29.6-30.3-23.1-50.5
				c2.9-8.9,7.1-15.4,9.1-18.9c3.6,0.9,9.1,2,17.2,3.8l-0.7,3.4c-13.8-1.5-19.3,6.2-22,14.7c-4.6,14.2,3,27.4,21.8,33.4
				c15.8,5.2,34.4,3.7,40.5-15c1.1-3.3,1.3-5.4,1.1-7.2c-0.2-2.2-1.7-3.6-5.8-4.9l-8.6-2.8c-7-2.3-7.7-2.1-12.1,8.6l-3.1-1l9.3-28.6
				l3.1,1c-0.9,5.6-0.7,6.2,6.6,8.5L807.7,902z"/>
			<path d="M758.3,844.9l3,0.4c-0.6,8.6,0.1,9.6,11.7,11.3l37.3,5.3c6.2,0.9,9.3,0.7,10.8-1c1.5-1.6,2.2-5.1,2.7-8.6
				c0.7-4.9,2.2-18-0.2-20.6c-1.8-2.1-5.2-4.3-10.1-6.8l1.1-3.3c3.3,1.1,13.9,5,17,6.3l-8.3,58.1l-3-0.4c0.6-9.1-0.1-10.1-11.7-11.7
				l-37.5-5.3c-11.6-1.6-12.5-0.9-14.4,7.6l-3-0.4L758.3,844.9z"/>
			<path d="M798.2,747.5c23,1.6,36.9,18.7,35.5,39.2c-1.4,21.2-18.3,34.2-37.9,32.9c-17.7-1.2-37-15-35.3-40.3
				C761.7,760.5,777.1,746.1,798.2,747.5z M793.3,805.3c19.5,1.3,35.2-6.3,36.2-21.6c0.8-11.2-8-20.5-28.3-21.9
				c-22.5-1.5-35.7,6.6-36.7,21C763.8,794.3,774.2,804,793.3,805.3z"/>
			<path d="M762,715.2c0-7.9,0.9-13.5,3.7-17.8c2.8-4.2,7.4-7.1,13.7-7.1c9.1,0,15.5,5.6,18.7,14.4c3-1.7,10.6-6,15.5-9.4
				c5.9-4.1,9.8-6.9,12-9c2.6-2.6,4.2-4.3,5-7.5l2.8,0.4l-0.2,4.5c-0.9,11.8-3.9,15.5-10,19.7c-5,3.5-11.9,7-17.5,10.2
				c-3,1.7-4.1,3-4.1,6.3v3.5h14.5c11.7,0,12.5-0.9,13.2-9.1h3v30.5h-3c-0.6-8.7-1.5-9.5-13.2-9.5h-37.8c-11.7,0-12.5,0.9-13.2,9.1
				h-3v-29.2H762z M797.9,723.3v-4.1c0-4.3-0.6-7.4-2.8-10.2c-3.5-4.3-8.7-5.8-13.8-5.8c-11.2,0-15.1,7.8-15.1,14.7
				c0,5.2,0.4,5.4,3.9,5.4L797.9,723.3L797.9,723.3z"/>
			<path d="M762,640.9h3c0.7,8.2,1.5,9.1,13.2,9.1H816c11.7,0,12.5-0.9,13.2-9.1h3v30.5h-3c-0.6-8.4-1.5-9.3-13.2-9.3h-37.8
				c-11.7,0-12.5,0.9-13.2,9.3h-3V640.9z"/>
			<path d="M760.7,597.5l20.1-7.5c13.2-4.9,26.6-9.6,37.4-13.7c9.6-3.7,10.4-5.2,11-11.5h3v28.4h-3l-0.4-3c-0.6-4.1-1.7-4.3-5.8-3
				c-3.2,1.1-9.9,3.7-15.6,5.9v20c3.2,1.4,9.3,3.3,13.8,4.9c5.7,1.9,7.1,1.1,7.7-3.7l0.3-3h3v24h-3c-0.9-6.7-1.3-7.9-11-11.7
				L762,601.8L760.7,597.5z M802.5,612v-17.2l-23.8,8.4v0.3L802.5,612z"/>
			<path d="M762,536.3l51.6-23.9L762,489.8v-20.4h3c0.9,8.8,1.3,9.2,13.2,9l37.8-1.1c12.1-0.3,12.3-0.7,13.2-9.4h3V498h-3
				c-0.9-8.4-1.1-8.8-13.2-8.7l-41.5,0.4v0.4l56.4,24.6v3.2l-54.3,23.7v0.4l28,0.8c9.7,0.2,15.7,0.1,18.9-0.3c4.1-0.4,5-2.7,5.6-9.8
				h3v25.6h-3c-0.4-5.4-1.5-7.6-5.6-8.3c-3.2-0.5-9.6-1.4-20-2l-22.3-1.2c-14.4-0.8-15.5,0-16.3,9.3h-3L762,536.3L762,536.3z"/>
		</g>
	</g>
	
		<ellipse transform="matrix(0.9951 -9.853775e-02 9.853775e-02 0.9951 -103.8394 54.9226)" cx="504.1" cy="1078.7" rx="11.8" ry="11.8"/>
	<circle cx="729.4" cy="978.6" r="11.8"/>
	<circle cx="211.9" cy="660.4" r="11.8"/>
	<path d="M312.1,951.4c5.8,5.3,9.4,9.7,10.7,14.7c1.2,4.9,0.4,10.2-3.9,14.9c-6.1,6.7-14.5,7.7-23.2,4.2c-0.8,3.4-2.7,11.8-3.4,17.8
		c-1,7.2-1.5,11.9-1.4,14.9c0.2,3.7,0.4,6,2.2,8.7l-2.2,1.8l-3.2-3.2c-8.2-8.5-8.8-13.2-7.9-20.6c0.8-6,2.8-13.5,4.2-19.8
		c0.7-3.4,0.5-5.1-1.9-7.2l-2.6-2.3l-9.7,10.7c-7.8,8.6-7.8,9.9-2.1,15.9l-2,2.2l-22.6-20.5l2-2.3c6.9,5.3,8.1,5.3,15.9-3.4l25.4-28
		c7.8-8.6,7.8-9.9,2.1-15.8l2-2.2L312.1,951.4z M282,972.5l3,2.8c3.2,2.9,5.9,4.4,9.4,4.7c5.5,0.3,10.1-2.5,13.6-6.3
		c7.5-8.3,4.4-16.4-0.7-21.1c-3.8-3.5-4.3-3.3-6.6-0.8L282,972.5z"/>
</g>
</svg>
