<?xml version="1.0" encoding="utf-8" ?><svg version="1.1" xmlns = 'http://www.w3.org/2000/svg'><defs><font id='web' horiz-adv-x="1000">
<font-face font-family="web" descent="-305" cap-height="1518" units-per-em="2048" bbox="-74,-549,1923,1997" x-height="1159" ascent="1552" />
<missing-glyph horiz-adv-x="1024" d="M 0 1434 L 1024 1434 L 1024 0 L 0 0 L 0 1434 Z M 102 102 L 922 102 L 922 1331 L 102 1331 L 102 102 Z" /><glyph horiz-adv-x="182" d="" unicode=" " />
<glyph horiz-adv-x="461" d="M 98 1518 L 362 1518 L 344 449 L 117 449 L 98 1518 Z M 94 326 L 362 326 L 362 0 L 94 0 L 94 326 Z" unicode="!" />
<glyph horiz-adv-x="727" d="M 82 1518 L 334 1518 L 324 893 L 94 893 L 82 1518 Z M 393 1518 L 645 1518 L 635 893 L 403 893 L 393 1518 Z" unicode="&#x22;" />
<glyph horiz-adv-x="801" d="M 113 410 L 35 410 L 35 653 L 129 653 L 141 805 L 35 805 L 35 1051 L 156 1051 L 188 1518 L 420 1518 L 387 1051 L 457 1051 L 489 1518 L 721 1518 L 688 1051 L 766 1051 L 766 805 L 672 805 L 659 653 L 766 653 L 766 410 L 643 410 L 616 0 L 385 0 L 412 410 L 342 410 L 315 0 L 84 0 L 113 410 Z M 440 633 L 455 827 L 360 827 L 346 633 L 440 633 Z" unicode="#" />
<glyph horiz-adv-x="641" d="M 219 1677 L 428 1677 L 428 1517 L 431 1517 C 487 1515 536 1509 578 1501 L 522 1262 C 495 1268 457 1272 408 1272 C 339 1272 305 1244 305 1188 C 305 1164 312 1134 326 1098 L 545 539 C 583 441 602 354 602 280 C 602 212 588 157 560 116 C 532 75 490 44 434 24 L 428 21 L 428 -190 L 219 -190 L 219 1 C 128 7 65 14 29 23 L 82 250 C 105 244 135 240 173 236 C 210 232 238 231 256 231 C 321 231 354 257 354 310 C 354 336 346 370 330 410 L 94 1010 C 64 1087 50 1158 50 1223 C 50 1356 106 1445 219 1491 L 219 1677 Z" unicode="$" />
<glyph horiz-adv-x="1397" d="M 291 547 C 242 547 200 553 164 565 C 128 577 101 597 82 627 C 62 657 49 699 42 753 C 34 807 31 903 31 1040 C 31 1184 34 1280 42 1329 C 49 1377 61 1416 79 1444 C 97 1472 124 1494 161 1508 C 198 1522 241 1530 291 1530 C 341 1530 384 1522 421 1508 C 458 1493 485 1470 503 1440 C 521 1409 533 1368 540 1316 C 547 1264 551 1172 551 1040 C 551 901 547 806 539 754 C 531 702 518 661 499 631 C 480 600 452 578 416 566 C 380 553 338 547 291 547 Z M 1106 -8 C 1058 -8 1017 -2 983 9 C 949 20 922 40 902 68 C 882 96 868 138 859 192 C 850 246 846 344 846 485 C 846 629 850 725 858 774 C 866 823 879 862 897 891 C 915 919 943 940 979 954 C 1015 968 1057 975 1106 975 C 1156 975 1200 968 1236 954 C 1272 940 1299 920 1317 892 C 1334 864 1346 826 1354 778 C 1362 730 1366 633 1366 485 C 1366 360 1364 276 1360 234 C 1356 191 1349 155 1339 126 C 1329 97 1315 72 1297 52 C 1279 31 1252 16 1218 6 C 1184 -3 1146 -8 1106 -8 Z M 291 745 C 305 745 314 750 319 762 C 323 773 327 793 329 823 C 331 853 332 924 332 1036 C 332 1140 331 1208 329 1238 C 327 1268 323 1289 319 1303 C 314 1316 305 1323 291 1323 C 277 1323 267 1317 262 1305 C 256 1293 253 1273 251 1245 C 249 1216 248 1146 248 1036 C 248 926 249 856 251 826 C 253 796 256 775 262 763 C 267 751 277 745 291 745 Z M 1106 190 C 1120 190 1130 196 1135 208 C 1140 220 1144 242 1146 273 C 1148 303 1149 373 1149 481 C 1149 588 1148 657 1146 687 C 1144 717 1140 738 1135 750 C 1129 762 1120 768 1106 768 C 1092 768 1083 762 1078 752 C 1073 741 1070 722 1068 694 C 1066 666 1065 595 1065 481 C 1065 376 1066 307 1068 275 C 1070 243 1073 220 1078 208 C 1082 196 1092 190 1106 190 Z M 784 1518 L 1010 1518 L 610 0 L 385 0 L 784 1518 Z" unicode="%" />
<glyph horiz-adv-x="879" d="M 354 -10 C 266 -10 198 1 151 25 C 104 48 70 85 48 137 C 26 189 16 262 16 356 C 16 498 63 631 157 755 L 207 817 C 175 893 152 962 139 1023 C 125 1084 119 1151 119 1223 C 119 1301 128 1361 147 1402 C 165 1443 194 1475 234 1497 C 274 1519 327 1530 395 1530 C 491 1530 560 1507 603 1462 C 646 1416 668 1337 668 1225 C 668 1153 653 1081 625 1008 C 597 934 549 850 482 756 L 593 535 L 631 852 L 831 852 C 810 689 794 562 782 470 C 770 378 754 306 733 256 L 862 0 L 602 0 L 578 49 C 524 9 450 -10 354 -10 Z M 310 595 L 301 577 C 269 510 254 443 254 375 C 254 305 262 260 280 239 C 298 217 330 207 377 207 C 428 207 465 216 487 235 L 336 547 L 310 595 Z M 444 1217 C 444 1251 440 1276 434 1290 C 428 1304 414 1311 393 1311 C 370 1311 356 1303 350 1288 C 344 1273 342 1249 342 1217 C 342 1175 345 1136 351 1101 C 357 1066 368 1025 384 979 C 424 1039 444 1118 444 1217 Z" unicode="&#x26;" />
<glyph horiz-adv-x="420" d="M 82 1518 L 338 1518 L 330 893 L 94 893 L 82 1518 Z" unicode="'" />
<glyph horiz-adv-x="588" d="M 299 -313 C 163 -82 96 229 96 623 C 96 807 113 981 149 1147 C 184 1313 234 1452 299 1565 L 496 1452 C 453 1350 422 1263 404 1189 C 386 1115 371 1033 361 942 C 351 851 346 746 346 627 C 346 292 396 16 496 -201 L 299 -313 Z" unicode="(" />
<glyph horiz-adv-x="588" d="M 92 -201 C 134 -102 164 -16 183 58 C 201 132 216 215 226 307 C 236 399 242 505 242 623 C 242 742 236 850 224 947 C 212 1043 197 1130 177 1208 C 157 1286 129 1367 92 1452 L 289 1565 C 359 1442 411 1302 443 1145 C 475 987 492 815 492 627 C 492 441 474 265 438 99 C 402 -66 352 -204 289 -313 L 92 -201 Z" unicode=")" />
<glyph horiz-adv-x="754" d="M 291 995 L 158 850 L 27 1012 L 233 1124 L 27 1272 L 156 1434 L 291 1284 L 274 1520 L 477 1520 L 461 1282 L 598 1434 L 729 1274 L 518 1124 L 727 1012 L 598 850 L 461 999 L 477 764 L 274 764 L 291 995 Z" unicode="*" />
<glyph horiz-adv-x="778" d="M 266 608 L 88 608 L 88 852 L 266 852 L 266 1137 L 512 1137 L 512 852 L 688 852 L 688 608 L 512 608 L 512 319 L 266 319 L 266 608 Z" unicode="+" />
<glyph horiz-adv-x="373" d="M 53 -150 C 98 -112 125 -88 133 -78 C 141 -67 147 -56 149 -44 C 151 -32 152 -17 152 0 L 51 0 L 51 328 L 322 328 L 322 106 C 322 24 317 -36 308 -76 C 298 -116 282 -150 259 -179 C 235 -207 195 -240 139 -276 L 53 -150 Z" unicode="," />
<glyph horiz-adv-x="414" d="M 33 811 L 379 811 L 379 569 L 33 569 L 33 811 Z" unicode="-" />
<glyph horiz-adv-x="373" d="M 51 328 L 322 328 L 322 0 L 51 0 L 51 328 Z" unicode="." />
<glyph horiz-adv-x="657" d="M 410 1518 L 657 1518 L 248 0 L 0 0 L 410 1518 Z" unicode="/" />
<glyph horiz-adv-x="760" d="M 381 -12 C 315 -12 260 -3 216 13 C 172 29 139 59 117 101 C 94 143 78 207 69 291 C 59 375 55 532 55 760 C 55 979 59 1131 68 1215 C 77 1299 93 1364 115 1408 C 137 1452 170 1484 214 1502 C 258 1520 314 1530 381 1530 C 445 1530 498 1521 542 1503 C 586 1485 619 1456 642 1415 C 664 1374 680 1313 690 1232 C 700 1150 705 993 705 760 C 705 510 700 345 692 267 C 683 188 668 129 647 91 C 625 52 593 25 549 10 C 505 -4 449 -12 381 -12 Z M 381 223 C 405 223 421 231 430 247 C 438 263 444 294 448 339 C 451 383 453 454 453 551 L 453 758 C 453 956 451 1084 448 1141 C 445 1198 439 1235 431 1253 C 422 1271 405 1280 381 1280 C 355 1280 338 1270 330 1251 C 321 1231 315 1189 313 1124 C 310 1058 309 936 309 758 L 309 551 C 309 463 310 395 314 347 C 317 299 323 266 332 249 C 340 231 357 223 381 223 Z" unicode="0" />
<glyph horiz-adv-x="477" d="M 137 1270 L 14 1270 L 14 1518 L 389 1518 L 389 0 L 137 0 L 137 1270 Z" unicode="1" />
<glyph horiz-adv-x="633" d="M 27 233 L 336 1106 C 350 1147 358 1181 358 1208 C 358 1261 322 1288 252 1288 C 201 1288 152 1279 104 1262 L 20 1485 C 88 1515 177 1530 287 1530 C 395 1530 474 1507 526 1461 C 578 1415 604 1345 604 1253 C 604 1181 586 1095 551 993 L 281 236 L 606 236 L 606 0 L 27 0 L 27 233 Z" unicode="2" />
<glyph horiz-adv-x="610" d="M 240 -12 C 149 -12 70 -2 2 18 L 61 244 C 113 228 163 221 211 221 C 241 221 264 227 280 239 C 296 251 307 272 314 301 C 320 329 324 383 324 463 C 324 534 320 582 314 606 C 308 630 296 646 279 656 C 262 665 224 670 164 670 L 113 670 L 113 911 L 176 911 C 218 911 248 915 266 924 C 284 933 296 949 303 972 C 309 994 313 1039 313 1106 C 313 1185 306 1236 294 1258 C 282 1280 258 1292 223 1292 C 160 1292 111 1285 76 1272 L 8 1495 C 71 1518 158 1530 268 1530 C 338 1530 396 1519 440 1497 C 484 1475 514 1439 531 1389 C 548 1338 557 1265 557 1169 C 557 1056 554 983 550 950 C 545 917 537 891 525 873 C 513 855 495 841 473 831 C 500 820 520 805 533 786 C 545 767 554 738 559 700 C 564 662 567 579 567 451 C 567 317 556 219 536 157 C 516 95 481 52 433 26 C 385 0 320 -12 240 -12 Z" unicode="3" />
<glyph horiz-adv-x="741" d="M 39 506 L 307 1518 L 547 1518 L 287 522 L 389 522 L 430 911 L 618 911 L 618 522 L 715 522 L 715 299 L 618 299 L 618 0 L 387 0 L 387 299 L 39 299 L 39 506 Z" unicode="4" />
<glyph horiz-adv-x="653" d="M 285 -12 C 231 -12 183 -8 143 -2 C 103 4 62 13 20 25 L 84 252 C 146 231 203 221 256 221 C 291 221 316 226 330 237 C 344 248 354 268 360 297 C 366 325 369 394 369 504 C 369 598 366 661 362 691 C 358 721 350 742 339 754 C 327 766 306 772 274 772 C 245 772 220 764 199 748 L 39 780 L 55 1518 L 565 1518 L 565 1270 L 272 1270 L 266 993 C 279 1004 295 1012 314 1017 C 333 1021 362 1024 401 1024 C 443 1024 478 1016 506 1001 C 534 986 556 963 572 931 C 588 899 599 854 607 796 C 614 737 618 638 618 500 C 618 367 612 272 602 215 C 592 157 575 113 551 81 C 527 49 494 25 452 10 C 410 -4 354 -12 285 -12 Z" unicode="5" />
<glyph horiz-adv-x="741" d="M 381 -12 C 330 -12 284 -5 242 8 C 200 21 165 44 139 78 C 112 111 92 158 79 218 C 65 278 58 356 57 450 C 55 544 55 615 55 662 C 55 889 59 1045 68 1130 C 76 1214 91 1281 111 1329 C 131 1377 160 1414 196 1440 C 232 1466 280 1486 342 1499 C 403 1511 478 1518 567 1518 L 602 1518 L 602 1270 L 547 1270 C 472 1270 419 1262 388 1248 C 357 1233 336 1207 324 1169 C 312 1131 307 1072 307 993 C 325 1014 348 1029 374 1037 C 400 1045 433 1049 473 1049 C 517 1049 555 1042 585 1030 C 615 1017 637 997 653 969 C 669 941 680 900 688 846 C 696 792 700 687 700 532 C 700 382 694 277 684 219 C 674 160 656 114 632 80 C 608 46 575 22 533 8 C 491 -5 440 -12 381 -12 Z M 387 217 C 408 217 423 224 431 240 C 439 256 444 285 447 328 C 449 370 451 441 451 539 C 451 640 449 705 446 735 C 443 764 438 784 430 796 C 422 807 408 813 387 813 C 363 813 346 805 337 791 C 328 776 322 750 319 712 C 316 674 315 617 315 543 C 315 427 316 351 320 314 C 323 277 329 252 338 238 C 346 224 363 217 387 217 Z" unicode="6" />
<glyph horiz-adv-x="653" d="M 33 1518 L 614 1518 L 614 1296 L 379 0 L 117 0 L 358 1270 L 33 1270 L 33 1518 Z" unicode="7" />
<glyph horiz-adv-x="729" d="M 362 -12 C 302 -12 250 -5 208 8 C 165 21 132 42 109 70 C 86 98 69 137 59 187 C 48 237 43 314 43 418 C 43 533 46 614 52 661 C 58 708 67 745 81 773 C 95 801 115 822 141 836 C 111 854 91 885 79 929 C 67 972 61 1054 61 1176 C 61 1284 70 1360 90 1404 C 110 1448 142 1480 188 1500 C 233 1520 291 1530 362 1530 C 434 1530 493 1519 539 1498 C 585 1477 618 1444 638 1399 C 658 1353 668 1279 668 1176 C 668 1058 661 976 649 930 C 636 884 614 852 584 834 C 610 820 630 799 645 771 C 659 742 670 704 676 657 C 682 610 686 530 686 418 C 686 314 680 237 670 187 C 659 137 642 99 620 71 C 598 43 565 23 521 9 C 477 -5 424 -12 362 -12 Z M 362 211 C 383 211 398 216 407 227 C 415 238 421 258 425 286 C 428 314 430 371 430 457 C 430 571 425 640 417 666 C 408 692 390 705 362 705 C 334 705 317 691 309 664 C 301 636 297 567 297 457 C 297 368 298 310 302 283 C 305 256 311 237 319 227 C 327 216 342 211 362 211 Z M 362 928 C 387 928 404 938 413 960 C 421 981 426 1033 426 1116 C 426 1197 421 1249 413 1272 C 404 1295 387 1307 362 1307 C 338 1307 322 1296 314 1274 C 306 1252 303 1200 303 1116 C 303 1055 304 1013 307 990 C 310 967 315 951 323 942 C 331 932 344 928 362 928 Z" unicode="8" />
<glyph horiz-adv-x="741" d="M 139 236 L 193 236 C 267 236 320 243 352 258 C 383 273 404 298 415 334 C 426 370 432 432 432 522 C 405 485 350 467 266 467 C 216 467 177 475 147 491 C 117 507 94 532 80 564 C 66 596 56 642 50 702 C 44 762 41 857 41 987 C 41 1109 43 1194 49 1244 C 55 1293 64 1335 77 1371 C 90 1406 109 1436 135 1460 C 160 1484 190 1502 226 1513 C 261 1524 305 1530 358 1530 C 418 1530 468 1521 508 1505 C 548 1489 581 1461 609 1421 C 637 1381 656 1325 668 1254 C 680 1182 686 1050 686 858 C 686 598 678 423 664 331 C 649 239 622 170 584 125 C 546 80 494 48 430 29 C 366 9 280 0 172 0 L 139 0 L 139 236 Z M 352 707 C 376 707 392 713 401 725 C 409 737 415 758 419 788 C 422 818 424 878 424 969 C 424 1089 422 1166 419 1199 C 416 1231 411 1254 403 1267 C 395 1279 379 1286 354 1286 C 333 1286 319 1279 311 1265 C 303 1251 298 1225 295 1188 C 292 1151 291 1079 291 973 C 291 876 292 813 295 784 C 297 754 302 734 310 723 C 317 712 331 707 352 707 Z" unicode="9" />
<glyph horiz-adv-x="383" d="M 61 328 L 324 328 L 324 0 L 61 0 L 61 328 Z M 61 1159 L 324 1159 L 324 831 L 61 831 L 61 1159 Z" unicode=":" />
<glyph horiz-adv-x="383" d="M 61 1159 L 324 1159 L 324 831 L 61 831 L 61 1159 Z M 66 -147 C 111 -111 138 -85 147 -69 C 155 -53 160 -30 160 0 L 61 0 L 61 328 L 324 328 L 324 106 C 324 19 319 -43 310 -82 C 301 -121 285 -155 262 -183 C 239 -211 201 -242 147 -276 L 66 -147 Z" unicode=";" />
<glyph horiz-adv-x="778" d="M 111 631 L 111 809 L 623 1196 L 623 922 L 365 721 L 623 520 L 623 244 L 111 631 Z" unicode="&#x3C;" />
<glyph horiz-adv-x="778" d="M 94 1042 L 684 1042 L 684 801 L 94 801 L 94 1042 Z M 94 643 L 684 643 L 684 403 L 94 403 L 94 643 Z" unicode="=" />
<glyph horiz-adv-x="778" d="M 156 518 L 414 719 L 156 920 L 156 1196 L 666 809 L 666 631 L 156 244 L 156 518 Z" unicode="&#x3E;" />
<glyph horiz-adv-x="618" d="M 166 449 C 166 542 169 615 175 667 C 181 719 197 783 223 858 L 309 1110 C 322 1150 329 1183 329 1208 C 329 1261 300 1288 242 1288 C 210 1288 181 1285 153 1279 C 125 1273 104 1267 92 1262 L 8 1487 C 75 1515 162 1530 270 1530 C 368 1530 443 1507 495 1463 C 546 1418 572 1352 574 1265 C 574 1192 558 1112 528 1024 L 455 809 C 434 749 421 695 416 649 C 410 603 408 536 408 449 L 166 449 Z M 158 289 L 420 289 L 420 0 L 158 0 L 158 289 Z" unicode="?" />
<glyph horiz-adv-x="1014" d="M 506 -297 C 408 -297 328 -283 268 -256 C 208 -228 162 -188 131 -134 C 100 -80 78 -4 66 96 C 53 196 47 364 47 602 C 47 856 53 1034 67 1137 C 80 1240 103 1318 136 1370 C 169 1422 217 1462 279 1489 C 341 1516 422 1530 522 1530 C 617 1530 694 1516 753 1489 C 812 1462 856 1424 886 1376 C 915 1327 936 1256 948 1164 C 960 1071 967 929 967 737 L 967 305 C 967 236 961 187 950 159 C 938 131 920 109 894 95 C 868 81 832 74 788 74 C 738 74 701 78 676 87 C 651 95 632 113 618 139 C 597 113 574 95 548 85 C 522 75 483 70 430 70 C 388 70 355 76 329 90 C 303 103 284 124 271 153 C 257 181 248 224 244 282 C 240 340 238 444 238 594 C 238 782 242 906 250 968 C 258 1030 272 1073 293 1098 C 324 1130 367 1147 422 1147 C 487 1147 535 1132 567 1102 L 588 1137 L 772 1126 L 772 303 C 772 247 774 213 779 200 C 784 186 795 180 813 180 C 830 180 841 186 846 200 C 851 213 854 247 854 303 L 854 737 C 854 867 851 975 846 1063 C 840 1151 827 1221 805 1275 C 783 1328 749 1366 705 1389 C 661 1411 600 1423 522 1423 C 441 1423 378 1412 332 1391 C 286 1369 251 1335 227 1288 C 203 1241 186 1173 176 1084 C 166 994 162 834 162 602 C 162 377 166 221 175 135 C 184 49 200 -16 224 -62 C 247 -107 280 -140 324 -160 C 368 -180 428 -190 506 -190 L 743 -190 L 743 -297 L 506 -297 Z M 502 262 C 516 262 528 265 536 271 C 544 277 549 291 553 313 C 557 335 559 369 560 414 C 560 458 561 520 561 598 C 561 734 559 819 557 852 C 554 885 549 908 542 920 C 535 932 522 938 502 938 C 492 938 483 935 477 930 C 470 925 465 911 461 889 C 457 867 454 833 453 787 C 451 741 451 678 451 598 C 451 524 451 465 453 419 C 454 373 456 340 459 319 C 461 297 465 282 471 274 C 476 266 486 262 502 262 Z" unicode="@" />
<glyph horiz-adv-x="748" d="M 225 1526 L 520 1526 L 743 0 L 481 0 L 453 225 L 282 225 L 256 0 L 4 0 L 225 1526 Z M 369 1014 L 340 709 L 312 473 L 423 473 L 395 709 L 369 1014 Z" unicode="A" />
<glyph horiz-adv-x="727" d="M 57 1518 L 391 1518 C 465 1518 522 1506 563 1484 C 603 1462 632 1426 650 1377 C 667 1328 676 1247 676 1135 C 676 1043 673 979 667 941 C 661 903 652 873 638 851 C 624 828 605 811 580 801 C 608 793 629 777 644 755 C 659 732 670 700 676 658 C 682 616 686 534 686 412 C 686 257 664 150 620 90 C 576 30 500 0 393 0 L 57 0 L 57 1518 Z M 369 229 C 389 229 405 233 415 243 C 425 252 432 268 436 290 C 440 312 442 362 442 438 C 442 513 440 561 436 582 C 432 603 425 618 415 627 C 405 636 390 641 369 641 L 307 641 L 307 229 L 369 229 Z M 365 887 C 385 887 399 890 408 898 C 417 906 424 919 428 939 C 432 958 434 1005 434 1081 C 434 1174 429 1230 421 1250 C 413 1270 394 1280 365 1280 L 307 1280 L 307 887 L 365 887 Z" unicode="B" />
<glyph horiz-adv-x="575" d="M 387 -10 C 320 -10 265 -3 222 9 C 179 21 144 45 116 80 C 88 115 67 163 55 223 C 43 283 36 368 35 480 C 33 591 33 684 33 760 C 33 982 36 1127 42 1195 C 48 1263 58 1318 74 1361 C 89 1403 109 1436 135 1460 C 161 1484 195 1501 238 1512 C 281 1522 331 1528 389 1528 C 454 1528 515 1521 571 1507 L 522 1262 C 510 1265 489 1268 460 1270 C 430 1272 411 1274 401 1274 C 365 1274 341 1265 329 1249 C 317 1233 308 1203 303 1160 C 298 1117 295 1049 295 955 C 295 861 295 794 295 754 C 295 572 296 456 299 407 C 301 357 306 320 312 296 C 318 272 327 254 339 244 C 351 234 374 229 408 229 C 442 229 482 235 526 248 L 580 25 C 508 1 443 -10 387 -10 Z" unicode="C" />
<glyph horiz-adv-x="754" d="M 57 1518 L 399 1518 C 452 1518 497 1512 533 1501 C 569 1490 600 1472 625 1446 C 649 1420 668 1388 681 1348 C 694 1308 704 1255 710 1189 C 716 1122 719 979 719 760 C 719 560 716 425 712 356 C 707 287 699 231 688 189 C 677 146 658 109 632 77 C 605 45 568 23 521 12 C 474 0 433 -3 399 0 L 57 0 L 57 1518 Z M 371 221 C 400 221 420 230 432 248 C 444 266 452 300 457 349 C 462 398 465 533 465 754 C 465 962 462 1092 458 1146 C 454 1200 446 1236 434 1256 C 422 1276 401 1286 371 1286 L 311 1286 L 311 221 L 371 221 Z" unicode="D" />
<glyph horiz-adv-x="596" d="M 57 1518 L 565 1518 L 565 1270 L 311 1270 L 311 891 L 559 891 L 559 647 L 311 647 L 311 236 L 565 236 L 565 0 L 57 0 L 57 1518 Z" unicode="E" />
<glyph horiz-adv-x="567" d="M 57 1518 L 555 1518 L 555 1270 L 311 1270 L 311 864 L 549 864 L 549 621 L 311 621 L 311 0 L 57 0 L 57 1518 Z" unicode="F" />
<glyph horiz-adv-x="711" d="M 375 -8 C 296 -8 239 -2 205 8 C 171 19 142 39 119 68 C 96 97 78 134 66 178 C 54 222 45 280 40 352 C 35 424 33 560 33 760 C 33 1006 37 1167 47 1243 C 57 1319 74 1377 100 1417 C 125 1457 161 1485 209 1502 C 257 1519 315 1528 383 1528 C 483 1528 568 1519 639 1501 L 588 1262 C 526 1274 466 1280 410 1280 C 367 1280 338 1270 323 1252 C 308 1233 298 1198 293 1146 C 287 1094 285 963 285 754 C 285 537 287 401 291 347 C 295 293 303 256 314 236 C 325 216 345 207 373 207 C 395 207 411 211 421 219 C 431 227 439 243 443 265 C 447 287 449 356 449 471 L 449 657 L 340 657 L 340 901 L 686 901 L 686 492 C 686 332 676 220 658 157 C 639 93 608 50 565 27 C 521 3 458 -8 375 -8 Z" unicode="G" />
<glyph horiz-adv-x="774" d="M 57 1518 L 311 1518 L 311 911 L 463 911 L 463 1518 L 717 1518 L 717 0 L 463 0 L 463 647 L 311 647 L 311 0 L 57 0 L 57 1518 Z" unicode="H" />
<glyph horiz-adv-x="375" d="M 61 1518 L 313 1518 L 313 0 L 61 0 L 61 1518 Z" unicode="I" />
<glyph horiz-adv-x="440" d="M 12 0 L 12 236 L 63 236 C 92 236 111 241 121 252 C 130 263 135 283 135 311 L 135 1518 L 389 1518 L 389 281 C 389 93 304 0 135 0 L 12 0 Z" unicode="J" />
<glyph horiz-adv-x="731" d="M 57 1518 L 307 1518 L 307 983 L 451 1518 L 696 1518 L 528 942 L 729 0 L 473 0 L 359 558 L 307 348 L 307 0 L 57 0 L 57 1518 Z" unicode="K" />
<glyph horiz-adv-x="551" d="M 57 1518 L 311 1518 L 311 236 L 539 236 L 539 0 L 57 0 L 57 1518 Z" unicode="L" />
<glyph horiz-adv-x="946" d="M 57 1518 L 383 1518 L 457 831 L 469 659 L 483 831 L 561 1518 L 889 1518 L 889 0 L 645 0 L 645 936 L 631 700 L 551 0 L 377 0 L 297 698 L 283 936 L 283 0 L 57 0 L 57 1518 Z" unicode="M" />
<glyph horiz-adv-x="774" d="M 57 1518 L 328 1518 L 434 1030 L 477 813 L 477 1518 L 717 1518 L 717 0 L 475 0 L 338 586 L 295 786 L 295 0 L 57 0 L 57 1518 Z" unicode="N" />
<glyph horiz-adv-x="741" d="M 371 -12 C 299 -12 241 -3 199 12 C 156 28 123 58 99 100 C 75 142 58 204 48 285 C 38 366 33 524 33 760 C 33 978 37 1128 45 1210 C 53 1292 69 1355 92 1401 C 114 1446 147 1479 191 1499 C 235 1519 295 1530 371 1530 C 433 1530 485 1523 527 1509 C 569 1495 601 1473 624 1445 C 646 1416 664 1379 676 1333 C 688 1287 696 1229 701 1159 C 706 1088 709 955 709 760 C 709 544 706 401 701 332 C 696 263 688 208 676 166 C 664 124 648 89 626 63 C 604 36 572 17 532 5 C 491 -6 437 -12 371 -12 Z M 371 227 C 396 227 413 232 423 244 C 432 255 439 275 443 305 C 447 334 450 383 451 453 C 452 523 453 623 453 754 C 453 918 452 1028 451 1084 C 449 1140 446 1182 442 1208 C 437 1234 430 1252 422 1262 C 413 1272 396 1278 371 1278 C 344 1278 326 1270 317 1256 C 308 1241 302 1215 298 1179 C 294 1142 292 1077 292 984 C 291 890 291 814 291 754 C 291 590 291 480 293 424 C 294 367 297 325 301 299 C 305 273 312 254 321 243 C 329 232 346 227 371 227 Z" unicode="O" />
<glyph horiz-adv-x="721" d="M 57 1518 L 391 1518 C 469 1518 530 1503 574 1475 C 618 1447 649 1402 668 1342 C 686 1282 696 1175 696 1022 C 696 866 686 755 668 689 C 650 623 620 575 578 543 C 536 511 477 496 403 496 L 311 496 L 311 0 L 57 0 L 57 1518 Z M 371 735 C 392 735 407 741 417 753 C 427 765 434 785 438 814 C 442 843 444 906 444 1004 C 444 1104 442 1168 438 1198 C 434 1227 427 1248 417 1260 C 407 1272 392 1278 371 1278 L 311 1278 L 311 735 L 371 735 Z" unicode="P" />
<glyph horiz-adv-x="741" d="M 508 -328 C 400 -328 326 -308 285 -268 C 243 -228 223 -156 223 -51 L 223 11 L 222 12 C 178 24 144 45 120 75 C 96 105 77 145 65 195 C 52 245 43 310 39 392 C 35 474 33 596 33 760 C 33 978 37 1128 45 1210 C 53 1292 69 1355 92 1401 C 114 1446 147 1479 191 1499 C 235 1519 295 1530 371 1530 C 433 1530 485 1523 527 1509 C 569 1495 601 1473 624 1445 C 646 1416 664 1379 676 1333 C 688 1287 696 1229 701 1159 C 706 1088 709 955 709 760 C 709 519 705 362 697 288 C 689 214 676 157 656 116 C 636 75 609 46 575 28 C 541 10 496 0 440 -3 L 440 -33 C 440 -59 445 -78 457 -89 C 468 -100 490 -106 524 -106 L 584 -106 L 584 -328 L 508 -328 Z M 371 227 C 396 227 413 232 422 242 C 430 252 437 269 441 295 C 445 320 448 360 450 415 C 452 469 453 582 453 754 C 453 919 452 1030 451 1087 C 449 1143 446 1184 442 1210 C 437 1236 430 1253 422 1263 C 413 1273 396 1278 371 1278 C 346 1278 329 1272 321 1262 C 312 1251 305 1233 301 1208 C 297 1182 294 1142 293 1086 C 291 1030 291 919 291 754 C 291 590 291 480 293 424 C 294 367 297 326 301 300 C 305 274 312 255 320 244 C 328 232 345 227 371 227 Z" unicode="Q" />
<glyph horiz-adv-x="711" d="M 57 1518 L 395 1518 C 469 1518 527 1503 569 1474 C 611 1445 641 1400 660 1339 C 678 1277 688 1176 688 1036 C 688 885 679 779 661 719 C 643 659 612 612 568 579 L 680 0 L 432 0 L 335 516 L 303 516 L 303 0 L 57 0 L 57 1518 Z M 362 752 C 382 752 398 758 408 770 C 418 782 426 803 430 833 C 434 863 436 924 436 1018 C 436 1112 434 1174 430 1202 C 426 1230 419 1249 409 1261 C 399 1272 384 1278 362 1278 L 303 1278 L 303 752 L 362 752 Z" unicode="R" />
<glyph horiz-adv-x="623" d="M 256 -14 C 166 -14 86 -6 14 8 L 70 244 C 92 238 120 234 154 230 C 188 226 218 225 242 225 C 306 225 338 249 338 298 C 338 323 330 356 315 397 L 80 1026 C 53 1096 40 1163 40 1227 C 40 1324 68 1399 124 1451 C 180 1503 263 1530 371 1530 C 451 1530 516 1525 565 1516 L 506 1268 C 479 1274 441 1278 391 1278 C 325 1278 292 1250 292 1196 C 292 1172 298 1144 311 1110 L 530 524 C 566 424 585 338 585 265 C 585 172 557 102 501 56 C 445 9 363 -14 256 -14 Z" unicode="S" />
<glyph horiz-adv-x="631" d="M 184 1274 L 12 1274 L 12 1518 L 618 1518 L 618 1274 L 440 1274 L 440 0 L 184 0 L 184 1274 Z" unicode="T" />
<glyph horiz-adv-x="756" d="M 51 430 L 51 1518 L 305 1518 L 305 424 C 305 349 307 301 311 281 C 315 260 322 245 332 237 C 342 229 358 225 381 225 C 413 225 433 235 443 257 C 452 278 457 334 457 424 L 457 1518 L 705 1518 L 705 430 C 705 287 695 189 675 137 C 655 84 622 46 577 23 C 532 0 470 -12 390 -12 C 294 -12 224 0 178 25 C 132 49 99 88 80 142 C 60 195 51 291 51 430 Z" unicode="U" />
<glyph horiz-adv-x="737" d="M 4 1518 L 264 1518 L 344 795 L 373 449 L 401 795 L 479 1518 L 733 1518 L 532 -8 L 205 -8 L 4 1518 Z" unicode="V" />
<glyph horiz-adv-x="1079" d="M 39 1518 L 303 1518 L 348 868 L 360 580 L 383 868 L 440 1518 L 659 1518 L 717 864 L 737 580 L 750 862 L 797 1518 L 1040 1518 L 897 -8 L 633 -8 L 561 596 L 541 825 L 522 596 L 455 -8 L 180 -8 L 39 1518 Z" unicode="W" />
<glyph horiz-adv-x="743" d="M 29 1518 L 281 1518 L 387 1167 L 475 1518 L 715 1518 L 503 783 L 739 0 L 489 0 L 355 441 L 240 0 L 2 0 L 240 820 L 29 1518 Z" unicode="X" />
<glyph horiz-adv-x="702" d="M 0 1518 L 262 1518 L 354 920 L 449 1518 L 702 1518 L 477 463 L 477 0 L 223 0 L 223 472 L 0 1518 Z" unicode="Y" />
<glyph horiz-adv-x="618" d="M 16 195 L 322 1270 L 33 1270 L 33 1518 L 590 1518 L 590 1298 L 289 236 L 602 236 L 602 0 L 16 0 L 16 195 Z" unicode="Z" />
<glyph horiz-adv-x="596" d="M 104 1548 L 512 1548 L 512 1331 L 352 1331 L 352 -92 L 516 -92 L 516 -297 L 104 -297 L 104 1548 Z" unicode="[" />
<glyph horiz-adv-x="657" d="M 0 1518 L 248 1518 L 657 0 L 410 0 L 0 1518 Z" unicode="\" />
<glyph horiz-adv-x="596" d="M 82 -92 L 248 -92 L 248 1331 L 86 1331 L 86 1548 L 496 1548 L 496 -297 L 82 -297 L 82 -92 Z" unicode="]" />
<glyph horiz-adv-x="588" d="M 168 1526 L 418 1526 L 549 1249 L 352 1249 L 289 1364 L 229 1249 L 37 1249 L 168 1526 Z" unicode="^" />
<glyph horiz-adv-x="451" d="M -37 -84 L 487 -84 L 487 -264 L -37 -264 L -37 -84 Z" unicode="_" />
<glyph horiz-adv-x="588" d="M 59 1526 L 336 1526 L 424 1249 L 225 1249 L 59 1526 Z" unicode="`" />
<glyph horiz-adv-x="668" d="M 233 -8 C 180 -8 138 3 108 27 C 78 50 56 85 43 132 C 29 179 23 254 23 358 C 23 488 32 583 52 641 C 72 699 105 740 153 766 C 201 791 271 804 365 806 L 365 842 C 365 881 361 906 353 917 C 345 928 328 934 301 934 C 285 934 256 931 214 925 C 172 919 142 914 123 909 L 72 1145 C 152 1164 240 1174 334 1174 C 404 1174 458 1165 496 1148 C 534 1131 561 1104 577 1066 C 593 1028 602 971 602 893 L 602 299 C 602 270 605 252 611 244 C 617 236 631 233 651 233 L 651 0 C 641 -2 620 -4 586 -4 L 567 -4 C 513 -4 476 0 458 8 C 440 16 426 32 418 55 C 398 31 375 15 351 6 C 326 -3 287 -8 233 -8 Z M 254 377 C 254 316 255 277 259 260 C 262 242 267 230 275 222 C 282 214 293 211 307 211 C 323 211 335 214 343 222 C 351 230 356 243 360 262 C 363 281 365 331 365 412 L 365 597 C 325 595 299 590 287 581 C 275 571 266 556 261 534 C 256 512 254 460 254 377 Z" unicode="a" />
<glyph horiz-adv-x="694" d="M 453 -12 C 415 -12 383 -8 355 -2 C 327 4 303 17 283 37 L 260 -6 L 45 4 L 45 1548 L 289 1548 L 289 1120 C 305 1136 328 1149 359 1159 C 390 1169 425 1174 465 1174 C 503 1174 535 1166 562 1151 C 589 1135 610 1115 626 1089 C 642 1063 653 1023 659 971 C 665 918 668 788 668 582 C 668 361 662 219 652 157 C 641 94 618 50 584 25 C 550 0 506 -12 453 -12 Z M 356 215 C 380 215 395 221 402 235 C 409 248 414 273 416 309 C 418 345 420 431 420 569 C 420 717 418 807 415 841 C 412 875 407 898 400 910 C 392 922 378 928 356 928 C 337 928 323 922 315 910 C 306 898 300 877 296 845 C 292 813 291 721 291 569 C 291 425 292 336 296 302 C 299 268 305 245 314 233 C 322 221 336 215 356 215 Z" unicode="b" />
<glyph horiz-adv-x="524" d="M 326 -8 C 270 -8 222 0 181 14 C 139 29 107 54 85 89 C 63 124 47 173 37 237 C 27 301 23 416 23 582 C 23 755 28 874 40 940 C 51 1005 71 1056 100 1092 C 144 1143 222 1169 334 1169 C 413 1169 469 1164 502 1155 L 449 913 C 425 920 395 924 358 924 C 328 924 309 915 300 899 C 290 883 284 852 281 806 C 277 760 276 683 276 573 C 276 477 277 409 279 367 C 281 325 284 295 289 275 C 293 255 300 241 309 233 C 318 225 335 221 360 221 C 394 221 425 225 455 233 L 504 14 C 461 0 402 -8 326 -8 Z" unicode="c" />
<glyph horiz-adv-x="694" d="M 229 -12 C 190 -12 157 -4 129 11 C 101 26 80 48 65 76 C 50 104 40 145 35 200 C 29 254 27 381 27 580 C 27 790 31 926 41 989 C 51 1051 72 1097 106 1126 C 139 1154 183 1169 238 1169 C 314 1169 369 1154 403 1124 L 403 1548 L 649 1548 L 649 6 L 438 -6 L 428 47 C 404 25 379 9 352 1 C 324 -7 283 -12 229 -12 Z M 338 213 C 356 213 370 218 379 230 C 387 242 393 263 397 295 C 401 327 403 419 403 571 C 403 715 401 804 398 838 C 394 872 388 896 380 908 C 372 920 358 926 338 926 C 314 926 298 919 291 906 C 284 892 279 868 277 833 C 275 797 274 710 274 571 C 274 423 275 333 278 299 C 281 265 286 243 294 231 C 301 219 316 213 338 213 Z" unicode="d" />
<glyph horiz-adv-x="618" d="M 324 -12 C 265 -12 216 -4 176 12 C 136 28 105 53 83 87 C 61 121 46 168 37 228 C 27 288 23 406 23 582 C 23 745 26 854 32 908 C 38 962 49 1006 63 1040 C 77 1073 96 1099 119 1117 C 141 1135 170 1149 204 1159 C 238 1169 277 1174 322 1174 C 377 1174 423 1166 460 1152 C 496 1138 524 1113 543 1079 C 561 1045 575 995 583 930 C 591 864 596 748 596 582 L 596 449 L 264 449 C 266 363 269 308 274 283 C 279 257 287 241 297 233 C 307 225 324 221 348 221 C 367 221 393 224 425 230 C 457 236 488 244 518 254 L 586 31 C 497 2 410 -12 324 -12 Z M 371 666 C 371 770 369 837 367 865 C 365 893 361 911 355 920 C 349 929 337 934 319 934 C 301 934 288 928 282 916 C 275 904 270 882 268 850 C 265 817 264 756 264 666 L 371 666 Z" unicode="e" />
<glyph horiz-adv-x="473" d="M 12 1159 L 104 1159 L 104 1268 C 104 1374 126 1447 170 1489 C 214 1531 293 1552 408 1552 L 471 1548 L 471 1309 L 430 1309 C 398 1309 377 1304 366 1294 C 355 1284 350 1264 350 1235 L 350 1159 L 471 1159 L 471 932 L 350 932 L 350 0 L 104 0 L 104 932 L 12 932 L 12 1159 Z" unicode="f" />
<glyph horiz-adv-x="666" d="M 332 426 L 282 427 L 281 406 C 281 385 284 370 292 360 C 300 350 317 344 344 342 C 428 333 492 319 536 300 C 580 281 611 253 629 217 C 647 181 657 124 657 47 C 657 -45 646 -116 626 -165 C 605 -214 572 -250 526 -272 C 480 -294 416 -305 334 -305 C 212 -305 128 -284 80 -242 C 32 -200 8 -126 8 -20 C 8 16 11 48 18 75 C 24 101 34 125 48 145 C 62 165 86 189 121 215 C 99 243 88 281 88 330 C 88 386 98 434 119 476 C 88 502 67 540 55 588 C 43 636 37 704 37 791 C 37 899 46 979 64 1029 C 82 1079 111 1115 153 1137 C 195 1159 254 1171 332 1171 L 370 1169 L 657 1233 L 657 1040 L 582 1040 C 596 1017 607 984 616 940 C 624 896 629 846 629 788 C 629 682 620 606 603 558 C 585 510 556 476 515 456 C 473 436 412 426 332 426 Z M 233 6 C 233 -42 240 -74 255 -89 C 270 -103 296 -111 334 -111 C 369 -111 393 -103 406 -87 C 419 -71 426 -38 426 14 C 426 56 419 85 407 99 C 394 113 368 122 330 127 L 283 134 C 265 116 252 97 244 78 C 236 59 233 35 233 6 Z M 334 616 C 353 616 366 619 373 627 C 380 634 385 647 387 667 C 389 686 391 727 391 791 C 391 859 389 901 387 918 C 384 935 379 947 372 953 C 364 959 352 963 334 963 C 314 963 300 959 293 952 C 285 945 280 932 278 914 C 275 896 274 855 274 791 C 274 721 275 678 278 661 C 281 643 286 631 294 625 C 301 619 314 616 334 616 Z" unicode="g" />
<glyph horiz-adv-x="705" d="M 45 1548 L 289 1548 L 289 1122 C 320 1156 379 1174 465 1174 C 513 1174 552 1165 581 1147 C 609 1129 630 1101 643 1065 C 655 1029 662 975 662 903 L 662 0 L 414 0 L 414 807 C 414 855 410 887 404 903 C 398 919 384 928 362 928 C 334 928 316 918 306 898 C 296 878 291 843 291 795 L 291 0 L 45 0 L 45 1548 Z" unicode="h" />
<glyph horiz-adv-x="342" d="M 47 1159 L 295 1159 L 295 0 L 47 0 L 47 1159 Z M 47 1518 L 295 1518 L 295 1257 L 47 1257 L 47 1518 Z" unicode="i" />
<glyph horiz-adv-x="342" d="M -10 -63 C 14 -63 29 -59 36 -53 C 43 -47 47 -26 47 8 L 47 1159 L 295 1159 L 295 -33 C 295 -131 273 -200 230 -239 C 186 -277 106 -297 -10 -297 L -10 -63 Z M 47 1518 L 295 1518 L 295 1257 L 47 1257 L 47 1518 Z" unicode="j" />
<glyph horiz-adv-x="670" d="M 45 1548 L 281 1548 L 281 748 L 414 1159 L 651 1159 L 499 716 L 670 0 L 422 0 L 334 384 L 281 216 L 281 0 L 45 0 L 45 1548 Z" unicode="k" />
<glyph horiz-adv-x="383" d="M 262 -4 C 207 -4 164 4 134 20 C 104 36 82 61 68 96 C 54 131 47 190 47 272 L 47 1548 L 295 1548 L 295 279 C 295 262 296 250 300 243 C 304 236 313 233 328 233 L 358 233 L 358 0 C 350 -2 323 -4 279 -4 L 262 -4 Z" unicode="l" />
<glyph horiz-adv-x="1059" d="M 45 1151 L 256 1161 L 266 1104 C 291 1150 355 1174 459 1174 C 507 1174 543 1168 567 1158 C 591 1147 609 1130 623 1108 C 637 1128 661 1144 696 1156 C 730 1168 772 1174 821 1174 C 890 1174 940 1154 970 1116 C 1000 1077 1016 1006 1016 903 L 1016 0 L 770 0 L 770 807 C 770 855 767 888 762 904 C 756 920 743 928 721 928 C 692 928 673 915 664 891 C 655 867 651 828 651 774 L 651 0 L 408 0 L 408 807 C 408 843 406 870 404 886 C 401 902 397 913 391 919 C 385 925 374 928 358 928 C 330 928 312 917 303 895 C 293 873 289 833 289 774 L 289 0 L 45 0 L 45 1151 Z" unicode="m" />
<glyph horiz-adv-x="705" d="M 45 1151 L 256 1161 L 266 1106 C 297 1151 363 1174 465 1174 C 513 1174 552 1165 581 1147 C 609 1129 630 1101 643 1065 C 655 1029 662 975 662 903 L 662 0 L 414 0 L 414 807 C 414 855 410 887 404 903 C 398 919 384 928 362 928 C 334 928 316 918 306 898 C 296 878 291 843 291 795 L 291 0 L 45 0 L 45 1151 Z" unicode="n" />
<glyph horiz-adv-x="670" d="M 336 -12 C 278 -12 228 -4 184 11 C 140 27 106 51 84 84 C 62 117 46 164 37 224 C 27 284 23 404 23 582 C 23 745 26 854 33 908 C 39 962 50 1005 65 1039 C 79 1072 98 1098 121 1116 C 143 1134 173 1149 210 1159 C 246 1169 288 1174 336 1174 C 381 1174 422 1168 458 1158 C 494 1148 524 1133 548 1115 C 572 1097 591 1071 605 1038 C 619 1004 630 961 637 907 C 643 853 647 745 647 582 C 647 399 642 277 633 216 C 623 155 607 109 585 77 C 563 45 531 22 489 8 C 447 -5 396 -12 336 -12 Z M 336 215 C 358 215 372 220 380 230 C 388 240 393 259 396 287 C 399 315 401 410 401 573 C 401 719 399 808 397 842 C 394 875 389 898 381 910 C 373 922 358 928 336 928 C 312 928 297 921 289 909 C 281 897 276 873 274 839 C 271 805 270 716 270 573 C 270 425 271 335 274 302 C 276 268 281 245 289 233 C 297 221 312 215 336 215 Z" unicode="o" />
<glyph horiz-adv-x="694" d="M 45 1151 L 256 1161 L 266 1104 C 294 1150 361 1174 465 1174 C 503 1174 535 1166 562 1151 C 589 1135 610 1115 626 1089 C 641 1063 652 1024 658 972 C 664 920 668 790 668 582 C 668 368 663 231 653 170 C 643 108 621 63 588 35 C 554 6 511 -8 457 -8 C 421 -8 389 -5 362 0 C 335 6 311 18 291 37 L 291 -297 L 45 -297 L 45 1151 Z M 356 215 C 380 215 395 221 402 235 C 409 248 414 273 416 309 C 418 345 420 431 420 569 C 420 717 418 807 415 841 C 412 875 407 898 400 910 C 392 922 378 928 356 928 C 337 928 323 922 315 910 C 306 898 300 877 296 845 C 292 813 291 721 291 569 C 291 425 292 336 296 302 C 299 268 305 245 314 233 C 322 221 336 215 356 215 Z" unicode="p" />
<glyph horiz-adv-x="694" d="M 406 43 C 370 7 311 -10 229 -10 C 177 -10 135 3 103 31 C 70 59 49 100 40 156 C 31 212 27 351 27 573 C 27 789 32 928 42 992 C 52 1056 74 1101 109 1128 C 143 1155 188 1169 242 1169 C 322 1169 378 1151 412 1116 L 434 1163 L 649 1153 L 649 -297 L 406 -297 L 406 43 Z M 338 213 C 356 213 370 218 379 230 C 387 242 393 263 397 295 C 401 327 403 419 403 571 C 403 715 401 804 398 838 C 394 872 388 896 380 908 C 372 920 358 926 338 926 C 314 926 298 919 291 906 C 284 892 279 868 277 833 C 275 797 274 710 274 571 C 274 423 275 333 278 299 C 281 265 286 243 294 231 C 301 219 316 213 338 213 Z" unicode="q" />
<glyph horiz-adv-x="440" d="M 45 1151 L 256 1161 L 268 1092 C 289 1142 345 1167 436 1167 L 436 924 C 381 924 344 911 324 886 C 304 860 295 816 295 754 L 295 0 L 45 0 L 45 1151 Z" unicode="r" />
<glyph horiz-adv-x="532" d="M 223 -12 C 137 -12 64 -6 4 6 L 57 225 C 101 217 142 213 178 213 C 228 213 253 234 253 277 C 253 293 248 312 240 334 L 74 713 C 43 784 28 852 28 916 C 28 998 53 1061 103 1106 C 153 1151 223 1174 313 1174 C 383 1174 441 1168 489 1157 L 436 922 C 408 930 376 934 340 934 C 300 934 280 916 280 881 C 280 864 285 844 295 821 L 455 451 C 487 376 503 305 503 239 C 503 157 478 95 429 52 C 380 9 311 -12 223 -12 Z" unicode="s" />
<glyph horiz-adv-x="492" d="M 358 -4 C 295 -4 245 5 208 23 C 171 41 144 68 128 105 C 112 142 104 199 104 276 L 104 932 L 12 932 L 12 1159 L 117 1159 L 145 1393 L 350 1450 L 350 1159 L 467 1159 L 467 932 L 350 932 L 350 299 C 350 274 353 257 360 247 C 367 237 382 233 406 233 L 467 233 L 467 0 C 455 -2 425 -4 379 -4 L 358 -4 Z" unicode="t" />
<glyph horiz-adv-x="696" d="M 348 -10 C 269 -10 208 0 164 22 C 120 44 89 78 71 125 C 52 171 43 248 43 354 L 43 1159 L 289 1159 L 289 375 C 289 299 292 253 300 237 C 308 221 325 213 352 213 C 378 213 394 221 401 239 C 408 257 412 303 412 377 L 412 1159 L 651 1159 L 651 354 C 651 244 641 166 623 121 C 605 75 574 42 532 21 C 489 0 428 -10 348 -10 Z" unicode="u" />
<glyph horiz-adv-x="631" d="M 0 1159 L 254 1159 L 301 639 L 322 362 L 342 639 L 389 1159 L 631 1159 L 463 -10 L 168 -10 L 0 1159 Z" unicode="v" />
<glyph horiz-adv-x="885" d="M 10 1159 L 244 1159 L 268 694 L 274 446 L 297 692 L 352 1159 L 549 1159 L 602 692 L 625 451 L 631 692 L 657 1159 L 877 1159 L 766 -10 L 524 -10 L 469 379 L 446 598 L 424 377 L 373 -10 L 119 -10 L 10 1159 Z" unicode="w" />
<glyph horiz-adv-x="629" d="M 0 1159 L 252 1159 L 336 904 L 406 1159 L 627 1159 L 446 572 L 637 0 L 385 0 L 290 284 L 213 0 L -10 0 L 180 616 L 0 1159 Z" unicode="x" />
<glyph horiz-adv-x="635" d="M 0 1159 L 248 1159 L 307 657 L 324 488 L 342 659 L 399 1159 L 637 1159 L 426 -66 C 411 -145 382 -203 340 -241 C 297 -278 234 -297 150 -297 L 88 -293 L 88 -63 L 131 -63 C 154 -63 171 -60 182 -55 C 192 -49 199 -40 202 -28 L 0 1159 Z" unicode="y" />
<glyph horiz-adv-x="522" d="M 2 160 L 244 932 L 18 932 L 18 1159 L 512 1159 L 512 995 L 264 207 L 520 207 L 520 0 L 2 0 L 2 160 Z" unicode="z" />
<glyph horiz-adv-x="631" d="M 385 -299 C 301 -299 239 -278 201 -237 C 162 -195 143 -131 143 -43 C 143 -7 151 71 168 193 C 184 313 193 390 193 422 C 193 458 185 481 171 493 C 156 504 120 510 63 510 L 63 739 C 106 739 135 741 151 746 C 166 750 177 758 183 770 C 189 782 193 801 193 827 C 193 858 184 935 168 1057 C 151 1179 143 1257 143 1292 C 143 1383 163 1448 203 1488 C 243 1528 303 1548 385 1548 L 553 1548 L 553 1331 L 477 1331 C 445 1331 423 1324 411 1312 C 399 1299 393 1276 393 1243 C 393 1213 400 1139 416 1023 C 430 906 438 824 438 776 C 438 741 433 711 423 686 C 413 660 393 641 365 627 C 393 611 412 591 422 565 C 432 539 438 508 438 473 C 438 429 430 346 416 222 C 400 97 393 22 393 -4 C 393 -37 399 -60 411 -73 C 423 -85 445 -92 477 -92 L 553 -92 L 553 -299 L 385 -299 Z" unicode="{" />
<glyph horiz-adv-x="455" d="M 104 1550 L 352 1550 L 352 -297 L 104 -297 L 104 1550 Z" unicode="|" />
<glyph horiz-adv-x="631" d="M 78 -92 L 156 -92 C 187 -92 208 -85 220 -73 C 232 -60 238 -37 238 -4 C 238 20 234 66 226 134 C 204 318 193 431 193 473 C 193 508 198 539 209 565 C 219 591 239 611 268 627 C 218 651 193 701 193 776 C 193 824 200 906 216 1023 C 230 1139 238 1213 238 1243 C 238 1275 232 1298 220 1311 C 208 1324 187 1331 156 1331 L 78 1331 L 78 1548 L 246 1548 C 326 1548 387 1528 428 1488 C 468 1448 489 1383 489 1292 C 489 1253 480 1175 464 1057 C 446 939 438 862 438 827 C 438 791 445 767 460 756 C 474 744 510 739 567 739 L 567 510 C 509 510 473 504 459 492 C 445 480 438 457 438 422 C 438 386 446 309 464 193 C 480 75 489 -3 489 -43 C 489 -131 469 -196 430 -237 C 390 -278 329 -299 246 -299 L 78 -299 L 78 -92 Z" unicode="}" />
<glyph horiz-adv-x="588" d="M 29 738 L 28 777 C 28 827 32 866 41 896 C 50 926 64 947 84 961 C 103 975 133 982 174 982 C 189 982 205 979 223 974 C 240 968 257 962 273 956 C 289 950 304 944 318 939 C 331 933 342 931 350 931 C 361 931 369 934 375 942 C 380 949 383 962 383 982 L 559 982 L 559 953 C 559 899 554 856 546 826 C 538 796 524 773 505 759 C 485 745 454 738 412 738 C 388 738 354 746 312 764 C 269 780 244 789 236 789 C 214 789 203 772 203 738 L 29 738 Z" unicode="~" />
<glyph horiz-adv-x="182" d="" unicode=" " />
<glyph horiz-adv-x="461" d="M 117 1069 L 344 1069 L 362 0 L 98 0 L 117 1069 Z M 96 1518 L 367 1518 L 367 1192 L 96 1192 L 96 1518 Z" unicode="¡" />
<glyph horiz-adv-x="555" d="M 211 1321 L 420 1321 L 420 1168 C 471 1164 506 1160 526 1155 L 475 922 C 450 928 419 932 383 932 C 358 932 340 926 330 915 C 320 903 313 882 309 851 C 305 819 303 727 303 573 C 303 430 304 341 308 305 C 312 269 318 244 328 232 C 338 219 357 213 385 213 C 421 213 452 217 479 225 L 528 14 C 500 4 464 -1 420 -5 L 420 -195 L 211 -195 L 211 12 C 167 27 134 52 111 86 C 88 120 72 169 62 233 C 52 296 47 412 47 582 C 47 740 51 851 60 915 C 69 979 85 1030 107 1067 C 129 1103 164 1130 211 1147 L 211 1321 Z" unicode="¢" />
<glyph horiz-adv-x="737" d="M 35 877 L 103 877 L 78 1112 C 73 1150 71 1185 71 1219 C 71 1327 96 1406 147 1456 C 198 1505 278 1530 387 1530 C 481 1530 559 1519 621 1497 L 526 1270 C 495 1282 456 1288 408 1288 C 373 1288 348 1280 333 1265 C 317 1249 310 1223 310 1187 L 313 1137 L 340 877 L 508 877 L 508 674 L 362 674 C 382 484 394 374 396 346 C 398 317 399 294 399 277 C 399 253 397 230 394 209 L 432 207 C 446 207 457 209 465 215 C 473 220 478 229 482 242 C 485 255 487 287 487 338 L 487 416 L 696 416 L 696 319 C 696 225 689 156 677 114 C 665 72 645 41 617 23 C 589 5 548 -4 496 -4 C 450 -4 410 -1 376 4 C 342 9 306 20 269 36 C 211 12 136 0 45 0 L 45 233 C 96 234 128 240 141 251 C 153 262 160 282 160 310 C 160 332 158 363 154 403 L 125 674 L 35 674 L 35 877 Z" unicode="£" />
<glyph horiz-adv-x="1152" d="M 1056 392 L 940 284 L 740 500 C 692 468 636 452 572 452 C 510 452 456 468 408 500 L 208 284 L 92 392 L 300 608 C 281 634 268 660 262 686 C 255 711 252 742 252 780 C 252 848 268 906 300 952 L 92 1168 L 208 1276 L 408 1060 C 456 1092 510 1108 572 1108 C 636 1108 692 1092 740 1060 L 944 1276 L 1060 1156 L 852 952 C 870 925 883 898 890 872 C 896 845 900 814 900 780 C 900 716 882 658 848 608 L 1056 392 Z M 748 780 C 748 833 731 876 698 910 C 664 943 622 960 572 960 C 521 960 480 943 448 910 C 416 876 400 833 400 780 C 400 726 416 684 450 652 C 483 620 524 604 572 604 C 625 604 668 620 700 652 C 732 684 748 726 748 780 Z" unicode="¤" />
<glyph horiz-adv-x="750" d="M 76 336 L 258 336 L 258 416 L 76 416 L 76 608 L 248 608 L 14 1518 L 270 1518 L 375 895 L 479 1518 L 735 1518 L 499 608 L 672 608 L 672 416 L 489 416 L 489 336 L 672 336 L 672 141 L 489 141 L 489 0 L 258 0 L 258 141 L 76 141 L 76 336 Z" unicode="¥" />
<glyph horiz-adv-x="455" d="M 104 1548 L 352 1548 L 352 795 L 104 795 L 104 1548 Z M 104 457 L 352 457 L 352 -297 L 104 -297 L 104 457 Z" unicode="¦" />
<glyph horiz-adv-x="670" d="M 195 1237 C 195 1313 205 1370 227 1409 C 249 1447 284 1475 333 1492 C 381 1509 455 1518 555 1518 L 555 1290 C 519 1290 493 1287 477 1283 C 461 1279 449 1271 443 1260 C 437 1249 434 1229 434 1200 L 434 1136 C 471 1130 503 1121 531 1109 C 559 1096 580 1079 596 1057 C 612 1035 623 1007 630 973 C 637 938 641 870 641 770 C 641 674 638 608 633 574 C 628 539 619 510 607 488 C 595 466 577 448 555 436 C 532 423 503 412 469 404 L 469 281 C 469 205 458 147 437 108 C 415 69 380 41 330 25 C 280 8 207 0 109 0 L 109 227 C 143 227 168 229 184 233 C 200 237 211 244 218 255 C 225 265 229 286 229 317 L 229 400 C 186 407 151 418 125 433 C 99 448 79 468 65 492 C 51 516 42 545 37 581 C 31 616 29 679 29 770 C 29 876 33 949 43 987 C 53 1025 69 1056 93 1079 C 116 1101 150 1118 195 1129 L 195 1237 Z M 336 592 C 358 592 373 595 381 603 C 389 610 394 623 398 643 C 401 663 403 702 403 762 C 403 821 401 861 398 881 C 395 901 389 915 381 923 C 373 930 358 934 336 934 C 312 934 296 929 288 920 C 280 911 274 896 272 874 C 269 852 268 815 268 762 C 268 703 269 664 273 645 C 276 625 282 612 290 604 C 298 596 313 592 336 592 Z" unicode="§" />
<glyph horiz-adv-x="588" d="M 59 1503 L 264 1503 L 264 1249 L 59 1249 L 59 1503 Z M 324 1503 L 528 1503 L 528 1249 L 324 1249 L 324 1503 Z" unicode="¨" />
<glyph horiz-adv-x="788" d="M 426 281 C 386 281 353 284 327 292 C 300 300 279 312 265 329 C 250 345 239 367 231 394 C 223 420 217 453 214 492 C 210 531 209 620 209 758 C 209 898 211 992 217 1040 C 223 1088 233 1126 248 1154 C 262 1182 284 1202 314 1214 C 344 1225 382 1231 428 1231 C 474 1231 511 1227 541 1219 L 510 1065 C 487 1071 462 1075 434 1075 C 413 1075 399 1068 391 1055 C 383 1042 378 1018 375 982 C 372 946 371 870 371 752 C 371 641 372 567 375 529 C 378 491 384 465 392 451 C 400 437 415 430 438 430 C 448 430 462 431 480 433 C 498 435 509 438 514 440 L 547 303 C 505 288 464 281 426 281 Z M 397 -6 C 303 -6 231 13 180 52 C 129 91 93 163 72 268 C 51 373 41 537 41 760 C 41 973 51 1133 72 1240 C 93 1347 128 1421 178 1463 C 227 1505 300 1526 397 1526 C 494 1526 567 1505 616 1463 C 665 1421 700 1349 721 1245 C 741 1141 752 980 752 760 C 752 542 742 383 722 281 C 702 179 669 106 622 61 C 575 16 500 -6 397 -6 Z M 397 94 C 451 94 494 103 526 122 C 558 140 582 170 599 210 C 616 250 628 308 636 382 C 643 456 647 582 647 760 C 647 982 640 1132 626 1210 C 612 1288 589 1344 555 1376 C 521 1408 468 1425 397 1425 C 325 1425 271 1408 237 1374 C 203 1340 179 1283 165 1201 C 151 1119 145 972 145 760 C 145 537 152 386 166 308 C 180 230 204 174 238 142 C 272 110 325 94 397 94 Z" unicode="©" />
<glyph horiz-adv-x="610" d="M 227 582 C 184 582 150 591 125 610 C 100 628 82 656 71 694 C 60 731 55 792 55 877 C 55 978 62 1052 77 1098 C 92 1144 118 1177 154 1198 C 190 1219 249 1231 330 1235 L 330 1266 C 330 1296 327 1315 321 1323 C 315 1331 301 1335 279 1335 C 262 1335 236 1332 202 1328 C 167 1324 145 1320 135 1317 L 94 1507 C 150 1522 221 1530 305 1530 C 386 1530 442 1514 474 1483 C 506 1452 522 1393 522 1307 L 522 827 C 522 803 524 789 529 785 C 534 780 545 778 561 778 L 561 590 C 550 587 527 586 492 586 C 451 586 421 589 403 597 C 385 605 372 620 365 643 C 351 621 335 605 317 596 C 298 586 268 582 227 582 Z M 88 485 L 518 485 L 518 303 L 88 303 L 88 485 Z M 242 891 C 242 830 245 793 251 779 C 257 765 268 758 285 758 C 298 758 307 760 313 765 C 319 770 323 780 326 794 C 328 808 330 850 330 920 L 330 1071 L 288 1066 C 270 1062 258 1051 252 1033 C 245 1015 242 968 242 891 Z" unicode="ª" />
<glyph horiz-adv-x="834" d="M 55 578 L 205 1159 L 422 1159 L 287 578 L 422 0 L 205 0 L 55 578 Z M 387 578 L 537 1159 L 750 1159 L 614 578 L 750 0 L 537 0 L 387 578 Z" unicode="«" />
<glyph horiz-adv-x="1536" d="M 1116 352 L 1116 728 L 212 728 L 212 920 L 1296 920 L 1296 352 L 1116 352 Z" unicode="¬" />
<glyph horiz-adv-x="414" d="M 33 811 L 379 811 L 379 569 L 33 569 L 33 811 Z" unicode="­" />
<glyph horiz-adv-x="788" d="M 397 -6 C 303 -6 231 13 180 52 C 129 91 93 163 72 268 C 51 373 41 537 41 760 C 41 973 51 1133 72 1240 C 93 1347 128 1421 178 1463 C 227 1505 300 1526 397 1526 C 494 1526 567 1505 616 1463 C 665 1421 700 1349 721 1245 C 741 1141 752 980 752 760 C 752 542 742 383 722 281 C 702 179 669 106 622 61 C 575 16 500 -6 397 -6 Z M 397 94 C 451 94 494 103 526 122 C 558 140 582 170 599 210 C 616 250 628 308 636 382 C 643 456 647 582 647 760 C 647 982 640 1132 626 1210 C 612 1288 589 1344 555 1376 C 521 1408 468 1425 397 1425 C 325 1425 271 1408 237 1374 C 203 1340 179 1283 165 1201 C 151 1119 145 972 145 760 C 145 537 152 386 166 308 C 180 230 204 174 238 142 C 272 110 325 94 397 94 Z M 223 1200 L 414 1200 C 456 1200 490 1191 514 1174 C 538 1156 556 1130 566 1094 C 576 1058 582 1002 582 924 C 582 852 576 799 565 764 C 553 729 535 701 509 680 L 508 678 L 575 324 L 434 324 L 374 643 L 362 643 L 362 324 L 223 324 L 223 1200 Z M 395 760 C 412 760 423 767 429 783 C 435 798 438 841 438 913 C 438 984 435 1028 430 1044 C 424 1060 413 1069 395 1069 L 362 1069 L 362 760 L 395 760 Z" unicode="®" />
<glyph horiz-adv-x="588" d="M 55 1481 L 530 1481 L 530 1251 L 55 1251 L 55 1481 Z" unicode="¯" />
<glyph horiz-adv-x="598" d="M 297 547 C 247 547 205 553 170 567 C 134 580 108 600 90 628 C 72 656 59 696 51 750 C 43 804 39 900 39 1038 C 39 1163 42 1253 49 1308 C 55 1363 67 1406 84 1437 C 100 1467 127 1490 163 1506 C 199 1522 244 1530 297 1530 C 350 1530 395 1522 432 1507 C 469 1491 496 1469 513 1439 C 530 1409 542 1366 549 1311 C 555 1256 559 1165 559 1038 C 559 904 555 809 549 753 C 542 697 530 655 512 626 C 494 596 466 576 430 564 C 394 552 349 547 297 547 Z M 297 756 C 313 756 325 761 332 773 C 338 784 343 803 346 831 C 348 859 350 925 350 1030 C 350 1136 348 1203 346 1231 C 343 1259 338 1278 332 1289 C 326 1299 314 1305 297 1305 C 281 1305 269 1299 263 1289 C 257 1278 252 1258 250 1230 C 247 1202 246 1135 246 1030 C 246 898 249 819 255 794 C 261 768 275 756 297 756 Z" unicode="°" />
<glyph horiz-adv-x="778" d="M 88 315 L 266 315 L 266 608 L 88 608 L 88 852 L 266 852 L 266 1178 L 512 1178 L 512 852 L 688 852 L 688 608 L 512 608 L 512 315 L 688 315 L 688 72 L 88 72 L 88 315 Z" unicode="±" />
<glyph horiz-adv-x="584" d="M 78 672 L 289 1229 C 298 1255 303 1275 303 1288 C 303 1306 298 1319 288 1327 C 278 1335 262 1339 240 1339 C 201 1339 167 1333 139 1323 L 74 1497 C 116 1516 177 1526 258 1526 C 345 1526 407 1510 445 1479 C 483 1448 502 1398 502 1329 C 502 1297 499 1269 494 1244 C 489 1218 479 1185 463 1143 L 285 672 L 504 672 L 504 500 L 78 500 L 78 672 Z" unicode="²" />
<glyph horiz-adv-x="545" d="M 231 494 C 166 494 109 500 61 514 L 104 688 C 136 678 170 674 205 674 C 230 674 247 677 256 684 C 265 691 271 703 275 721 C 279 739 281 769 281 813 C 281 855 279 883 275 898 C 271 912 265 923 256 929 C 246 935 220 938 176 938 L 137 938 L 137 1126 L 186 1126 C 217 1126 237 1128 247 1133 C 257 1138 264 1147 268 1160 C 272 1173 274 1199 274 1239 C 274 1283 270 1311 263 1323 C 255 1335 239 1341 213 1341 C 166 1341 133 1337 113 1329 L 63 1501 C 105 1517 169 1526 254 1526 C 332 1526 387 1509 417 1477 C 447 1445 463 1380 463 1284 C 463 1211 461 1163 458 1141 C 454 1118 449 1100 442 1087 C 434 1074 423 1064 408 1057 C 432 1047 449 1028 458 1000 C 466 972 471 906 471 803 C 471 716 464 652 451 611 C 437 569 414 539 381 521 C 347 503 297 494 231 494 Z" unicode="³" />
<glyph horiz-adv-x="588" d="M 252 1526 L 528 1526 L 362 1249 L 162 1249 L 252 1526 Z" unicode="´" />
<glyph horiz-adv-x="696" d="M 45 1159 L 291 1159 L 291 389 C 291 309 294 259 302 241 C 310 222 326 213 352 213 C 377 213 393 223 401 243 C 408 263 412 311 412 389 L 412 1159 L 653 1159 L 653 358 C 653 264 648 197 639 158 C 629 119 614 88 593 65 C 572 41 542 23 502 10 C 462 -3 412 -10 350 -10 C 325 -10 305 -4 291 6 L 291 -297 L 45 -297 L 45 1159 Z" unicode="µ" />
<glyph horiz-adv-x="717" d="M 430 532 L 387 532 L 387 0 L 158 0 L 158 569 C 128 589 104 616 87 649 C 70 682 57 724 49 775 C 41 825 37 909 37 1026 C 37 1176 45 1280 62 1339 C 79 1398 106 1443 144 1473 C 182 1503 235 1518 303 1518 L 659 1518 L 659 0 L 430 0 L 430 532 Z M 430 731 L 430 1288 L 362 1288 C 338 1288 321 1281 309 1269 C 297 1256 288 1234 283 1204 C 278 1173 276 1108 276 1008 C 276 912 278 849 283 818 C 287 787 296 765 308 751 C 320 737 338 731 362 731 L 430 731 Z" unicode="¶" />
<glyph horiz-adv-x="373" d="M 51 922 L 322 922 L 322 592 L 51 592 L 51 922 Z" unicode="·" />
<glyph horiz-adv-x="588" d="M 326 -412 C 291 -412 263 -410 241 -408 C 219 -405 192 -398 158 -387 L 197 -250 C 229 -259 259 -264 289 -264 C 311 -264 326 -259 333 -250 C 340 -240 344 -222 344 -195 C 344 -169 339 -152 331 -144 C 323 -136 300 -133 262 -133 L 227 -96 L 244 14 L 373 14 L 362 -57 C 409 -57 442 -68 461 -92 C 479 -115 489 -155 489 -211 C 489 -286 477 -338 453 -368 C 429 -397 386 -412 326 -412 Z" unicode="¸" />
<glyph horiz-adv-x="485" d="M 154 1327 L 70 1327 L 70 1518 L 365 1518 L 365 500 L 154 500 L 154 1327 Z" unicode="¹" />
<glyph horiz-adv-x="608" d="M 88 485 L 522 485 L 522 303 L 88 303 L 88 485 Z M 305 578 C 263 578 226 582 194 592 C 161 601 136 615 119 634 C 102 653 89 677 80 705 C 70 733 63 768 59 808 C 55 848 53 930 53 1055 C 53 1198 57 1294 65 1342 C 73 1390 86 1428 104 1454 C 122 1480 148 1500 182 1512 C 216 1524 257 1530 305 1530 C 351 1530 391 1523 425 1510 C 459 1497 485 1478 503 1452 C 521 1426 533 1389 541 1343 C 549 1297 553 1201 553 1055 C 553 915 550 823 544 778 C 538 732 529 696 515 670 C 501 644 484 624 462 611 C 440 597 411 588 374 582 C 336 576 313 575 305 578 Z M 305 762 C 323 762 335 767 341 777 C 346 787 349 805 351 833 C 353 860 354 932 354 1049 C 354 1158 353 1227 351 1257 C 349 1287 345 1307 339 1317 C 333 1327 322 1333 305 1333 C 283 1333 270 1324 265 1308 C 259 1292 256 1259 255 1209 C 254 1159 254 1105 254 1049 C 254 938 255 868 257 838 C 259 808 262 787 268 777 C 273 767 285 762 305 762 Z" unicode="º" />
<glyph horiz-adv-x="834" d="M 219 580 L 82 1159 L 299 1159 L 446 580 L 299 0 L 82 0 L 219 580 Z M 549 580 L 412 1159 L 627 1159 L 776 580 L 627 0 L 412 0 L 549 580 Z" unicode="»" />
<glyph horiz-adv-x="1202" d="M 653 1518 L 877 1518 L 477 0 L 254 0 L 653 1518 Z M 672 342 L 852 1018 L 1040 1018 L 864 354 L 914 354 L 973 559 L 1096 559 L 1096 354 L 1163 354 L 1163 178 L 1096 178 L 1096 0 L 909 0 L 909 178 L 672 178 L 672 342 Z M 125 1327 L 41 1327 L 41 1518 L 336 1518 L 336 500 L 125 500 L 125 1327 Z" unicode="¼" />
<glyph horiz-adv-x="1268" d="M 653 1518 L 877 1518 L 477 0 L 254 0 L 653 1518 Z M 125 1327 L 41 1327 L 41 1518 L 336 1518 L 336 500 L 125 500 L 125 1327 Z M 774 170 L 985 727 C 994 753 999 774 999 788 C 999 805 994 818 984 826 C 974 834 957 838 934 838 C 897 838 864 832 836 821 L 770 995 C 810 1015 870 1026 952 1026 C 1040 1026 1103 1010 1141 979 C 1179 947 1198 897 1198 829 C 1198 798 1195 769 1190 741 C 1185 713 1175 680 1159 641 L 981 170 L 1200 170 L 1200 0 L 774 0 L 774 170 Z" unicode="½" />
<glyph horiz-adv-x="1284" d="M 735 1518 L 958 1518 L 559 0 L 336 0 L 735 1518 Z M 217 494 C 152 494 95 500 47 514 L 90 688 C 122 678 156 674 190 674 C 215 674 232 677 242 684 C 251 690 257 703 261 722 C 264 740 266 771 266 813 C 266 855 264 883 260 898 C 256 912 250 923 241 929 C 231 935 205 938 162 938 L 123 938 L 123 1126 L 172 1126 C 203 1126 223 1128 233 1133 C 243 1138 250 1147 254 1160 C 258 1173 260 1199 260 1239 C 260 1283 256 1311 249 1323 C 241 1335 225 1341 199 1341 C 153 1341 120 1337 98 1329 L 49 1501 C 90 1517 154 1526 240 1526 C 320 1526 374 1508 404 1474 C 434 1440 449 1376 449 1284 C 449 1198 445 1141 438 1114 C 430 1087 415 1068 393 1057 C 418 1047 435 1028 444 1000 C 452 972 457 907 457 803 C 457 719 450 656 437 614 C 424 572 401 541 369 522 C 336 503 285 494 217 494 Z M 754 342 L 934 1018 L 1122 1018 L 946 354 L 998 354 L 1055 559 L 1180 559 L 1180 354 L 1245 354 L 1245 178 L 1180 178 L 1180 0 L 993 0 L 993 178 L 754 178 L 754 342 Z" unicode="¾" />
<glyph horiz-adv-x="618" d="M 348 -12 C 249 -12 174 10 123 55 C 71 99 45 166 45 254 C 45 324 60 404 90 494 L 164 709 C 183 765 196 815 202 861 C 208 907 211 976 211 1069 L 453 1069 C 453 979 449 906 443 851 C 436 796 420 732 395 659 L 309 408 C 295 368 289 335 289 310 C 289 256 318 229 377 229 C 399 229 426 231 457 237 C 487 243 510 249 526 256 L 610 31 C 542 2 455 -12 348 -12 Z M 199 1518 L 461 1518 L 461 1229 L 199 1229 L 199 1518 Z" unicode="¿" />
<glyph horiz-adv-x="748" d="M 225 1526 L 520 1526 L 743 0 L 481 0 L 453 225 L 282 225 L 256 0 L 4 0 L 225 1526 Z M 369 1014 L 340 709 L 312 473 L 423 473 L 395 709 L 369 1014 Z M 139 1856 L 416 1856 L 504 1579 L 305 1579 L 139 1856 Z" unicode="À" />
<glyph horiz-adv-x="748" d="M 225 1526 L 520 1526 L 743 0 L 481 0 L 453 225 L 282 225 L 256 0 L 4 0 L 225 1526 Z M 369 1014 L 340 709 L 312 473 L 423 473 L 395 709 L 369 1014 Z M 332 1856 L 608 1856 L 442 1579 L 242 1579 L 332 1856 Z" unicode="Á" />
<glyph horiz-adv-x="748" d="M 225 1526 L 520 1526 L 743 0 L 481 0 L 453 225 L 282 225 L 256 0 L 4 0 L 225 1526 Z M 369 1014 L 340 709 L 312 473 L 423 473 L 395 709 L 369 1014 Z M 248 1856 L 498 1856 L 629 1579 L 432 1579 L 369 1694 L 309 1579 L 117 1579 L 248 1856 Z" unicode="Â" />
<glyph horiz-adv-x="748" d="M 225 1526 L 520 1526 L 743 0 L 481 0 L 453 225 L 282 225 L 256 0 L 4 0 L 225 1526 Z M 369 1014 L 340 709 L 312 473 L 423 473 L 395 709 L 369 1014 Z M 109 1579 L 108 1618 C 108 1668 112 1707 121 1737 C 130 1767 144 1788 164 1802 C 183 1816 213 1823 254 1823 C 269 1823 285 1820 303 1815 C 320 1809 337 1803 353 1797 C 369 1791 384 1785 398 1780 C 411 1774 422 1772 430 1772 C 441 1772 449 1775 455 1783 C 460 1790 463 1803 463 1823 L 639 1823 L 639 1794 C 639 1740 634 1697 626 1667 C 618 1637 604 1614 585 1600 C 565 1586 534 1579 492 1579 C 468 1579 434 1587 392 1605 C 349 1621 324 1630 316 1630 C 294 1630 283 1613 283 1579 L 109 1579 Z" unicode="Ã" />
<glyph horiz-adv-x="748" d="M 225 1526 L 520 1526 L 743 0 L 481 0 L 453 225 L 282 225 L 256 0 L 4 0 L 225 1526 Z M 369 1014 L 340 709 L 312 473 L 423 473 L 395 709 L 369 1014 Z M 139 1833 L 344 1833 L 344 1579 L 139 1579 L 139 1833 Z M 404 1833 L 608 1833 L 608 1579 L 404 1579 L 404 1833 Z" unicode="Ä" />
<glyph horiz-adv-x="748" d="M 225 1526 L 520 1526 L 743 0 L 481 0 L 453 225 L 283 225 L 256 0 L 4 0 L 225 1526 Z M 373 1544 C 331 1544 299 1550 275 1564 C 251 1577 233 1597 223 1625 C 212 1653 207 1695 207 1753 C 207 1811 212 1853 223 1881 C 233 1909 250 1930 274 1944 C 298 1958 331 1966 373 1966 C 415 1966 448 1958 472 1944 C 496 1930 514 1909 525 1881 C 535 1853 541 1811 541 1753 C 541 1694 535 1651 524 1624 C 513 1597 495 1577 471 1564 C 447 1550 414 1544 373 1544 Z M 311 473 L 424 473 L 395 709 L 369 1014 L 340 709 L 311 473 Z M 373 1653 C 392 1653 405 1658 412 1670 C 418 1682 422 1708 422 1749 C 422 1785 419 1811 414 1827 C 409 1843 395 1851 373 1851 C 355 1851 343 1845 336 1834 C 329 1823 326 1795 326 1749 C 326 1706 329 1679 335 1669 C 341 1658 353 1653 373 1653 Z" unicode="Å" />
<glyph horiz-adv-x="965" d="M 285 1518 L 934 1518 L 934 1270 L 678 1270 L 678 889 L 924 889 L 924 647 L 678 647 L 678 236 L 934 236 L 934 0 L 434 0 L 434 276 L 283 276 L 238 0 L -16 0 L 285 1518 Z M 434 481 L 434 1210 L 315 481 L 434 481 Z" unicode="Æ" />
<glyph horiz-adv-x="575" d="M 387 -10 C 320 -10 265 -3 222 9 C 179 21 144 45 116 80 C 88 115 67 163 55 223 C 43 283 36 368 35 480 C 33 591 33 684 33 760 C 33 982 36 1127 42 1195 C 48 1263 58 1318 74 1361 C 89 1403 109 1436 135 1460 C 161 1484 195 1501 238 1512 C 281 1522 331 1528 389 1528 C 454 1528 515 1521 571 1507 L 522 1262 C 510 1265 489 1268 460 1270 C 430 1272 411 1274 401 1274 C 365 1274 341 1265 329 1249 C 317 1233 308 1203 303 1160 C 298 1117 295 1049 295 955 C 295 861 295 794 295 754 C 295 572 296 456 299 407 C 301 357 306 320 312 296 C 318 272 327 254 339 244 C 351 234 374 229 408 229 C 442 229 482 235 526 248 L 580 25 C 508 1 443 -10 387 -10 Z M 326 -412 C 291 -412 263 -410 241 -408 C 219 -405 192 -398 158 -387 L 197 -250 C 229 -259 259 -264 289 -264 C 311 -264 326 -259 333 -250 C 340 -240 344 -222 344 -195 C 344 -169 339 -152 331 -144 C 323 -136 300 -133 262 -133 L 227 -96 L 244 14 L 373 14 L 362 -57 C 409 -57 442 -68 461 -92 C 479 -115 489 -155 489 -211 C 489 -286 477 -338 453 -368 C 429 -397 386 -412 326 -412 Z" unicode="Ç" />
<glyph horiz-adv-x="596" d="M 57 1518 L 565 1518 L 565 1270 L 311 1270 L 311 891 L 559 891 L 559 647 L 311 647 L 311 236 L 565 236 L 565 0 L 57 0 L 57 1518 Z M 63 1856 L 340 1856 L 428 1579 L 229 1579 L 63 1856 Z" unicode="È" />
<glyph horiz-adv-x="596" d="M 256 1856 L 532 1856 L 366 1579 L 166 1579 L 256 1856 Z M 57 1518 L 565 1518 L 565 1270 L 311 1270 L 311 891 L 559 891 L 559 647 L 311 647 L 311 236 L 565 236 L 565 0 L 57 0 L 57 1518 Z" unicode="É" />
<glyph horiz-adv-x="596" d="M 172 1856 L 422 1856 L 553 1579 L 356 1579 L 293 1694 L 233 1579 L 41 1579 L 172 1856 Z M 57 1518 L 565 1518 L 565 1270 L 311 1270 L 311 891 L 559 891 L 559 647 L 311 647 L 311 236 L 565 236 L 565 0 L 57 0 L 57 1518 Z" unicode="Ê" />
<glyph horiz-adv-x="596" d="M 63 1833 L 268 1833 L 268 1579 L 63 1579 L 63 1833 Z M 328 1833 L 532 1833 L 532 1579 L 328 1579 L 328 1833 Z M 57 1518 L 565 1518 L 565 1270 L 311 1270 L 311 891 L 559 891 L 559 647 L 311 647 L 311 236 L 565 236 L 565 0 L 57 0 L 57 1518 Z" unicode="Ë" />
<glyph horiz-adv-x="375" d="M -55 1858 L 238 1858 L 305 1579 L 90 1579 L -55 1858 Z M 55 1518 L 307 1518 L 307 0 L 55 0 L 55 1518 Z" unicode="Ì" />
<glyph horiz-adv-x="375" d="M 137 1858 L 430 1858 L 285 1579 L 70 1579 L 137 1858 Z M 55 1518 L 307 1518 L 307 0 L 55 0 L 55 1518 Z" unicode="Í" />
<glyph horiz-adv-x="375" d="M 61 1858 L 311 1858 L 432 1579 L 238 1579 L 184 1694 L 131 1579 L -59 1579 L 61 1858 Z M 55 1518 L 307 1518 L 307 0 L 55 0 L 55 1518 Z" unicode="Î" />
<glyph horiz-adv-x="375" d="M 56 1518 L 308 1518 L 308 0 L 56 0 L 56 1518 Z M -44 1833 L 161 1833 L 161 1579 L -44 1579 L -44 1833 Z M 221 1833 L 425 1833 L 425 1579 L 221 1579 L 221 1833 Z" unicode="Ï" />
<glyph horiz-adv-x="754" d="M 2 872 L 57 872 L 57 1518 L 399 1518 C 452 1518 497 1512 533 1501 C 569 1490 600 1472 625 1446 C 649 1420 668 1388 681 1348 C 694 1308 704 1255 710 1189 C 716 1122 719 979 719 760 C 719 560 716 425 712 356 C 707 287 699 231 688 189 C 677 146 658 109 632 77 C 605 45 568 23 521 12 C 474 0 433 -3 399 0 L 57 0 L 57 653 L 2 653 L 2 872 Z M 371 221 C 400 221 420 230 432 248 C 444 266 452 300 457 349 C 462 398 465 533 465 754 C 465 962 462 1092 458 1146 C 454 1200 446 1236 434 1256 C 422 1276 401 1286 371 1286 L 311 1286 L 311 872 L 403 872 L 403 653 L 311 653 L 311 221 L 371 221 Z" unicode="Ð" />
<glyph horiz-adv-x="774" d="M 57 1518 L 328 1518 L 434 1030 L 477 813 L 477 1518 L 717 1518 L 717 0 L 475 0 L 338 586 L 295 786 L 295 0 L 57 0 L 57 1518 Z M 121 1579 L 120 1618 C 120 1668 124 1707 133 1737 C 142 1767 156 1788 176 1802 C 195 1816 225 1823 266 1823 C 281 1823 297 1820 315 1815 C 332 1809 349 1803 365 1797 C 381 1791 396 1785 410 1780 C 423 1774 434 1772 442 1772 C 453 1772 461 1775 467 1783 C 472 1790 475 1803 475 1823 L 651 1823 L 651 1794 C 651 1740 646 1697 638 1667 C 630 1637 616 1614 597 1600 C 577 1586 546 1579 504 1579 C 480 1579 446 1587 404 1605 C 361 1621 336 1630 328 1630 C 306 1630 295 1613 295 1579 L 121 1579 Z" unicode="Ñ" />
<glyph horiz-adv-x="741" d="M 371 -12 C 299 -12 241 -3 199 12 C 156 28 123 58 99 100 C 75 142 58 204 48 285 C 38 366 33 524 33 760 C 33 978 37 1128 45 1210 C 53 1292 69 1355 92 1401 C 114 1446 147 1479 191 1499 C 235 1519 295 1530 371 1530 C 433 1530 485 1523 527 1509 C 569 1495 601 1473 624 1445 C 646 1416 664 1379 676 1333 C 688 1287 696 1229 701 1159 C 706 1088 709 955 709 760 C 709 544 706 401 701 332 C 696 263 688 208 676 166 C 664 124 648 89 626 63 C 604 36 572 17 532 5 C 491 -6 437 -12 371 -12 Z M 371 227 C 396 227 413 232 423 244 C 432 255 439 275 443 305 C 447 334 450 383 451 453 C 452 523 453 623 453 754 C 453 918 452 1028 451 1084 C 449 1140 446 1182 442 1208 C 437 1234 430 1252 422 1262 C 413 1272 396 1278 371 1278 C 344 1278 326 1270 317 1256 C 308 1241 302 1215 298 1179 C 294 1142 292 1077 292 984 C 291 890 291 814 291 754 C 291 590 291 480 293 424 C 294 367 297 325 301 299 C 305 273 312 254 321 243 C 329 232 346 227 371 227 Z M 137 1856 L 414 1856 L 502 1579 L 303 1579 L 137 1856 Z" unicode="Ò" />
<glyph horiz-adv-x="741" d="M 330 1856 L 606 1856 L 440 1579 L 240 1579 L 330 1856 Z M 371 -12 C 299 -12 241 -3 199 12 C 156 28 123 58 99 100 C 75 142 58 204 48 285 C 38 366 33 524 33 760 C 33 978 37 1128 45 1210 C 53 1292 69 1355 92 1401 C 114 1446 147 1479 191 1499 C 235 1519 295 1530 371 1530 C 433 1530 485 1523 527 1509 C 569 1495 601 1473 624 1445 C 646 1416 664 1379 676 1333 C 688 1287 696 1229 701 1159 C 706 1088 709 955 709 760 C 709 544 706 401 701 332 C 696 263 688 208 676 166 C 664 124 648 89 626 63 C 604 36 572 17 532 5 C 491 -6 437 -12 371 -12 Z M 371 227 C 396 227 413 232 423 244 C 432 255 439 275 443 305 C 447 334 450 383 451 453 C 452 523 453 623 453 754 C 453 918 452 1028 451 1084 C 449 1140 446 1182 442 1208 C 437 1234 430 1252 422 1262 C 413 1272 396 1278 371 1278 C 344 1278 326 1270 317 1256 C 308 1241 302 1215 298 1179 C 294 1142 292 1077 292 984 C 291 890 291 814 291 754 C 291 590 291 480 293 424 C 294 367 297 325 301 299 C 305 273 312 254 321 243 C 329 232 346 227 371 227 Z" unicode="Ó" />
<glyph horiz-adv-x="741" d="M 246 1856 L 496 1856 L 627 1579 L 430 1579 L 367 1694 L 307 1579 L 115 1579 L 246 1856 Z M 371 -12 C 299 -12 241 -3 199 12 C 156 28 123 58 99 100 C 75 142 58 204 48 285 C 38 366 33 524 33 760 C 33 978 37 1128 45 1210 C 53 1292 69 1355 92 1401 C 114 1446 147 1479 191 1499 C 235 1519 295 1530 371 1530 C 433 1530 485 1523 527 1509 C 569 1495 601 1473 624 1445 C 646 1416 664 1379 676 1333 C 688 1287 696 1229 701 1159 C 706 1088 709 955 709 760 C 709 544 706 401 701 332 C 696 263 688 208 676 166 C 664 124 648 89 626 63 C 604 36 572 17 532 5 C 491 -6 437 -12 371 -12 Z M 371 227 C 396 227 413 232 423 244 C 432 255 439 275 443 305 C 447 334 450 383 451 453 C 452 523 453 623 453 754 C 453 918 452 1028 451 1084 C 449 1140 446 1182 442 1208 C 437 1234 430 1252 422 1262 C 413 1272 396 1278 371 1278 C 344 1278 326 1270 317 1256 C 308 1241 302 1215 298 1179 C 294 1142 292 1077 292 984 C 291 890 291 814 291 754 C 291 590 291 480 293 424 C 294 367 297 325 301 299 C 305 273 312 254 321 243 C 329 232 346 227 371 227 Z" unicode="Ô" />
<glyph horiz-adv-x="741" d="M 371 -12 C 299 -12 241 -3 199 12 C 156 28 123 58 99 100 C 75 142 58 204 48 285 C 38 366 33 524 33 760 C 33 978 37 1128 45 1210 C 53 1292 69 1355 92 1401 C 114 1446 147 1479 191 1499 C 235 1519 295 1530 371 1530 C 433 1530 485 1523 527 1509 C 569 1495 601 1473 624 1445 C 646 1416 664 1379 676 1333 C 688 1287 696 1229 701 1159 C 706 1088 709 955 709 760 C 709 544 706 401 701 332 C 696 263 688 208 676 166 C 664 124 648 89 626 63 C 604 36 572 17 532 5 C 491 -6 437 -12 371 -12 Z M 371 227 C 396 227 413 232 423 244 C 432 255 439 275 443 305 C 447 334 450 383 451 453 C 452 523 453 623 453 754 C 453 918 452 1028 451 1084 C 449 1140 446 1182 442 1208 C 437 1234 430 1252 422 1262 C 413 1272 396 1278 371 1278 C 344 1278 326 1270 317 1256 C 308 1241 302 1215 298 1179 C 294 1142 292 1077 292 984 C 291 890 291 814 291 754 C 291 590 291 480 293 424 C 294 367 297 325 301 299 C 305 273 312 254 321 243 C 329 232 346 227 371 227 Z M 107 1579 L 106 1618 C 106 1668 110 1707 119 1737 C 128 1767 142 1788 162 1802 C 181 1816 211 1823 252 1823 C 267 1823 283 1820 301 1815 C 318 1809 335 1803 351 1797 C 367 1791 382 1785 396 1780 C 409 1774 420 1772 428 1772 C 439 1772 447 1775 453 1783 C 458 1790 461 1803 461 1823 L 637 1823 L 637 1794 C 637 1740 632 1697 624 1667 C 616 1637 602 1614 583 1600 C 563 1586 532 1579 490 1579 C 466 1579 432 1587 390 1605 C 347 1621 322 1630 314 1630 C 292 1630 281 1613 281 1579 L 107 1579 Z" unicode="Õ" />
<glyph horiz-adv-x="741" d="M 137 1833 L 342 1833 L 342 1579 L 137 1579 L 137 1833 Z M 402 1833 L 606 1833 L 606 1579 L 402 1579 L 402 1833 Z M 371 -12 C 299 -12 241 -3 199 12 C 156 28 123 58 99 100 C 75 142 58 204 48 285 C 38 366 33 524 33 760 C 33 978 37 1128 45 1210 C 53 1292 69 1355 92 1401 C 114 1446 147 1479 191 1499 C 235 1519 295 1530 371 1530 C 433 1530 485 1523 527 1509 C 569 1495 601 1473 624 1445 C 646 1416 664 1379 676 1333 C 688 1287 696 1229 701 1159 C 706 1088 709 955 709 760 C 709 544 706 401 701 332 C 696 263 688 208 676 166 C 664 124 648 89 626 63 C 604 36 572 17 532 5 C 491 -6 437 -12 371 -12 Z M 371 227 C 396 227 413 232 423 244 C 432 255 439 275 443 305 C 447 334 450 383 451 453 C 452 523 453 623 453 754 C 453 918 452 1028 451 1084 C 449 1140 446 1182 442 1208 C 437 1234 430 1252 422 1262 C 413 1272 396 1278 371 1278 C 344 1278 326 1270 317 1256 C 308 1241 302 1215 298 1179 C 294 1142 292 1077 292 984 C 291 890 291 814 291 754 C 291 590 291 480 293 424 C 294 367 297 325 301 299 C 305 273 312 254 321 243 C 329 232 346 227 371 227 Z" unicode="Ö" />
<glyph horiz-adv-x="778" d="M 82 573 L 239 730 L 84 885 L 231 1034 L 387 878 L 543 1034 L 694 885 L 537 728 L 694 573 L 545 424 L 389 580 L 233 424 L 82 573 Z" unicode="×" />
<glyph horiz-adv-x="741" d="M 371 -12 L 315 -10 L 303 -84 L 172 -84 L 189 16 C 150 33 119 63 96 106 C 72 149 56 212 47 294 C 37 376 33 532 33 760 C 33 978 37 1128 45 1210 C 53 1292 69 1355 92 1401 C 114 1446 147 1479 191 1499 C 235 1519 295 1530 371 1530 L 426 1528 L 438 1604 L 569 1604 L 552 1499 C 585 1484 611 1462 631 1434 C 651 1406 666 1370 677 1326 C 688 1282 696 1227 701 1161 C 706 1095 709 961 709 760 C 709 544 706 401 701 332 C 696 263 688 208 676 166 C 664 124 648 89 626 63 C 604 36 572 17 532 5 C 491 -6 437 -12 371 -12 Z M 371 211 C 399 211 419 217 431 229 C 442 241 450 261 455 290 C 460 319 464 362 466 420 C 468 478 469 589 469 754 L 469 814 C 469 955 468 1029 466 1035 L 339 216 C 345 212 356 211 371 211 Z M 371 1294 C 339 1294 317 1286 306 1270 C 294 1254 286 1225 282 1185 C 278 1145 275 1077 275 981 C 274 885 274 810 274 754 L 274 693 L 277 500 L 401 1289 L 397 1290 C 389 1292 381 1294 371 1294 Z" unicode="Ø" />
<glyph horiz-adv-x="756" d="M 51 430 L 51 1518 L 305 1518 L 305 424 C 305 349 307 301 311 281 C 315 260 322 245 332 237 C 342 229 358 225 381 225 C 413 225 433 235 443 257 C 452 278 457 334 457 424 L 457 1518 L 705 1518 L 705 430 C 705 287 695 189 675 137 C 655 84 622 46 577 23 C 532 0 470 -12 390 -12 C 294 -12 224 0 178 25 C 132 49 99 88 80 142 C 60 195 51 291 51 430 Z M 143 1856 L 420 1856 L 508 1579 L 309 1579 L 143 1856 Z" unicode="Ù" />
<glyph horiz-adv-x="756" d="M 336 1856 L 612 1856 L 446 1579 L 246 1579 L 336 1856 Z M 51 430 L 51 1518 L 305 1518 L 305 424 C 305 349 307 301 311 281 C 315 260 322 245 332 237 C 342 229 358 225 381 225 C 413 225 433 235 443 257 C 452 278 457 334 457 424 L 457 1518 L 705 1518 L 705 430 C 705 287 695 189 675 137 C 655 84 622 46 577 23 C 532 0 470 -12 390 -12 C 294 -12 224 0 178 25 C 132 49 99 88 80 142 C 60 195 51 291 51 430 Z" unicode="Ú" />
<glyph horiz-adv-x="756" d="M 252 1856 L 502 1856 L 633 1579 L 436 1579 L 373 1694 L 313 1579 L 121 1579 L 252 1856 Z M 51 430 L 51 1518 L 305 1518 L 305 424 C 305 349 307 301 311 281 C 315 260 322 245 332 237 C 342 229 358 225 381 225 C 413 225 433 235 443 257 C 452 278 457 334 457 424 L 457 1518 L 705 1518 L 705 430 C 705 287 695 189 675 137 C 655 84 622 46 577 23 C 532 0 470 -12 390 -12 C 294 -12 224 0 178 25 C 132 49 99 88 80 142 C 60 195 51 291 51 430 Z" unicode="Û" />
<glyph horiz-adv-x="756" d="M 143 1833 L 348 1833 L 348 1579 L 143 1579 L 143 1833 Z M 408 1833 L 612 1833 L 612 1579 L 408 1579 L 408 1833 Z M 51 430 L 51 1518 L 305 1518 L 305 424 C 305 349 307 301 311 281 C 315 260 322 245 332 237 C 342 229 358 225 381 225 C 413 225 433 235 443 257 C 452 278 457 334 457 424 L 457 1518 L 705 1518 L 705 430 C 705 287 695 189 675 137 C 655 84 622 46 577 23 C 532 0 470 -12 390 -12 C 294 -12 224 0 178 25 C 132 49 99 88 80 142 C 60 195 51 291 51 430 Z" unicode="Ü" />
<glyph horiz-adv-x="702" d="M 0 1518 L 262 1518 L 354 920 L 449 1518 L 702 1518 L 477 463 L 477 0 L 223 0 L 223 472 L 0 1518 Z M 309 1856 L 585 1856 L 419 1579 L 219 1579 L 309 1856 Z" unicode="Ý" />
<glyph horiz-adv-x="721" d="M 57 1518 L 311 1518 L 311 1290 L 391 1290 C 469 1290 530 1276 574 1248 C 617 1220 648 1176 667 1116 C 686 1056 696 949 696 793 C 696 640 687 532 669 470 C 651 408 621 362 579 333 C 537 303 478 289 403 289 L 311 289 L 311 0 L 57 0 L 57 1518 Z M 371 504 C 392 504 407 509 417 520 C 427 530 434 549 438 577 C 442 604 444 670 444 774 C 444 878 442 945 438 975 C 434 1005 427 1027 417 1040 C 407 1052 392 1059 371 1059 L 311 1059 L 311 504 L 371 504 Z" unicode="Þ" />
<glyph horiz-adv-x="709" d="M 45 1247 C 45 1364 69 1447 117 1497 C 165 1546 248 1571 365 1571 C 447 1571 507 1560 547 1539 C 587 1517 615 1481 632 1431 C 648 1380 657 1296 657 1178 C 657 1054 652 969 642 925 C 632 881 611 851 580 836 C 615 820 639 801 652 777 C 664 753 673 717 678 670 C 683 622 686 542 686 428 C 686 304 681 219 672 173 C 662 127 647 92 625 68 C 603 44 573 26 534 16 C 494 5 438 0 365 0 L 346 0 L 346 217 L 365 217 C 397 217 419 223 429 236 C 439 248 447 270 451 302 C 455 333 457 385 457 457 C 457 526 455 576 451 608 C 447 640 439 662 429 675 C 419 687 397 694 365 694 L 346 694 L 346 899 L 365 899 C 389 899 406 904 415 914 C 423 924 429 941 433 967 C 436 992 438 1044 438 1122 C 438 1200 436 1253 433 1279 C 429 1305 423 1323 415 1333 C 406 1343 389 1348 365 1348 C 337 1348 317 1341 307 1327 C 296 1313 291 1283 291 1237 L 291 0 L 45 0 L 45 1247 Z" unicode="ß" />
<glyph horiz-adv-x="668" d="M 233 -8 C 180 -8 138 3 108 27 C 78 50 56 85 43 132 C 29 179 23 254 23 358 C 23 488 32 583 52 641 C 72 699 105 740 153 766 C 201 791 271 804 365 806 L 365 842 C 365 881 361 906 353 917 C 345 928 328 934 301 934 C 285 934 256 931 214 925 C 172 919 142 914 123 909 L 72 1145 C 152 1164 240 1174 334 1174 C 404 1174 458 1165 496 1148 C 534 1131 561 1104 577 1066 C 593 1028 602 971 602 893 L 602 299 C 602 270 605 252 611 244 C 617 236 631 233 651 233 L 651 0 C 641 -2 620 -4 586 -4 L 567 -4 C 513 -4 476 0 458 8 C 440 16 426 32 418 55 C 398 31 375 15 351 6 C 326 -3 287 -8 233 -8 Z M 254 377 C 254 316 255 277 259 260 C 262 242 267 230 275 222 C 282 214 293 211 307 211 C 323 211 335 214 343 222 C 351 230 356 243 360 262 C 363 281 365 331 365 412 L 365 597 C 325 595 299 590 287 581 C 275 571 266 556 261 534 C 256 512 254 460 254 377 Z M 100 1526 L 377 1526 L 465 1249 L 266 1249 L 100 1526 Z" unicode="à" />
<glyph horiz-adv-x="668" d="M 233 -8 C 180 -8 138 3 108 27 C 78 50 56 85 43 132 C 29 179 23 254 23 358 C 23 488 32 583 52 641 C 72 699 105 740 153 766 C 201 791 271 804 365 806 L 365 842 C 365 881 361 906 353 917 C 345 928 328 934 301 934 C 285 934 256 931 214 925 C 172 919 142 914 123 909 L 72 1145 C 152 1164 240 1174 334 1174 C 404 1174 458 1165 496 1148 C 534 1131 561 1104 577 1066 C 593 1028 602 971 602 893 L 602 299 C 602 270 605 252 611 244 C 617 236 631 233 651 233 L 651 0 C 641 -2 620 -4 586 -4 L 567 -4 C 513 -4 476 0 458 8 C 440 16 426 32 418 55 C 398 31 375 15 351 6 C 326 -3 287 -8 233 -8 Z M 254 377 C 254 316 255 277 259 260 C 262 242 267 230 275 222 C 282 214 293 211 307 211 C 323 211 335 214 343 222 C 351 230 356 243 360 262 C 363 281 365 331 365 412 L 365 597 C 325 595 299 590 287 581 C 275 571 266 556 261 534 C 256 512 254 460 254 377 Z M 293 1526 L 569 1526 L 403 1249 L 203 1249 L 293 1526 Z" unicode="á" />
<glyph horiz-adv-x="668" d="M 233 -8 C 180 -8 138 3 108 27 C 78 50 56 85 43 132 C 29 179 23 254 23 358 C 23 488 32 583 52 641 C 72 699 105 740 153 766 C 201 791 271 804 365 806 L 365 842 C 365 881 361 906 353 917 C 345 928 328 934 301 934 C 285 934 256 931 214 925 C 172 919 142 914 123 909 L 72 1145 C 152 1164 240 1174 334 1174 C 404 1174 458 1165 496 1148 C 534 1131 561 1104 577 1066 C 593 1028 602 971 602 893 L 602 299 C 602 270 605 252 611 244 C 617 236 631 233 651 233 L 651 0 C 641 -2 620 -4 586 -4 L 567 -4 C 513 -4 476 0 458 8 C 440 16 426 32 418 55 C 398 31 375 15 351 6 C 326 -3 287 -8 233 -8 Z M 254 377 C 254 316 255 277 259 260 C 262 242 267 230 275 222 C 282 214 293 211 307 211 C 323 211 335 214 343 222 C 351 230 356 243 360 262 C 363 281 365 331 365 412 L 365 597 C 325 595 299 590 287 581 C 275 571 266 556 261 534 C 256 512 254 460 254 377 Z M 209 1526 L 459 1526 L 590 1249 L 393 1249 L 330 1364 L 270 1249 L 78 1249 L 209 1526 Z" unicode="â" />
<glyph horiz-adv-x="668" d="M 233 -8 C 180 -8 138 3 108 27 C 78 50 56 85 43 132 C 29 179 23 254 23 358 C 23 488 32 583 52 641 C 72 699 105 740 153 766 C 201 791 271 804 365 806 L 365 842 C 365 881 361 906 353 917 C 345 928 328 934 301 934 C 285 934 256 931 214 925 C 172 919 142 914 123 909 L 72 1145 C 152 1164 240 1174 334 1174 C 404 1174 458 1165 496 1148 C 534 1131 561 1104 577 1066 C 593 1028 602 971 602 893 L 602 299 C 602 270 605 252 611 244 C 617 236 631 233 651 233 L 651 0 C 641 -2 620 -4 586 -4 L 567 -4 C 513 -4 476 0 458 8 C 440 16 426 32 418 55 C 398 31 375 15 351 6 C 326 -3 287 -8 233 -8 Z M 254 377 C 254 316 255 277 259 260 C 262 242 267 230 275 222 C 282 214 293 211 307 211 C 323 211 335 214 343 222 C 351 230 356 243 360 262 C 363 281 365 331 365 412 L 365 597 C 325 595 299 590 287 581 C 275 571 266 556 261 534 C 256 512 254 460 254 377 Z M 70 1249 L 69 1288 C 69 1338 73 1377 82 1407 C 91 1437 105 1458 125 1472 C 144 1486 174 1493 215 1493 C 230 1493 246 1490 264 1485 C 281 1479 298 1473 314 1467 C 330 1461 345 1455 359 1450 C 372 1444 383 1442 391 1442 C 402 1442 410 1445 416 1453 C 421 1460 424 1473 424 1493 L 600 1493 L 600 1464 C 600 1410 595 1367 587 1337 C 579 1307 565 1284 546 1270 C 526 1256 495 1249 453 1249 C 429 1249 395 1257 353 1275 C 310 1291 285 1300 277 1300 C 255 1300 244 1283 244 1249 L 70 1249 Z" unicode="ã" />
<glyph horiz-adv-x="668" d="M 233 -8 C 180 -8 138 3 108 27 C 78 50 56 85 43 132 C 29 179 23 254 23 358 C 23 488 32 583 52 641 C 72 699 105 740 153 766 C 201 791 271 804 365 806 L 365 842 C 365 881 361 906 353 917 C 345 928 328 934 301 934 C 285 934 256 931 214 925 C 172 919 142 914 123 909 L 72 1145 C 152 1164 240 1174 334 1174 C 404 1174 458 1165 496 1148 C 534 1131 561 1104 577 1066 C 593 1028 602 971 602 893 L 602 299 C 602 270 605 252 611 244 C 617 236 631 233 651 233 L 651 0 C 641 -2 620 -4 586 -4 L 567 -4 C 513 -4 476 0 458 8 C 440 16 426 32 418 55 C 398 31 375 15 351 6 C 326 -3 287 -8 233 -8 Z M 254 377 C 254 316 255 277 259 260 C 262 242 267 230 275 222 C 282 214 293 211 307 211 C 323 211 335 214 343 222 C 351 230 356 243 360 262 C 363 281 365 331 365 412 L 365 597 C 325 595 299 590 287 581 C 275 571 266 556 261 534 C 256 512 254 460 254 377 Z M 100 1503 L 305 1503 L 305 1249 L 100 1249 L 100 1503 Z M 365 1503 L 569 1503 L 569 1249 L 365 1249 L 365 1503 Z" unicode="ä" />
<glyph horiz-adv-x="668" d="M 233 -8 C 180 -8 138 3 108 27 C 78 50 56 85 43 132 C 29 179 23 254 23 358 C 23 488 32 583 52 641 C 72 699 105 740 153 766 C 201 791 271 804 365 806 L 365 842 C 365 881 361 906 353 917 C 345 928 328 934 301 934 C 285 934 256 931 214 925 C 172 919 142 914 123 909 L 72 1145 C 152 1164 240 1174 334 1174 C 404 1174 458 1165 496 1148 C 534 1131 561 1104 577 1066 C 593 1028 602 971 602 893 L 602 299 C 602 270 605 252 611 244 C 617 236 631 233 651 233 L 651 0 C 641 -2 620 -4 586 -4 L 567 -4 C 513 -4 476 0 458 8 C 440 16 426 32 418 55 C 398 31 375 15 351 6 C 326 -3 287 -8 233 -8 Z M 254 377 C 254 316 255 277 259 260 C 262 242 267 230 275 222 C 282 214 293 211 307 211 C 323 211 335 214 343 222 C 351 230 356 243 360 262 C 363 281 365 331 365 412 L 365 597 C 325 595 299 590 287 581 C 275 571 266 556 261 534 C 256 512 254 460 254 377 Z M 334 1245 C 292 1245 260 1251 236 1265 C 212 1278 194 1298 184 1326 C 173 1354 168 1396 168 1454 C 168 1512 173 1554 184 1582 C 194 1610 211 1631 235 1645 C 259 1659 292 1667 334 1667 C 376 1667 409 1659 433 1645 C 457 1631 475 1610 486 1582 C 496 1554 502 1512 502 1454 C 502 1395 496 1352 485 1325 C 474 1298 456 1278 432 1265 C 408 1251 375 1245 334 1245 Z M 334 1354 C 353 1354 366 1359 373 1371 C 379 1383 383 1409 383 1450 C 383 1486 380 1512 375 1528 C 370 1544 356 1552 334 1552 C 316 1552 304 1546 297 1535 C 290 1524 287 1496 287 1450 C 287 1407 290 1380 296 1370 C 302 1359 314 1354 334 1354 Z" unicode="å" />
<glyph horiz-adv-x="965" d="M 670 -12 C 614 -12 568 -4 534 12 C 499 28 472 50 452 79 C 430 50 409 30 389 19 C 369 7 348 0 324 -3 C 300 -6 269 -8 233 -8 C 180 -8 138 3 108 27 C 78 50 56 85 43 132 C 29 179 23 254 23 358 C 23 488 32 583 52 641 C 72 699 105 740 153 766 C 201 791 271 804 365 806 L 365 842 C 365 882 360 907 351 918 C 342 928 325 934 301 934 C 286 934 258 931 217 926 C 176 920 145 915 123 909 L 72 1145 C 150 1164 238 1174 334 1174 C 413 1174 472 1162 510 1138 C 550 1162 602 1174 668 1174 C 736 1174 791 1163 831 1143 C 871 1122 899 1082 916 1024 C 932 966 941 879 943 764 L 942 582 L 942 449 L 612 449 L 612 433 C 612 375 615 330 619 298 C 623 266 630 245 640 234 C 650 222 668 217 696 217 C 715 217 741 220 773 226 C 805 232 836 240 866 250 L 932 31 C 846 2 758 -12 670 -12 Z M 254 377 C 254 302 257 256 265 238 C 272 220 286 211 307 211 C 323 211 335 214 343 222 C 351 230 356 243 360 262 C 363 281 365 331 365 412 L 365 601 C 325 599 299 594 287 584 C 274 574 265 557 261 534 C 256 511 254 459 254 377 Z M 717 664 C 717 768 716 834 714 862 C 712 890 708 909 703 919 C 698 929 686 934 668 934 C 649 934 636 928 630 916 C 623 904 618 881 616 847 C 613 813 612 752 612 664 L 717 664 Z" unicode="æ" />
<glyph horiz-adv-x="524" d="M 326 -8 C 270 -8 222 0 181 14 C 139 29 107 54 85 89 C 63 124 47 173 37 237 C 27 301 23 416 23 582 C 23 755 28 874 40 940 C 51 1005 71 1056 100 1092 C 144 1143 222 1169 334 1169 C 413 1169 469 1164 502 1155 L 449 913 C 425 920 395 924 358 924 C 328 924 309 915 300 899 C 290 883 284 852 281 806 C 277 760 276 683 276 573 C 276 477 277 409 279 367 C 281 325 284 295 289 275 C 293 255 300 241 309 233 C 318 225 335 221 360 221 C 394 221 425 225 455 233 L 504 14 C 461 0 402 -8 326 -8 Z M 297 -412 C 262 -412 234 -410 212 -408 C 190 -405 163 -398 129 -387 L 168 -250 C 200 -259 230 -264 260 -264 C 282 -264 297 -259 304 -250 C 311 -240 315 -222 315 -195 C 315 -169 310 -152 302 -144 C 294 -136 271 -133 233 -133 L 198 -96 L 215 14 L 344 14 L 333 -57 C 380 -57 413 -68 432 -92 C 450 -115 460 -155 460 -211 C 460 -286 448 -338 424 -368 C 400 -397 357 -412 297 -412 Z" unicode="ç" />
<glyph horiz-adv-x="618" d="M 324 -12 C 265 -12 216 -4 176 12 C 136 28 105 53 83 87 C 61 121 46 168 37 228 C 27 288 23 406 23 582 C 23 745 26 854 32 908 C 38 962 49 1006 63 1040 C 77 1073 96 1099 119 1117 C 141 1135 170 1149 204 1159 C 238 1169 277 1174 322 1174 C 377 1174 423 1166 460 1152 C 496 1138 524 1113 543 1079 C 561 1045 575 995 583 930 C 591 864 596 748 596 582 L 596 449 L 264 449 C 266 363 269 308 274 283 C 279 257 287 241 297 233 C 307 225 324 221 348 221 C 367 221 393 224 425 230 C 457 236 488 244 518 254 L 586 31 C 497 2 410 -12 324 -12 Z M 371 666 C 371 770 369 837 367 865 C 365 893 361 911 355 920 C 349 929 337 934 319 934 C 301 934 288 928 282 916 C 275 904 270 882 268 850 C 265 817 264 756 264 666 L 371 666 Z M 73 1526 L 350 1526 L 438 1249 L 239 1249 L 73 1526 Z" unicode="è" />
<glyph horiz-adv-x="618" d="M 266 1526 L 542 1526 L 376 1249 L 176 1249 L 266 1526 Z M 324 -12 C 265 -12 216 -4 176 12 C 136 28 105 53 83 87 C 61 121 46 168 37 228 C 27 288 23 406 23 582 C 23 745 26 854 32 908 C 38 962 49 1006 63 1040 C 77 1073 96 1099 119 1117 C 141 1135 170 1149 204 1159 C 238 1169 277 1174 322 1174 C 377 1174 423 1166 460 1152 C 496 1138 524 1113 543 1079 C 561 1045 575 995 583 930 C 591 864 596 748 596 582 L 596 449 L 264 449 C 266 363 269 308 274 283 C 279 257 287 241 297 233 C 307 225 324 221 348 221 C 367 221 393 224 425 230 C 457 236 488 244 518 254 L 586 31 C 497 2 410 -12 324 -12 Z M 371 666 C 371 770 369 837 367 865 C 365 893 361 911 355 920 C 349 929 337 934 319 934 C 301 934 288 928 282 916 C 275 904 270 882 268 850 C 265 817 264 756 264 666 L 371 666 Z" unicode="é" />
<glyph horiz-adv-x="618" d="M 182 1526 L 432 1526 L 563 1249 L 366 1249 L 303 1364 L 243 1249 L 51 1249 L 182 1526 Z M 324 -12 C 265 -12 216 -4 176 12 C 136 28 105 53 83 87 C 61 121 46 168 37 228 C 27 288 23 406 23 582 C 23 745 26 854 32 908 C 38 962 49 1006 63 1040 C 77 1073 96 1099 119 1117 C 141 1135 170 1149 204 1159 C 238 1169 277 1174 322 1174 C 377 1174 423 1166 460 1152 C 496 1138 524 1113 543 1079 C 561 1045 575 995 583 930 C 591 864 596 748 596 582 L 596 449 L 264 449 C 266 363 269 308 274 283 C 279 257 287 241 297 233 C 307 225 324 221 348 221 C 367 221 393 224 425 230 C 457 236 488 244 518 254 L 586 31 C 497 2 410 -12 324 -12 Z M 371 666 C 371 770 369 837 367 865 C 365 893 361 911 355 920 C 349 929 337 934 319 934 C 301 934 288 928 282 916 C 275 904 270 882 268 850 C 265 817 264 756 264 666 L 371 666 Z" unicode="ê" />
<glyph horiz-adv-x="618" d="M 73 1503 L 278 1503 L 278 1249 L 73 1249 L 73 1503 Z M 338 1503 L 542 1503 L 542 1249 L 338 1249 L 338 1503 Z M 324 -12 C 265 -12 216 -4 176 12 C 136 28 105 53 83 87 C 61 121 46 168 37 228 C 27 288 23 406 23 582 C 23 745 26 854 32 908 C 38 962 49 1006 63 1040 C 77 1073 96 1099 119 1117 C 141 1135 170 1149 204 1159 C 238 1169 277 1174 322 1174 C 377 1174 423 1166 460 1152 C 496 1138 524 1113 543 1079 C 561 1045 575 995 583 930 C 591 864 596 748 596 582 L 596 449 L 264 449 C 266 363 269 308 274 283 C 279 257 287 241 297 233 C 307 225 324 221 348 221 C 367 221 393 224 425 230 C 457 236 488 244 518 254 L 586 31 C 497 2 410 -12 324 -12 Z M 371 666 C 371 770 369 837 367 865 C 365 893 361 911 355 920 C 349 929 337 934 319 934 C 301 934 288 928 282 916 C 275 904 270 882 268 850 C 265 817 264 756 264 666 L 371 666 Z" unicode="ë" />
<glyph horiz-adv-x="342" d="M -55 1526 L 221 1526 L 289 1249 L 76 1249 L -55 1526 Z M 45 1159 L 293 1159 L 293 0 L 45 0 L 45 1159 Z" unicode="ì" />
<glyph horiz-adv-x="342" d="M 121 1526 L 397 1526 L 268 1249 L 53 1249 L 121 1526 Z M 45 1159 L 293 1159 L 293 0 L 45 0 L 45 1159 Z" unicode="í" />
<glyph horiz-adv-x="342" d="M 45 1526 L 295 1526 L 414 1249 L 217 1249 L 168 1362 L 119 1249 L -74 1249 L 45 1526 Z M 45 1159 L 293 1159 L 293 0 L 45 0 L 45 1159 Z" unicode="î" />
<glyph horiz-adv-x="342" d="M -45 1507 L 143 1507 L 143 1253 L -45 1253 L -45 1507 Z M 199 1507 L 387 1507 L 387 1253 L 199 1253 L 199 1507 Z M 45 1159 L 293 1159 L 293 0 L 45 0 L 45 1159 Z" unicode="ï" />
<glyph horiz-adv-x="672" d="M 248 1350 L 326 1370 C 307 1415 286 1457 264 1497 L 463 1565 C 488 1516 510 1468 530 1421 L 653 1452 L 653 1288 L 583 1270 C 606 1190 623 1102 633 1007 C 643 912 649 797 649 662 L 649 582 C 649 398 644 275 634 214 C 624 153 607 107 584 76 C 561 44 528 22 486 8 C 444 -5 394 -12 336 -12 C 279 -12 229 -4 186 10 C 143 25 110 49 88 83 C 65 116 49 163 39 223 C 29 283 25 403 25 582 C 25 720 27 814 31 864 C 35 914 43 957 53 992 C 63 1026 77 1055 96 1077 C 114 1099 142 1116 179 1128 C 215 1140 257 1147 305 1147 C 324 1147 343 1144 363 1138 C 383 1132 397 1123 406 1112 C 400 1146 391 1182 381 1219 L 248 1186 L 248 1350 Z M 336 215 C 358 215 373 219 381 229 C 389 239 394 258 398 286 C 401 314 403 409 403 573 C 403 721 401 811 398 843 C 395 875 390 898 382 910 C 374 922 359 928 336 928 C 312 928 297 921 289 909 C 281 897 276 873 274 839 C 271 805 270 716 270 573 C 270 425 271 335 274 302 C 276 268 281 245 289 233 C 297 221 312 215 336 215 Z" unicode="ð" />
<glyph horiz-adv-x="705" d="M 45 1151 L 256 1161 L 266 1106 C 297 1151 363 1174 465 1174 C 513 1174 552 1165 581 1147 C 609 1129 630 1101 643 1065 C 655 1029 662 975 662 903 L 662 0 L 414 0 L 414 807 C 414 855 410 887 404 903 C 398 919 384 928 362 928 C 334 928 316 918 306 898 C 296 878 291 843 291 795 L 291 0 L 45 0 L 45 1151 Z M 86 1249 L 85 1288 C 85 1338 89 1377 98 1407 C 107 1437 121 1458 141 1472 C 160 1486 190 1493 231 1493 C 246 1493 262 1490 280 1485 C 297 1479 314 1473 330 1467 C 346 1461 361 1455 375 1450 C 388 1444 399 1442 407 1442 C 418 1442 426 1445 432 1453 C 437 1460 440 1473 440 1493 L 616 1493 L 616 1464 C 616 1410 611 1367 603 1337 C 595 1307 581 1284 562 1270 C 542 1256 511 1249 469 1249 C 445 1249 411 1257 369 1275 C 326 1291 301 1300 293 1300 C 271 1300 260 1283 260 1249 L 86 1249 Z" unicode="ñ" />
<glyph horiz-adv-x="670" d="M 336 -12 C 278 -12 228 -4 184 11 C 140 27 106 51 84 84 C 62 117 46 164 37 224 C 27 284 23 404 23 582 C 23 745 26 854 33 908 C 39 962 50 1005 65 1039 C 79 1072 98 1098 121 1116 C 143 1134 173 1149 210 1159 C 246 1169 288 1174 336 1174 C 381 1174 422 1168 458 1158 C 494 1148 524 1133 548 1115 C 572 1097 591 1071 605 1038 C 619 1004 630 961 637 907 C 643 853 647 745 647 582 C 647 399 642 277 633 216 C 623 155 607 109 585 77 C 563 45 531 22 489 8 C 447 -5 396 -12 336 -12 Z M 336 215 C 358 215 372 220 380 230 C 388 240 393 259 396 287 C 399 315 401 410 401 573 C 401 719 399 808 397 842 C 394 875 389 898 381 910 C 373 922 358 928 336 928 C 312 928 297 921 289 909 C 281 897 276 873 274 839 C 271 805 270 716 270 573 C 270 425 271 335 274 302 C 276 268 281 245 289 233 C 297 221 312 215 336 215 Z M 100 1526 L 377 1526 L 465 1249 L 266 1249 L 100 1526 Z" unicode="ò" />
<glyph horiz-adv-x="670" d="M 293 1526 L 569 1526 L 403 1249 L 203 1249 L 293 1526 Z M 336 -12 C 278 -12 228 -4 184 11 C 140 27 106 51 84 84 C 62 117 46 164 37 224 C 27 284 23 404 23 582 C 23 745 26 854 33 908 C 39 962 50 1005 65 1039 C 79 1072 98 1098 121 1116 C 143 1134 173 1149 210 1159 C 246 1169 288 1174 336 1174 C 381 1174 422 1168 458 1158 C 494 1148 524 1133 548 1115 C 572 1097 591 1071 605 1038 C 619 1004 630 961 637 907 C 643 853 647 745 647 582 C 647 399 642 277 633 216 C 623 155 607 109 585 77 C 563 45 531 22 489 8 C 447 -5 396 -12 336 -12 Z M 336 215 C 358 215 372 220 380 230 C 388 240 393 259 396 287 C 399 315 401 410 401 573 C 401 719 399 808 397 842 C 394 875 389 898 381 910 C 373 922 358 928 336 928 C 312 928 297 921 289 909 C 281 897 276 873 274 839 C 271 805 270 716 270 573 C 270 425 271 335 274 302 C 276 268 281 245 289 233 C 297 221 312 215 336 215 Z" unicode="ó" />
<glyph horiz-adv-x="670" d="M 209 1526 L 459 1526 L 590 1249 L 393 1249 L 330 1364 L 270 1249 L 78 1249 L 209 1526 Z M 336 -12 C 278 -12 228 -4 184 11 C 140 27 106 51 84 84 C 62 117 46 164 37 224 C 27 284 23 404 23 582 C 23 745 26 854 33 908 C 39 962 50 1005 65 1039 C 79 1072 98 1098 121 1116 C 143 1134 173 1149 210 1159 C 246 1169 288 1174 336 1174 C 381 1174 422 1168 458 1158 C 494 1148 524 1133 548 1115 C 572 1097 591 1071 605 1038 C 619 1004 630 961 637 907 C 643 853 647 745 647 582 C 647 399 642 277 633 216 C 623 155 607 109 585 77 C 563 45 531 22 489 8 C 447 -5 396 -12 336 -12 Z M 336 215 C 358 215 372 220 380 230 C 388 240 393 259 396 287 C 399 315 401 410 401 573 C 401 719 399 808 397 842 C 394 875 389 898 381 910 C 373 922 358 928 336 928 C 312 928 297 921 289 909 C 281 897 276 873 274 839 C 271 805 270 716 270 573 C 270 425 271 335 274 302 C 276 268 281 245 289 233 C 297 221 312 215 336 215 Z" unicode="ô" />
<glyph horiz-adv-x="670" d="M 336 -12 C 278 -12 228 -4 184 11 C 140 27 106 51 84 84 C 62 117 46 164 37 224 C 27 284 23 404 23 582 C 23 745 26 854 33 908 C 39 962 50 1005 65 1039 C 79 1072 98 1098 121 1116 C 143 1134 173 1149 210 1159 C 246 1169 288 1174 336 1174 C 381 1174 422 1168 458 1158 C 494 1148 524 1133 548 1115 C 572 1097 591 1071 605 1038 C 619 1004 630 961 637 907 C 643 853 647 745 647 582 C 647 399 642 277 633 216 C 623 155 607 109 585 77 C 563 45 531 22 489 8 C 447 -5 396 -12 336 -12 Z M 336 215 C 358 215 372 220 380 230 C 388 240 393 259 396 287 C 399 315 401 410 401 573 C 401 719 399 808 397 842 C 394 875 389 898 381 910 C 373 922 358 928 336 928 C 312 928 297 921 289 909 C 281 897 276 873 274 839 C 271 805 270 716 270 573 C 270 425 271 335 274 302 C 276 268 281 245 289 233 C 297 221 312 215 336 215 Z M 70 1249 L 69 1288 C 69 1338 73 1377 82 1407 C 91 1437 105 1458 125 1472 C 144 1486 174 1493 215 1493 C 230 1493 246 1490 264 1485 C 281 1479 298 1473 314 1467 C 330 1461 345 1455 359 1450 C 372 1444 383 1442 391 1442 C 402 1442 410 1445 416 1453 C 421 1460 424 1473 424 1493 L 600 1493 L 600 1464 C 600 1410 595 1367 587 1337 C 579 1307 565 1284 546 1270 C 526 1256 495 1249 453 1249 C 429 1249 395 1257 353 1275 C 310 1291 285 1300 277 1300 C 255 1300 244 1283 244 1249 L 70 1249 Z" unicode="õ" />
<glyph horiz-adv-x="670" d="M 100 1503 L 305 1503 L 305 1249 L 100 1249 L 100 1503 Z M 365 1503 L 569 1503 L 569 1249 L 365 1249 L 365 1503 Z M 336 -12 C 278 -12 228 -4 184 11 C 140 27 106 51 84 84 C 62 117 46 164 37 224 C 27 284 23 404 23 582 C 23 745 26 854 33 908 C 39 962 50 1005 65 1039 C 79 1072 98 1098 121 1116 C 143 1134 173 1149 210 1159 C 246 1169 288 1174 336 1174 C 381 1174 422 1168 458 1158 C 494 1148 524 1133 548 1115 C 572 1097 591 1071 605 1038 C 619 1004 630 961 637 907 C 643 853 647 745 647 582 C 647 399 642 277 633 216 C 623 155 607 109 585 77 C 563 45 531 22 489 8 C 447 -5 396 -12 336 -12 Z M 336 215 C 358 215 372 220 380 230 C 388 240 393 259 396 287 C 399 315 401 410 401 573 C 401 719 399 808 397 842 C 394 875 389 898 381 910 C 373 922 358 928 336 928 C 312 928 297 921 289 909 C 281 897 276 873 274 839 C 271 805 270 716 270 573 C 270 425 271 335 274 302 C 276 268 281 245 289 233 C 297 221 312 215 336 215 Z" unicode="ö" />
<glyph horiz-adv-x="778" d="M 270 506 L 508 506 L 508 279 L 270 279 L 270 506 Z M 88 850 L 688 850 L 688 608 L 88 608 L 88 850 Z M 270 1180 L 508 1180 L 508 952 L 270 952 L 270 1180 Z" unicode="÷" />
<glyph horiz-adv-x="670" d="M 336 -12 L 283 -9 L 268 -88 L 131 -88 L 153 24 C 119 41 92 67 74 101 C 55 135 42 182 34 240 C 26 298 23 412 23 582 C 23 745 26 854 33 908 C 39 962 50 1005 65 1039 C 79 1072 98 1098 121 1116 C 143 1134 173 1149 210 1159 C 246 1169 288 1174 336 1174 L 385 1172 L 401 1249 L 541 1249 L 517 1135 C 545 1121 567 1102 583 1079 C 599 1055 611 1027 621 993 C 630 959 637 918 641 870 C 645 822 647 726 647 582 C 647 399 642 277 633 216 C 623 155 607 109 585 77 C 563 45 531 22 489 8 C 447 -5 396 -12 336 -12 Z M 336 201 C 363 201 381 207 391 220 C 401 233 408 258 412 295 C 416 331 418 424 418 573 L 418 716 L 417 749 L 307 207 C 315 203 325 201 336 201 Z M 336 944 C 308 944 290 937 280 923 C 270 909 263 883 259 845 C 255 807 254 716 254 573 L 254 418 L 359 940 C 352 942 344 944 336 944 Z" unicode="ø" />
<glyph horiz-adv-x="696" d="M 348 -10 C 269 -10 208 0 164 22 C 120 44 89 78 71 125 C 52 171 43 248 43 354 L 43 1159 L 289 1159 L 289 375 C 289 299 292 253 300 237 C 308 221 325 213 352 213 C 378 213 394 221 401 239 C 408 257 412 303 412 377 L 412 1159 L 651 1159 L 651 354 C 651 244 641 166 623 121 C 605 75 574 42 532 21 C 489 0 428 -10 348 -10 Z M 112 1526 L 389 1526 L 477 1249 L 278 1249 L 112 1526 Z" unicode="ù" />
<glyph horiz-adv-x="696" d="M 305 1526 L 581 1526 L 415 1249 L 215 1249 L 305 1526 Z M 348 -10 C 269 -10 208 0 164 22 C 120 44 89 78 71 125 C 52 171 43 248 43 354 L 43 1159 L 289 1159 L 289 375 C 289 299 292 253 300 237 C 308 221 325 213 352 213 C 378 213 394 221 401 239 C 408 257 412 303 412 377 L 412 1159 L 651 1159 L 651 354 C 651 244 641 166 623 121 C 605 75 574 42 532 21 C 489 0 428 -10 348 -10 Z" unicode="ú" />
<glyph horiz-adv-x="696" d="M 221 1526 L 471 1526 L 602 1249 L 405 1249 L 342 1364 L 282 1249 L 90 1249 L 221 1526 Z M 348 -10 C 269 -10 208 0 164 22 C 120 44 89 78 71 125 C 52 171 43 248 43 354 L 43 1159 L 289 1159 L 289 375 C 289 299 292 253 300 237 C 308 221 325 213 352 213 C 378 213 394 221 401 239 C 408 257 412 303 412 377 L 412 1159 L 651 1159 L 651 354 C 651 244 641 166 623 121 C 605 75 574 42 532 21 C 489 0 428 -10 348 -10 Z" unicode="û" />
<glyph horiz-adv-x="696" d="M 112 1503 L 317 1503 L 317 1249 L 112 1249 L 112 1503 Z M 377 1503 L 581 1503 L 581 1249 L 377 1249 L 377 1503 Z M 348 -10 C 269 -10 208 0 164 22 C 120 44 89 78 71 125 C 52 171 43 248 43 354 L 43 1159 L 289 1159 L 289 375 C 289 299 292 253 300 237 C 308 221 325 213 352 213 C 378 213 394 221 401 239 C 408 257 412 303 412 377 L 412 1159 L 651 1159 L 651 354 C 651 244 641 166 623 121 C 605 75 574 42 532 21 C 489 0 428 -10 348 -10 Z" unicode="ü" />
<glyph horiz-adv-x="635" d="M 0 1159 L 248 1159 L 307 657 L 324 488 L 342 659 L 399 1159 L 637 1159 L 426 -66 C 411 -145 382 -203 340 -241 C 297 -278 234 -297 150 -297 L 88 -293 L 88 -63 L 131 -63 C 154 -63 171 -60 182 -55 C 192 -49 199 -40 202 -28 L 0 1159 Z M 275 1526 L 551 1526 L 385 1249 L 185 1249 L 275 1526 Z" unicode="ý" />
<glyph horiz-adv-x="694" d="M 45 1548 L 289 1548 L 289 1120 C 305 1136 329 1149 360 1159 C 390 1169 425 1174 465 1174 C 503 1174 535 1166 562 1151 C 589 1135 610 1115 626 1089 C 642 1063 653 1023 659 971 C 665 918 668 788 668 582 C 668 366 663 228 653 166 C 643 104 620 59 586 32 C 552 5 509 -8 457 -8 C 421 -8 389 -5 362 0 C 335 6 311 18 291 37 L 291 -297 L 45 -297 L 45 1548 Z M 356 215 C 380 215 395 221 402 235 C 409 248 414 273 416 309 C 418 345 420 431 420 569 C 420 717 418 807 415 841 C 412 875 407 898 400 910 C 392 922 378 928 356 928 C 337 928 323 922 315 910 C 306 898 300 877 296 845 C 292 813 291 721 291 569 C 291 425 292 336 296 302 C 299 268 305 245 314 233 C 322 221 336 215 356 215 Z" unicode="þ" />
<glyph horiz-adv-x="635" d="M 0 1159 L 248 1159 L 307 657 L 324 488 L 342 659 L 399 1159 L 637 1159 L 426 -66 C 411 -145 382 -203 340 -241 C 297 -278 234 -297 150 -297 L 88 -293 L 88 -63 L 131 -63 C 154 -63 171 -60 182 -55 C 192 -49 199 -40 202 -28 L 0 1159 Z M 82 1503 L 287 1503 L 287 1249 L 82 1249 L 82 1503 Z M 347 1503 L 551 1503 L 551 1249 L 347 1249 L 347 1503 Z" unicode="ÿ" />
<glyph horiz-adv-x="748" d="M 225 1526 L 520 1526 L 743 0 L 481 0 L 453 225 L 282 225 L 256 0 L 4 0 L 225 1526 Z M 369 1014 L 340 709 L 312 473 L 423 473 L 395 709 L 369 1014 Z M 135 1811 L 610 1811 L 610 1581 L 135 1581 L 135 1811 Z" unicode="Ā" />
<glyph horiz-adv-x="668" d="M 233 -8 C 180 -8 138 3 108 27 C 78 50 56 85 43 132 C 29 179 23 254 23 358 C 23 488 32 583 52 641 C 72 699 105 740 153 766 C 201 791 271 804 365 806 L 365 842 C 365 881 361 906 353 917 C 345 928 328 934 301 934 C 285 934 256 931 214 925 C 172 919 142 914 123 909 L 72 1145 C 152 1164 240 1174 334 1174 C 404 1174 458 1165 496 1148 C 534 1131 561 1104 577 1066 C 593 1028 602 971 602 893 L 602 299 C 602 270 605 252 611 244 C 617 236 631 233 651 233 L 651 0 C 641 -2 620 -4 586 -4 L 567 -4 C 513 -4 476 0 458 8 C 440 16 426 32 418 55 C 398 31 375 15 351 6 C 326 -3 287 -8 233 -8 Z M 254 377 C 254 316 255 277 259 260 C 262 242 267 230 275 222 C 282 214 293 211 307 211 C 323 211 335 214 343 222 C 351 230 356 243 360 262 C 363 281 365 331 365 412 L 365 597 C 325 595 299 590 287 581 C 275 571 266 556 261 534 C 256 512 254 460 254 377 Z M 96 1481 L 571 1481 L 571 1251 L 96 1251 L 96 1481 Z" unicode="ā" />
<glyph horiz-adv-x="748" d="M 225 1526 L 520 1526 L 743 0 L 481 0 L 453 225 L 282 225 L 256 0 L 4 0 L 225 1526 Z M 369 1014 L 340 709 L 312 473 L 423 473 L 395 709 L 369 1014 Z M 373 1575 C 308 1575 259 1584 226 1602 C 193 1620 170 1649 156 1691 C 142 1732 135 1796 135 1884 L 305 1884 C 305 1840 307 1810 311 1794 C 315 1778 322 1767 332 1760 C 341 1752 355 1749 373 1749 C 399 1749 417 1757 427 1773 C 437 1789 442 1827 442 1886 L 612 1886 C 612 1798 605 1732 591 1690 C 577 1648 553 1618 521 1601 C 488 1583 439 1575 373 1575 Z" unicode="Ă" />
<glyph horiz-adv-x="668" d="M 233 -8 C 180 -8 138 3 108 27 C 78 50 56 85 43 132 C 29 179 23 254 23 358 C 23 488 32 583 52 641 C 72 699 105 740 153 766 C 201 791 271 804 365 806 L 365 842 C 365 881 361 906 353 917 C 345 928 328 934 301 934 C 285 934 256 931 214 925 C 172 919 142 914 123 909 L 72 1145 C 152 1164 240 1174 334 1174 C 404 1174 458 1165 496 1148 C 534 1131 561 1104 577 1066 C 593 1028 602 971 602 893 L 602 299 C 602 270 605 252 611 244 C 617 236 631 233 651 233 L 651 0 C 641 -2 620 -4 586 -4 L 567 -4 C 513 -4 476 0 458 8 C 440 16 426 32 418 55 C 398 31 375 15 351 6 C 326 -3 287 -8 233 -8 Z M 254 377 C 254 316 255 277 259 260 C 262 242 267 230 275 222 C 282 214 293 211 307 211 C 323 211 335 214 343 222 C 351 230 356 243 360 262 C 363 281 365 331 365 412 L 365 597 C 325 595 299 590 287 581 C 275 571 266 556 261 534 C 256 512 254 460 254 377 Z M 334 1245 C 269 1245 220 1254 187 1272 C 154 1290 131 1319 117 1361 C 103 1402 96 1466 96 1554 L 266 1554 C 266 1510 268 1480 272 1464 C 276 1448 283 1437 293 1430 C 302 1422 316 1419 334 1419 C 360 1419 378 1427 388 1443 C 398 1459 403 1497 403 1556 L 573 1556 C 573 1468 566 1402 552 1360 C 538 1318 514 1288 482 1271 C 449 1253 400 1245 334 1245 Z" unicode="ă" />
<glyph horiz-adv-x="748" d="M 225 1526 L 520 1526 L 743 0 L 629 0 C 602 -42 585 -75 578 -97 C 570 -119 567 -144 567 -170 C 567 -201 572 -222 582 -233 C 592 -244 614 -250 647 -250 L 659 -250 L 659 -391 L 606 -391 C 532 -391 481 -377 452 -349 C 422 -321 408 -269 408 -195 C 408 -114 432 -48 481 4 L 453 225 L 283 225 L 256 0 L 4 0 L 225 1526 Z M 311 473 L 424 473 L 395 709 L 369 1014 L 340 709 L 311 473 Z" unicode="Ą" />
<glyph horiz-adv-x="668" d="M 233 -8 C 180 -8 138 3 108 27 C 78 50 56 85 43 132 C 29 179 23 254 23 358 C 23 488 33 582 53 640 C 73 698 106 739 153 765 C 199 790 270 804 365 807 L 365 842 C 365 881 361 906 353 917 C 345 928 328 934 301 934 C 285 934 256 931 214 925 C 172 919 142 914 123 909 L 72 1145 C 152 1164 240 1174 334 1174 C 404 1174 458 1165 496 1148 C 534 1131 561 1104 577 1066 C 593 1028 602 971 602 893 L 602 299 C 602 270 605 252 611 244 C 617 236 631 233 651 233 L 651 0 C 623 -40 604 -71 596 -94 C 588 -117 584 -142 584 -170 C 584 -203 589 -225 599 -235 C 609 -245 630 -250 662 -250 L 674 -250 L 674 -391 L 621 -391 C 548 -391 497 -377 467 -349 C 437 -321 422 -270 422 -195 C 422 -119 446 -54 494 0 C 471 2 454 7 444 16 C 434 24 425 37 418 55 C 398 31 375 15 351 6 C 326 -3 287 -8 233 -8 Z M 307 211 C 323 211 335 214 343 222 C 351 230 356 243 360 262 C 363 281 365 331 365 412 L 365 598 C 328 596 303 590 289 581 C 275 571 266 555 261 531 C 256 507 254 455 254 377 C 254 316 255 277 259 260 C 262 242 267 230 275 222 C 282 214 293 211 307 211 Z" unicode="ą" />
<glyph horiz-adv-x="575" d="M 249 1856 L 525 1856 L 359 1579 L 159 1579 L 249 1856 Z M 387 -10 C 320 -10 265 -3 222 9 C 179 21 144 45 116 80 C 88 115 67 163 55 223 C 43 283 36 368 35 480 C 33 591 33 684 33 760 C 33 982 36 1127 42 1195 C 48 1263 58 1318 74 1361 C 89 1403 109 1436 135 1460 C 161 1484 195 1501 238 1512 C 281 1522 331 1528 389 1528 C 454 1528 515 1521 571 1507 L 522 1262 C 510 1265 489 1268 460 1270 C 430 1272 411 1274 401 1274 C 365 1274 341 1265 329 1249 C 317 1233 308 1203 303 1160 C 298 1117 295 1049 295 955 C 295 861 295 794 295 754 C 295 572 296 456 299 407 C 301 357 306 320 312 296 C 318 272 327 254 339 244 C 351 234 374 229 408 229 C 442 229 482 235 526 248 L 580 25 C 508 1 443 -10 387 -10 Z" unicode="Ć" />
<glyph horiz-adv-x="524" d="M 222 1526 L 498 1526 L 332 1249 L 132 1249 L 222 1526 Z M 326 -8 C 270 -8 222 0 181 14 C 139 29 107 54 85 89 C 63 124 47 173 37 237 C 27 301 23 416 23 582 C 23 755 28 874 40 940 C 51 1005 71 1056 100 1092 C 144 1143 222 1169 334 1169 C 413 1169 469 1164 502 1155 L 449 913 C 425 920 395 924 358 924 C 328 924 309 915 300 899 C 290 883 284 852 281 806 C 277 760 276 683 276 573 C 276 477 277 409 279 367 C 281 325 284 295 289 275 C 293 255 300 241 309 233 C 318 225 335 221 360 221 C 394 221 425 225 455 233 L 504 14 C 461 0 402 -8 326 -8 Z" unicode="ć" />
<glyph horiz-adv-x="575" d="M 34 1862 L 230 1862 L 292 1747 L 353 1862 L 546 1862 L 415 1579 L 165 1579 L 34 1862 Z M 387 -10 C 320 -10 265 -3 222 9 C 179 21 144 45 116 80 C 88 115 67 163 55 223 C 43 283 36 368 35 480 C 33 591 33 684 33 760 C 33 982 36 1127 42 1195 C 48 1263 58 1318 74 1361 C 89 1403 109 1436 135 1460 C 161 1484 195 1501 238 1512 C 281 1522 331 1528 389 1528 C 454 1528 515 1521 571 1507 L 522 1262 C 510 1265 489 1268 460 1270 C 430 1272 411 1274 401 1274 C 365 1274 341 1265 329 1249 C 317 1233 308 1203 303 1160 C 298 1117 295 1049 295 955 C 295 861 295 794 295 754 C 295 572 296 456 299 407 C 301 357 306 320 312 296 C 318 272 327 254 339 244 C 351 234 374 229 408 229 C 442 229 482 235 526 248 L 580 25 C 508 1 443 -10 387 -10 Z" unicode="Č" />
<glyph horiz-adv-x="524" d="M 7 1532 L 203 1532 L 265 1417 L 326 1532 L 519 1532 L 388 1249 L 138 1249 L 7 1532 Z M 326 -8 C 270 -8 222 0 181 14 C 139 29 107 54 85 89 C 63 124 47 173 37 237 C 27 301 23 416 23 582 C 23 755 28 874 40 940 C 51 1005 71 1056 100 1092 C 144 1143 222 1169 334 1169 C 413 1169 469 1164 502 1155 L 449 913 C 425 920 395 924 358 924 C 328 924 309 915 300 899 C 290 883 284 852 281 806 C 277 760 276 683 276 573 C 276 477 277 409 279 367 C 281 325 284 295 289 275 C 293 255 300 241 309 233 C 318 225 335 221 360 221 C 394 221 425 225 455 233 L 504 14 C 461 0 402 -8 326 -8 Z" unicode="č" />
<glyph horiz-adv-x="754" d="M 119 1862 L 315 1862 L 377 1747 L 438 1862 L 631 1862 L 500 1579 L 250 1579 L 119 1862 Z M 57 1518 L 399 1518 C 452 1518 497 1512 533 1501 C 569 1490 600 1472 625 1446 C 649 1420 668 1388 681 1348 C 694 1308 704 1255 710 1189 C 716 1122 719 979 719 760 C 719 560 716 425 712 356 C 707 287 699 231 688 189 C 677 146 658 109 632 77 C 605 45 568 23 521 12 C 474 0 433 -3 399 0 L 57 0 L 57 1518 Z M 371 221 C 400 221 420 230 432 248 C 444 266 452 300 457 349 C 462 398 465 533 465 754 C 465 962 462 1092 458 1146 C 454 1200 446 1236 434 1256 C 422 1276 401 1286 371 1286 L 311 1286 L 311 221 L 371 221 Z" unicode="Ď" />
<glyph horiz-adv-x="866" d="M 690 1190 C 729 1219 752 1239 760 1251 C 768 1263 772 1283 772 1313 L 690 1313 L 690 1548 L 897 1548 L 897 1399 C 897 1323 893 1270 886 1241 C 878 1212 865 1187 846 1166 C 827 1144 798 1122 760 1098 L 690 1190 Z M 229 -12 C 190 -12 157 -4 129 11 C 101 26 80 48 65 76 C 50 104 40 145 35 200 C 29 254 27 381 27 580 C 27 790 31 926 41 989 C 51 1051 72 1097 106 1126 C 139 1154 183 1169 238 1169 C 314 1169 369 1154 403 1124 L 403 1548 L 649 1548 L 649 6 L 438 -6 L 428 47 C 404 25 379 9 352 1 C 324 -7 283 -12 229 -12 Z M 338 213 C 356 213 370 218 379 230 C 387 242 393 263 397 295 C 401 327 403 419 403 571 C 403 715 401 804 398 838 C 394 872 388 896 380 908 C 372 920 358 926 338 926 C 314 926 298 919 291 906 C 284 892 279 868 277 833 C 275 797 274 710 274 571 C 274 423 275 333 278 299 C 281 265 286 243 294 231 C 301 219 316 213 338 213 Z" unicode="ď" />
<glyph horiz-adv-x="754" d="M 2 872 L 57 872 L 57 1518 L 399 1518 C 452 1518 497 1512 533 1501 C 569 1490 600 1472 625 1446 C 649 1420 668 1388 681 1348 C 694 1308 704 1255 710 1189 C 716 1122 719 979 719 760 C 719 560 716 425 712 356 C 707 287 699 231 688 189 C 677 146 658 109 632 77 C 605 45 568 23 521 12 C 474 0 433 -3 399 0 L 57 0 L 57 653 L 2 653 L 2 872 Z M 371 221 C 400 221 420 230 432 248 C 444 266 452 300 457 349 C 462 398 465 533 465 754 C 465 962 462 1092 458 1146 C 454 1200 446 1236 434 1256 C 422 1276 401 1286 371 1286 L 311 1286 L 311 872 L 403 872 L 403 653 L 311 653 L 311 221 L 371 221 Z" unicode="Đ" />
<glyph horiz-adv-x="694" d="M 229 -12 C 190 -12 157 -4 129 11 C 101 26 80 48 65 76 C 50 104 40 145 35 200 C 29 254 27 381 27 580 C 27 790 31 926 41 989 C 51 1051 72 1097 106 1126 C 139 1154 183 1169 238 1169 C 314 1169 369 1154 403 1124 L 403 1245 L 317 1245 L 317 1452 L 403 1452 L 403 1548 L 649 1548 L 649 1452 L 694 1452 L 694 1245 L 649 1245 L 649 6 L 438 -6 L 428 47 C 404 25 379 9 352 1 C 324 -7 283 -12 229 -12 Z M 338 213 C 356 213 370 218 379 230 C 387 242 393 263 397 295 C 401 327 403 419 403 571 C 403 715 401 804 398 838 C 394 872 388 896 380 908 C 372 920 358 926 338 926 C 314 926 298 919 291 906 C 284 892 279 868 277 833 C 275 797 274 710 274 571 C 274 423 275 333 278 299 C 281 265 286 243 294 231 C 301 219 316 213 338 213 Z" unicode="đ" />
<glyph horiz-adv-x="596" d="M 57 1518 L 565 1518 L 565 1270 L 311 1270 L 311 891 L 559 891 L 559 647 L 311 647 L 311 236 L 565 236 L 565 0 L 57 0 L 57 1518 Z M 59 1811 L 534 1811 L 534 1581 L 59 1581 L 59 1811 Z" unicode="Ē" />
<glyph horiz-adv-x="618" d="M 324 -12 C 265 -12 216 -4 176 12 C 136 28 105 53 83 87 C 61 121 46 168 37 228 C 27 288 23 406 23 582 C 23 745 26 854 32 908 C 38 962 49 1006 63 1040 C 77 1073 96 1099 119 1117 C 141 1135 170 1149 204 1159 C 238 1169 277 1174 322 1174 C 377 1174 423 1166 460 1152 C 496 1138 524 1113 543 1079 C 561 1045 575 995 583 930 C 591 864 596 748 596 582 L 596 449 L 264 449 C 266 363 269 308 274 283 C 279 257 287 241 297 233 C 307 225 324 221 348 221 C 367 221 393 224 425 230 C 457 236 488 244 518 254 L 586 31 C 497 2 410 -12 324 -12 Z M 371 666 C 371 770 369 837 367 865 C 365 893 361 911 355 920 C 349 929 337 934 319 934 C 301 934 288 928 282 916 C 275 904 270 882 268 850 C 265 817 264 756 264 666 L 371 666 Z M 69 1481 L 544 1481 L 544 1251 L 69 1251 L 69 1481 Z" unicode="ē" />
<glyph horiz-adv-x="596" d="M 57 1518 L 565 1518 L 565 1270 L 311 1270 L 311 891 L 559 891 L 559 647 L 311 647 L 311 236 L 565 236 L 565 0 L 57 0 L 57 1518 Z M 174 1856 L 422 1856 L 422 1581 L 174 1581 L 174 1856 Z" unicode="Ė" />
<glyph horiz-adv-x="618" d="M 324 -12 C 265 -12 216 -4 176 12 C 136 28 105 53 83 87 C 61 121 46 168 37 228 C 27 288 23 406 23 582 C 23 745 26 854 32 908 C 38 962 49 1006 63 1040 C 77 1073 96 1099 119 1117 C 141 1135 170 1149 204 1159 C 238 1169 277 1174 322 1174 C 377 1174 423 1166 460 1152 C 496 1138 524 1113 543 1079 C 561 1045 575 995 583 930 C 591 864 596 748 596 582 L 596 449 L 264 449 C 266 363 269 308 274 283 C 279 257 287 241 297 233 C 307 225 324 221 348 221 C 367 221 393 224 425 230 C 457 236 488 244 518 254 L 586 31 C 497 2 410 -12 324 -12 Z M 371 666 C 371 770 369 837 367 865 C 365 893 361 911 355 920 C 349 929 337 934 319 934 C 301 934 288 928 282 916 C 275 904 270 882 268 850 C 265 817 264 756 264 666 L 371 666 Z M 184 1526 L 432 1526 L 432 1251 L 184 1251 L 184 1526 Z" unicode="ė" />
<glyph horiz-adv-x="596" d="M 57 1518 L 565 1518 L 565 1270 L 311 1270 L 311 891 L 559 891 L 559 647 L 311 647 L 311 236 L 565 236 L 565 0 L 514 0 C 493 -30 478 -58 468 -84 C 458 -109 453 -138 453 -170 C 453 -201 458 -222 468 -233 C 478 -244 500 -250 532 -250 L 545 -250 L 545 -391 L 492 -391 C 419 -391 368 -377 338 -349 C 308 -321 293 -270 293 -195 C 293 -115 316 -50 362 0 L 57 0 L 57 1518 Z" unicode="Ę" />
<glyph horiz-adv-x="618" d="M 324 -12 C 265 -12 216 -4 176 12 C 136 28 105 53 83 87 C 61 121 46 168 37 228 C 27 288 23 406 23 582 C 23 745 26 854 32 908 C 38 962 49 1006 63 1040 C 77 1073 96 1099 119 1117 C 141 1135 170 1149 204 1159 C 238 1169 277 1174 322 1174 C 377 1174 423 1166 460 1152 C 496 1138 524 1113 543 1079 C 561 1045 575 995 583 930 C 591 864 596 748 596 582 L 596 449 L 264 449 C 264 377 267 327 271 299 C 275 271 281 251 291 239 C 300 227 319 221 348 221 C 367 221 393 224 425 230 C 457 236 488 244 518 254 L 586 31 L 516 10 C 489 -31 471 -64 462 -89 C 453 -114 449 -141 449 -170 C 449 -201 454 -222 464 -233 C 474 -244 496 -250 528 -250 L 541 -250 L 541 -391 L 487 -391 C 415 -391 364 -377 334 -349 C 304 -321 289 -270 289 -195 C 289 -121 308 -60 348 -12 L 324 -12 Z M 319 934 C 301 934 288 927 281 913 C 274 899 269 875 267 841 C 265 807 264 748 264 666 L 371 666 C 371 770 369 837 367 865 C 365 893 361 911 355 920 C 349 929 337 934 319 934 Z" unicode="ę" />
<glyph horiz-adv-x="596" d="M 41 1862 L 237 1862 L 299 1747 L 360 1862 L 553 1862 L 422 1579 L 172 1579 L 41 1862 Z M 57 1518 L 565 1518 L 565 1270 L 311 1270 L 311 891 L 559 891 L 559 647 L 311 647 L 311 236 L 565 236 L 565 0 L 57 0 L 57 1518 Z" unicode="Ě" />
<glyph horiz-adv-x="618" d="M 51 1532 L 247 1532 L 309 1417 L 370 1532 L 563 1532 L 432 1249 L 182 1249 L 51 1532 Z M 324 -12 C 265 -12 216 -4 176 12 C 136 28 105 53 83 87 C 61 121 46 168 37 228 C 27 288 23 406 23 582 C 23 745 26 854 32 908 C 38 962 49 1006 63 1040 C 77 1073 96 1099 119 1117 C 141 1135 170 1149 204 1159 C 238 1169 277 1174 322 1174 C 377 1174 423 1166 460 1152 C 496 1138 524 1113 543 1079 C 561 1045 575 995 583 930 C 591 864 596 748 596 582 L 596 449 L 264 449 C 266 363 269 308 274 283 C 279 257 287 241 297 233 C 307 225 324 221 348 221 C 367 221 393 224 425 230 C 457 236 488 244 518 254 L 586 31 C 497 2 410 -12 324 -12 Z M 371 666 C 371 770 369 837 367 865 C 365 893 361 911 355 920 C 349 929 337 934 319 934 C 301 934 288 928 282 916 C 275 904 270 882 268 850 C 265 817 264 756 264 666 L 371 666 Z" unicode="ě" />
<glyph horiz-adv-x="711" d="M 375 -8 C 296 -8 239 -2 205 8 C 171 19 142 39 119 68 C 96 97 78 134 66 178 C 54 222 45 280 40 352 C 35 424 33 560 33 760 C 33 1006 37 1167 47 1243 C 57 1319 74 1377 100 1417 C 125 1457 161 1485 209 1502 C 257 1519 315 1528 383 1528 C 483 1528 568 1519 639 1501 L 588 1262 C 526 1274 466 1280 410 1280 C 367 1280 338 1270 323 1252 C 308 1233 298 1198 293 1146 C 287 1094 285 963 285 754 C 285 537 287 401 291 347 C 295 293 303 256 314 236 C 325 216 345 207 373 207 C 395 207 411 211 421 219 C 431 227 439 243 443 265 C 447 287 449 356 449 471 L 449 657 L 340 657 L 340 901 L 686 901 L 686 492 C 686 332 676 220 658 157 C 639 93 608 50 565 27 C 521 3 458 -8 375 -8 Z M 352 1575 C 287 1575 238 1584 205 1602 C 172 1620 149 1649 135 1691 C 121 1732 114 1796 114 1884 L 284 1884 C 284 1840 286 1810 290 1794 C 294 1778 301 1767 311 1760 C 320 1752 334 1749 352 1749 C 378 1749 396 1757 406 1773 C 416 1789 421 1827 421 1886 L 591 1886 C 591 1798 584 1732 570 1690 C 556 1648 532 1618 500 1601 C 467 1583 418 1575 352 1575 Z" unicode="Ğ" />
<glyph horiz-adv-x="666" d="M 332 426 L 282 427 L 281 406 C 281 385 284 370 292 360 C 300 350 317 344 344 342 C 428 333 492 319 536 300 C 580 281 611 253 629 217 C 647 181 657 124 657 47 C 657 -45 646 -116 626 -165 C 605 -214 572 -250 526 -272 C 480 -294 416 -305 334 -305 C 212 -305 128 -284 80 -242 C 32 -200 8 -126 8 -20 C 8 16 11 48 18 75 C 24 101 34 125 48 145 C 62 165 86 189 121 215 C 99 243 88 281 88 330 C 88 386 98 434 119 476 C 88 502 67 540 55 588 C 43 636 37 704 37 791 C 37 899 46 979 64 1029 C 82 1079 111 1115 153 1137 C 195 1159 254 1171 332 1171 L 370 1169 L 657 1233 L 657 1040 L 582 1040 C 596 1017 607 984 616 940 C 624 896 629 846 629 788 C 629 682 620 606 603 558 C 585 510 556 476 515 456 C 473 436 412 426 332 426 Z M 233 6 C 233 -42 240 -74 255 -89 C 270 -103 296 -111 334 -111 C 369 -111 393 -103 406 -87 C 419 -71 426 -38 426 14 C 426 56 419 85 407 99 C 394 113 368 122 330 127 L 283 134 C 265 116 252 97 244 78 C 236 59 233 35 233 6 Z M 334 616 C 353 616 366 619 373 627 C 380 634 385 647 387 667 C 389 686 391 727 391 791 C 391 859 389 901 387 918 C 384 935 379 947 372 953 C 364 959 352 963 334 963 C 314 963 300 959 293 952 C 285 945 280 932 278 914 C 275 896 274 855 274 791 C 274 721 275 678 278 661 C 281 643 286 631 294 625 C 301 619 314 616 334 616 Z M 332 1245 C 267 1245 218 1254 185 1272 C 152 1290 129 1319 115 1361 C 101 1402 94 1466 94 1554 L 264 1554 C 264 1510 266 1480 270 1464 C 274 1448 281 1437 291 1430 C 300 1422 314 1419 332 1419 C 358 1419 376 1427 386 1443 C 396 1459 401 1497 401 1556 L 571 1556 C 571 1468 564 1402 550 1360 C 536 1318 512 1288 480 1271 C 447 1253 398 1245 332 1245 Z" unicode="ğ" />
<glyph horiz-adv-x="711" d="M 242 -446 C 280 -417 304 -396 312 -383 C 320 -370 324 -350 324 -322 L 242 -322 L 242 -57 L 463 -57 L 463 -238 C 463 -306 459 -357 451 -389 C 443 -421 430 -449 410 -473 C 390 -496 358 -521 313 -549 L 242 -446 Z M 375 -8 C 296 -8 239 -2 205 8 C 171 19 142 39 119 68 C 96 97 78 134 66 178 C 54 222 45 280 40 352 C 35 424 33 560 33 760 C 33 1006 37 1167 47 1243 C 57 1319 74 1377 100 1417 C 125 1457 161 1485 209 1502 C 257 1519 315 1528 383 1528 C 483 1528 568 1519 639 1501 L 588 1262 C 526 1274 466 1280 410 1280 C 367 1280 338 1270 323 1252 C 308 1233 298 1198 293 1146 C 287 1094 285 963 285 754 C 285 537 287 401 291 347 C 295 293 303 256 314 236 C 325 216 345 207 373 207 C 395 207 411 211 421 219 C 431 227 439 243 443 265 C 447 287 449 356 449 471 L 449 657 L 340 657 L 340 901 L 686 901 L 686 492 C 686 332 676 220 658 157 C 639 93 608 50 565 27 C 521 3 458 -8 375 -8 Z" unicode="Ģ" />
<glyph horiz-adv-x="666" d="M 219 1430 C 219 1498 223 1549 231 1581 C 239 1613 252 1641 272 1664 C 291 1687 324 1713 370 1741 L 440 1638 C 403 1610 380 1591 372 1579 C 364 1567 360 1546 360 1516 L 442 1516 L 442 1249 L 219 1249 L 219 1430 Z M 332 426 L 282 427 L 281 406 C 281 385 284 370 292 360 C 300 350 317 344 344 342 C 428 333 492 319 536 300 C 580 281 611 253 629 217 C 647 181 657 124 657 47 C 657 -45 646 -116 626 -165 C 605 -214 572 -250 526 -272 C 480 -294 416 -305 334 -305 C 212 -305 128 -284 80 -242 C 32 -200 8 -126 8 -20 C 8 16 11 48 18 75 C 24 101 34 125 48 145 C 62 165 86 189 121 215 C 99 243 88 281 88 330 C 88 386 98 434 119 476 C 88 502 67 540 55 588 C 43 636 37 704 37 791 C 37 899 46 979 64 1029 C 82 1079 111 1115 153 1137 C 195 1159 254 1171 332 1171 L 370 1169 L 657 1233 L 657 1040 L 582 1040 C 596 1017 607 984 616 940 C 624 896 629 846 629 788 C 629 682 620 606 603 558 C 585 510 556 476 515 456 C 473 436 412 426 332 426 Z M 233 6 C 233 -42 240 -74 255 -89 C 270 -103 296 -111 334 -111 C 369 -111 393 -103 406 -87 C 419 -71 426 -38 426 14 C 426 56 419 85 407 99 C 394 113 368 122 330 127 L 283 134 C 265 116 252 97 244 78 C 236 59 233 35 233 6 Z M 334 616 C 353 616 366 619 373 627 C 380 634 385 647 387 667 C 389 686 391 727 391 791 C 391 859 389 901 387 918 C 384 935 379 947 372 953 C 364 959 352 963 334 963 C 314 963 300 959 293 952 C 285 945 280 932 278 914 C 275 896 274 855 274 791 C 274 721 275 678 278 661 C 281 643 286 631 294 625 C 301 619 314 616 334 616 Z" unicode="ģ" />
<glyph horiz-adv-x="375" d="M 56 1518 L 308 1518 L 308 0 L 56 0 L 56 1518 Z M -48 1811 L 427 1811 L 427 1581 L -48 1581 L -48 1811 Z" unicode="Ī" />
<glyph horiz-adv-x="342" d="M 46 1159 L 294 1159 L 294 0 L 46 0 L 46 1159 Z M -65 1481 L 410 1481 L 410 1251 L -65 1251 L -65 1481 Z" unicode="ī" />
<glyph horiz-adv-x="375" d="M 61 1518 L 313 1518 L 313 0 L 285 -46 C 259 -88 246 -130 246 -170 C 246 -201 251 -222 261 -233 C 271 -244 293 -250 326 -250 L 338 -250 L 338 -391 L 285 -391 C 211 -391 159 -376 129 -348 C 99 -319 84 -268 84 -195 C 84 -119 111 -54 166 0 L 61 0 L 61 1518 Z" unicode="Į" />
<glyph horiz-adv-x="340" d="M 47 1159 L 293 1159 L 293 0 C 259 -55 239 -92 233 -111 C 227 -129 225 -149 225 -170 C 225 -201 230 -222 240 -233 C 250 -244 272 -250 305 -250 L 317 -250 L 317 -391 L 264 -391 C 190 -391 139 -377 110 -349 C 80 -321 66 -269 66 -195 C 66 -117 93 -52 147 0 L 47 0 L 47 1159 Z M 47 1518 L 293 1518 L 293 1257 L 47 1257 L 47 1518 Z" unicode="į" />
<glyph horiz-adv-x="375" d="M 61 1518 L 313 1518 L 313 0 L 61 0 L 61 1518 Z M 67 1856 L 315 1856 L 315 1581 L 67 1581 L 67 1856 Z" unicode="İ" />
<glyph horiz-adv-x="342" d="M 47 1159 L 295 1159 L 295 0 L 47 0 L 47 1159 Z" unicode="ı" />
<glyph horiz-adv-x="731" d="M 254 -446 C 292 -417 316 -396 324 -383 C 332 -370 336 -350 336 -322 L 254 -322 L 254 -57 L 475 -57 L 475 -238 C 475 -306 471 -357 463 -389 C 455 -421 442 -449 422 -473 C 402 -496 370 -521 325 -549 L 254 -446 Z M 57 1518 L 307 1518 L 307 983 L 451 1518 L 696 1518 L 528 942 L 729 0 L 473 0 L 359 558 L 307 348 L 307 0 L 57 0 L 57 1518 Z" unicode="Ķ" />
<glyph horiz-adv-x="670" d="M 223 -446 C 261 -417 285 -396 293 -383 C 301 -370 305 -350 305 -322 L 223 -322 L 223 -57 L 444 -57 L 444 -238 C 444 -306 440 -357 432 -389 C 424 -421 411 -449 391 -473 C 371 -496 339 -521 294 -549 L 223 -446 Z M 45 1548 L 281 1548 L 281 748 L 414 1159 L 651 1159 L 499 716 L 670 0 L 422 0 L 334 384 L 281 216 L 281 0 L 45 0 L 45 1548 Z" unicode="ķ" />
<glyph horiz-adv-x="551" d="M 179 1856 L 455 1856 L 289 1579 L 89 1579 L 179 1856 Z M 57 1518 L 311 1518 L 311 236 L 539 236 L 539 0 L 57 0 L 57 1518 Z" unicode="Ĺ" />
<glyph horiz-adv-x="383" d="M 155 1882 L 431 1882 L 265 1605 L 65 1605 L 155 1882 Z M 262 -4 C 207 -4 164 4 134 20 C 104 36 82 61 68 96 C 54 131 47 190 47 272 L 47 1548 L 295 1548 L 295 279 C 295 262 296 250 300 243 C 304 236 313 233 328 233 L 358 233 L 358 0 C 350 -2 323 -4 279 -4 L 262 -4 Z" unicode="ĺ" />
<glyph horiz-adv-x="551" d="M 164 -446 C 202 -417 226 -396 234 -383 C 242 -370 246 -350 246 -322 L 164 -322 L 164 -57 L 385 -57 L 385 -238 C 385 -306 381 -357 373 -389 C 365 -421 352 -449 332 -473 C 312 -496 280 -521 235 -549 L 164 -446 Z M 57 1518 L 311 1518 L 311 236 L 539 236 L 539 0 L 57 0 L 57 1518 Z" unicode="Ļ" />
<glyph horiz-adv-x="383" d="M 82 -446 C 120 -417 144 -396 152 -383 C 160 -370 164 -350 164 -322 L 82 -322 L 82 -57 L 303 -57 L 303 -238 C 303 -306 299 -357 291 -389 C 283 -421 270 -449 250 -473 C 230 -496 198 -521 153 -549 L 82 -446 Z M 262 -4 C 207 -4 164 4 134 20 C 104 36 82 61 68 96 C 54 131 47 190 47 272 L 47 1548 L 295 1548 L 295 279 C 295 262 296 250 300 243 C 304 236 313 233 328 233 L 358 233 L 358 0 C 350 -2 323 -4 279 -4 L 262 -4 Z" unicode="ļ" />
<glyph horiz-adv-x="588" d="M 356 1190 C 395 1219 418 1239 426 1251 C 434 1263 438 1283 438 1313 L 356 1313 L 356 1548 L 555 1548 L 555 1399 C 555 1317 551 1262 544 1236 C 537 1210 525 1187 508 1167 C 491 1147 463 1126 424 1102 L 356 1190 Z M 57 1518 L 311 1518 L 311 236 L 578 236 L 578 0 L 57 0 L 57 1518 Z" unicode="Ľ" />
<glyph horiz-adv-x="524" d="M 340 1190 C 377 1218 400 1238 408 1250 C 416 1262 420 1283 420 1313 L 338 1313 L 338 1548 L 545 1548 L 545 1399 C 545 1320 541 1267 534 1239 C 526 1211 514 1186 496 1166 C 478 1146 450 1123 410 1098 L 340 1190 Z M 262 -4 C 207 -4 164 4 134 20 C 104 36 82 61 68 96 C 54 131 47 190 47 272 L 47 1548 L 295 1548 L 295 279 C 295 262 296 250 300 243 C 304 236 313 233 328 233 L 358 233 L 358 0 C 350 -2 323 -4 279 -4 L 262 -4 Z" unicode="ľ" />
<glyph horiz-adv-x="551" d="M 2 952 L 57 984 L 57 1518 L 311 1518 L 311 1133 L 401 1186 L 401 965 L 311 912 L 311 236 L 539 236 L 539 0 L 57 0 L 57 765 L 2 733 L 2 952 Z" unicode="Ł" />
<glyph horiz-adv-x="469" d="M 20 1036 L 92 1077 L 92 1548 L 338 1548 L 338 1219 L 412 1262 L 412 1042 L 338 999 L 338 279 C 338 262 340 250 344 243 C 348 236 358 233 373 233 L 403 233 L 403 0 C 395 -2 368 -4 324 -4 L 307 -4 C 252 -4 209 4 179 20 C 149 36 127 61 113 96 C 99 131 92 190 92 272 L 92 856 L 20 815 L 20 1036 Z" unicode="ł" />
<glyph horiz-adv-x="774" d="M 344 1856 L 620 1856 L 454 1579 L 254 1579 L 344 1856 Z M 57 1518 L 328 1518 L 434 1030 L 477 813 L 477 1518 L 717 1518 L 717 0 L 475 0 L 338 586 L 295 786 L 295 0 L 57 0 L 57 1518 Z" unicode="Ń" />
<glyph horiz-adv-x="705" d="M 309 1526 L 585 1526 L 419 1249 L 219 1249 L 309 1526 Z M 45 1151 L 256 1161 L 266 1106 C 297 1151 363 1174 465 1174 C 513 1174 552 1165 581 1147 C 609 1129 630 1101 643 1065 C 655 1029 662 975 662 903 L 662 0 L 414 0 L 414 807 C 414 855 410 887 404 903 C 398 919 384 928 362 928 C 334 928 316 918 306 898 C 296 878 291 843 291 795 L 291 0 L 45 0 L 45 1151 Z" unicode="ń" />
<glyph horiz-adv-x="774" d="M 275 -446 C 313 -417 337 -396 345 -383 C 353 -370 357 -350 357 -322 L 275 -322 L 275 -57 L 496 -57 L 496 -238 C 496 -306 492 -357 484 -389 C 476 -421 463 -449 443 -473 C 423 -496 391 -521 346 -549 L 275 -446 Z M 57 1518 L 328 1518 L 434 1030 L 477 813 L 477 1518 L 717 1518 L 717 0 L 475 0 L 338 586 L 295 786 L 295 0 L 57 0 L 57 1518 Z" unicode="Ņ" />
<glyph horiz-adv-x="705" d="M 240 -446 C 278 -417 302 -396 310 -383 C 318 -370 322 -350 322 -322 L 240 -322 L 240 -57 L 461 -57 L 461 -238 C 461 -306 457 -357 449 -389 C 441 -421 428 -449 408 -473 C 388 -496 356 -521 311 -549 L 240 -446 Z M 45 1151 L 256 1161 L 266 1106 C 297 1151 363 1174 465 1174 C 513 1174 552 1165 581 1147 C 609 1129 630 1101 643 1065 C 655 1029 662 975 662 903 L 662 0 L 414 0 L 414 807 C 414 855 410 887 404 903 C 398 919 384 928 362 928 C 334 928 316 918 306 898 C 296 878 291 843 291 795 L 291 0 L 45 0 L 45 1151 Z" unicode="ņ" />
<glyph horiz-adv-x="774" d="M 129 1862 L 325 1862 L 387 1747 L 448 1862 L 641 1862 L 510 1579 L 260 1579 L 129 1862 Z M 57 1518 L 328 1518 L 434 1030 L 477 813 L 477 1518 L 717 1518 L 717 0 L 475 0 L 338 586 L 295 786 L 295 0 L 57 0 L 57 1518 Z" unicode="Ň" />
<glyph horiz-adv-x="705" d="M 94 1532 L 290 1532 L 352 1417 L 413 1532 L 606 1532 L 475 1249 L 225 1249 L 94 1532 Z M 45 1151 L 256 1161 L 266 1106 C 297 1151 363 1174 465 1174 C 513 1174 552 1165 581 1147 C 609 1129 630 1101 643 1065 C 655 1029 662 975 662 903 L 662 0 L 414 0 L 414 807 C 414 855 410 887 404 903 C 398 919 384 928 362 928 C 334 928 316 918 306 898 C 296 878 291 843 291 795 L 291 0 L 45 0 L 45 1151 Z" unicode="ň" />
<glyph horiz-adv-x="741" d="M 133 1811 L 608 1811 L 608 1581 L 133 1581 L 133 1811 Z M 371 -12 C 299 -12 241 -3 199 12 C 156 28 123 58 99 100 C 75 142 58 204 48 285 C 38 366 33 524 33 760 C 33 978 37 1128 45 1210 C 53 1292 69 1355 92 1401 C 114 1446 147 1479 191 1499 C 235 1519 295 1530 371 1530 C 433 1530 485 1523 527 1509 C 569 1495 601 1473 624 1445 C 646 1416 664 1379 676 1333 C 688 1287 696 1229 701 1159 C 706 1088 709 955 709 760 C 709 544 706 401 701 332 C 696 263 688 208 676 166 C 664 124 648 89 626 63 C 604 36 572 17 532 5 C 491 -6 437 -12 371 -12 Z M 371 227 C 396 227 413 232 423 244 C 432 255 439 275 443 305 C 447 334 450 383 451 453 C 452 523 453 623 453 754 C 453 918 452 1028 451 1084 C 449 1140 446 1182 442 1208 C 437 1234 430 1252 422 1262 C 413 1272 396 1278 371 1278 C 344 1278 326 1270 317 1256 C 308 1241 302 1215 298 1179 C 294 1142 292 1077 292 984 C 291 890 291 814 291 754 C 291 590 291 480 293 424 C 294 367 297 325 301 299 C 305 273 312 254 321 243 C 329 232 346 227 371 227 Z" unicode="Ō" />
<glyph horiz-adv-x="670" d="M 96 1481 L 571 1481 L 571 1251 L 96 1251 L 96 1481 Z M 336 -12 C 278 -12 228 -4 184 11 C 140 27 106 51 84 84 C 62 117 46 164 37 224 C 27 284 23 404 23 582 C 23 745 26 854 33 908 C 39 962 50 1005 65 1039 C 79 1072 98 1098 121 1116 C 143 1134 173 1149 210 1159 C 246 1169 288 1174 336 1174 C 381 1174 422 1168 458 1158 C 494 1148 524 1133 548 1115 C 572 1097 591 1071 605 1038 C 619 1004 630 961 637 907 C 643 853 647 745 647 582 C 647 399 642 277 633 216 C 623 155 607 109 585 77 C 563 45 531 22 489 8 C 447 -5 396 -12 336 -12 Z M 336 215 C 358 215 372 220 380 230 C 388 240 393 259 396 287 C 399 315 401 410 401 573 C 401 719 399 808 397 842 C 394 875 389 898 381 910 C 373 922 358 928 336 928 C 312 928 297 921 289 909 C 281 897 276 873 274 839 C 271 805 270 716 270 573 C 270 425 271 335 274 302 C 276 268 281 245 289 233 C 297 221 312 215 336 215 Z" unicode="ō" />
<glyph horiz-adv-x="741" d="M 172 1862 L 418 1862 L 309 1579 L 127 1579 L 172 1862 Z M 467 1862 L 713 1862 L 606 1579 L 422 1579 L 467 1862 Z M 371 -12 C 299 -12 241 -3 199 12 C 156 28 123 58 99 100 C 75 142 58 204 48 285 C 38 366 33 524 33 760 C 33 978 37 1128 45 1210 C 53 1292 69 1355 92 1401 C 114 1446 147 1479 191 1499 C 235 1519 295 1530 371 1530 C 433 1530 485 1523 527 1509 C 569 1495 601 1473 624 1445 C 646 1416 664 1379 676 1333 C 688 1287 696 1229 701 1159 C 706 1088 709 955 709 760 C 709 544 706 401 701 332 C 696 263 688 208 676 166 C 664 124 648 89 626 63 C 604 36 572 17 532 5 C 491 -6 437 -12 371 -12 Z M 371 227 C 396 227 413 232 423 244 C 432 255 439 275 443 305 C 447 334 450 383 451 453 C 452 523 453 623 453 754 C 453 918 452 1028 451 1084 C 449 1140 446 1182 442 1208 C 437 1234 430 1252 422 1262 C 413 1272 396 1278 371 1278 C 344 1278 326 1270 317 1256 C 308 1241 302 1215 298 1179 C 294 1142 292 1077 292 984 C 291 890 291 814 291 754 C 291 590 291 480 293 424 C 294 367 297 325 301 299 C 305 273 312 254 321 243 C 329 232 346 227 371 227 Z" unicode="Ő" />
<glyph horiz-adv-x="670" d="M 135 1532 L 381 1532 L 272 1249 L 90 1249 L 135 1532 Z M 430 1532 L 676 1532 L 569 1249 L 385 1249 L 430 1532 Z M 336 -12 C 278 -12 228 -4 184 11 C 140 27 106 51 84 84 C 62 117 46 164 37 224 C 27 284 23 404 23 582 C 23 745 26 854 33 908 C 39 962 50 1005 65 1039 C 79 1072 98 1098 121 1116 C 143 1134 173 1149 210 1159 C 246 1169 288 1174 336 1174 C 381 1174 422 1168 458 1158 C 494 1148 524 1133 548 1115 C 572 1097 591 1071 605 1038 C 619 1004 630 961 637 907 C 643 853 647 745 647 582 C 647 399 642 277 633 216 C 623 155 607 109 585 77 C 563 45 531 22 489 8 C 447 -5 396 -12 336 -12 Z M 336 215 C 358 215 372 220 380 230 C 388 240 393 259 396 287 C 399 315 401 410 401 573 C 401 719 399 808 397 842 C 394 875 389 898 381 910 C 373 922 358 928 336 928 C 312 928 297 921 289 909 C 281 897 276 873 274 839 C 271 805 270 716 270 573 C 270 425 271 335 274 302 C 276 268 281 245 289 233 C 297 221 312 215 336 215 Z" unicode="ő" />
<glyph horiz-adv-x="971" d="M 358 0 C 314 0 277 3 245 10 C 213 17 186 28 165 42 C 144 56 125 77 107 105 C 89 132 75 167 65 211 C 55 254 49 310 45 378 C 41 446 39 573 39 760 C 39 994 43 1148 52 1224 C 61 1299 77 1357 101 1399 C 124 1441 156 1471 196 1490 C 236 1508 290 1518 358 1518 L 940 1518 L 940 1270 L 686 1270 L 686 889 L 934 889 L 934 647 L 686 647 L 686 236 L 940 236 L 940 0 L 358 0 Z M 449 221 L 449 1286 L 389 1286 C 358 1286 337 1276 325 1256 C 313 1236 305 1197 301 1140 C 297 1082 295 954 295 754 C 295 552 297 422 302 365 C 306 308 314 270 326 250 C 338 230 359 221 389 221 L 449 221 Z" unicode="Œ" />
<glyph horiz-adv-x="991" d="M 694 -12 C 656 -12 623 -8 597 -2 C 570 4 544 16 520 34 C 496 16 470 4 440 -2 C 410 -8 375 -12 336 -12 C 278 -12 228 -4 184 11 C 140 27 106 51 84 84 C 62 117 46 164 37 224 C 27 284 23 404 23 582 C 23 745 26 854 33 908 C 39 962 50 1005 65 1039 C 79 1072 98 1098 121 1116 C 143 1134 173 1149 210 1159 C 246 1169 288 1174 336 1174 C 373 1174 405 1170 433 1163 C 460 1156 487 1143 514 1124 C 556 1157 616 1174 692 1174 C 765 1174 821 1162 860 1138 C 899 1114 927 1068 943 1000 C 959 932 967 818 967 659 L 967 582 L 967 449 L 637 449 L 637 433 C 637 375 640 331 644 299 C 648 267 655 246 664 234 C 673 222 691 217 719 217 C 767 217 825 228 891 250 L 956 31 C 871 2 784 -12 694 -12 Z M 336 215 C 359 215 374 222 382 238 C 389 254 394 283 397 327 C 399 370 401 452 401 573 C 401 691 399 772 397 815 C 394 858 389 888 382 904 C 374 920 359 928 336 928 C 311 928 295 918 288 900 C 280 882 275 848 273 798 C 271 748 270 673 270 573 C 270 453 271 372 274 329 C 276 285 281 255 289 239 C 296 223 312 215 336 215 Z M 741 664 C 741 768 740 834 738 862 C 736 890 732 909 727 919 C 722 929 710 934 690 934 C 672 934 660 928 654 916 C 648 904 643 881 641 849 C 638 816 637 754 637 664 L 741 664 Z" unicode="œ" />
<glyph horiz-adv-x="711" d="M 313 1856 L 589 1856 L 423 1579 L 223 1579 L 313 1856 Z M 57 1518 L 395 1518 C 469 1518 527 1503 569 1474 C 611 1445 641 1400 660 1339 C 678 1277 688 1176 688 1036 C 688 885 679 779 661 719 C 643 659 612 612 568 579 L 680 0 L 432 0 L 335 516 L 303 516 L 303 0 L 57 0 L 57 1518 Z M 362 752 C 382 752 398 758 408 770 C 418 782 426 803 430 833 C 434 863 436 924 436 1018 C 436 1112 434 1174 430 1202 C 426 1230 419 1249 409 1261 C 399 1272 384 1278 362 1278 L 303 1278 L 303 752 L 362 752 Z" unicode="Ŕ" />
<glyph horiz-adv-x="440" d="M 181 1526 L 457 1526 L 291 1249 L 91 1249 L 181 1526 Z M 45 1151 L 256 1161 L 268 1092 C 289 1142 345 1167 436 1167 L 436 924 C 381 924 344 911 324 886 C 304 860 295 816 295 754 L 295 0 L 45 0 L 45 1151 Z" unicode="ŕ" />
<glyph horiz-adv-x="711" d="M 244 -446 C 282 -417 306 -396 314 -383 C 322 -370 326 -350 326 -322 L 244 -322 L 244 -57 L 465 -57 L 465 -238 C 465 -306 461 -357 453 -389 C 445 -421 432 -449 412 -473 C 392 -496 360 -521 315 -549 L 244 -446 Z M 57 1518 L 395 1518 C 469 1518 527 1503 569 1474 C 611 1445 641 1400 660 1339 C 678 1277 688 1176 688 1036 C 688 885 679 779 661 719 C 643 659 612 612 568 579 L 680 0 L 432 0 L 335 516 L 303 516 L 303 0 L 57 0 L 57 1518 Z M 362 752 C 382 752 398 758 408 770 C 418 782 426 803 430 833 C 434 863 436 924 436 1018 C 436 1112 434 1174 430 1202 C 426 1230 419 1249 409 1261 C 399 1272 384 1278 362 1278 L 303 1278 L 303 752 L 362 752 Z" unicode="Ŗ" />
<glyph horiz-adv-x="440" d="M 63 -446 C 101 -417 125 -396 133 -383 C 141 -370 145 -350 145 -322 L 63 -322 L 63 -57 L 284 -57 L 284 -238 C 284 -306 280 -357 272 -389 C 264 -421 251 -449 231 -473 C 211 -496 179 -521 134 -549 L 63 -446 Z M 45 1151 L 256 1161 L 268 1092 C 289 1142 345 1167 436 1167 L 436 924 C 381 924 344 911 324 886 C 304 860 295 816 295 754 L 295 0 L 45 0 L 45 1151 Z" unicode="ŗ" />
<glyph horiz-adv-x="711" d="M 98 1862 L 294 1862 L 356 1747 L 417 1862 L 610 1862 L 479 1579 L 229 1579 L 98 1862 Z M 57 1518 L 395 1518 C 469 1518 527 1503 569 1474 C 611 1445 641 1400 660 1339 C 678 1277 688 1176 688 1036 C 688 885 679 779 661 719 C 643 659 612 612 568 579 L 680 0 L 432 0 L 335 516 L 303 516 L 303 0 L 57 0 L 57 1518 Z M 362 752 C 382 752 398 758 408 770 C 418 782 426 803 430 833 C 434 863 436 924 436 1018 C 436 1112 434 1174 430 1202 C 426 1230 419 1249 409 1261 C 399 1272 384 1278 362 1278 L 303 1278 L 303 752 L 362 752 Z" unicode="Ř" />
<glyph horiz-adv-x="440" d="M -34 1532 L 162 1532 L 224 1417 L 285 1532 L 478 1532 L 347 1249 L 97 1249 L -34 1532 Z M 45 1151 L 256 1161 L 268 1092 C 289 1142 345 1167 436 1167 L 436 924 C 381 924 344 911 324 886 C 304 860 295 816 295 754 L 295 0 L 45 0 L 45 1151 Z" unicode="ř" />
<glyph horiz-adv-x="623" d="M 268 1856 L 544 1856 L 378 1579 L 178 1579 L 268 1856 Z M 256 -14 C 166 -14 86 -6 14 8 L 70 244 C 92 238 120 234 154 230 C 188 226 218 225 242 225 C 306 225 338 249 338 298 C 338 323 330 356 315 397 L 80 1026 C 53 1096 40 1163 40 1227 C 40 1324 68 1399 124 1451 C 180 1503 263 1530 371 1530 C 451 1530 516 1525 565 1516 L 506 1268 C 479 1274 441 1278 391 1278 C 325 1278 292 1250 292 1196 C 292 1172 298 1144 311 1110 L 530 524 C 566 424 585 338 585 265 C 585 172 557 102 501 56 C 445 9 363 -14 256 -14 Z" unicode="Ś" />
<glyph horiz-adv-x="532" d="M 226 1526 L 502 1526 L 336 1249 L 136 1249 L 226 1526 Z M 223 -12 C 137 -12 64 -6 4 6 L 57 225 C 101 217 142 213 178 213 C 228 213 253 234 253 277 C 253 293 248 312 240 334 L 74 713 C 43 784 28 852 28 916 C 28 998 53 1061 103 1106 C 153 1151 223 1174 313 1174 C 383 1174 441 1168 489 1157 L 436 922 C 408 930 376 934 340 934 C 300 934 280 916 280 881 C 280 864 285 844 295 821 L 455 451 C 487 376 503 305 503 239 C 503 157 478 95 429 52 C 380 9 311 -12 223 -12 Z" unicode="ś" />
<glyph horiz-adv-x="623" d="M 256 -14 C 166 -14 86 -6 14 8 L 70 244 C 92 238 120 234 154 230 C 188 226 218 225 242 225 C 306 225 338 249 338 298 C 338 323 330 356 315 397 L 80 1026 C 53 1096 40 1163 40 1227 C 40 1324 68 1399 124 1451 C 180 1503 263 1530 371 1530 C 451 1530 516 1525 565 1516 L 506 1268 C 479 1274 441 1278 391 1278 C 325 1278 292 1250 292 1196 C 292 1172 298 1144 311 1110 L 530 524 C 566 424 585 338 585 265 C 585 172 557 102 501 56 C 445 9 363 -14 256 -14 Z M 342 -412 C 307 -412 279 -410 257 -408 C 235 -405 208 -398 174 -387 L 213 -250 C 245 -259 275 -264 305 -264 C 327 -264 342 -259 349 -250 C 356 -240 360 -222 360 -195 C 360 -169 355 -152 347 -144 C 339 -136 316 -133 278 -133 L 243 -96 L 260 14 L 389 14 L 378 -57 C 425 -57 458 -68 477 -92 C 495 -115 505 -155 505 -211 C 505 -286 493 -338 469 -368 C 445 -397 402 -412 342 -412 Z" unicode="Ş" />
<glyph horiz-adv-x="532" d="M 223 -12 C 137 -12 64 -6 4 6 L 57 225 C 101 217 142 213 178 213 C 228 213 253 234 253 277 C 253 293 248 312 240 334 L 74 713 C 43 784 28 852 28 916 C 28 998 53 1061 103 1106 C 153 1151 223 1174 313 1174 C 383 1174 441 1168 489 1157 L 436 922 C 408 930 376 934 340 934 C 300 934 280 916 280 881 C 280 864 285 844 295 821 L 455 451 C 487 376 503 305 503 239 C 503 157 478 95 429 52 C 380 9 311 -12 223 -12 Z M 300 -412 C 265 -412 237 -410 215 -408 C 193 -405 166 -398 132 -387 L 171 -250 C 203 -259 233 -264 263 -264 C 285 -264 300 -259 307 -250 C 314 -240 318 -222 318 -195 C 318 -169 313 -152 305 -144 C 297 -136 274 -133 236 -133 L 201 -96 L 218 14 L 347 14 L 336 -57 C 383 -57 416 -68 435 -92 C 453 -115 463 -155 463 -211 C 463 -286 451 -338 427 -368 C 403 -397 360 -412 300 -412 Z" unicode="ş" />
<glyph horiz-adv-x="623" d="M 53 1862 L 249 1862 L 311 1747 L 372 1862 L 565 1862 L 434 1579 L 184 1579 L 53 1862 Z M 256 -14 C 166 -14 86 -6 14 8 L 70 244 C 92 238 120 234 154 230 C 188 226 218 225 242 225 C 306 225 338 249 338 298 C 338 323 330 356 315 397 L 80 1026 C 53 1096 40 1163 40 1227 C 40 1324 68 1399 124 1451 C 180 1503 263 1530 371 1530 C 451 1530 516 1525 565 1516 L 506 1268 C 479 1274 441 1278 391 1278 C 325 1278 292 1250 292 1196 C 292 1172 298 1144 311 1110 L 530 524 C 566 424 585 338 585 265 C 585 172 557 102 501 56 C 445 9 363 -14 256 -14 Z" unicode="Š" />
<glyph horiz-adv-x="532" d="M 11 1532 L 207 1532 L 269 1417 L 330 1532 L 523 1532 L 392 1249 L 142 1249 L 11 1532 Z M 223 -12 C 137 -12 64 -6 4 6 L 57 225 C 101 217 142 213 178 213 C 228 213 253 234 253 277 C 253 293 248 312 240 334 L 74 713 C 43 784 28 852 28 916 C 28 998 53 1061 103 1106 C 153 1151 223 1174 313 1174 C 383 1174 441 1168 489 1157 L 436 922 C 408 930 376 934 340 934 C 300 934 280 916 280 881 C 280 864 285 844 295 821 L 455 451 C 487 376 503 305 503 239 C 503 157 478 95 429 52 C 380 9 311 -12 223 -12 Z" unicode="š" />
<glyph horiz-adv-x="631" d="M 205 -446 C 243 -417 267 -396 275 -383 C 283 -370 287 -350 287 -322 L 205 -322 L 205 -57 L 426 -57 L 426 -238 C 426 -306 422 -357 414 -389 C 406 -421 393 -449 373 -473 C 353 -496 321 -521 276 -549 L 205 -446 Z M 184 1274 L 12 1274 L 12 1518 L 618 1518 L 618 1274 L 440 1274 L 440 0 L 184 0 L 184 1274 Z" unicode="Ţ" />
<glyph horiz-adv-x="492" d="M 131 -446 C 169 -417 193 -396 201 -383 C 209 -370 213 -350 213 -322 L 131 -322 L 131 -57 L 352 -57 L 352 -238 C 352 -306 348 -357 340 -389 C 332 -421 319 -449 299 -473 C 279 -496 247 -521 202 -549 L 131 -446 Z M 358 -4 C 295 -4 245 5 208 23 C 171 41 144 68 128 105 C 112 142 104 199 104 276 L 104 932 L 12 932 L 12 1159 L 117 1159 L 145 1393 L 350 1450 L 350 1159 L 467 1159 L 467 932 L 350 932 L 350 299 C 350 274 353 257 360 247 C 367 237 382 233 406 233 L 467 233 L 467 0 C 455 -2 425 -4 379 -4 L 358 -4 Z" unicode="ţ" />
<glyph horiz-adv-x="631" d="M 60 1862 L 256 1862 L 318 1747 L 379 1862 L 572 1862 L 441 1579 L 191 1579 L 60 1862 Z M 184 1274 L 12 1274 L 12 1518 L 618 1518 L 618 1274 L 440 1274 L 440 0 L 184 0 L 184 1274 Z" unicode="Ť" />
<glyph horiz-adv-x="492" d="M 377 1337 C 417 1368 440 1390 448 1402 C 455 1414 459 1434 459 1462 L 377 1462 L 377 1696 L 582 1696 L 582 1546 C 582 1470 578 1418 571 1389 C 563 1359 551 1334 533 1314 C 515 1293 486 1270 446 1245 L 377 1337 Z M 358 -4 C 295 -4 245 5 208 23 C 171 41 144 68 128 105 C 112 142 104 199 104 276 L 104 932 L 12 932 L 12 1159 L 117 1159 L 145 1393 L 350 1450 L 350 1159 L 467 1159 L 467 932 L 350 932 L 350 299 C 350 274 353 257 360 247 C 367 237 382 233 406 233 L 467 233 L 467 0 C 455 -2 425 -4 379 -4 L 358 -4 Z" unicode="ť" />
<glyph horiz-adv-x="756" d="M 51 430 L 51 1518 L 305 1518 L 305 424 C 305 349 307 301 311 281 C 315 260 322 245 332 237 C 342 229 358 225 381 225 C 413 225 433 235 443 257 C 452 278 457 334 457 424 L 457 1518 L 705 1518 L 705 430 C 705 287 695 189 675 137 C 655 84 622 46 577 23 C 532 0 470 -12 390 -12 C 294 -12 224 0 178 25 C 132 49 99 88 80 142 C 60 195 51 291 51 430 Z M 139 1811 L 614 1811 L 614 1581 L 139 1581 L 139 1811 Z" unicode="Ū" />
<glyph horiz-adv-x="696" d="M 348 -10 C 269 -10 208 0 164 22 C 120 44 89 78 71 125 C 52 171 43 248 43 354 L 43 1159 L 289 1159 L 289 375 C 289 299 292 253 300 237 C 308 221 325 213 352 213 C 378 213 394 221 401 239 C 408 257 412 303 412 377 L 412 1159 L 651 1159 L 651 354 C 651 244 641 166 623 121 C 605 75 574 42 532 21 C 489 0 428 -10 348 -10 Z M 108 1481 L 583 1481 L 583 1251 L 108 1251 L 108 1481 Z" unicode="ū" />
<glyph horiz-adv-x="756" d="M 377 1575 C 335 1575 303 1581 279 1595 C 255 1608 237 1628 227 1656 C 216 1684 211 1726 211 1784 C 211 1842 216 1884 227 1912 C 237 1940 254 1961 278 1975 C 302 1989 335 1997 377 1997 C 419 1997 452 1989 476 1975 C 500 1961 518 1940 529 1912 C 539 1884 545 1842 545 1784 C 545 1725 539 1682 528 1655 C 517 1628 499 1608 475 1595 C 451 1581 418 1575 377 1575 Z M 377 1684 C 396 1684 409 1689 416 1701 C 422 1713 426 1739 426 1780 C 426 1816 423 1842 418 1858 C 413 1874 399 1882 377 1882 C 359 1882 347 1876 340 1865 C 333 1854 330 1826 330 1780 C 330 1737 333 1710 339 1700 C 345 1689 357 1684 377 1684 Z M 51 430 L 51 1518 L 305 1518 L 305 424 C 305 349 307 301 311 281 C 315 260 322 245 332 237 C 342 229 358 225 381 225 C 413 225 433 235 443 257 C 452 278 457 334 457 424 L 457 1518 L 705 1518 L 705 430 C 705 287 695 189 675 137 C 655 84 622 46 577 23 C 532 0 470 -12 390 -12 C 294 -12 224 0 178 25 C 132 49 99 88 80 142 C 60 195 51 291 51 430 Z" unicode="Ů" />
<glyph horiz-adv-x="696" d="M 346 1245 C 304 1245 272 1251 248 1265 C 224 1278 206 1298 196 1326 C 185 1354 180 1396 180 1454 C 180 1512 185 1554 196 1582 C 206 1610 223 1631 247 1645 C 271 1659 304 1667 346 1667 C 388 1667 421 1659 445 1645 C 469 1631 487 1610 498 1582 C 508 1554 514 1512 514 1454 C 514 1395 508 1352 497 1325 C 486 1298 468 1278 444 1265 C 420 1251 387 1245 346 1245 Z M 346 1354 C 365 1354 378 1359 385 1371 C 391 1383 395 1409 395 1450 C 395 1486 392 1512 387 1528 C 382 1544 368 1552 346 1552 C 328 1552 316 1546 309 1535 C 302 1524 299 1496 299 1450 C 299 1407 302 1380 308 1370 C 314 1359 326 1354 346 1354 Z M 348 -10 C 269 -10 208 0 164 22 C 120 44 89 78 71 125 C 52 171 43 248 43 354 L 43 1159 L 289 1159 L 289 375 C 289 299 292 253 300 237 C 308 221 325 213 352 213 C 378 213 394 221 401 239 C 408 257 412 303 412 377 L 412 1159 L 651 1159 L 651 354 C 651 244 641 166 623 121 C 605 75 574 42 532 21 C 489 0 428 -10 348 -10 Z" unicode="ů" />
<glyph horiz-adv-x="756" d="M 51 430 L 51 1518 L 305 1518 L 305 424 C 305 349 307 301 311 281 C 315 260 322 245 332 237 C 342 229 358 225 381 225 C 413 225 433 235 443 257 C 452 278 457 334 457 424 L 457 1518 L 705 1518 L 705 430 C 705 287 695 189 675 137 C 655 84 622 46 577 23 C 532 0 470 -12 390 -12 C 294 -12 224 0 178 25 C 132 49 99 88 80 142 C 60 195 51 291 51 430 Z M 178 1862 L 424 1862 L 315 1579 L 133 1579 L 178 1862 Z M 473 1862 L 719 1862 L 612 1579 L 428 1579 L 473 1862 Z" unicode="Ű" />
<glyph horiz-adv-x="696" d="M 348 -10 C 269 -10 208 0 164 22 C 120 44 89 78 71 125 C 52 171 43 248 43 354 L 43 1159 L 289 1159 L 289 375 C 289 299 292 253 300 237 C 308 221 325 213 352 213 C 378 213 394 221 401 239 C 408 257 412 303 412 377 L 412 1159 L 651 1159 L 651 354 C 651 244 641 166 623 121 C 605 75 574 42 532 21 C 489 0 428 -10 348 -10 Z M 147 1532 L 393 1532 L 284 1249 L 102 1249 L 147 1532 Z M 442 1532 L 688 1532 L 581 1249 L 397 1249 L 442 1532 Z" unicode="ű" />
<glyph horiz-adv-x="756" d="M 436 -391 C 362 -391 311 -377 282 -349 C 252 -321 238 -269 238 -195 C 238 -120 258 -58 299 -8 C 234 -2 184 14 149 41 C 113 68 88 108 73 160 C 58 212 51 302 51 430 L 51 1518 L 305 1518 L 305 424 C 305 349 307 301 311 281 C 315 260 322 245 332 237 C 342 229 358 225 381 225 C 413 225 433 235 443 257 C 452 278 457 334 457 424 L 457 1518 L 705 1518 L 705 430 C 705 300 697 209 681 157 C 665 105 639 65 603 38 C 566 10 516 -5 453 -10 C 431 -44 416 -73 408 -96 C 400 -118 397 -143 397 -170 C 397 -201 402 -222 412 -233 C 422 -244 444 -250 477 -250 L 489 -250 L 489 -391 L 436 -391 Z" unicode="Ų" />
<glyph horiz-adv-x="696" d="M 406 -391 C 333 -391 282 -377 252 -349 C 222 -321 207 -270 207 -195 C 207 -121 228 -58 270 -6 C 212 0 167 14 135 38 C 102 62 78 97 64 143 C 50 189 43 259 43 354 L 43 1159 L 289 1159 L 289 375 C 289 299 292 253 300 237 C 308 221 325 213 352 213 C 378 213 394 221 401 239 C 408 257 412 303 412 377 L 412 1159 L 651 1159 L 651 354 C 651 255 643 183 629 139 C 615 94 591 60 558 37 C 524 13 479 0 422 -6 C 403 -36 389 -63 380 -87 C 371 -111 367 -139 367 -170 C 367 -201 372 -222 382 -233 C 392 -244 414 -250 446 -250 L 459 -250 L 459 -391 L 406 -391 Z" unicode="ų" />
<glyph horiz-adv-x="702" d="M 0 1518 L 262 1518 L 354 920 L 449 1518 L 702 1518 L 477 463 L 477 0 L 223 0 L 223 472 L 0 1518 Z M 116 1833 L 321 1833 L 321 1579 L 116 1579 L 116 1833 Z M 381 1833 L 585 1833 L 585 1579 L 381 1579 L 381 1833 Z" unicode="Ÿ" />
<glyph horiz-adv-x="618" d="M 266 1856 L 542 1856 L 376 1579 L 176 1579 L 266 1856 Z M 16 195 L 322 1270 L 33 1270 L 33 1518 L 590 1518 L 590 1298 L 289 236 L 602 236 L 602 0 L 16 0 L 16 195 Z" unicode="Ź" />
<glyph horiz-adv-x="522" d="M 222 1526 L 498 1526 L 332 1249 L 132 1249 L 222 1526 Z M 2 160 L 244 932 L 18 932 L 18 1159 L 512 1159 L 512 995 L 264 207 L 520 207 L 520 0 L 2 0 L 2 160 Z" unicode="ź" />
<glyph horiz-adv-x="618" d="M 16 195 L 322 1270 L 33 1270 L 33 1518 L 590 1518 L 590 1298 L 289 236 L 602 236 L 602 0 L 16 0 L 16 195 Z M 184 1856 L 432 1856 L 432 1581 L 184 1581 L 184 1856 Z" unicode="Ż" />
<glyph horiz-adv-x="522" d="M 2 160 L 244 932 L 18 932 L 18 1159 L 512 1159 L 512 995 L 264 207 L 520 207 L 520 0 L 2 0 L 2 160 Z M 140 1526 L 388 1526 L 388 1251 L 140 1251 L 140 1526 Z" unicode="ż" />
<glyph horiz-adv-x="618" d="M 51 1862 L 247 1862 L 309 1747 L 370 1862 L 563 1862 L 432 1579 L 182 1579 L 51 1862 Z M 16 195 L 322 1270 L 33 1270 L 33 1518 L 590 1518 L 590 1298 L 289 236 L 602 236 L 602 0 L 16 0 L 16 195 Z" unicode="Ž" />
<glyph horiz-adv-x="522" d="M 7 1532 L 203 1532 L 265 1417 L 326 1532 L 519 1532 L 388 1249 L 138 1249 L 7 1532 Z M 2 160 L 244 932 L 18 932 L 18 1159 L 512 1159 L 512 995 L 264 207 L 520 207 L 520 0 L 2 0 L 2 160 Z" unicode="ž" />
<glyph horiz-adv-x="694" d="M 98 942 L 208 942 L 233 1233 C 241 1313 255 1372 276 1410 C 296 1448 327 1476 367 1493 C 407 1509 464 1518 537 1518 C 562 1518 583 1516 600 1513 L 600 1274 L 559 1274 C 527 1274 506 1268 496 1258 C 486 1248 480 1228 479 1200 L 457 942 L 600 942 L 600 717 L 437 717 L 350 -297 L 104 -297 L 189 717 L 98 717 L 98 942 Z" unicode="ƒ" />
<glyph horiz-adv-x="623" d="M 199 -446 C 237 -417 261 -396 269 -383 C 277 -370 281 -350 281 -322 L 199 -322 L 199 -57 L 420 -57 L 420 -238 C 420 -306 416 -357 408 -389 C 400 -421 387 -449 367 -473 C 347 -496 315 -521 270 -549 L 199 -446 Z M 256 -14 C 166 -14 86 -6 14 8 L 70 244 C 92 238 120 234 154 230 C 188 226 218 225 242 225 C 306 225 338 249 338 298 C 338 323 330 356 315 397 L 80 1026 C 53 1096 40 1163 40 1227 C 40 1324 68 1399 124 1451 C 180 1503 263 1530 371 1530 C 451 1530 516 1525 565 1516 L 506 1268 C 479 1274 441 1278 391 1278 C 325 1278 292 1250 292 1196 C 292 1172 298 1144 311 1110 L 530 524 C 566 424 585 338 585 265 C 585 172 557 102 501 56 C 445 9 363 -14 256 -14 Z" unicode="Ș" />
<glyph horiz-adv-x="532" d="M 154 -446 C 192 -417 216 -396 224 -383 C 232 -370 236 -350 236 -322 L 154 -322 L 154 -57 L 375 -57 L 375 -238 C 375 -306 371 -357 363 -389 C 355 -421 342 -449 322 -473 C 302 -496 270 -521 225 -549 L 154 -446 Z M 223 -12 C 137 -12 64 -6 4 6 L 57 225 C 101 217 142 213 178 213 C 228 213 253 234 253 277 C 253 293 248 312 240 334 L 74 713 C 43 784 28 852 28 916 C 28 998 53 1061 103 1106 C 153 1151 223 1174 313 1174 C 383 1174 441 1168 489 1157 L 436 922 C 408 930 376 934 340 934 C 300 934 280 916 280 881 C 280 864 285 844 295 821 L 455 451 C 487 376 503 305 503 239 C 503 157 478 95 429 52 C 380 9 311 -12 223 -12 Z" unicode="ș" />
<glyph horiz-adv-x="631" d="M 205 -446 C 243 -417 267 -396 275 -383 C 283 -370 287 -350 287 -322 L 205 -322 L 205 -57 L 426 -57 L 426 -238 C 426 -306 422 -357 414 -389 C 406 -421 393 -449 373 -473 C 353 -496 321 -521 276 -549 L 205 -446 Z M 184 1274 L 12 1274 L 12 1518 L 618 1518 L 618 1274 L 440 1274 L 440 0 L 184 0 L 184 1274 Z" unicode="Ț" />
<glyph horiz-adv-x="492" d="M 131 -446 C 169 -417 193 -396 201 -383 C 209 -370 213 -350 213 -322 L 131 -322 L 131 -57 L 352 -57 L 352 -238 C 352 -306 348 -357 340 -389 C 332 -421 319 -449 299 -473 C 279 -496 247 -521 202 -549 L 131 -446 Z M 358 -4 C 295 -4 245 5 208 23 C 171 41 144 68 128 105 C 112 142 104 199 104 276 L 104 932 L 12 932 L 12 1159 L 117 1159 L 145 1393 L 350 1450 L 350 1159 L 467 1159 L 467 932 L 350 932 L 350 299 C 350 274 353 257 360 247 C 367 237 382 233 406 233 L 467 233 L 467 0 C 455 -2 425 -4 379 -4 L 358 -4 Z" unicode="ț" />
<glyph horiz-adv-x="588" d="M 168 1526 L 418 1526 L 549 1249 L 352 1249 L 289 1364 L 229 1249 L 37 1249 L 168 1526 Z" unicode="ˆ" />
<glyph horiz-adv-x="588" d="M 37 1532 L 233 1532 L 295 1417 L 356 1532 L 549 1532 L 418 1249 L 168 1249 L 37 1532 Z" unicode="ˇ" />
<glyph horiz-adv-x="588" d="M 293 1245 C 228 1245 179 1254 146 1272 C 113 1290 90 1319 76 1361 C 62 1402 55 1466 55 1554 L 225 1554 C 225 1510 227 1480 231 1464 C 235 1448 242 1437 252 1430 C 261 1422 275 1419 293 1419 C 319 1419 337 1427 347 1443 C 357 1459 362 1497 362 1556 L 532 1556 C 532 1468 525 1402 511 1360 C 497 1318 473 1288 441 1271 C 408 1253 359 1245 293 1245 Z" unicode="˘" />
<glyph horiz-adv-x="588" d="M 170 1526 L 418 1526 L 418 1251 L 170 1251 L 170 1526 Z" unicode="˙" />
<glyph horiz-adv-x="588" d="M 293 1245 C 251 1245 219 1251 195 1265 C 171 1278 153 1298 143 1326 C 132 1354 127 1396 127 1454 C 127 1512 132 1554 143 1582 C 153 1610 170 1631 194 1645 C 218 1659 251 1667 293 1667 C 335 1667 368 1659 392 1645 C 416 1631 434 1610 445 1582 C 455 1554 461 1512 461 1454 C 461 1395 455 1352 444 1325 C 433 1298 415 1278 391 1265 C 367 1251 334 1245 293 1245 Z M 293 1354 C 312 1354 325 1359 332 1371 C 338 1383 342 1409 342 1450 C 342 1486 339 1512 334 1528 C 329 1544 315 1552 293 1552 C 275 1552 263 1546 256 1535 C 249 1524 246 1496 246 1450 C 246 1407 249 1380 255 1370 C 261 1359 273 1354 293 1354 Z" unicode="˚" />
<glyph horiz-adv-x="588" d="M 352 -391 C 280 -391 229 -377 199 -349 C 169 -321 154 -270 154 -195 C 154 -148 162 -107 179 -72 C 195 -36 214 -8 236 12 L 383 12 C 353 -32 334 -67 326 -92 C 317 -117 313 -143 313 -170 C 313 -201 318 -222 328 -233 C 338 -244 360 -250 393 -250 L 406 -250 L 406 -391 L 352 -391 Z" unicode="˛" />
<glyph horiz-adv-x="588" d="M 29 1249 L 28 1288 C 28 1338 32 1377 41 1407 C 50 1437 64 1458 84 1472 C 103 1486 133 1493 174 1493 C 189 1493 205 1490 223 1485 C 240 1479 257 1473 273 1467 C 289 1461 304 1455 318 1450 C 331 1444 342 1442 350 1442 C 361 1442 369 1445 375 1453 C 380 1460 383 1473 383 1493 L 559 1493 L 559 1464 C 559 1410 554 1367 546 1337 C 538 1307 524 1284 505 1270 C 485 1256 454 1249 412 1249 C 388 1249 354 1257 312 1275 C 269 1291 244 1300 236 1300 C 214 1300 203 1283 203 1249 L 29 1249 Z" unicode="˜" />
<glyph horiz-adv-x="588" d="M 94 1532 L 340 1532 L 231 1249 L 49 1249 L 94 1532 Z M 389 1532 L 635 1532 L 528 1249 L 344 1249 L 389 1532 Z" unicode="˝" />
<glyph horiz-adv-x="588" d="M 55 1481 L 530 1481 L 530 1251 L 55 1251 L 55 1481 Z" unicode="̄" />
<glyph horiz-adv-x="373" d="M 76 -446 C 114 -417 138 -396 146 -383 C 154 -370 158 -350 158 -322 L 76 -322 L 76 -57 L 297 -57 L 297 -238 C 297 -306 293 -357 285 -389 C 277 -421 264 -449 244 -473 C 224 -496 192 -521 147 -549 L 76 -446 Z" unicode="̦" />
<glyph horiz-adv-x="1536" d="M 76 0 L 652 1536 L 884 1536 L 1456 0 L 76 0 Z M 352 148 L 1164 148 L 752 1256 L 352 148 Z" unicode="Δ" />
<glyph horiz-adv-x="1664" d="M 832 1376 C 706 1376 599 1328 510 1234 C 420 1139 376 1006 376 836 C 376 673 405 538 464 432 C 522 325 609 241 724 180 L 724 0 L 88 0 L 88 196 L 536 196 C 456 225 378 295 304 406 C 229 516 192 664 192 848 C 192 1024 247 1184 358 1330 C 468 1475 626 1548 832 1548 C 1037 1548 1195 1478 1306 1338 C 1416 1198 1472 1034 1472 848 C 1472 664 1434 516 1360 406 C 1285 295 1208 225 1128 196 L 1576 196 L 1576 0 L 940 0 L 940 180 C 1054 241 1141 325 1200 432 C 1258 538 1288 673 1288 836 C 1288 974 1246 1099 1162 1210 C 1078 1320 968 1376 832 1376 Z" unicode="Ω" />
<glyph horiz-adv-x="696" d="M 45 1159 L 291 1159 L 291 389 C 291 309 294 259 302 241 C 310 222 326 213 352 213 C 377 213 393 223 401 243 C 408 263 412 311 412 389 L 412 1159 L 653 1159 L 653 358 C 653 264 648 197 639 158 C 629 119 614 88 593 65 C 572 41 542 23 502 10 C 462 -3 412 -10 350 -10 C 325 -10 305 -4 291 6 L 291 -297 L 45 -297 L 45 1159 Z" unicode="μ" />
<glyph horiz-adv-x="1408" d="M 296 0 L 296 1028 L 12 1028 L 12 1176 L 1316 1176 L 1316 1028 L 996 1028 L 996 344 C 996 266 1011 213 1042 184 C 1072 154 1109 140 1152 140 C 1184 140 1210 140 1232 142 C 1253 143 1274 148 1296 156 L 1296 28 C 1264 12 1234 0 1206 -6 C 1178 -12 1138 -16 1088 -16 C 1002 -16 935 10 886 64 C 836 117 812 208 812 336 L 812 1028 L 484 1028 L 484 0 L 296 0 Z" unicode="π" />
<glyph horiz-adv-x="756" d="M 33 811 L 723 811 L 723 569 L 33 569 L 33 811 Z" unicode="–" />
<glyph horiz-adv-x="969" d="M 33 811 L 936 811 L 936 569 L 33 569 L 33 811 Z" unicode="—" />
<glyph horiz-adv-x="373" d="M 51 1151 C 51 1231 55 1291 64 1331 C 73 1371 88 1405 110 1433 C 132 1461 173 1494 233 1534 L 319 1407 C 274 1370 248 1346 240 1336 C 232 1325 226 1314 224 1303 C 222 1291 221 1276 221 1257 L 322 1257 L 322 909 L 51 909 L 51 1151 Z" unicode="‘" />
<glyph horiz-adv-x="373" d="M 53 1020 C 101 1058 130 1084 139 1098 C 147 1112 152 1136 152 1169 L 51 1169 L 51 1518 L 322 1518 L 322 1274 C 322 1194 317 1134 308 1094 C 299 1054 284 1021 262 993 C 240 965 199 931 139 893 L 53 1020 Z" unicode="’" />
<glyph horiz-adv-x="373" d="M 53 -150 C 98 -112 125 -88 133 -78 C 141 -67 147 -56 149 -44 C 151 -32 152 -17 152 0 L 51 0 L 51 348 L 322 348 L 322 106 C 322 24 317 -36 308 -76 C 298 -116 282 -150 259 -179 C 235 -207 195 -240 139 -276 L 53 -150 Z" unicode="‚" />
<glyph horiz-adv-x="690" d="M 51 1151 C 51 1232 55 1292 64 1330 C 72 1368 87 1401 109 1428 C 131 1455 171 1488 229 1526 L 311 1407 C 266 1370 240 1346 232 1336 C 224 1325 218 1314 216 1303 C 214 1291 213 1276 213 1257 L 313 1257 L 313 909 L 51 909 L 51 1151 Z M 377 1151 C 377 1235 381 1296 390 1334 C 398 1371 414 1403 436 1430 C 458 1457 497 1489 555 1526 L 637 1407 C 592 1370 566 1346 558 1336 C 550 1325 544 1314 542 1303 C 540 1291 539 1276 539 1257 L 639 1257 L 639 909 L 377 909 L 377 1151 Z" unicode="“" />
<glyph horiz-adv-x="690" d="M 53 1020 C 101 1058 130 1084 139 1098 C 147 1112 152 1136 152 1169 L 51 1169 L 51 1518 L 313 1518 L 313 1274 C 313 1190 308 1129 300 1092 C 292 1054 277 1022 255 996 C 233 970 193 938 135 901 L 53 1020 Z M 379 1020 C 428 1058 457 1085 465 1099 C 473 1113 477 1137 477 1169 L 377 1169 L 377 1518 L 639 1518 L 639 1274 C 639 1193 634 1133 626 1095 C 618 1057 603 1024 582 998 C 560 971 520 939 461 901 L 379 1020 Z" unicode="”" />
<glyph horiz-adv-x="690" d="M 53 -150 C 98 -112 125 -88 133 -78 C 141 -67 147 -56 149 -44 C 151 -32 152 -17 152 0 L 51 0 L 51 348 L 313 348 L 313 106 C 313 22 308 -38 300 -76 C 292 -114 277 -146 255 -172 C 233 -198 193 -230 135 -268 L 53 -150 Z M 379 -150 C 423 -113 450 -89 458 -79 C 466 -68 471 -57 473 -46 C 475 -34 477 -19 477 0 L 377 0 L 377 348 L 639 348 L 639 106 C 639 25 634 -34 626 -73 C 618 -111 603 -144 582 -171 C 560 -197 520 -230 461 -268 L 379 -150 Z" unicode="„" />
<glyph horiz-adv-x="678" d="M 43 1122 L 217 1122 L 217 1548 L 461 1548 L 461 1122 L 635 1122 L 635 877 L 461 877 L 461 -297 L 217 -297 L 217 877 L 43 877 L 43 1122 Z" unicode="†" />
<glyph horiz-adv-x="678" d="M 217 127 L 43 127 L 43 373 L 217 373 L 217 877 L 43 877 L 43 1122 L 217 1122 L 217 1548 L 461 1548 L 461 1122 L 635 1122 L 635 877 L 461 877 L 461 373 L 635 373 L 635 127 L 461 127 L 461 -299 L 217 -299 L 217 127 Z" unicode="‡" />
<glyph horiz-adv-x="467" d="M 86 850 L 381 850 L 381 395 L 86 395 L 86 850 Z" unicode="•" />
<glyph horiz-adv-x="1077" d="M 51 328 L 322 328 L 322 0 L 51 0 L 51 328 Z M 406 328 L 674 328 L 674 0 L 406 0 L 406 328 Z M 758 328 L 1024 328 L 1024 0 L 758 0 L 758 328 Z" unicode="…" />
<glyph horiz-adv-x="1954" d="M 291 547 C 242 547 200 553 164 565 C 128 577 101 597 82 627 C 62 657 49 699 42 753 C 34 807 31 903 31 1040 C 31 1184 34 1280 42 1329 C 49 1377 61 1416 79 1444 C 97 1472 124 1494 161 1508 C 198 1522 241 1530 291 1530 C 341 1530 384 1522 421 1508 C 458 1493 485 1470 503 1440 C 521 1409 533 1368 540 1316 C 547 1264 551 1172 551 1040 C 551 901 547 806 539 754 C 531 702 518 661 499 631 C 480 600 452 578 416 566 C 380 553 338 547 291 547 Z M 1106 -8 C 1058 -8 1017 -2 983 9 C 949 20 922 40 902 68 C 882 96 868 138 859 192 C 850 246 846 344 846 485 C 846 629 850 725 858 774 C 866 823 879 862 897 891 C 915 919 943 940 979 954 C 1015 968 1057 975 1106 975 C 1156 975 1200 968 1236 954 C 1272 940 1299 920 1317 892 C 1334 864 1346 826 1354 778 C 1362 730 1366 633 1366 485 C 1366 360 1364 276 1360 234 C 1356 191 1349 155 1339 126 C 1329 97 1315 72 1297 52 C 1279 31 1252 16 1218 6 C 1184 -3 1146 -8 1106 -8 Z M 1663 -8 C 1614 -8 1572 -2 1537 10 C 1501 22 1474 42 1456 70 C 1438 98 1424 138 1416 189 C 1407 240 1403 339 1403 485 C 1403 630 1407 727 1415 777 C 1423 826 1437 865 1456 894 C 1474 922 1502 943 1538 956 C 1574 968 1616 975 1663 975 C 1715 975 1759 967 1796 953 C 1832 939 1859 917 1876 887 C 1892 857 1904 817 1912 766 C 1919 715 1923 621 1923 485 C 1923 342 1918 244 1910 192 C 1902 140 1888 99 1869 71 C 1849 42 1822 22 1787 10 C 1752 -2 1711 -8 1663 -8 Z M 291 745 C 305 745 314 750 319 762 C 323 773 327 793 329 823 C 331 853 332 924 332 1036 C 332 1140 331 1208 329 1238 C 327 1268 323 1289 319 1303 C 314 1316 305 1323 291 1323 C 277 1323 267 1317 262 1305 C 256 1293 253 1273 251 1245 C 249 1216 248 1146 248 1036 C 248 926 249 856 251 826 C 253 796 256 775 262 763 C 267 751 277 745 291 745 Z M 1106 190 C 1120 190 1130 196 1135 208 C 1140 220 1144 242 1146 273 C 1148 303 1149 373 1149 481 C 1149 588 1148 657 1146 687 C 1144 717 1140 738 1135 750 C 1129 762 1120 768 1106 768 C 1092 768 1083 762 1078 752 C 1073 741 1070 722 1068 694 C 1066 666 1065 595 1065 481 C 1065 376 1066 307 1068 275 C 1070 243 1073 220 1078 208 C 1082 196 1092 190 1106 190 Z M 1663 190 C 1677 190 1687 196 1692 208 C 1697 220 1701 242 1703 273 C 1705 303 1706 373 1706 481 C 1706 588 1705 657 1703 687 C 1701 717 1697 738 1692 750 C 1686 762 1677 768 1663 768 C 1649 768 1640 762 1635 752 C 1630 741 1627 722 1625 694 C 1623 666 1622 595 1622 481 C 1622 376 1623 307 1625 275 C 1627 243 1630 220 1635 208 C 1639 196 1649 190 1663 190 Z M 784 1518 L 1010 1518 L 610 0 L 385 0 L 784 1518 Z" unicode="‰" />
<glyph horiz-adv-x="514" d="M 55 578 L 205 1159 L 432 1159 L 297 578 L 432 0 L 205 0 L 55 578 Z" unicode="‹" />
<glyph horiz-adv-x="514" d="M 217 580 L 82 1159 L 307 1159 L 459 580 L 307 0 L 82 0 L 217 580 Z" unicode="›" />
<glyph horiz-adv-x="639" d="M 414 1518 L 639 1518 L 225 0 L 0 0 L 414 1518 Z" unicode="⁄" />
<glyph horiz-adv-x="715" d="M 25 717 L 143 717 L 143 799 L 25 799 L 25 991 L 143 991 L 144 1011 C 145 1159 156 1269 176 1339 C 196 1409 229 1459 275 1487 C 321 1515 391 1530 485 1530 C 520 1530 555 1527 591 1523 C 626 1519 650 1515 662 1511 L 610 1272 C 566 1280 528 1284 498 1284 C 463 1284 439 1275 426 1258 C 412 1241 403 1210 398 1165 C 392 1119 389 1061 389 991 L 582 991 L 582 799 L 389 799 L 389 717 L 582 717 L 582 524 L 389 524 C 390 441 393 378 399 336 C 405 294 415 265 429 250 C 443 234 468 227 504 227 C 514 227 532 228 556 232 C 580 235 600 239 616 244 L 670 27 C 600 5 537 -6 483 -6 C 384 -6 313 8 269 38 C 225 67 193 117 174 188 C 155 258 145 365 144 508 L 143 524 L 25 524 L 25 717 Z" unicode="€" />
<glyph horiz-adv-x="1094" d="M 135 1346 L 18 1346 L 18 1518 L 436 1518 L 436 1346 L 315 1346 L 315 592 L 135 592 L 135 1346 Z M 467 1518 L 680 1518 L 735 1122 L 750 973 L 764 1120 L 817 1518 L 1032 1518 L 1032 592 L 866 592 L 866 1204 L 850 1018 L 801 592 L 688 592 L 635 1024 L 621 1206 L 621 592 L 467 592 L 467 1518 Z" unicode="™" />
<glyph horiz-adv-x="1664" d="M 832 1376 C 706 1376 599 1328 510 1234 C 420 1139 376 1006 376 836 C 376 673 405 538 464 432 C 522 325 609 241 724 180 L 724 0 L 88 0 L 88 196 L 536 196 C 456 225 378 295 304 406 C 229 516 192 664 192 848 C 192 1024 247 1184 358 1330 C 468 1475 626 1548 832 1548 C 1037 1548 1195 1478 1306 1338 C 1416 1198 1472 1034 1472 848 C 1472 664 1434 516 1360 406 C 1285 295 1208 225 1128 196 L 1576 196 L 1576 0 L 940 0 L 940 180 C 1054 241 1141 325 1200 432 C 1258 538 1288 673 1288 836 C 1288 974 1246 1099 1162 1210 C 1078 1320 968 1376 832 1376 Z" unicode="Ω" />
<glyph horiz-adv-x="1280" d="M 476 -32 C 342 -32 239 5 166 80 C 92 154 56 248 56 360 C 56 506 108 636 214 750 C 319 863 449 920 604 920 C 668 920 734 908 802 886 C 870 863 924 840 964 816 C 972 872 976 928 976 984 C 976 1109 953 1207 908 1278 C 862 1348 800 1384 720 1384 C 634 1384 567 1374 518 1356 C 468 1337 418 1312 368 1280 L 324 1444 C 374 1473 430 1498 492 1518 C 553 1538 629 1548 720 1548 C 877 1548 992 1496 1064 1394 C 1136 1291 1172 1149 1172 968 C 1172 690 1104 454 968 260 C 832 65 668 -32 476 -32 Z M 488 128 C 716 128 868 313 944 684 C 922 705 882 726 824 748 C 765 769 706 780 648 780 C 520 780 424 738 360 654 C 296 570 264 476 264 372 C 264 300 282 241 318 196 C 354 150 410 128 488 128 Z" unicode="∂" />
<glyph horiz-adv-x="1536" d="M 76 0 L 652 1536 L 884 1536 L 1456 0 L 76 0 Z M 352 148 L 1164 148 L 752 1256 L 352 148 Z" unicode="∆" />
<glyph horiz-adv-x="1536" d="M 332 0 L 332 1348 L 80 1348 L 80 1524 L 1456 1524 L 1456 1348 L 1212 1348 L 1212 0 L 1004 0 L 1004 1356 L 540 1356 L 540 0 L 332 0 Z" unicode="∏" />
<glyph horiz-adv-x="1152" d="M 1084 1524 L 1084 1344 L 332 1344 L 796 784 L 304 188 L 1080 188 L 1080 0 L 40 0 L 40 172 L 560 788 L 68 1380 L 68 1524 L 1084 1524 Z" unicode="∑" />
<glyph horiz-adv-x="778" d="M 88 850 L 688 850 L 688 608 L 88 608 L 88 850 Z" unicode="−" />
<glyph horiz-adv-x="639" d="M 414 1518 L 639 1518 L 225 0 L 0 0 L 414 1518 Z" unicode="∕" />
<glyph horiz-adv-x="373" d="M 51 922 L 322 922 L 322 592 L 51 592 L 51 922 Z" unicode="∙" />
<glyph horiz-adv-x="743" d="M 20 918 L 276 918 L 330 395 L 485 1518 L 729 1518 L 451 -10 L 197 -10 L 20 918 Z" unicode="√" />
<glyph horiz-adv-x="1053" d="M 287 348 C 211 348 153 378 113 439 C 73 499 53 588 53 705 C 53 822 73 911 113 972 C 153 1032 211 1063 287 1063 C 331 1063 373 1049 412 1023 C 450 996 488 953 526 893 C 565 954 604 998 642 1024 C 680 1050 722 1063 768 1063 C 848 1063 906 1032 943 972 C 980 912 999 823 999 705 C 999 587 980 498 942 438 C 904 378 846 348 768 348 C 721 348 678 361 639 389 C 600 417 562 460 526 518 C 458 404 378 348 287 348 Z M 334 580 C 352 580 370 592 386 616 C 402 640 419 669 436 705 C 397 789 363 831 334 831 C 288 831 266 789 266 705 C 266 621 288 580 334 580 Z M 717 580 C 763 580 786 621 786 705 C 786 789 763 831 717 831 C 701 831 686 821 670 802 C 654 782 636 750 616 705 C 652 621 685 580 717 580 Z" unicode="∞" />
<glyph horiz-adv-x="1152" d="M -8 -392 L 56 -260 C 96 -273 132 -280 164 -280 C 196 -280 222 -268 242 -246 C 262 -223 277 -178 288 -112 L 516 1224 C 553 1437 674 1544 880 1544 C 941 1544 995 1536 1042 1522 C 1088 1507 1125 1492 1152 1476 L 1088 1304 C 1008 1354 935 1380 868 1380 C 806 1380 760 1360 730 1322 C 699 1283 680 1238 672 1188 L 448 -224 C 434 -296 402 -348 350 -382 C 298 -415 240 -432 176 -432 C 136 -432 99 -428 66 -420 C 32 -412 8 -402 -8 -392 Z" unicode="∫" />
<glyph horiz-adv-x="1536" d="M 236 400 C 230 429 228 456 228 480 C 228 546 248 604 288 652 C 328 700 390 724 476 724 C 542 724 600 714 650 696 C 699 677 745 659 788 642 C 830 624 872 610 912 598 C 952 586 988 580 1020 580 C 1070 580 1106 590 1128 610 C 1149 630 1160 654 1160 684 L 1156 716 L 1300 716 C 1305 686 1308 660 1308 636 C 1308 569 1288 512 1248 464 C 1208 416 1145 392 1060 392 C 993 392 935 400 886 418 C 836 435 790 452 748 470 C 705 487 664 501 624 512 C 584 522 548 528 516 528 C 465 528 429 518 408 500 C 386 481 376 458 376 432 L 380 400 L 236 400 Z M 236 860 C 230 889 228 916 228 940 C 228 1006 248 1064 288 1112 C 328 1160 390 1184 476 1184 C 542 1184 600 1174 650 1156 C 699 1137 745 1119 788 1102 C 830 1084 872 1070 912 1058 C 952 1046 988 1040 1020 1040 C 1070 1040 1106 1050 1128 1070 C 1149 1090 1160 1114 1160 1144 L 1156 1176 L 1300 1176 C 1305 1146 1308 1120 1308 1096 C 1308 1029 1288 972 1248 924 C 1208 876 1145 852 1060 852 C 993 852 935 860 886 878 C 836 895 790 912 748 930 C 705 947 664 961 624 972 C 584 982 548 988 516 988 C 465 988 429 978 408 960 C 386 941 376 918 376 892 L 380 860 L 236 860 Z" unicode="≈" />
<glyph horiz-adv-x="780" d="M 242 403 L 94 403 L 94 643 L 289 643 L 313 801 L 94 801 L 94 1042 L 344 1042 L 375 1237 L 569 1237 L 537 1042 L 686 1042 L 686 801 L 489 801 L 465 643 L 686 643 L 686 403 L 436 403 L 406 209 L 211 209 L 242 403 Z" unicode="≠" />
<glyph horiz-adv-x="778" d="M 111 315 L 529 315 L 111 631 L 111 809 L 623 1196 L 623 922 L 365 721 L 623 520 L 623 72 L 111 72 L 111 315 Z" unicode="≤" />
<glyph horiz-adv-x="778" d="M 156 518 L 414 719 L 156 920 L 156 1196 L 666 809 L 666 631 L 249 315 L 668 315 L 668 72 L 156 72 L 156 518 Z" unicode="≥" />
<glyph horiz-adv-x="684" d="M 4 760 L 246 1518 L 440 1518 L 680 760 L 440 0 L 246 0 L 4 760 Z M 457 754 L 342 1180 L 229 762 L 344 338 L 457 754 Z" unicode="◊" />
<glyph horiz-adv-x="1704" d="M 338 1356 C 406 1418 484 1467 572 1502 C 659 1536 752 1554 852 1554 C 951 1554 1045 1536 1133 1501 C 1221 1466 1299 1418 1368 1356 L 1354 1339 C 1287 1399 1211 1447 1125 1482 C 1039 1516 948 1534 852 1534 C 754 1534 663 1516 579 1482 C 494 1447 418 1399 352 1339 L 338 1356 Z M 852 -35 C 752 -35 659 -17 571 18 C 483 53 404 102 336 164 L 350 180 C 416 119 492 71 578 37 C 663 3 754 -14 852 -14 C 948 -14 1039 3 1124 37 C 1209 71 1285 118 1352 178 L 1359 172 L 1366 164 C 1297 101 1219 52 1132 17 C 1044 -17 951 -35 852 -35 Z M 1430 260 C 1550 404 1610 570 1610 760 C 1610 948 1550 1114 1430 1260 L 1446 1274 C 1504 1205 1549 1127 1581 1039 C 1613 951 1630 858 1630 760 C 1630 662 1613 569 1581 482 C 1549 394 1504 316 1446 246 L 1430 260 Z M 258 246 C 200 314 154 392 122 480 C 90 567 74 660 74 760 C 74 857 90 949 122 1037 C 154 1125 200 1203 258 1272 L 262 1269 L 272 1260 C 153 1112 94 946 94 760 C 94 570 154 404 274 260 L 258 246 Z M 852 123 C 692 123 555 175 440 281 L 447 289 L 455 295 C 569 193 701 143 852 143 C 928 143 1000 156 1068 183 C 1135 210 1195 247 1247 295 L 1262 279 C 1207 230 1145 192 1075 164 C 1005 136 931 123 852 123 Z M 1249 1223 C 1197 1271 1137 1308 1069 1335 C 1001 1362 929 1376 852 1376 C 700 1376 568 1325 455 1225 L 440 1239 C 559 1344 696 1397 852 1397 C 1007 1397 1144 1344 1264 1239 L 1249 1223 Z M 375 348 C 276 469 227 606 227 760 C 227 838 240 911 266 981 C 292 1051 327 1113 373 1169 L 389 1155 C 345 1101 310 1041 285 973 C 260 905 248 834 248 760 C 248 610 295 477 389 362 L 375 348 Z M 1329 350 L 1315 362 C 1409 478 1456 611 1456 760 C 1456 911 1408 1043 1313 1155 L 1329 1169 C 1375 1113 1411 1051 1437 981 C 1463 911 1477 838 1477 760 C 1477 606 1427 470 1329 350 Z M 1167 1130 C 1077 1210 972 1251 852 1251 C 733 1251 629 1211 539 1133 L 524 1147 C 617 1230 726 1272 852 1272 C 978 1272 1088 1230 1182 1147 L 1167 1130 Z M 852 248 C 725 248 615 289 522 373 L 537 389 C 626 308 731 268 852 268 C 972 268 1077 308 1165 389 L 1180 373 C 1088 289 978 248 852 248 Z M 1237 432 L 1221 446 C 1295 536 1333 640 1333 760 C 1333 881 1295 985 1221 1073 L 1237 1087 C 1315 995 1354 886 1354 760 C 1354 633 1315 524 1237 432 Z M 467 432 C 389 527 350 636 350 760 C 350 881 388 990 465 1087 L 481 1073 C 407 982 371 878 371 760 C 371 639 407 534 481 446 L 467 432 Z M 852 348 C 753 348 665 381 588 449 L 602 463 C 673 400 756 369 852 369 C 948 369 1030 400 1100 463 L 1114 446 C 1038 380 951 348 852 348 Z M 1163 498 L 1147 512 C 1205 583 1235 666 1235 760 C 1235 854 1205 936 1147 1008 L 1163 1022 C 1224 946 1255 859 1255 760 C 1255 660 1224 573 1163 498 Z M 541 498 C 479 573 449 660 449 760 C 449 859 479 946 541 1022 L 557 1008 C 498 936 469 854 469 760 C 469 666 498 583 557 512 L 541 498 Z M 590 1073 C 662 1138 749 1171 852 1171 C 953 1171 1040 1137 1114 1071 L 1109 1064 L 1102 1057 C 1030 1119 947 1151 852 1151 C 756 1151 673 1119 604 1057 L 590 1073 Z M 1106 551 L 1090 565 C 1134 624 1157 689 1157 760 C 1157 831 1133 896 1087 954 L 1104 969 C 1153 907 1178 837 1178 760 C 1178 681 1154 611 1106 551 Z M 641 1014 C 701 1066 772 1092 852 1092 C 930 1092 1000 1065 1061 1012 L 1049 997 C 991 1046 925 1071 852 1071 C 780 1071 714 1046 655 997 L 641 1014 Z M 852 428 C 775 428 705 454 641 506 L 655 522 C 713 473 779 449 852 449 C 924 449 990 473 1049 522 L 1061 506 C 998 454 928 428 852 428 Z M 598 551 C 550 611 526 681 526 760 C 526 837 550 907 600 969 L 614 954 C 569 896 547 832 547 760 C 547 687 569 622 614 565 L 598 551 Z M 1042 608 C 1076 654 1094 705 1094 760 C 1094 816 1076 867 1040 913 L 1057 928 C 1095 880 1114 824 1114 760 C 1114 695 1095 640 1057 594 L 1042 608 Z M 647 592 C 609 640 590 696 590 760 C 590 824 609 880 647 926 L 662 911 C 627 864 610 814 610 760 C 610 703 628 652 664 606 L 647 592 Z M 852 492 C 786 492 730 512 682 553 L 696 569 C 742 531 794 512 852 512 C 909 512 960 531 1006 569 L 1020 555 C 970 513 914 492 852 492 Z M 684 965 C 733 1007 789 1028 852 1028 C 916 1028 972 1007 1020 967 L 1006 950 C 960 988 908 1008 852 1008 C 793 1008 742 988 698 950 L 684 965 Z M 733 911 L 717 928 C 757 960 802 977 852 977 C 902 977 947 960 987 928 L 971 911 C 937 941 897 956 852 956 C 806 956 767 941 733 911 Z M 684 627 C 655 667 641 711 641 760 C 641 808 655 853 684 893 L 700 879 C 674 843 662 804 662 760 C 662 717 674 678 700 643 L 684 627 Z M 852 543 C 802 543 757 559 717 592 L 731 608 C 767 578 807 563 852 563 C 895 563 935 578 971 608 L 985 592 C 945 559 900 543 852 543 Z M 1020 627 L 1004 641 C 1029 676 1042 716 1042 760 C 1042 804 1029 843 1004 879 L 1018 893 C 1048 855 1063 810 1063 760 C 1063 712 1048 668 1020 627 Z" unicode="" />
<glyph horiz-adv-x="829" d="M 459 932 L 342 932 L 342 0 L 98 0 L 98 932 L 6 932 L 6 1159 L 98 1159 L 98 1268 C 98 1376 117 1450 156 1491 C 195 1531 266 1552 369 1552 C 387 1552 402 1550 416 1548 L 416 1309 L 408 1309 C 384 1309 367 1304 357 1294 C 347 1284 342 1264 342 1235 L 342 1159 L 459 1159 L 459 1268 C 459 1374 481 1447 525 1489 C 569 1531 648 1552 764 1552 L 825 1548 L 825 1309 L 784 1309 C 752 1309 731 1304 721 1294 C 710 1284 705 1264 705 1235 L 705 1159 L 825 1159 L 825 932 L 705 932 L 705 0 L 459 0 L 459 932 Z" unicode="ﬀ" />
<glyph horiz-adv-x="764" d="M 12 1159 L 104 1159 L 104 1268 C 104 1374 123 1448 163 1490 C 202 1531 273 1552 377 1552 C 396 1552 412 1550 424 1548 L 424 1309 L 416 1309 C 392 1309 375 1304 365 1294 C 355 1284 350 1264 350 1235 L 350 1159 L 424 1159 L 424 932 L 350 932 L 350 0 L 104 0 L 104 932 L 12 932 L 12 1159 Z M 467 1159 L 715 1159 L 715 0 L 467 0 L 467 1159 Z M 467 1526 L 715 1526 L 715 1257 L 467 1257 L 467 1526 Z" unicode="ﬁ" />
<glyph horiz-adv-x="803" d="M 12 1159 L 104 1159 L 104 1268 C 104 1374 123 1448 163 1490 C 202 1531 273 1552 377 1552 C 396 1552 412 1550 424 1548 L 424 1309 L 416 1309 C 392 1309 375 1304 365 1294 C 355 1284 350 1264 350 1235 L 350 1159 L 424 1159 L 424 932 L 350 932 L 350 0 L 104 0 L 104 932 L 12 932 L 12 1159 Z M 682 -4 C 627 -4 584 4 554 20 C 524 36 502 61 488 96 C 474 131 467 190 467 272 L 467 1548 L 715 1548 L 715 279 C 715 262 716 250 720 243 C 724 236 733 233 748 233 L 778 233 L 778 0 C 770 -2 743 -4 699 -4 L 682 -4 Z" unicode="ﬂ" />
<glyph horiz-adv-x="1126" d="M 467 932 L 350 932 L 350 0 L 104 0 L 104 932 L 12 932 L 12 1159 L 104 1159 L 104 1268 C 104 1374 123 1448 163 1490 C 202 1531 273 1552 377 1552 C 396 1552 412 1550 424 1548 L 424 1309 L 416 1309 C 392 1309 375 1304 365 1294 C 355 1284 350 1264 350 1235 L 350 1159 L 467 1159 L 467 1268 C 467 1376 486 1450 525 1491 C 564 1531 635 1552 739 1552 C 758 1552 774 1550 786 1548 L 786 1309 L 778 1309 C 754 1309 738 1304 728 1294 C 718 1284 713 1264 713 1235 L 713 1159 L 786 1159 L 786 932 L 713 932 L 713 0 L 467 0 L 467 932 Z M 829 1159 L 1075 1159 L 1075 0 L 829 0 L 829 1159 Z M 829 1526 L 1075 1526 L 1075 1257 L 829 1257 L 829 1526 Z" unicode="ﬃ" />
<glyph horiz-adv-x="1157" d="M 459 932 L 342 932 L 342 0 L 98 0 L 98 932 L 6 932 L 6 1159 L 98 1159 L 98 1268 C 98 1376 117 1450 156 1491 C 195 1531 266 1552 369 1552 C 387 1552 402 1550 416 1548 L 416 1309 L 408 1309 C 384 1309 367 1304 357 1294 C 347 1284 342 1264 342 1235 L 342 1159 L 459 1159 L 459 1268 C 459 1376 478 1450 518 1491 C 557 1531 628 1552 731 1552 C 750 1552 766 1550 778 1548 L 778 1309 L 770 1309 C 746 1309 730 1304 720 1294 C 710 1284 705 1264 705 1235 L 705 1159 L 778 1159 L 778 932 L 705 932 L 705 0 L 459 0 L 459 932 Z M 1036 -4 C 981 -4 938 4 908 20 C 878 36 856 61 842 96 C 828 131 821 190 821 272 L 821 1548 L 1069 1548 L 1069 279 C 1069 262 1070 250 1074 243 C 1078 236 1087 233 1102 233 L 1133 233 L 1133 0 C 1125 -2 1099 -4 1055 -4 L 1036 -4 Z" unicode="ﬄ" />
</font>
</defs>
</svg>
