<?xml version="1.0" encoding="utf-8"?>
<!-- Generator: Adobe Illustrator 27.9.5, SVG Export Plug-In . SVG Version: 9.03 Build 54986)  -->
<svg version="1.1" id="Layer_1" xmlns="http://www.w3.org/2000/svg" xmlns:xlink="http://www.w3.org/1999/xlink" x="0px" y="0px"
	 viewBox="0 0 62.3 62.3" style="enable-background:new 0 0 62.3 62.3;" xml:space="preserve">
<style type="text/css">
	.st0{fill:#5A0722;}
	.st1{fill:#FFFFFF;}
</style>
<g id="youtube">
	<g>
		<circle class="st0" cx="31" cy="31" r="30"/>
		<path class="st1" d="M47.1,22.9c-0.4-1.5-1.5-2.6-3-3C41.5,19.2,31,19.2,31,19.2s-10.5,0-13.1,0.7c-1.4,0.4-2.6,1.5-3,3
			c-0.7,2.6-0.7,8.1-0.7,8.1s0,5.5,0.7,8.1c0.4,1.5,1.5,2.5,3,2.9c2.6,0.7,13.1,0.7,13.1,0.7s10.5,0,13.1-0.7c1.4-0.4,2.6-1.5,3-2.9
			c0.7-2.6,0.7-8.1,0.7-8.1S47.8,25.5,47.1,22.9L47.1,22.9z M27.6,36V26l8.8,5L27.6,36L27.6,36z"/>
	</g>
</g>
<g id="instagram">
</g>
<g id="twitter">
</g>
<g id="linkedin">
</g>
<g id="facebook">
</g>
</svg>
