<?xml version="1.0" encoding="utf-8"?>
<!-- Generator: Adobe Illustrator 27.9.5, SVG Export Plug-In . SVG Version: 9.03 Build 54986)  -->
<svg version="1.1" id="Layer_1" xmlns="http://www.w3.org/2000/svg" xmlns:xlink="http://www.w3.org/1999/xlink" x="0px" y="0px"
	 viewBox="0 0 62.3 62.3" style="enable-background:new 0 0 62.3 62.3;" xml:space="preserve">
<style type="text/css">
	.st0{fill:#5A0722;}
	.st1{fill:#FFFFFF;}
</style>
<g id="linkedin">
	<g>
		<circle class="st0" cx="31" cy="31" r="30"/>
		<path class="st1" d="M23.3,42.2h-5.8V23.5h5.8V42.2z M20.4,20.9c-1.9,0-3.4-1.5-3.4-3.4s1.5-3.4,3.4-3.4s3.4,1.5,3.4,3.4
			C23.7,19.4,22.2,20.9,20.4,20.9z M45,42.2h-5.8v-9.1c0-2.2,0-5-3-5s-3.5,2.4-3.5,4.8v9.3h-5.8V23.5h5.6V26h0.1
			c0.8-1.5,2.7-3,5.5-3c5.9,0,7,3.9,7,8.9L45,42.2L45,42.2z"/>
	</g>
</g>
<g id="facebook">
</g>
</svg>
